# Blender 4.2.3 LTS
# www.blender.org
mtllib CamHead.mtl
o CamHead
v 5.260106 -12.362250 -7.402007
v 5.260108 -12.362248 8.174384
v -5.277510 -12.362250 -7.402005
v -5.277507 -12.362248 8.174384
v -5.774919 -11.964044 -7.402005
v 5.757518 -11.964044 8.174384
v 5.757515 -11.964044 -7.402007
v 5.757515 -3.757086 -7.402006
v 5.757518 -3.757087 8.174383
v -5.774917 -11.964044 8.174384
v -5.774917 -3.757087 8.174383
v -5.774919 -3.757085 -7.402004
v -5.277510 -3.358878 -7.402004
v -5.277507 -3.358880 8.174383
v 5.260108 -3.358880 8.174383
v 5.260106 -3.358879 -7.402006
v 5.054048 -11.963988 8.572646
v 5.260042 -11.799079 8.572646
v -5.071445 -11.963988 8.572646
v 5.054048 -3.757142 8.572645
v -5.277439 -3.922053 8.572645
v -5.277439 -11.799079 8.572646
v 5.260042 -3.922053 8.572645
v -5.071445 -3.757141 8.572645
v -4.990208 -12.116778 -7.868678
v 4.972804 -12.116778 -7.868680
v -5.460494 -11.740287 -7.868678
v -4.292035 -11.520259 -8.300683
v -4.696409 -11.196530 -8.300683
v -5.460494 -3.980843 -7.868679
v -4.696409 -4.524599 -8.300684
v -0.008703 -7.860571 -8.300683
v 4.274630 -11.520259 -8.300683
v 4.274630 -4.200872 -8.300684
v -4.292034 -4.200872 -8.300684
v 4.679003 -11.196530 -8.300685
v 4.679003 -4.524599 -8.300686
v -4.990208 -3.604350 -7.868679
v 4.972804 -3.604350 -7.868680
v 5.443091 -3.980844 -7.868680
v 5.443091 -11.740287 -7.868680
v 4.131796 -4.813338 -8.664429
v 3.749179 -4.900667 -8.664425
v 3.919461 -4.547075 -8.664429
v 3.578899 -4.547075 -8.664427
v 4.056015 -5.145360 -8.664429
v 3.749179 -5.293124 -8.664427
v 3.442344 -5.145360 -8.664427
v 3.366563 -4.813337 -8.664427
v 4.131796 -4.813337 -8.300682
v 3.919461 -4.547075 -8.300682
v 3.578899 -4.547075 -8.300682
v 4.056015 -5.145360 -8.300682
v 3.749179 -5.293125 -8.300682
v 3.442344 -5.145360 -8.300682
v 3.366563 -4.813337 -8.300682
v 1.022027 -5.720238 -9.804181
v -0.008704 -5.484980 -9.804181
v 1.022027 -5.720237 -8.300688
v -0.008703 -5.484979 -8.300688
v 1.848611 -6.379415 -8.300687
v -1.039434 -5.720238 -9.804181
v -1.039433 -5.720237 -8.300688
v -1.866016 -6.379415 -9.804180
v -1.866016 -6.379414 -8.300687
v -2.324735 -7.331954 -9.804180
v -2.324734 -7.331954 -8.300687
v -2.324735 -8.389192 -9.804180
v -2.324734 -8.389192 -8.300687
v -1.866016 -9.341723 -9.804180
v -1.866016 -9.341723 -8.300687
v -1.039434 -10.000897 -9.804180
v -1.039434 -10.000897 -8.300687
v -0.008703 -10.236156 -9.804180
v -0.008703 -10.236156 -8.300687
v 1.848611 -6.379416 -9.804180
v 2.307328 -7.331954 -8.300687
v 2.307328 -7.331954 -9.804180
v 2.307328 -8.389190 -8.300687
v 2.307328 -8.389192 -9.804180
v 1.848611 -9.341723 -8.300687
v 1.848611 -9.341723 -9.804180
v 1.022027 -10.000897 -8.300687
v 1.022027 -10.000897 -9.804180
v -0.008699 -5.281903 -11.024381
v -0.008698 -5.281902 -9.804181
v 1.110138 -5.537271 -11.024381
v 1.110135 -5.537269 -9.804181
v 2.007382 -6.252798 -11.024381
v -1.127540 -5.537269 -9.804181
v -1.127551 -5.537273 -11.024381
v -2.024788 -6.252797 -9.804181
v -2.024789 -6.252797 -11.024381
v -2.522721 -7.286765 -9.804180
v -2.522721 -7.286765 -11.024380
v -2.522721 -8.434381 -9.804180
v -2.522721 -8.434381 -11.024380
v -2.024788 -9.468341 -9.804180
v -2.024789 -9.468341 -11.024380
v -1.127551 -10.183862 -9.804180
v -1.127552 -10.183864 -11.024380
v -0.008703 -10.439231 -9.804180
v -0.008704 -10.439231 -11.024380
v 2.007378 -6.252794 -9.804181
v 2.505315 -7.286765 -11.024380
v 2.505315 -7.286765 -9.804180
v 2.505315 -8.434379 -11.024380
v 2.505315 -8.434381 -9.804180
v 2.007386 -9.468335 -11.024380
v 2.007382 -9.468341 -9.804180
v 1.110148 -10.183860 -11.024380
v 1.110135 -10.183866 -9.804180
v -0.008705 -5.484981 -13.184368
v -0.008705 -5.484980 -11.024381
v 1.022027 -5.720239 -13.184368
v 1.022027 -5.720239 -11.024381
v 1.848609 -6.379416 -13.184367
v -1.039434 -5.720238 -11.024381
v -1.039434 -5.720238 -13.184368
v -1.866016 -6.379415 -11.024380
v -1.866016 -6.379415 -13.184367
v -2.324736 -7.331954 -11.024380
v -2.324735 -7.331954 -13.184367
v -2.324736 -8.389190 -11.024380
v -2.324735 -8.389190 -13.184367
v -1.866016 -9.341723 -11.024380
v -1.866016 -9.341723 -13.184367
v -1.039435 -10.000899 -11.024380
v -1.039435 -10.000897 -13.184367
v -0.008704 -10.236156 -11.024380
v -0.008704 -10.236156 -13.184367
v 1.022027 -10.000897 -11.024380
v 1.022027 -10.000897 -13.184367
v 1.848611 -9.341723 -11.024380
v 1.848609 -9.341723 -13.184367
v 2.307328 -8.389190 -11.024380
v 2.307327 -8.389190 -13.184367
v 2.307328 -7.331954 -11.024380
v 2.307327 -7.331954 -13.184367
v 1.848611 -6.379416 -11.024380
v 0.845282 -6.087252 -13.184368
v -0.008705 -5.892335 -13.184368
v 1.530126 -6.633397 -13.184367
v 1.910186 -7.422599 -13.184367
v 1.910186 -8.298545 -13.184367
v 1.530126 -9.087743 -13.184367
v 0.845282 -9.633885 -13.184367
v -0.008704 -9.828801 -13.184367
v -0.862690 -9.633885 -13.184367
v -1.547534 -9.087745 -13.184367
v -1.927593 -8.298547 -13.184367
v -1.927593 -7.422599 -13.184367
v -1.547534 -6.633396 -13.184367
v -0.862689 -6.087252 -13.184368
v 0.845282 -6.087252 -12.758858
v -0.008705 -5.892336 -12.758858
v 1.530126 -6.633397 -12.758857
v 1.910186 -7.422600 -12.758857
v 1.910186 -8.298545 -12.758857
v 1.530126 -9.087743 -12.758857
v 0.845282 -9.633885 -12.758857
v -0.008704 -9.828801 -12.758857
v -0.862690 -9.633885 -12.758857
v -1.547534 -9.087745 -12.758857
v -1.927593 -8.298547 -12.758857
v -0.862689 -6.087252 -12.758858
v -1.547534 -6.633396 -12.758857
v -1.927593 -7.422599 -12.758857
v 0.570767 -6.657289 -12.758857
v -0.008705 -6.525027 -12.758857
v 1.035467 -7.027874 -12.758857
v 1.293355 -7.563386 -12.758857
v 1.293355 -8.157758 -12.758857
v 1.035467 -8.693269 -12.758857
v 0.570767 -9.063851 -12.758857
v -0.008705 -9.196111 -12.758857
v -0.588175 -9.063851 -12.758857
v -1.052875 -8.693269 -12.758857
v -1.310764 -8.157758 -12.758857
v -1.310764 -7.563386 -12.758857
v -1.052875 -7.027874 -12.758857
v -0.588175 -6.657288 -12.758857
v 0.570767 -6.657289 -12.289497
v -0.008705 -6.525027 -12.289497
v 1.035467 -7.027874 -12.289497
v 1.293355 -7.563386 -12.289497
v 1.293355 -8.157758 -12.289497
v 1.035467 -8.693269 -12.289499
v 0.570767 -9.063851 -12.289499
v -0.008705 -9.196111 -12.289499
v -0.588175 -9.063851 -12.289499
v -1.052875 -8.693269 -12.289499
v -1.310764 -8.157758 -12.289497
v -1.310764 -7.563386 -12.289497
v -0.588175 -6.657288 -12.289497
v -1.052875 -7.027874 -12.289497
v -0.008705 -7.860573 -12.289497
v -2.801884 -9.198234 -8.300685
v -2.801885 -9.198234 -8.951496
v -3.212649 -9.104478 -8.300685
v -3.212649 -9.104480 -8.951496
v -3.623413 -9.198234 -8.300685
v -2.472477 -9.460927 -8.951496
v -2.472477 -9.460925 -8.300685
v -2.289670 -9.840528 -8.951496
v -2.289669 -9.840528 -8.300685
v -2.289670 -10.261855 -8.951496
v -2.289669 -10.261855 -8.300685
v -2.472477 -10.641456 -8.951496
v -2.472477 -10.641458 -8.300685
v -2.801885 -10.904147 -8.951496
v -2.801885 -10.904149 -8.300685
v -3.212649 -10.997901 -8.951496
v -3.212649 -10.997903 -8.300685
v -3.623414 -10.904147 -8.951496
v -3.623414 -10.904149 -8.300685
v -3.952822 -10.641456 -8.951496
v -3.952822 -10.641458 -8.300685
v -3.623413 -9.198234 -8.951496
v -3.952822 -9.460925 -8.300685
v -3.952821 -9.460927 -8.951496
v -4.135629 -9.840528 -8.300685
v -4.135628 -9.840528 -8.951496
v -4.135629 -10.261855 -8.300685
v -4.135628 -10.261855 -8.951496
v -2.888088 -9.377234 -8.951496
v -3.212649 -9.303157 -8.951496
v -2.627810 -9.584798 -8.951496
v -2.483366 -9.884738 -8.951496
v -2.483366 -10.217645 -8.951496
v -2.627810 -10.517583 -8.951496
v -2.888088 -10.725146 -8.951496
v -3.212650 -10.799226 -8.951496
v -3.537211 -10.725146 -8.951496
v -3.797489 -10.517583 -8.951496
v -3.941932 -10.217645 -8.951496
v -3.941932 -9.884738 -8.951496
v -3.797488 -9.584798 -8.951496
v -3.537210 -9.377234 -8.951496
v -2.928640 -9.461442 -8.784003
v -3.212649 -9.396619 -8.784003
v -2.700882 -9.643073 -8.784003
v -3.212649 -10.051192 -8.784003
v -2.574487 -9.905536 -8.784003
v -2.574487 -10.196847 -8.784003
v -2.700882 -10.459310 -8.784003
v -2.928640 -10.640939 -8.784005
v -3.212650 -10.705762 -8.784005
v -3.496659 -10.640939 -8.784005
v -3.724416 -10.459310 -8.784003
v -3.850812 -10.196847 -8.784003
v -3.850812 -9.905536 -8.784003
v -3.724416 -9.643073 -8.784003
v -3.496658 -9.461442 -8.784003
v -3.079022 -2.929827 4.924656
v 3.061618 -2.929827 4.924656
v -3.079023 -2.929823 -4.152261
v 3.061618 -2.929823 -4.152261
v -3.079022 -3.358879 4.924656
v -3.079023 -3.358877 -4.152260
v 3.061618 -3.358879 4.924656
v 3.061618 -3.358877 -4.152260
v 1.391480 -0.695573 -0.011511
v 1.124069 -0.695573 -0.834516
v -0.008702 -0.240625 -0.011511
v 0.423978 -0.695573 -1.343165
v -0.441382 -0.695573 -1.343165
v -1.141474 -0.695573 -0.834516
v -1.408886 -0.695573 -0.011511
v -1.141474 -0.695573 0.811494
v -0.441382 -0.695573 1.320141
v 0.423979 -0.695573 1.320141
v 1.124070 -0.695573 0.811494
v -1.841565 -1.886640 -1.343165
v -2.274246 -1.886640 -0.011511
v -1.841565 -1.886639 1.320141
v -0.708793 -1.886639 2.143148
v 0.691390 -1.886639 2.143148
v 1.824163 -1.886639 1.320137
v 2.256841 -1.886640 -0.011511
v 1.824161 -1.886640 -1.343165
v 0.691389 -1.886640 -2.166171
v -0.708794 -1.886640 -2.166171
v 1.824161 -2.929827 -1.343164
v 2.256841 -2.929827 -0.011510
v 0.691389 -2.929827 -2.166171
v -0.708794 -2.929827 -2.166173
v -1.841565 -2.929827 -1.343164
v -2.274246 -2.929827 -0.011510
v -1.841565 -2.929827 1.320141
v -0.708793 -2.929827 2.143148
v 0.691390 -2.929827 2.143148
v 1.824163 -2.929827 1.320138
vn -0.0000 -0.9809 -0.1943
vn -0.0000 -1.0000 -0.0000
vn -0.6250 -0.7807 -0.0000
vn 0.6250 -0.7807 -0.0000
vn 1.0000 -0.0000 -0.0000
vn -1.0000 -0.0000 -0.0000
vn -0.6250 0.7807 -0.0000
vn -0.0000 1.0000 -0.0000
vn -0.0000 0.9809 -0.1943
vn -0.0000 -0.0000 1.0000
vn 0.2035 -0.6377 0.7429
vn -0.2035 -0.6377 0.7429
vn 0.2321 -0.6251 0.7452
vn -0.2321 -0.6251 0.7452
vn -0.4196 -0.5241 0.7412
vn 0.4196 -0.5241 0.7412
vn 0.6250 -0.0000 0.7807
vn 0.4196 0.5241 0.7412
vn 0.2321 0.6251 0.7452
vn 0.2035 0.6377 0.7429
vn -0.2321 0.6251 0.7452
vn -0.2035 0.6377 0.7429
vn -0.4196 0.5241 0.7412
vn -0.6250 -0.0000 0.7807
vn 0.6250 0.7807 -0.0000
vn -0.2071 -0.6637 -0.7187
vn 0.2071 -0.6637 -0.7187
vn 0.4891 -0.6110 -0.6225
vn -0.4891 -0.6110 -0.6225
vn -0.5935 -0.2697 -0.7583
vn -0.0638 -0.3105 -0.9484
vn -0.2575 -0.1029 -0.9608
vn -0.8293 -0.0000 -0.5588
vn -0.5935 0.2697 -0.7583
vn -0.2575 0.1029 -0.9608
vn -0.0000 -0.0000 -1.0000
vn 0.0638 -0.3105 -0.9484
vn 0.0638 0.3105 -0.9484
vn -0.0638 0.3105 -0.9484
vn 0.2575 -0.1029 -0.9608
vn 0.2575 0.1029 -0.9608
vn -0.2071 0.6637 -0.7187
vn 0.2071 0.6637 -0.7187
vn 0.5935 0.2697 -0.7583
vn 0.5935 -0.2697 -0.7583
vn 0.8293 -0.0000 -0.5588
vn 0.4891 0.6110 -0.6225
vn -0.4891 0.6110 -0.6225
vn 0.7818 0.6235 -0.0000
vn 0.9749 -0.2225 -0.0000
vn 0.4339 -0.9010 -0.0000
vn -0.4339 -0.9010 -0.0000
vn -0.7818 0.6235 -0.0000
vn -0.9749 -0.2225 -0.0000
vn 0.4339 0.9010 -0.0000
vn -0.4339 0.9010 -0.0000
vn -0.9749 0.2225 -0.0000
vn -0.7818 -0.6235 -0.0000
vn 0.9749 0.2225 -0.0000
vn 0.7818 -0.6235 -0.0000
vn -0.3789 -0.7868 -0.4873
vn -0.0000 -0.8732 -0.4873
vn 0.3789 -0.7868 -0.4873
vn -0.6827 -0.5445 -0.4873
vn -0.8513 -0.1943 -0.4873
vn -0.8514 0.1943 -0.4873
vn -0.6827 0.5445 -0.4873
vn -0.3789 0.7868 -0.4873
vn -0.0000 0.8732 -0.4873
vn 0.3789 0.7868 -0.4873
vn 0.6827 0.5445 -0.4873
vn 0.8513 0.1943 -0.4873
vn 0.8514 0.1943 -0.4873
vn 0.8513 -0.1943 -0.4873
vn 0.8514 -0.1943 -0.4873
vn 0.6827 -0.5445 -0.4873
vn 0.3090 0.9511 -0.0000
vn 0.2500 0.9511 -0.1816
vn 0.0955 0.9511 -0.2939
vn -0.0955 0.9511 -0.2939
vn -0.2500 0.9511 -0.1816
vn -0.3090 0.9511 -0.0000
vn -0.2500 0.9511 0.1816
vn -0.0955 0.9511 0.2939
vn 0.0955 0.9511 0.2939
vn 0.2500 0.9511 0.1816
vn -0.6545 0.5878 -0.4755
vn -0.2500 0.5878 -0.7694
vn -0.8090 0.5878 -0.0000
vn -0.6545 0.5878 0.4755
vn -0.2500 0.5878 0.7694
vn 0.2500 0.5878 0.7694
vn 0.6545 0.5878 0.4755
vn 0.8090 0.5878 -0.0000
vn 0.6545 0.5878 -0.4755
vn 0.2500 0.5878 -0.7694
vn 0.9511 -0.0000 -0.3090
vn 0.5878 -0.0000 -0.8090
vn -0.5878 -0.0000 -0.8090
vn -0.9511 -0.0000 -0.3090
vn -0.9511 -0.0000 0.3090
vn -0.5878 -0.0000 0.8090
vn 0.5878 -0.0000 0.8090
vn 0.9511 -0.0000 0.3090
vt 0.157544 0.661923
vt 0.157544 0.397355
vt 0.336527 0.661923
vt 0.336527 0.397355
vt 0.347350 0.661923
vt 0.146722 0.397355
vt 0.146722 0.661923
vt 0.007325 0.661923
vt 0.007325 0.397355
vt 0.347350 0.397355
vt 0.486746 0.397355
vt 0.486746 0.661923
vt 0.497569 0.661923
vt 0.497569 0.397355
vt 0.676552 0.397355
vt 0.676552 0.661923
vt 0.025633 0.707012
vt 0.028905 0.702924
vt 0.025633 0.907907
vt 0.188462 0.707012
vt 0.185190 0.911994
vt 0.028905 0.911994
vt 0.017732 0.702923
vt 0.017732 0.911995
vt 0.025632 0.693054
vt 0.188463 0.693054
vt 0.185190 0.702924
vt 0.196364 0.702923
vt 0.196364 0.911995
vt 0.188462 0.907907
vt 0.188463 0.921864
vt 0.025632 0.921864
vt 0.687374 0.397355
vt 0.687374 0.661923
vt 0.231927 0.690534
vt 0.237258 0.696774
vt 0.231927 0.919394
vt 0.237258 0.913154
vt 0.240575 0.930197
vt 0.245435 0.686560
vt 0.250214 0.711937
vt 0.257245 0.703154
vt 0.240575 0.679731
vt 0.413958 0.686560
vt 0.402148 0.703154
vt 0.329697 0.804964
vt 0.250214 0.897991
vt 0.409179 0.897991
vt 0.409179 0.711937
vt 0.257245 0.906773
vt 0.402148 0.906773
vt 0.422135 0.696774
vt 0.422135 0.913154
vt 0.413958 0.923368
vt 0.245435 0.923368
vt 0.418818 0.930197
vt 0.427466 0.919394
vt 0.427466 0.690534
vt 0.418818 0.679731
vt 0.933572 0.915271
vt 0.950417 0.923399
vt 0.933572 0.931495
vt 0.946239 0.941623
vt 0.946274 0.905168
vt 0.962088 0.908793
vt 0.969113 0.923417
vt 0.962060 0.938028
vt 0.916244 0.915254
vt 0.916244 0.931478
vt 0.933572 0.947719
vt 0.916244 0.947702
vt 0.933572 0.899047
vt 0.916244 0.899030
vt 0.933572 0.882823
vt 0.916244 0.882806
vt 0.933572 0.866599
vt 0.916244 0.866582
vt 0.916244 0.963926
vt 0.933572 0.963943
vt 0.916244 0.980150
vt 0.933572 0.980167
vt 0.804700 0.543502
vt 0.804700 0.572290
vt 0.763760 0.543502
vt 0.763760 0.572290
vt 0.763760 0.514714
vt 0.804699 0.601078
vt 0.763760 0.601078
vt 0.804699 0.629867
vt 0.763760 0.629867
vt 0.804699 0.658655
vt 0.763760 0.658655
vt 0.804699 0.687443
vt 0.763760 0.687443
vt 0.804699 0.716231
vt 0.763760 0.716231
vt 0.804699 0.745019
vt 0.763760 0.745019
vt 0.804699 0.773808
vt 0.763760 0.773808
vt 0.804700 0.514714
vt 0.763760 0.485926
vt 0.804700 0.485926
vt 0.763760 0.457138
vt 0.804700 0.457138
vt 0.763760 0.428349
vt 0.804700 0.428349
vt 0.763760 0.399561
vt 0.804700 0.399561
vt 0.763760 0.370773
vt 0.804699 0.370773
vt 0.741112 0.572290
vt 0.710503 0.572290
vt 0.741112 0.543502
vt 0.710503 0.543502
vt 0.741112 0.514714
vt 0.710503 0.601078
vt 0.741112 0.601079
vt 0.710503 0.629867
vt 0.741112 0.629867
vt 0.710503 0.658655
vt 0.741112 0.658655
vt 0.710503 0.687443
vt 0.741112 0.687443
vt 0.710503 0.716231
vt 0.741112 0.716231
vt 0.710503 0.745019
vt 0.741112 0.745019
vt 0.710503 0.773808
vt 0.741112 0.773808
vt 0.710503 0.514714
vt 0.741112 0.485926
vt 0.710503 0.485926
vt 0.741112 0.457138
vt 0.710503 0.457138
vt 0.741112 0.428349
vt 0.710503 0.428349
vt 0.741112 0.399561
vt 0.710503 0.399561
vt 0.741112 0.370773
vt 0.710503 0.370773
vt 0.880037 0.428349
vt 0.821222 0.428349
vt 0.880037 0.399561
vt 0.821222 0.399561
vt 0.880037 0.370773
vt 0.821222 0.457137
vt 0.880037 0.457137
vt 0.821222 0.485926
vt 0.880037 0.485926
vt 0.821221 0.514714
vt 0.880037 0.514714
vt 0.821221 0.543502
vt 0.880037 0.543502
vt 0.821221 0.572290
vt 0.880037 0.572290
vt 0.821221 0.601079
vt 0.880037 0.601078
vt 0.821222 0.629867
vt 0.880037 0.629867
vt 0.821221 0.658655
vt 0.880037 0.658655
vt 0.821221 0.687443
vt 0.880037 0.687443
vt 0.821221 0.716231
vt 0.880037 0.716231
vt 0.821221 0.745019
vt 0.880037 0.745019
vt 0.821221 0.773808
vt 0.880037 0.773808
vt 0.821222 0.370773
vt 0.977922 0.194014
vt 0.985408 0.190410
vt 0.987548 0.236187
vt 0.995856 0.236187
vt 0.977922 0.278360
vt 0.956132 0.153699
vt 0.950951 0.160195
vt 0.913827 0.133325
vt 0.911978 0.141426
vt 0.866872 0.133325
vt 0.868721 0.141426
vt 0.824567 0.153698
vt 0.829747 0.160195
vt 0.795291 0.190410
vt 0.802777 0.194014
vt 0.784842 0.236187
vt 0.793151 0.236187
vt 0.795291 0.281965
vt 0.802777 0.278360
vt 0.824567 0.318676
vt 0.829747 0.312180
vt 0.866872 0.339049
vt 0.868721 0.330948
vt 0.913827 0.339049
vt 0.911978 0.330948
vt 0.956132 0.318676
vt 0.950951 0.312180
vt 0.985408 0.281965
vt 0.970333 0.236203
vt 0.977170 0.236203
vt 0.962412 0.270907
vt 0.968572 0.273873
vt 0.940218 0.298737
vt 0.968572 0.198533
vt 0.962412 0.201499
vt 0.944481 0.168324
vt 0.940218 0.173669
vt 0.909669 0.151559
vt 0.908147 0.158225
vt 0.871030 0.151559
vt 0.872551 0.158225
vt 0.836217 0.168324
vt 0.840480 0.173669
vt 0.812126 0.198533
vt 0.818287 0.201499
vt 0.803528 0.236203
vt 0.810366 0.236203
vt 0.812126 0.273874
vt 0.818287 0.270907
vt 0.836217 0.304083
vt 0.840480 0.298737
vt 0.871030 0.320847
vt 0.872551 0.314181
vt 0.909669 0.320847
vt 0.908147 0.314181
vt 0.944481 0.304082
vt 0.953580 0.268396
vt 0.942769 0.263190
vt 0.960510 0.238034
vt 0.948510 0.238034
vt 0.953580 0.207673
vt 0.926681 0.283363
vt 0.934163 0.292745
vt 0.903434 0.294558
vt 0.906104 0.306257
vt 0.877632 0.294558
vt 0.874961 0.306257
vt 0.854385 0.283363
vt 0.846903 0.292745
vt 0.838297 0.263190
vt 0.827486 0.268396
vt 0.832555 0.238034
vt 0.820556 0.238034
vt 0.838297 0.212879
vt 0.827486 0.207673
vt 0.854385 0.192706
vt 0.846903 0.183324
vt 0.877632 0.181511
vt 0.874961 0.169812
vt 0.903434 0.181511
vt 0.906104 0.169812
vt 0.926681 0.192706
vt 0.934163 0.183324
vt 0.942769 0.212879
vt 0.582493 0.819919
vt 0.590462 0.819919
vt 0.582493 0.836326
vt 0.590462 0.836326
vt 0.582493 0.852732
vt 0.590462 0.803513
vt 0.582493 0.803513
vt 0.590462 0.787107
vt 0.582493 0.787107
vt 0.590462 0.770701
vt 0.582493 0.770701
vt 0.590462 0.754295
vt 0.582493 0.754295
vt 0.590462 0.737889
vt 0.582493 0.737889
vt 0.590462 0.721482
vt 0.582493 0.721482
vt 0.590462 0.705076
vt 0.582493 0.705076
vt 0.590462 0.688670
vt 0.582493 0.688670
vt 0.590462 0.672264
vt 0.582493 0.672264
vt 0.590462 0.852732
vt 0.582493 0.869138
vt 0.590462 0.869138
vt 0.582493 0.885544
vt 0.590462 0.885544
vt 0.582493 0.901950
vt 0.590462 0.901950
vt 0.937907 0.259850
vt 0.923077 0.252708
vt 0.942978 0.237634
vt 0.926518 0.237634
vt 0.937907 0.215417
vt 0.913437 0.264798
vt 0.923699 0.277666
vt 0.899506 0.271506
vt 0.903168 0.287553
vt 0.884043 0.271506
vt 0.880381 0.287553
vt 0.870112 0.264798
vt 0.859850 0.277666
vt 0.860471 0.252708
vt 0.845642 0.259850
vt 0.857031 0.237634
vt 0.840571 0.237634
vt 0.860471 0.222559
vt 0.845642 0.215417
vt 0.870112 0.210470
vt 0.859850 0.197601
vt 0.884043 0.203761
vt 0.880381 0.187714
vt 0.899506 0.203761
vt 0.903168 0.187714
vt 0.913437 0.210470
vt 0.923699 0.197601
vt 0.923077 0.222559
vt 0.614373 0.834820
vt 0.626194 0.834820
vt 0.614373 0.849790
vt 0.626194 0.849790
vt 0.614373 0.864759
vt 0.626194 0.819850
vt 0.614373 0.819850
vt 0.626194 0.804880
vt 0.614373 0.804880
vt 0.626194 0.789910
vt 0.614373 0.789910
vt 0.626194 0.774940
vt 0.614373 0.774940
vt 0.626194 0.759970
vt 0.614373 0.759970
vt 0.626194 0.745000
vt 0.614373 0.745000
vt 0.626194 0.730031
vt 0.614373 0.730031
vt 0.626194 0.715061
vt 0.614373 0.715061
vt 0.626194 0.700091
vt 0.614373 0.700091
vt 0.626194 0.685121
vt 0.614373 0.685121
vt 0.626194 0.864759
vt 0.614373 0.879729
vt 0.626194 0.879729
vt 0.614373 0.894699
vt 0.626194 0.894699
vt 0.836035 0.118248
vt 0.858473 0.071654
vt 0.858473 0.123369
vt 0.880911 0.118248
vt 0.818040 0.103898
vt 0.808055 0.083162
vt 0.808055 0.060147
vt 0.818040 0.039411
vt 0.836035 0.025061
vt 0.858473 0.019940
vt 0.880911 0.025061
vt 0.898905 0.039411
vt 0.908891 0.060147
vt 0.908891 0.083162
vt 0.898905 0.103898
vt 0.655548 0.796807
vt 0.675831 0.796806
vt 0.655548 0.809938
vt 0.675831 0.809938
vt 0.655548 0.823069
vt 0.675831 0.783675
vt 0.655548 0.783675
vt 0.675831 0.770544
vt 0.655548 0.770544
vt 0.675831 0.757413
vt 0.655548 0.757413
vt 0.675831 0.744282
vt 0.655548 0.744282
vt 0.675831 0.731151
vt 0.655548 0.731151
vt 0.675831 0.718019
vt 0.655548 0.718019
vt 0.675831 0.704888
vt 0.655548 0.704888
vt 0.675831 0.691757
vt 0.655548 0.691757
vt 0.675831 0.823069
vt 0.655548 0.836200
vt 0.675831 0.836200
vt 0.655548 0.849331
vt 0.675831 0.849331
vt 0.655548 0.862462
vt 0.675831 0.862462
vt 0.655548 0.875594
vt 0.675831 0.875594
vt 0.987083 0.540439
vt 0.977961 0.536047
vt 0.991860 0.519507
vt 0.981736 0.519507
vt 0.987083 0.498575
vt 0.967383 0.549310
vt 0.973696 0.557226
vt 0.952099 0.556671
vt 0.954351 0.566542
vt 0.935133 0.556671
vt 0.932881 0.566542
vt 0.919849 0.549310
vt 0.913536 0.557226
vt 0.909271 0.536047
vt 0.900149 0.540439
vt 0.905496 0.519507
vt 0.895372 0.519507
vt 0.909271 0.502967
vt 0.900149 0.498574
vt 0.919849 0.489704
vt 0.913536 0.481788
vt 0.935133 0.482343
vt 0.932881 0.472472
vt 0.952099 0.482343
vt 0.954351 0.472472
vt 0.967383 0.489704
vt 0.973696 0.481788
vt 0.977961 0.502967
vt 0.916431 0.511235
vt 0.922215 0.512849
vt 0.914885 0.523463
vt 0.920778 0.522399
vt 0.918823 0.535205
vt 0.927623 0.504832
vt 0.942508 0.520752
vt 0.923120 0.500879
vt 0.935988 0.499951
vt 0.933642 0.494440
vt 0.945649 0.499182
vt 0.945922 0.493199
vt 0.954690 0.502679
vt 0.957528 0.497406
vt 0.961321 0.509752
vt 0.966164 0.506232
vt 0.964228 0.519003
vt 0.970117 0.517931
vt 0.962833 0.528599
vt 0.968603 0.530188
vt 0.957412 0.536641
vt 0.961919 0.540576
vt 0.949036 0.541534
vt 0.951387 0.547034
vt 0.939364 0.542305
vt 0.939092 0.548279
vt 0.930309 0.538800
vt 0.927469 0.544060
vt 0.923655 0.531706
vt 0.459211 0.689131
vt 0.558183 0.689131
vt 0.459211 0.835428
vt 0.558183 0.835428
vt 0.452296 0.689131
vt 0.452296 0.835428
vt 0.558183 0.682216
vt 0.459211 0.682216
vt 0.565099 0.835428
vt 0.565099 0.689131
vt 0.459211 0.842343
vt 0.558183 0.842343
vt 0.910923 0.405054
vt 0.916005 0.389412
vt 0.937535 0.405054
vt 0.929311 0.379745
vt 0.945758 0.379745
vt 0.959064 0.389412
vt 0.964146 0.405054
vt 0.959064 0.420696
vt 0.945758 0.430364
vt 0.929311 0.430364
vt 0.916005 0.420696
vt 0.972370 0.379745
vt 0.980593 0.405054
vt 0.972370 0.430364
vt 0.950840 0.446006
vt 0.924229 0.446006
vt 0.902699 0.430364
vt 0.894476 0.405054
vt 0.902699 0.379745
vt 0.924229 0.364103
vt 0.950840 0.364103
vt 0.967116 0.606882
vt 0.979277 0.627522
vt 0.960564 0.618250
vt 0.967294 0.632867
vt 0.946529 0.610382
vt 0.945146 0.597335
vt 0.930549 0.612269
vt 0.921761 0.602526
vt 0.918729 0.623189
vt 0.905892 0.620471
vt 0.915583 0.638971
vt 0.903600 0.644317
vt 0.922312 0.653588
vt 0.915761 0.664956
vt 0.936348 0.661456
vt 0.937731 0.674504
vt 0.952328 0.659570
vt 0.961116 0.669313
vt 0.964148 0.648650
vt 0.976985 0.651367
s 1
usemtl 01_-_Default
f 1/1/1 2/2/2 3/3/1
f 4/4/2 3/3/1 2/2/2
f 3/3/3 4/4/3 5/5/3
f 2/2/4 1/1/4 6/6/4
f 7/7/4 6/6/4 1/1/4
f 7/7/5 8/8/5 6/6/5
f 9/9/5 6/6/5 8/8/5
f 10/10/3 5/5/3 4/4/3
f 10/10/6 11/11/6 5/5/6
f 12/12/6 5/5/6 11/11/6
f 12/12/7 11/11/7 13/13/7
f 14/14/7 13/13/7 11/11/7
f 14/14/8 15/15/8 13/13/9
f 16/16/9 13/13/9 15/15/8
f 17/17/10 18/18/10 19/19/10
f 18/18/10 20/20/10 19/19/10
f 20/20/10 21/21/10 19/19/10
f 19/19/10 21/21/10 22/22/10
f 17/17/11 19/19/12 2/23/13
f 4/24/14 2/23/13 19/19/12
f 19/19/12 22/22/15 4/24/14
f 18/18/16 17/17/11 6/25/16
f 2/23/13 6/25/16 17/17/11
f 6/25/17 9/26/17 18/18/17
f 23/27/17 18/18/17 9/26/17
f 9/26/18 15/28/19 23/27/18
f 23/27/10 20/20/10 18/18/10
f 20/20/20 23/27/18 15/28/19
f 15/28/19 14/29/21 20/20/20
f 24/30/22 20/20/20 14/29/21
f 14/29/21 11/31/23 24/30/22
f 24/30/10 21/21/10 20/20/10
f 21/21/23 24/30/22 11/31/23
f 11/31/24 10/32/24 21/21/24
f 22/22/24 21/21/24 10/32/24
f 10/32/15 4/24/14 22/22/15
f 9/33/25 8/34/25 15/15/25
f 16/16/25 15/15/25 8/34/25
f 3/35/1 25/36/26 1/37/1
f 26/38/27 1/37/1 25/36/26
f 1/37/28 26/38/27 7/39/28
f 25/36/26 3/35/29 27/40/30
f 25/36/26 28/41/31 26/38/27
f 27/40/30 29/42/32 25/36/26
f 28/41/31 25/36/26 29/42/32
f 5/43/29 27/40/30 3/35/29
f 27/40/30 5/43/33 30/44/34
f 30/44/34 31/45/35 27/40/30
f 29/42/32 27/40/30 31/45/35
f 31/45/35 32/46/36 29/42/32
f 29/42/32 32/46/36 28/41/31
f 33/47/37 26/38/27 28/41/31
f 28/41/31 32/46/36 33/47/37
f 34/48/38 32/46/36 35/49/39
f 36/50/40 32/46/36 37/51/41
f 33/47/37 32/46/36 36/50/40
f 35/49/39 32/46/36 31/45/35
f 37/51/41 32/46/36 34/48/38
f 31/45/35 30/44/34 35/49/39
f 35/49/39 38/52/42 34/48/38
f 38/52/42 35/49/39 30/44/34
f 39/53/43 34/48/38 38/52/42
f 34/48/38 39/53/43 37/51/41
f 37/51/41 40/54/44 36/50/40
f 40/54/44 37/51/41 39/53/43
f 41/55/45 36/50/40 40/54/44
f 36/50/40 41/55/45 33/47/37
f 26/38/27 33/47/37 41/55/45
f 7/39/46 41/55/45 8/56/46
f 40/54/44 8/56/46 41/55/45
f 41/55/45 7/39/28 26/38/27
f 8/56/47 40/54/44 16/57/47
f 39/53/43 16/57/47 40/54/44
f 16/57/9 39/53/43 13/58/9
f 38/52/42 13/58/9 39/53/43
f 13/58/48 38/52/42 12/59/48
f 30/44/34 12/59/48 38/52/42
f 12/59/33 30/44/34 5/43/33
f 42/60/36 43/61/36 44/62/36
f 44/62/36 43/61/36 45/63/36
f 46/64/36 43/61/36 42/60/36
f 47/65/36 43/61/36 46/64/36
f 48/66/36 43/61/36 47/65/36
f 49/67/36 43/61/36 48/66/36
f 45/63/36 43/61/36 49/67/36
f 50/68/49 42/60/49 51/69/49
f 44/62/49 51/69/49 42/60/49
f 44/62/8 45/70/8 51/69/8
f 52/71/8 51/69/8 45/70/8
f 42/60/50 50/68/50 46/72/50
f 53/73/50 46/72/50 50/68/50
f 46/72/51 53/73/51 47/74/51
f 54/75/51 47/74/51 53/73/51
f 47/74/52 54/75/52 48/76/52
f 55/77/52 48/76/52 54/75/52
f 52/71/53 45/70/53 56/78/53
f 49/79/53 56/78/53 45/70/53
f 56/78/54 49/79/54 55/80/54
f 48/81/54 55/80/54 49/79/54
f 57/82/55 58/83/8 59/84/55
f 60/85/8 59/84/55 58/83/8
f 59/84/55 61/86/49 57/82/55
f 58/83/8 62/87/56 60/85/8
f 63/88/56 60/85/8 62/87/56
f 62/87/56 64/89/53 63/88/56
f 65/90/53 63/88/56 64/89/53
f 64/89/53 66/91/57 65/90/53
f 67/92/57 65/90/53 66/91/57
f 66/91/57 68/93/54 67/92/57
f 69/94/54 67/92/57 68/93/54
f 68/93/54 70/95/58 69/94/54
f 71/96/58 69/94/54 70/95/58
f 70/95/58 72/97/52 71/96/58
f 73/98/52 71/96/58 72/97/52
f 72/97/52 74/99/2 73/98/52
f 75/100/2 73/98/52 74/99/2
f 76/101/49 57/82/55 61/86/49
f 61/86/49 77/102/59 76/101/49
f 78/103/59 76/101/49 77/102/59
f 77/102/59 79/104/50 78/103/59
f 80/105/50 78/103/59 79/104/50
f 79/104/50 81/106/60 80/105/50
f 82/107/60 80/105/50 81/106/60
f 81/106/60 83/108/51 82/107/60
f 84/109/51 82/107/60 83/108/51
f 83/108/51 75/110/2 84/109/51
f 74/111/2 84/109/51 75/110/2
f 85/112/8 86/113/8 87/114/55
f 88/115/55 87/114/55 86/113/8
f 87/114/55 88/115/55 89/116/49
f 86/113/8 85/112/8 90/117/56
f 91/118/56 90/117/56 85/112/8
f 90/117/56 91/118/56 92/119/53
f 93/120/53 92/119/53 91/118/56
f 92/119/53 93/120/53 94/121/57
f 95/122/57 94/121/57 93/120/53
f 94/121/57 95/122/57 96/123/54
f 97/124/54 96/123/54 95/122/57
f 96/123/54 97/124/54 98/125/58
f 99/126/58 98/125/58 97/124/54
f 98/125/58 99/126/58 100/127/52
f 101/128/52 100/127/52 99/126/58
f 100/127/52 101/128/52 102/129/2
f 103/130/2 102/129/2 101/128/52
f 104/131/49 89/116/49 88/115/55
f 89/116/49 104/131/49 105/132/59
f 106/133/59 105/132/59 104/131/49
f 105/132/59 106/133/59 107/134/50
f 108/135/50 107/134/50 106/133/59
f 107/134/50 108/135/50 109/136/60
f 110/137/60 109/136/60 108/135/50
f 109/136/60 110/137/60 111/138/51
f 112/139/51 111/138/51 110/137/60
f 111/138/51 112/139/51 103/140/2
f 102/141/2 103/140/2 112/139/51
f 113/142/8 114/143/8 115/144/55
f 116/145/55 115/144/55 114/143/8
f 115/144/55 116/145/55 117/146/49
f 114/143/8 113/142/8 118/147/56
f 119/148/56 118/147/56 113/142/8
f 118/147/56 119/148/56 120/149/53
f 121/150/53 120/149/53 119/148/56
f 120/149/53 121/150/53 122/151/57
f 123/152/57 122/151/57 121/150/53
f 122/151/57 123/152/57 124/153/54
f 125/154/54 124/153/54 123/152/57
f 124/153/54 125/154/54 126/155/58
f 127/156/58 126/155/58 125/154/54
f 126/155/58 127/156/58 128/157/52
f 129/158/52 128/157/52 127/156/58
f 128/157/52 129/158/52 130/159/2
f 131/160/2 130/159/2 129/158/52
f 130/159/2 131/160/2 132/161/51
f 133/162/51 132/161/51 131/160/2
f 132/161/51 133/162/51 134/163/60
f 135/164/60 134/163/60 133/162/51
f 134/163/60 135/164/60 136/165/50
f 137/166/50 136/165/50 135/164/60
f 136/165/50 137/166/50 138/167/59
f 139/168/59 138/167/59 137/166/50
f 138/167/59 139/168/59 140/169/49
f 117/170/49 140/169/49 139/168/59
f 140/171/49 117/146/49 116/145/55
f 57/172/10 88/173/10 58/174/10
f 86/175/10 58/174/10 88/173/10
f 58/174/10 86/175/10 62/176/10
f 88/173/10 57/172/10 104/177/10
f 76/178/10 104/177/10 57/172/10
f 104/177/10 76/178/10 106/179/10
f 78/180/10 106/179/10 76/178/10
f 106/179/10 78/180/10 108/181/10
f 80/182/10 108/181/10 78/180/10
f 108/181/10 80/182/10 110/183/10
f 82/184/10 110/183/10 80/182/10
f 110/183/10 82/184/10 112/185/10
f 84/186/10 112/185/10 82/184/10
f 112/185/10 84/186/10 102/187/10
f 74/188/10 102/187/10 84/186/10
f 102/187/10 74/188/10 100/189/10
f 72/190/10 100/189/10 74/188/10
f 100/189/10 72/190/10 98/191/10
f 70/192/10 98/191/10 72/190/10
f 98/191/10 70/192/10 96/193/10
f 68/194/10 96/193/10 70/192/10
f 96/193/10 68/194/10 94/195/10
f 66/196/10 94/195/10 68/194/10
f 94/195/10 66/196/10 92/197/10
f 64/198/10 92/197/10 66/196/10
f 92/197/10 64/198/10 90/199/10
f 62/176/10 90/199/10 64/198/10
f 90/199/10 62/176/10 86/175/10
f 114/200/36 85/201/36 116/202/36
f 87/203/36 116/202/36 85/201/36
f 116/202/36 87/203/36 140/204/36
f 85/201/36 114/200/36 91/205/36
f 118/206/36 91/205/36 114/200/36
f 91/205/36 118/206/36 93/207/36
f 120/208/36 93/207/36 118/206/36
f 93/207/36 120/208/36 95/209/36
f 122/210/36 95/209/36 120/208/36
f 95/209/36 122/210/36 97/211/36
f 124/212/36 97/211/36 122/210/36
f 97/211/36 124/212/36 99/213/36
f 126/214/36 99/213/36 124/212/36
f 99/213/36 126/214/36 101/215/36
f 128/216/36 101/215/36 126/214/36
f 101/215/36 128/216/36 103/217/36
f 130/218/36 103/217/36 128/216/36
f 103/217/36 130/218/36 111/219/36
f 132/220/36 111/219/36 130/218/36
f 111/219/36 132/220/36 109/221/36
f 134/222/36 109/221/36 132/220/36
f 109/221/36 134/222/36 107/223/36
f 136/224/36 107/223/36 134/222/36
f 107/223/36 136/224/36 105/225/36
f 138/226/36 105/225/36 136/224/36
f 105/225/36 138/226/36 89/227/36
f 140/204/36 89/227/36 138/226/36
f 89/227/36 140/204/36 87/203/36
f 115/228/36 141/229/36 113/230/36
f 142/231/36 113/230/36 141/229/36
f 113/230/36 142/231/36 119/232/36
f 141/229/36 115/228/36 143/233/36
f 117/234/36 143/233/36 115/228/36
f 143/233/36 117/234/36 144/235/36
f 139/236/36 144/235/36 117/234/36
f 144/235/36 139/236/36 145/237/36
f 137/238/36 145/237/36 139/236/36
f 145/237/36 137/238/36 146/239/36
f 135/240/36 146/239/36 137/238/36
f 146/239/36 135/240/36 147/241/36
f 133/242/36 147/241/36 135/240/36
f 147/241/36 133/242/36 148/243/36
f 131/244/36 148/243/36 133/242/36
f 148/243/36 131/244/36 149/245/36
f 129/246/36 149/245/36 131/244/36
f 149/245/36 129/246/36 150/247/36
f 127/248/36 150/247/36 129/246/36
f 150/247/36 127/248/36 151/249/36
f 125/250/36 151/249/36 127/248/36
f 151/249/36 125/250/36 152/251/36
f 123/252/36 152/251/36 125/250/36
f 152/251/36 123/252/36 153/253/36
f 121/254/36 153/253/36 123/252/36
f 153/253/36 121/254/36 154/255/36
f 119/232/36 154/255/36 121/254/36
f 154/255/36 119/232/36 142/231/36
f 141/256/52 155/257/52 142/258/2
f 156/259/2 142/258/2 155/257/52
f 142/258/2 156/259/2 154/260/51
f 155/257/52 141/256/52 157/261/58
f 143/262/58 157/261/58 141/256/52
f 157/261/58 143/262/58 158/263/54
f 144/264/54 158/263/54 143/262/58
f 158/263/54 144/264/54 159/265/57
f 145/266/57 159/265/57 144/264/54
f 159/265/57 145/266/57 160/267/53
f 146/268/53 160/267/53 145/266/57
f 160/267/53 146/268/53 161/269/56
f 147/270/56 161/269/56 146/268/53
f 161/269/56 147/270/56 162/271/8
f 148/272/8 162/271/8 147/270/56
f 162/271/8 148/272/8 163/273/55
f 149/274/55 163/273/55 148/272/8
f 163/273/55 149/274/55 164/275/49
f 150/276/49 164/275/49 149/274/55
f 164/275/49 150/276/49 165/277/59
f 151/278/59 165/277/59 150/276/49
f 166/279/51 154/260/51 156/259/2
f 154/260/51 166/279/51 153/280/60
f 167/281/60 153/280/60 166/279/51
f 153/280/60 167/281/60 152/282/50
f 168/283/50 152/282/50 167/281/60
f 152/282/50 168/283/50 151/284/59
f 165/285/59 151/284/59 168/283/50
f 155/286/36 169/287/36 156/288/36
f 170/289/36 156/288/36 169/287/36
f 156/288/36 170/289/36 166/290/36
f 169/287/36 155/286/36 171/291/36
f 157/292/36 171/291/36 155/286/36
f 171/291/36 157/292/36 172/293/36
f 158/294/36 172/293/36 157/292/36
f 172/293/36 158/294/36 173/295/36
f 159/296/36 173/295/36 158/294/36
f 173/295/36 159/296/36 174/297/36
f 160/298/36 174/297/36 159/296/36
f 174/297/36 160/298/36 175/299/36
f 161/300/36 175/299/36 160/298/36
f 175/299/36 161/300/36 176/301/36
f 162/302/36 176/301/36 161/300/36
f 176/301/36 162/302/36 177/303/36
f 163/304/36 177/303/36 162/302/36
f 177/303/36 163/304/36 178/305/36
f 164/306/36 178/305/36 163/304/36
f 178/305/36 164/306/36 179/307/36
f 165/308/36 179/307/36 164/306/36
f 179/307/36 165/308/36 180/309/36
f 168/310/36 180/309/36 165/308/36
f 180/309/36 168/310/36 181/311/36
f 167/312/36 181/311/36 168/310/36
f 181/311/36 167/312/36 182/313/36
f 166/290/36 182/313/36 167/312/36
f 182/313/36 166/290/36 170/289/36
f 169/314/52 183/315/52 170/316/2
f 184/317/2 170/316/2 183/315/52
f 170/316/2 184/317/2 182/318/51
f 183/315/52 169/314/52 185/319/58
f 171/320/58 185/319/58 169/314/52
f 185/319/58 171/320/58 186/321/54
f 172/322/54 186/321/54 171/320/58
f 186/321/54 172/322/54 187/323/57
f 173/324/57 187/323/57 172/322/54
f 187/323/57 173/324/57 188/325/53
f 174/326/53 188/325/53 173/324/57
f 188/325/53 174/326/53 189/327/56
f 175/328/56 189/327/56 174/326/53
f 189/327/56 175/328/56 190/329/8
f 176/330/8 190/329/8 175/328/56
f 190/329/8 176/330/8 191/331/55
f 177/332/55 191/331/55 176/330/8
f 191/331/55 177/332/55 192/333/49
f 178/334/49 192/333/49 177/332/55
f 192/333/49 178/334/49 193/335/59
f 179/336/59 193/335/59 178/334/49
f 193/335/59 179/336/59 194/337/50
f 180/338/50 194/337/50 179/336/59
f 195/339/51 182/318/51 184/317/2
f 182/318/51 195/339/51 181/340/60
f 196/341/60 181/340/60 195/339/51
f 181/340/60 196/341/60 180/342/50
f 194/343/50 180/342/50 196/341/60
f 183/344/36 197/345/36 184/346/36
f 184/346/36 197/345/36 195/347/36
f 185/348/36 197/345/36 183/344/36
f 186/349/36 197/345/36 185/348/36
f 187/350/36 197/345/36 186/349/36
f 188/351/36 197/345/36 187/350/36
f 189/352/36 197/345/36 188/351/36
f 190/353/36 197/345/36 189/352/36
f 191/354/36 197/345/36 190/353/36
f 192/355/36 197/345/36 191/354/36
f 193/356/36 197/345/36 192/355/36
f 194/357/36 197/345/36 193/356/36
f 196/358/36 197/345/36 194/357/36
f 195/347/36 197/345/36 196/358/36
f 198/359/55 199/360/55 200/361/8
f 201/362/8 200/361/8 199/360/55
f 200/361/8 201/362/8 202/363/56
f 199/360/55 198/359/55 203/364/49
f 204/365/49 203/364/49 198/359/55
f 203/364/49 204/365/49 205/366/59
f 206/367/59 205/366/59 204/365/49
f 205/366/59 206/367/59 207/368/50
f 208/369/50 207/368/50 206/367/59
f 207/368/50 208/369/50 209/370/60
f 210/371/60 209/370/60 208/369/50
f 209/370/60 210/371/60 211/372/51
f 212/373/51 211/372/51 210/371/60
f 211/372/51 212/373/51 213/374/2
f 214/375/2 213/374/2 212/373/51
f 213/374/2 214/375/2 215/376/52
f 216/377/52 215/376/52 214/375/2
f 215/376/52 216/377/52 217/378/58
f 218/379/58 217/378/58 216/377/52
f 219/380/56 202/363/56 201/362/8
f 202/363/56 219/380/56 220/381/53
f 221/382/53 220/381/53 219/380/56
f 220/381/53 221/382/53 222/383/57
f 223/384/57 222/383/57 221/382/53
f 222/383/57 223/384/57 224/385/54
f 225/386/54 224/385/54 223/384/57
f 224/385/54 225/386/54 218/387/58
f 217/388/58 218/387/58 225/386/54
f 199/389/36 226/390/36 201/391/36
f 227/392/36 201/391/36 226/390/36
f 201/391/36 227/392/36 219/393/36
f 226/390/36 199/389/36 228/394/36
f 203/395/36 228/394/36 199/389/36
f 228/394/36 203/395/36 229/396/36
f 205/397/36 229/396/36 203/395/36
f 229/396/36 205/397/36 230/398/36
f 207/399/36 230/398/36 205/397/36
f 230/398/36 207/399/36 231/400/36
f 209/401/36 231/400/36 207/399/36
f 231/400/36 209/401/36 232/402/36
f 211/403/36 232/402/36 209/401/36
f 232/402/36 211/403/36 233/404/36
f 213/405/36 233/404/36 211/403/36
f 233/404/36 213/405/36 234/406/36
f 215/407/36 234/406/36 213/405/36
f 234/406/36 215/407/36 235/408/36
f 217/409/36 235/408/36 215/407/36
f 235/408/36 217/409/36 236/410/36
f 225/411/36 236/410/36 217/409/36
f 236/410/36 225/411/36 237/412/36
f 223/413/36 237/412/36 225/411/36
f 237/412/36 223/413/36 238/414/36
f 221/415/36 238/414/36 223/413/36
f 238/414/36 221/415/36 239/416/36
f 219/393/36 239/416/36 221/415/36
f 239/416/36 219/393/36 227/392/36
f 226/417/61 240/418/61 227/419/62
f 241/420/62 227/419/62 240/418/61
f 227/419/62 241/420/62 239/421/63
f 240/418/61 226/417/61 242/422/64
f 240/418/36 243/423/36 241/420/36
f 242/422/36 243/423/36 240/418/36
f 228/424/64 242/422/64 226/417/61
f 242/422/64 228/424/64 244/425/65
f 244/425/36 243/423/36 242/422/36
f 229/426/65 244/425/65 228/424/64
f 244/425/65 229/426/65 245/427/66
f 245/427/36 243/423/36 244/425/36
f 230/428/66 245/427/66 229/426/65
f 245/427/66 230/428/66 246/429/67
f 246/429/36 243/423/36 245/427/36
f 231/430/67 246/429/67 230/428/66
f 246/429/67 231/430/67 247/431/68
f 247/431/36 243/423/36 246/429/36
f 232/432/68 247/431/68 231/430/67
f 247/431/68 232/432/68 248/433/69
f 248/433/36 243/423/36 247/431/36
f 233/434/69 248/433/69 232/432/68
f 248/433/69 233/434/69 249/435/70
f 249/435/36 243/423/36 248/433/36
f 234/436/70 249/435/70 233/434/69
f 249/435/70 234/436/70 250/437/71
f 250/437/36 243/423/36 249/435/36
f 235/438/71 250/437/71 234/436/70
f 250/437/71 235/438/71 251/439/72
f 251/439/36 243/423/36 250/437/36
f 236/440/73 251/439/72 235/438/71
f 251/439/72 236/440/73 252/441/74
f 252/441/36 243/423/36 251/439/36
f 237/442/75 252/441/74 236/440/73
f 252/441/74 237/442/75 253/443/76
f 253/443/36 243/423/36 252/441/36
f 238/444/76 253/443/76 237/442/75
f 253/443/76 238/444/76 254/445/63
f 254/445/36 243/423/36 253/443/36
f 239/421/63 254/445/63 238/444/76
f 254/445/63 239/421/63 241/420/62
f 241/420/36 243/423/36 254/445/36
f 255/446/8 256/447/8 257/448/8
f 258/449/8 257/448/8 256/447/8
f 259/450/6 255/446/6 260/451/6
f 257/448/6 260/451/6 255/446/6
f 261/452/10 256/447/10 259/453/10
f 255/446/10 259/453/10 256/447/10
f 262/454/5 258/449/5 261/455/5
f 256/447/5 261/455/5 258/449/5
f 260/456/36 257/448/36 262/457/36
f 258/449/36 262/457/36 257/448/36
f 263/458/77 264/459/78 265/460/8
f 264/459/78 266/461/79 265/460/8
f 266/461/79 267/462/80 265/460/8
f 267/462/80 268/463/81 265/460/8
f 268/463/81 269/464/82 265/460/8
f 269/464/82 270/465/83 265/460/8
f 270/465/83 271/466/84 265/460/8
f 271/466/84 272/467/85 265/460/8
f 272/467/85 273/468/86 265/460/8
f 273/468/86 263/458/77 265/460/8
f 268/463/87 267/462/88 274/469/87
f 269/464/89 268/463/87 275/470/89
f 274/469/87 275/470/89 268/463/87
f 270/465/90 269/464/89 276/471/90
f 275/470/89 276/471/90 269/464/89
f 271/466/91 270/465/90 277/472/91
f 276/471/90 277/472/91 270/465/90
f 272/467/92 271/466/91 278/473/92
f 277/472/91 278/473/92 271/466/91
f 273/468/93 272/467/92 279/474/93
f 278/473/92 279/474/93 272/467/92
f 263/458/94 273/468/93 280/475/94
f 279/474/93 280/475/94 273/468/93
f 264/459/95 263/458/94 281/476/95
f 280/475/94 281/476/95 263/458/94
f 281/476/95 282/477/96 264/459/95
f 266/461/96 264/459/95 282/477/96
f 282/477/96 283/478/88 266/461/96
f 267/462/88 266/461/96 283/478/88
f 283/478/88 274/469/87 267/462/88
f 281/479/97 280/480/97 284/481/97
f 285/482/97 284/481/97 280/480/97
f 284/481/98 286/483/98 281/479/98
f 282/484/98 281/479/98 286/483/98
f 286/483/36 287/485/36 282/484/36
f 283/486/36 282/484/36 287/485/36
f 287/485/99 288/487/99 283/486/99
f 274/488/99 283/486/99 288/487/99
f 288/487/100 289/489/100 274/488/100
f 275/490/100 274/488/100 289/489/100
f 289/489/101 290/491/101 275/490/101
f 276/492/101 275/490/101 290/491/101
f 290/491/102 291/493/102 276/492/102
f 277/494/102 276/492/102 291/493/102
f 291/493/10 292/495/10 277/494/10
f 278/496/10 277/494/10 292/495/10
f 292/495/103 293/497/103 278/496/103
f 279/498/103 278/496/103 293/497/103
f 293/497/104 285/482/104 279/498/104
f 280/480/104 279/498/104 285/482/104
