# File produced by Open Asset Import Library (http://www.assimp.sf.net)
# (assimp v5.2.0)

mtllib crate3.mtl

# 180 vertex positions
v -27.0461025 -0.0458140001 8.54545879
v 26.9138985 -0.0458149984 8.5454607
v -27.0461025 5.63418674 8.54545879
v 26.9138985 5.63418484 8.5454607
v 22.4866238 2.72791815 -8.45158386
v 22.268652 2.82153201 -8.45158386
v 22.268652 2.82153201 -8.750494
v 22.4866238 2.72791815 -8.750494
v 22.4866238 2.84163904 -8.88007069
v 23.3106499 2.72791815 -8.45158386
v 23.3106499 2.84163904 -8.88007069
v 23.3106499 2.72791815 -8.750494
v 22.3422794 2.95535994 -8.88007069
v 22.197937 2.95535994 -8.750494
v 22.3422794 4.96672487 -8.88007069
v 22.197937 4.96672487 -8.750494
v 22.197937 2.95535994 -8.45158386
v 22.197937 4.96672487 -8.45158386
v 23.5286198 2.82153201 -8.45158386
v 23.5286198 2.82153201 -8.750494
v 23.4549904 2.95535994 -8.88007069
v 23.5993347 2.95535994 -8.750494
v 23.4549904 4.96672487 -8.88007069
v 23.5993347 4.96672487 -8.750494
v 23.5993347 4.96672487 -8.45158386
v 23.5993347 2.95535994 -8.45158386
v -22.4866238 2.95536208 -8.45158577
v -22.4866238 4.96672821 -8.45158577
v -22.4866238 2.95536208 -8.75049591
v -22.4866238 4.96672821 -8.75049591
v -22.3422794 4.96672821 -8.88007164
v -22.3422794 2.95536208 -8.88007164
v -22.4866238 2.84164095 -8.88007164
v -23.3106499 2.84164095 -8.88007164
v -23.3106499 2.95536208 -8.75049591
v -23.4549904 2.95536208 -8.88007164
v -23.4549904 4.96672821 -8.88007164
v -23.3106499 4.96672821 -8.75049591
v -23.3106499 2.95536208 -8.45158577
v -23.3106499 4.96672821 -8.45158577
v -22.197937 4.96672821 -8.75049591
v -22.197937 4.96672821 -8.45158577
v -22.197937 2.95536208 -8.45158577
v -22.197937 2.95536208 -8.75049591
v -22.268652 2.82153392 -8.45158577
v -22.268652 2.82153392 -8.75049591
v -22.4866238 2.72792006 -8.75049591
v -23.3106499 2.72792006 -8.75049591
v -23.3106499 2.72792006 -8.45158577
v -22.4866238 2.72792006 -8.45158577
v -23.5286198 2.82153392 -8.75049591
v -23.5286198 2.82153392 -8.45158577
v -23.5993347 2.95536208 -8.75049591
v -23.5993347 4.96672821 -8.75049591
v -23.5993347 2.95536208 -8.45158577
v -23.5993347 4.96672821 -8.45158577
v 23.3106499 2.95535994 -8.45158386
v 23.3106499 2.95535994 -8.750494
v 22.4866238 2.95535994 -8.45158386
v 22.4866238 2.95535994 -8.750494
v 26.9138985 -0.0458169989 -8.49453926
v -27.0461025 -0.0458149984 -8.49454117
v 26.9138985 5.63418198 -8.49453926
v -27.0461025 5.63418388 -8.49454117
v -23.7308254 1.80773199 -8.95412254
v -23.7308254 2.74019504 -8.95412254
v -22.0664444 1.80773199 -8.95412254
v -22.0664444 2.74019504 -8.95412254
v -22.0664444 1.80773199 -8.45925426
v -23.7308254 1.80773199 -8.45925426
v -22.0664444 2.74019599 -8.45925426
v -23.7308254 2.74019599 -8.45925426
v -23.7308254 4.89235592 -8.95412254
v -23.7308254 5.43738699 -8.95412254
v -22.0664444 4.89235592 -8.95412254
v -22.0664444 5.43738699 -8.95412254
v -22.0664444 4.89236307 -8.45925426
v -23.7308254 4.89236307 -8.45925426
v -22.0664444 5.43738699 -8.45925426
v -23.7308254 5.43738699 -8.45925426
v 25.1827774 4.83928299 8.50932217
v 25.1827774 5.21648502 8.50932217
v 25.1827774 4.93401814 8.78771305
v 25.1827774 5.12174988 8.78771305
v 22.2293205 4.83928299 8.50932217
v 22.2293205 4.93401814 8.78771305
v 22.2293205 5.21648502 8.50932217
v 22.2293205 5.12174988 8.78771305
v -25.1827774 5.21648693 8.50931835
v -25.1827774 4.8392849 8.50931835
v -25.1827774 5.12175179 8.78771114
v -25.1827774 4.93402004 8.78771114
v -22.2293205 4.8392849 8.50931835
v -22.2293205 5.21648693 8.50931835
v -22.2293205 4.93402004 8.78771114
v -22.2293205 5.12175179 8.78771114
v -28.6903896 4.76326895 -8.29886436
v -28.6903896 4.76327181 8.34978199
v -27.7201748 4.76326895 -8.29886436
v -27.7201748 4.76327181 8.34978199
v -27.7201748 2.52196407 -8.29886436
v -27.7201748 2.52196598 8.34978199
v -28.6903896 2.52196407 -8.29886436
v -28.6903896 2.52196598 8.34978199
v -26.8959351 0.273452997 -7.92235279
v -27.8662224 0.273452997 -7.92235374
v -26.8959351 5.31491899 -7.92235279
v -27.8662224 5.31491899 -7.92235374
v -27.8662224 0.273452997 -5.68101597
v -26.8959351 0.273452997 -5.68101597
v -27.8662224 5.31491899 -5.68101692
v -26.8959351 5.31491899 -5.68101692
v -26.8959351 0.273454994 7.97326899
v -26.8959351 5.3149209 7.97326899
v -27.8662224 0.273454994 7.97326899
v -27.8662224 5.3149209 7.97326899
v -27.8662224 0.273454994 5.73193502
v -27.8662224 5.31491995 5.73193502
v -26.8959351 0.273454994 5.73193502
v -26.8959351 5.31491995 5.73193502
v 26.8959351 0.273452997 7.97327089
v 27.8662224 0.273452997 7.97327089
v 26.8959351 5.31491899 7.97327089
v 27.8662224 5.31491899 7.97327089
v 27.8662224 0.273452997 5.73193598
v 26.8959351 0.273452997 5.73193598
v 27.8662224 5.31491804 5.73193598
v 26.8959351 5.31491804 5.73193598
v 1.54841101 4.2198782 -8.82625198
v 1.54841101 5.91405821 -8.82625198
v 1.54841101 4.2198782 -7.85596704
v 1.54841101 5.91405821 -7.85596704
v -1.54841101 4.2198782 -7.85596704
v -1.54841101 5.91405821 -7.85596704
v -1.54841101 4.2198782 -8.82625198
v -1.54841101 5.91405821 -8.82625198
v 1.47671497 4.83928394 8.50932026
v 1.47671497 5.21648598 8.50932026
v 1.47671497 4.93401909 8.78771114
v 1.47671497 5.12175083 8.78771114
v -1.47671497 4.83928394 8.50932026
v -1.47671497 4.93401909 8.78771114
v -1.47671497 5.21648598 8.50932026
v -1.47671497 5.12175083 8.78771114
v 23.7308254 1.80772996 -8.95412159
v 22.0664444 1.80772996 -8.95412159
v 23.7308254 2.74019289 -8.95412159
v 22.0664444 2.74019289 -8.95412159
v 22.0664444 1.80772996 -8.45925236
v 23.7308254 1.80772996 -8.45925236
v 22.0664444 2.74019408 -8.45925236
v 23.7308254 2.74019408 -8.45925236
v 23.7308254 4.89235401 -8.95412159
v 22.0664444 4.89235401 -8.95412159
v 23.7308254 5.43738508 -8.95412159
v 22.0664444 5.43738508 -8.95412159
v 22.0664444 4.89236116 -8.45925236
v 23.7308254 4.89236116 -8.45925236
v 22.0664444 5.43738508 -8.45925236
v 23.7308254 5.43738508 -8.45925236
v 28.6903896 4.76326799 -8.29886246
v 27.7201748 4.76326799 -8.29886246
v 28.6903896 4.7632699 8.3497839
v 27.7201748 4.7632699 8.3497839
v 27.7201748 2.52196193 -8.29886246
v 28.6903896 2.52196193 -8.29886246
v 27.7201748 2.52196407 8.3497839
v 28.6903896 2.52196407 8.3497839
v 26.8959351 0.273449987 -7.92235088
v 26.8959351 5.31491709 -7.92235088
v 27.8662224 0.273449987 -7.92235088
v 27.8662224 5.31491709 -7.92235088
v 27.8662224 0.273449987 -5.68101311
v 27.8662224 5.31491709 -5.68101406
v 26.8959351 0.273449987 -5.68101406
v 26.8959351 5.31491709 -5.68101501
v 22.4866238 4.96672487 -8.45158386
v 22.4866238 4.96672487 -8.750494
v 23.3106499 4.96672487 -8.750494
v 23.3106499 4.96672487 -8.45158386

# 174 UV coordinates
vt 0.00784299988 -0.00784301758 0
vt 0.00784299988 -0.898038983 0
vt 0.105881996 -0.00784301758 0
vt 0.105881996 -0.898038983 0
vt 0.831372976 -0.156862974 0
vt 0.819607973 -0.156862974 0
vt 0.819607973 -0.141175985 0
vt 0.831372976 -0.141175985 0
vt 0.831372976 -0.133332968 0
vt 0.866666973 -0.156862974 0
vt 0.866666973 -0.133332968 0
vt 0.866666973 -0.141175985 0
vt 0.827450991 -0.129411936 0
vt 0.819607973 -0.129411936 0
vt 0.827450991 -0.0352940559 0
vt 0.819607973 -0.0352940559 0
vt 0.807843029 -0.129411936 0
vt 0.807843029 -0.141175985 0
vt 0.807843029 -0.0352940559 0
vt 0.878431022 -0.156862974 0
vt 0.878431022 -0.141175985 0
vt 0.870588005 -0.129411936 0
vt 0.878431022 -0.129411936 0
vt 0.870588005 -0.0352940559 0
vt 0.878431022 -0.0352940559 0
vt 0.890196025 -0.0352940559 0
vt 0.890196025 -0.129411936 0
vt 0.890196025 -0.141175985 0
vt 0.847059011 -0.129411936 0
vt 0.847059011 -0.0352940559 0
vt 0.831372976 -0.129411936 0
vt 0.831372976 -0.0352940559 0
vt 0.866666973 -0.129411936 0
vt 0.866666973 -0.0352940559 0
vt 0.850979984 -0.129411936 0
vt 0.850979984 -0.0352940559 0
vt 0.866666973 -0.0156860352 0
vt 0.866666973 -0.031373024 0
vt 0.831372976 -0.0156860352 0
vt 0.831372976 -0.031373024 0
vt 0.501960993 -0.898038983 0
vt 0.501960993 -0.00784301758 0
vt 0.403921992 -0.898038983 0
vt 0.403921992 -0.00784301758 0
vt 0.796078026 -0.00784301758 0
vt 0.796078026 -0.898038983 0
vt 0.105881996 -0.996078014 0
vt 0.403921992 -0.996078014 0
vt 0.976471007 -0.0274510384 0
vt 0.976471007 -0.0470590591 0
vt 0.92156899 -0.0274510384 0
vt 0.92156899 -0.0470590591 0
vt 0.92156899 -0.00784301758 0
vt 0.976471007 -0.00784301758 0
vt 0.905882001 -0.0470590591 0
vt 0.905882001 -0.0274510384 0
vt 0.976471007 -0.0627449751 0
vt 0.92156899 -0.0627449751 0
vt 0.992156982 -0.0274510384 0
vt 0.992156982 -0.0470590591 0
vt 0.976471007 -0.0901960135 0
vt 0.976471007 -0.105882049 0
vt 0.92156899 -0.0901960135 0
vt 0.92156899 -0.105882049 0
vt 0.92156899 -0.0705879927 0
vt 0.976471007 -0.0705879927 0
vt 0.905882001 -0.105882049 0
vt 0.905882001 -0.0901960135 0
vt 0.976471007 -0.12548995 0
vt 0.92156899 -0.12548995 0
vt 0.992156982 -0.0901960135 0
vt 0.992156982 -0.105882049 0
vt 0.968626976 -0.827450991 0
vt 0.988234997 -0.827450991 0
vt 0.972549021 -0.811764956 0
vt 0.984314024 -0.811764956 0
vt 0.968626976 -0.670588017 0
vt 0.972549021 -0.686275005 0
vt 0.988234997 -0.670588017 0
vt 0.984314024 -0.686275005 0
vt 0.960784018 -0.811764956 0
vt 0.960784018 -0.686275005 0
vt 0.992156982 -0.811764956 0
vt 0.992156982 -0.686275005 0
vt 0.988234997 -0.988234997 0
vt 0.968626976 -0.988234997 0
vt 0.984314024 -0.976470947 0
vt 0.972549021 -0.976470947 0
vt 0.968626976 -0.835294008 0
vt 0.988234997 -0.835294008 0
vt 0.972549021 -0.847059011 0
vt 0.984314024 -0.847059011 0
vt 0.960784018 -0.976470947 0
vt 0.960784018 -0.847059011 0
vt 0.996078014 -0.976470947 0
vt 0.996078014 -0.847059011 0
vt 0.937255025 -0.972548962 0
vt 0.937255025 -0.658823013 0
vt 0.956862986 -0.972548962 0
vt 0.956862986 -0.658823013 0
vt 0.878431022 -0.972548962 0
vt 0.878431022 -0.658823013 0
vt 0.894118011 -0.972548962 0
vt 0.894118011 -0.658823013 0
vt 0.937255025 -0.988234997 0
vt 0.894118011 -0.988234997 0
vt 0.937255025 -0.639215946 0
vt 0.894118011 -0.639215946 0
vt 0.835294008 -0.972548962 0
vt 0.835294008 -0.658823013 0
vt 0.803921998 -0.988234997 0
vt 0.803921998 -0.968626976 0
vt 0.709803998 -0.988234997 0
vt 0.709803998 -0.968626976 0
vt 0.803921998 -0.925490022 0
vt 0.803921998 -0.905882001 0
vt 0.709803998 -0.925490022 0
vt 0.709803998 -0.905882001 0
vt 0.823529005 -0.968626976 0
vt 0.823529005 -0.925490022 0
vt 0.690195978 -0.968626976 0
vt 0.690195978 -0.925490022 0
vt 0.662744999 -0.988234997 0
vt 0.568627 -0.988234997 0
vt 0.662744999 -0.968626976 0
vt 0.568627 -0.968626976 0
vt 0.662744999 -0.925490022 0
vt 0.568627 -0.925490022 0
vt 0.662744999 -0.909803987 0
vt 0.568627 -0.909803987 0
vt 0.68235302 -0.968626976 0
vt 0.68235302 -0.925490022 0
vt 0.549019992 -0.968626976 0
vt 0.549019992 -0.925490022 0
vt 0.831372976 -0.188235044 0
vt 0.862744987 -0.188235044 0
vt 0.831372976 -0.164705992 0
vt 0.862744987 -0.164705992 0
vt 0.831372976 -0.290195942 0
vt 0.862744987 -0.290195942 0
vt 0.831372976 -0.266667008 0
vt 0.862744987 -0.266667008 0
vt 0.807843029 -0.188235044 0
vt 0.807843029 -0.266667008 0
vt 0.886274993 -0.188235044 0
vt 0.886274993 -0.266667008 0
vt 0.92156899 -0.188235044 0
vt 0.92156899 -0.266667008 0
vt 0.937255025 -0.611765027 0
vt 0.956862986 -0.611765027 0
vt 0.937255025 -0.29803896 0
vt 0.956862986 -0.29803896 0
vt 0.878431022 -0.611765027 0
vt 0.894118011 -0.611765027 0
vt 0.878431022 -0.29803896 0
vt 0.894118011 -0.29803896 0
vt 0.937255025 -0.627450943 0
vt 0.894118011 -0.627450943 0
vt 0.937255025 -0.278430939 0
vt 0.894118011 -0.278430939 0
vt 0.835294008 -0.611765027 0
vt 0.835294008 -0.29803896 0
vt 0.525489986 -0.988234997 0
vt 0.431373 -0.988234997 0
vt 0.525489986 -0.968626976 0
vt 0.431373 -0.968626976 0
vt 0.525489986 -0.925490022 0
vt 0.431373 -0.925490022 0
vt 0.525489986 -0.905882001 0
vt 0.431373 -0.905882001 0
vt 0.545098007 -0.968626976 0
vt 0.545098007 -0.925490022 0
vt 0.411765009 -0.968626976 0
vt 0.411765009 -0.925490022 0

# 73 vertex normals
vn 0 0 1
vn -0.267957985 -0.963429987 0
vn -0.394621998 -0.918843985 0
vn -0.56574899 -0.725511014 -0.391869009
vn -0.126714006 -0.927559018 -0.351536006
vn -0.242256001 -0.674601972 -0.69729799
vn 0.133980006 -0.990984023 0
vn 0.181813002 -0.698559999 -0.692067981
vn 0.237079993 -0.930756986 -0.278360993
vn -0.584730029 -0.290398985 -0.757468998
vn -0.881946027 -0.236072004 -0.407972991
vn -0.66802001 0 -0.744143009
vn -0.963235974 0 -0.268658012
vn -0.987133026 -0.159900993 0
vn -0.884157002 -0.467189997 0
vn -1 0 0
vn 0.394625008 -0.918842018 0
vn 0.658765018 -0.641826987 -0.392540008
vn 0.584728003 -0.290396005 -0.757471979
vn 0.901268005 -0.148666993 -0.406957
vn 0.668015003 0 -0.744148016
vn 0.913240016 0 -0.407422006
vn 1 0 0
vn 0.94748503 -0.319801003 0
vn 0.884157002 -0.467189997 0
vn -0.692897022 0.387374014 -0.608139992
vn -0.913239002 0 -0.40742299
vn -0.668012023 0 -0.744149983
vn -0.627137005 0.344435006 -0.698616028
vn -0.264137 0.724900007 -0.636201024
vn 0.175365999 0.739944994 -0.649406016
vn 0.68165499 0.334964007 -0.650496006
vn 0.627147019 0.344431996 -0.698607981
vn 0.668021977 0 -0.744140983
vn 0.963235974 0 -0.268656999
vn 0.963235021 0 -0.268658996
vn 0.987133026 -0.159900993 0
vn 0.881945014 -0.236072004 -0.407974988
vn 0.66801703 0 -0.744145989
vn 0.56574899 -0.725511014 -0.391869992
vn 0.584726989 -0.290398985 -0.757471025
vn 0.242256001 -0.674598992 -0.697300971
vn 0.126715004 -0.927558005 -0.351538002
vn -0.181813002 -0.698557019 -0.692071021
vn -0.237079993 -0.930755973 -0.278362989
vn -0.133981004 -0.990984023 0
vn 0.267958999 -0.963429987 0
vn -0.658764005 -0.641825974 -0.392542005
vn -0.584725022 -0.290394992 -0.757474005
vn -0.394625992 -0.918842018 0
vn -0.901266992 -0.148666993 -0.406958997
vn -0.94748503 -0.319801986 0
vn 0.394623011 -0.918842971 0
vn 0 1 0
vn 0 0 -1
vn 0 -1 0
vn 0 -1 1.29999999e-05
vn 0 -0.946687996 0.322151989
vn 0 0.946686983 0.322153002
vn 0 -0.946687996 0.322151005
vn 0 0.946687996 0.322151005
vn 9.99999997e-07 0 -1
vn 0 -0.946686983 0.322153002
vn 0 -1 1.40000002e-05
vn -9.99999997e-07 0 1
vn 0.692898989 0.387374997 -0.608138025
vn 0.627138972 0.344435006 -0.698612988
vn 0.264138013 0.724901021 -0.636198997
vn -0.175366998 0.739947021 -0.649403989
vn -0.681657016 0.334964991 -0.650493979
vn -0.627148986 0.344431996 -0.698606014
vn -0.668025017 0 -0.744139016
vn -0.963235974 0 -0.268655986

# Mesh 'studio_crateroc_ref_mesh_0' with 238 faces
g studio_crateroc_ref_mesh_0
usemtl Material04
f  1/1/1 2/2/1 3/3/1
f  2/2/1 4/4/1 3/3/1
f  5/5/2 6/6/3 7/7/4
f  8/8/5 5/5/2 7/7/4
f  8/8/5 7/7/4 9/9/6
f  5/5/2 8/8/5 10/10/7
f  9/9/6 11/11/8 8/8/5
f  11/11/8 12/12/9 8/8/5
f  8/8/5 12/12/9 10/10/7
f  9/9/6 7/7/4 13/13/10
f  7/7/4 14/14/11 13/13/10
f  13/13/10 14/14/11 15/15/12
f  14/14/11 16/16/13 15/15/12
f  14/14/11 17/17/14 16/16/13
f  17/17/14 14/14/11 6/18/15
f  14/14/11 7/7/4 6/18/15
f  17/17/14 18/19/16 16/16/13
f  10/10/7 12/12/9 19/20/17
f  12/12/9 20/21/18 19/20/17
f  12/12/9 11/11/8 20/21/18
f  21/22/19 20/21/18 11/11/8
f  22/23/20 20/21/18 21/22/19
f  21/22/19 23/24/21 22/23/20
f  23/24/21 24/25/22 22/23/20
f  22/23/20 24/25/22 25/26/23
f  26/27/24 22/23/20 25/26/23
f  20/21/18 22/23/20 26/27/24
f  19/28/25 20/21/18 26/27/24
f  27/29/16 28/30/16 29/31/26
f  28/30/16 30/32/27 29/31/26
f  29/31/26 30/32/27 31/15/28
f  32/13/29 29/31/26 31/15/28
f  29/31/26 32/13/29 33/9/30
f  33/9/30 34/11/31 29/31/26
f  34/11/31 35/33/32 29/31/26
f  34/11/31 36/22/33 35/33/32
f  36/22/33 37/24/34 35/33/32
f  37/24/34 38/34/35 35/33/32
f  35/33/32 38/34/35 39/35/23
f  38/34/35 40/36/23 39/35/23
f  41/16/36 42/19/23 43/17/37
f  44/14/38 41/16/36 43/17/37
f  43/17/37 45/18/25 44/14/38
f  31/15/39 41/16/36 44/14/38
f  45/18/25 46/7/40 44/14/38
f  46/7/40 32/13/41 44/14/38
f  32/13/41 31/15/39 44/14/38
f  33/9/42 32/13/41 46/7/40
f  47/8/43 33/9/42 46/7/40
f  33/9/42 47/8/43 34/11/44
f  47/8/43 48/12/45 34/11/44
f  49/10/46 48/12/45 47/8/43
f  50/5/47 49/10/46 47/8/43
f  47/8/43 46/7/40 50/5/47
f  48/12/45 51/21/48 34/11/44
f  36/22/49 34/11/44 51/21/48
f  52/20/50 51/21/48 48/12/45
f  49/10/46 52/20/50 48/12/45
f  36/22/49 53/23/51 37/24/28
f  53/23/51 36/22/49 51/21/48
f  53/23/51 54/25/27 37/24/28
f  55/27/52 53/23/51 51/21/48
f  55/27/52 56/26/16 53/23/51
f  56/26/16 54/25/27 53/23/51
f  52/28/15 55/27/52 51/21/48
f  46/7/40 45/6/53 50/5/47
f  57/37/54 58/38/54 59/39/54
f  58/38/54 60/40/54 59/39/54
f  61/41/55 62/42/55 63/43/55
f  62/42/55 64/44/55 63/43/55
f  1/45/56 62/42/56 2/46/56
f  62/42/56 61/41/56 2/46/56
f  3/4/16 64/43/16 1/47/16
f  64/43/16 62/48/16 1/47/16
f  4/4/54 63/43/54 3/3/54
f  63/43/54 64/44/54 3/3/54
f  2/47/23 61/48/23 4/4/23
f  61/48/23 63/43/23 4/4/23
f  65/49/55 66/50/55 67/51/55
f  66/50/55 68/52/55 67/51/55
f  69/53/56 70/54/56 67/51/56
f  70/54/56 65/49/56 67/51/56
f  71/55/23 69/56/23 68/52/23
f  69/56/23 67/51/23 68/52/23
f  72/57/54 71/58/54 66/50/54
f  71/58/54 68/52/54 66/50/54
f  70/59/16 72/60/16 65/49/16
f  72/60/16 66/50/16 65/49/16
f  39/37/54 27/39/54 35/38/54
f  27/39/54 29/40/54 35/38/54
f  73/61/55 74/62/55 75/63/55
f  74/62/55 76/64/55 75/63/55
f  77/65/57 78/66/57 75/63/57
f  78/66/57 73/61/57 75/63/57
f  79/67/23 77/68/23 76/64/23
f  77/68/23 75/63/23 76/64/23
f  80/69/54 79/70/54 74/62/54
f  79/70/54 76/64/54 74/62/54
f  78/71/16 80/72/16 73/61/16
f  80/72/16 74/62/16 73/61/16
f  81/73/23 82/74/23 83/75/23
f  83/75/23 82/74/23 84/76/23
f  85/77/16 86/78/16 87/79/16
f  86/78/16 88/80/16 87/79/16
f  83/75/58 86/78/58 81/81/58
f  86/78/58 85/82/58 81/81/58
f  84/76/1 88/80/1 83/75/1
f  88/80/1 86/78/1 83/75/1
f  82/83/59 87/84/59 84/76/59
f  87/84/59 88/80/59 84/76/59
f  89/85/16 90/86/16 91/87/16
f  92/88/16 91/87/16 90/86/16
f  93/89/23 94/90/23 95/91/23
f  94/90/23 96/92/23 95/91/23
f  92/88/60 90/93/60 95/91/60
f  90/93/60 93/94/60 95/91/60
f  91/87/1 92/88/1 96/92/1
f  92/88/1 95/91/1 96/92/1
f  89/95/61 91/87/61 94/96/61
f  91/87/61 96/92/61 94/96/61
f  97/97/54 98/98/54 99/99/54
f  98/98/54 100/100/54 99/99/54
f  101/101/56 102/102/56 103/103/56
f  102/102/56 104/104/56 103/103/56
f  97/97/55 99/105/55 103/103/55
f  99/105/55 101/106/55 103/103/55
f  98/98/16 97/97/16 104/104/16
f  97/97/16 103/103/16 104/104/16
f  100/107/1 98/98/1 102/108/1
f  98/98/1 104/104/1 102/108/1
f  99/109/23 100/110/23 101/101/23
f  100/110/23 102/102/23 101/101/23
f  105/111/62 106/112/62 107/113/62
f  106/112/62 108/114/62 107/113/62
f  109/115/1 110/116/1 111/117/1
f  110/116/1 112/118/1 111/117/1
f  105/119/56 110/120/56 106/112/56
f  110/120/56 109/115/56 106/112/56
f  108/114/54 111/117/54 107/121/54
f  111/117/54 112/122/54 107/121/54
f  106/112/16 109/115/16 108/114/16
f  109/115/16 111/117/16 108/114/16
f  113/123/1 114/124/1 115/125/1
f  114/124/1 116/126/1 115/125/1
f  117/127/55 118/128/55 119/129/55
f  118/128/55 120/130/55 119/129/55
f  113/131/56 115/125/56 119/132/56
f  115/125/56 117/127/56 119/132/56
f  116/126/54 114/133/54 118/128/54
f  114/133/54 120/134/54 118/128/54
f  115/125/16 116/126/16 117/127/16
f  116/126/16 118/128/16 117/127/16
f  121/123/1 122/125/1 123/124/1
f  122/125/1 124/126/1 123/124/1
f  125/127/55 126/129/55 127/128/55
f  126/129/55 128/130/55 127/128/55
f  121/131/56 126/132/56 122/125/56
f  126/132/56 125/127/56 122/125/56
f  124/126/54 127/128/54 123/133/54
f  127/128/54 128/134/54 123/133/54
f  122/125/23 125/127/23 124/126/23
f  125/127/23 127/128/23 124/126/23
f  129/135/23 130/136/23 131/137/23
f  130/136/23 132/138/23 131/137/23
f  133/139/16 134/140/16 135/141/16
f  134/140/16 136/142/16 135/141/16
f  129/135/56 131/143/56 135/141/56
f  131/143/56 133/144/56 135/141/56
f  130/136/55 129/135/55 136/142/55
f  129/135/55 135/141/55 136/142/55
f  132/145/54 130/136/54 134/146/54
f  130/136/54 136/142/54 134/146/54
f  131/147/1 132/145/1 133/148/1
f  132/145/1 134/146/1 133/148/1
f  137/73/23 138/74/23 139/75/23
f  139/75/23 138/74/23 140/76/23
f  141/77/16 142/78/16 143/79/16
f  142/78/16 144/80/16 143/79/16
f  139/75/63 142/78/63 137/81/63
f  142/78/63 141/82/63 137/81/63
f  140/76/1 144/80/1 139/75/1
f  144/80/1 142/78/1 139/75/1
f  138/83/59 143/84/59 140/76/59
f  143/84/59 144/80/59 140/76/59
f  145/49/55 146/51/55 147/50/55
f  146/51/55 148/52/55 147/50/55
f  149/53/56 146/51/56 150/54/56
f  146/51/56 145/49/56 150/54/56
f  151/55/16 148/52/16 149/56/16
f  148/52/16 146/51/16 149/56/16
f  152/57/54 147/50/54 151/58/54
f  147/50/54 148/52/54 151/58/54
f  150/59/23 145/49/23 152/60/23
f  145/49/23 147/50/23 152/60/23
f  153/61/55 154/63/55 155/62/55
f  154/63/55 156/64/55 155/62/55
f  157/65/64 154/63/64 158/66/64
f  154/63/64 153/61/64 158/66/64
f  159/67/16 156/64/16 157/68/16
f  156/64/16 154/63/16 157/68/16
f  160/69/54 155/62/54 159/70/54
f  155/62/54 156/64/54 159/70/54
f  158/71/23 153/61/23 160/72/23
f  153/61/23 155/62/23 160/72/23
f  161/149/54 162/150/54 163/151/54
f  162/150/54 164/152/54 163/151/54
f  165/153/56 166/154/56 167/155/56
f  166/154/56 168/156/56 167/155/56
f  161/149/55 166/154/55 162/157/55
f  166/154/55 165/158/55 162/157/55
f  163/151/23 168/156/23 161/149/23
f  168/156/23 166/154/23 161/149/23
f  164/159/1 167/160/1 163/151/1
f  167/160/1 168/156/1 163/151/1
f  162/161/16 165/153/16 164/162/16
f  165/153/16 167/155/16 164/162/16
f  169/163/55 170/164/55 171/165/55
f  170/164/55 172/166/55 171/165/55
f  173/167/65 174/168/65 175/169/65
f  174/168/65 176/170/65 175/169/65
f  169/171/56 171/165/56 175/172/56
f  171/165/56 173/167/56 175/172/56
f  172/166/54 170/173/54 174/168/54
f  170/173/54 176/174/54 174/168/54
f  171/165/23 172/166/23 173/167/23
f  172/166/23 174/168/23 173/167/23
f  59/29/23 60/31/66 177/30/23
f  60/31/66 178/32/22 177/30/23
f  15/15/21 178/32/22 60/31/66
f  13/13/67 15/15/21 60/31/66
f  60/31/66 9/9/68 13/13/67
f  9/9/68 60/31/66 11/11/69
f  60/31/66 58/33/70 11/11/69
f  11/11/69 58/33/70 21/22/71
f  21/22/71 58/33/70 23/24/72
f  58/33/70 179/34/73 23/24/72
f  58/33/70 57/35/16 179/34/73
f  57/35/16 180/36/16 179/34/73

