# Blender 4.2.3 LTS
# www.blender.org
mtllib crate2.mtl
o crate2
v 12.394500 8.443355 8.364594
v 12.394500 9.017531 8.364594
v 10.436036 8.443355 8.364594
v 10.436036 9.017531 8.364594
v -16.945114 2.120598 -0.035507
v -16.945114 2.120449 -1.585119
v -17.141926 2.002504 -0.035507
v -16.945114 2.120456 1.446596
v -17.141926 2.002291 1.446596
v -17.212997 1.766301 -0.035507
v -17.141926 2.002283 -1.585119
v -16.945114 2.315714 -1.847300
v -17.212997 2.197528 -1.959530
v -17.212997 1.765981 -1.585119
v -17.212997 1.765996 1.446596
v -17.212997 2.036981 2.104085
v -17.212997 2.197527 1.879626
v -16.945114 2.315713 1.767396
v -16.945114 2.839828 1.960459
v -17.212997 2.839828 2.127536
v -17.212997 2.839828 2.461691
v -17.212997 3.532461 1.879626
v -17.212997 3.696067 2.104085
v -16.945114 3.414275 1.767396
v -17.212997 3.743978 1.446596
v -17.212997 3.980273 1.446596
v -16.945114 3.625812 1.446596
v -17.212997 3.743764 -0.035507
v -17.212997 3.979967 -0.035507
v -16.945114 3.625670 -0.035507
v -17.212997 3.743986 -1.585118
v -16.945114 3.625820 -1.585118
v -16.945114 3.414276 -1.847300
v -17.212997 3.532462 -1.959529
v -17.212997 3.980288 -1.585118
v -16.945114 2.839829 -2.040363
v -17.212997 2.839829 -2.207440
v -17.212997 3.696067 -2.183989
v -16.945114 3.814254 -2.296217
v -16.945114 4.098432 -1.585118
v -16.945114 4.098063 -0.035507
v -17.212997 2.839829 -2.541594
v -16.945114 2.839829 -2.708671
v -17.212997 2.036982 -2.183989
v -16.945114 1.918796 -2.296218
v -16.945114 1.647837 -1.585119
v -16.945114 1.648207 -0.035507
v -16.945114 1.647852 1.446596
v -16.945114 1.918795 2.216315
v -16.945114 2.839828 2.628768
v -16.945114 3.814253 2.216316
v -16.945114 4.098416 1.446596
v 17.427975 3.793690 1.591903
v 17.427975 4.198901 1.591903
v 17.112236 4.401499 1.591903
v 17.112236 3.591091 1.591903
v -10.282189 0.899397 8.433964
v -10.282189 1.868037 9.278580
v -12.240653 0.899397 8.433964
v -12.240653 1.868037 9.278582
v -12.240653 6.674494 9.278581
v -10.282189 6.674493 9.278579
v -10.282189 7.643113 8.433963
v -12.240653 7.643113 8.433963
v 17.098961 1.763977 -1.585120
v 17.098961 2.034936 -2.296221
v 17.366840 1.882121 -1.585120
v 17.366840 2.153122 -2.183991
v 17.366840 1.882441 -0.035509
v 17.098961 1.764346 -0.035509
v 17.098961 2.955969 -2.708673
v 17.366840 2.955969 -2.541595
v 17.366840 3.812208 -2.183990
v 17.098961 3.930394 -2.296220
v 17.366840 4.096428 -1.585120
v 17.366840 3.648602 -1.959531
v 17.366840 2.955969 -2.207442
v 17.098961 4.214571 -1.585120
v 17.098961 4.214201 -0.035509
v 17.366840 4.096107 -0.035509
v 17.366840 3.860125 -1.585120
v 17.366840 4.096412 1.446594
v 17.098961 4.214556 1.446594
v 17.098961 3.930393 2.216313
v 17.366840 3.812207 2.104084
v 17.098961 2.955968 2.628766
v 17.366840 2.955968 2.461689
v 17.366840 2.153121 2.104083
v 17.098961 2.034935 2.216313
v 17.366840 1.882135 1.446594
v 17.098961 1.763991 1.446594
v 17.098961 3.530415 -1.847302
v 17.098961 2.955969 -2.040365
v 17.098961 3.741960 -1.585120
v 17.366840 3.859904 -0.035509
v 17.098961 3.741810 -0.035509
v 17.098961 3.741952 1.446594
v 17.366840 3.860117 1.446594
v 17.098961 3.530414 1.767394
v 17.366840 3.648601 1.879624
v 17.098961 2.955968 1.960457
v 17.366840 2.955968 2.127534
v 17.366840 2.313659 1.879624
v 17.098961 2.431853 1.767394
v 17.366840 2.118430 1.446594
v 17.098961 2.236596 1.446594
v 17.366840 2.118636 -0.035509
v 17.098961 2.236738 -0.035509
v 17.098961 2.236589 -1.585120
v 17.366840 2.118423 -1.585120
v 17.098961 2.431854 -1.847302
v 17.366840 2.313660 -1.959532
v 12.394500 8.443355 -8.435142
v 12.394500 9.017531 -8.435142
v 12.394500 9.540022 -5.666130
v 12.394500 9.540020 5.595580
v 17.427975 3.793691 -0.762265
v 17.427975 4.198902 -0.762265
v 17.112236 4.401499 -0.762265
v 17.112236 3.591092 -0.762265
v -0.965996 9.017531 8.364738
v -0.965996 9.540020 5.595651
v -0.965996 9.540022 -5.666199
v -0.965996 9.017531 -8.435283
v -0.965996 8.443355 8.364738
v -0.965996 8.443355 -8.435283
v -16.963078 -0.000818 -8.555271
v -16.963078 8.519183 -8.555272
v 17.116924 -0.000820 -8.555273
v 17.116924 8.519181 -8.555274
v 17.116924 -0.000821 8.484728
v 17.116924 8.519181 8.484727
v -16.963078 -0.000819 8.484730
v -16.963078 8.519183 8.484729
v -0.923204 7.704598 -8.504508
v -0.923204 6.735973 -9.349124
v -0.923204 0.960884 -8.504507
v -0.923204 1.929522 -9.349123
v 1.035231 0.960884 -8.504507
v 1.035231 1.929522 -9.349123
v 1.035231 7.704598 -8.504508
v 1.035231 6.735973 -9.349124
v -16.958393 3.474951 -1.665405
v -17.274128 3.677551 -1.665405
v -16.958393 4.285360 -1.665405
v -17.274128 4.082762 -1.665405
v -16.958393 3.474951 -0.762263
v -16.958393 4.285360 -0.762263
v -17.274128 3.677551 -0.762263
v -17.274128 4.082762 -0.762263
v -12.230216 9.017531 -8.435140
v -12.230216 9.540022 5.595581
v -12.230216 9.540022 -5.666129
v -12.230216 9.017531 8.364596
v -12.230216 8.443355 -8.435140
v -12.230216 8.443355 8.364596
v 10.436036 9.017531 -8.435140
v 10.436036 9.540020 5.595580
v 10.436036 9.540022 -5.666130
v 10.436036 8.443355 -8.435140
v -10.270901 9.017531 -8.435140
v -10.270901 9.540022 -5.666129
v -10.270901 9.540022 5.595581
v -10.270901 9.017531 8.364594
v 10.436036 0.899397 8.433964
v 12.394500 0.899397 8.433962
v 10.436036 1.868036 9.278580
v 12.394500 1.868036 9.278580
v 12.394500 6.674492 9.278579
v 10.436036 6.674493 9.278579
v 10.436036 7.643113 8.433963
v 12.394500 7.643113 8.433961
v 12.394500 7.704598 -8.504508
v 12.394500 6.735972 -9.349124
v 10.436036 7.704598 -8.504508
v 10.436036 6.735972 -9.349124
v 10.436036 1.929522 -9.349123
v 12.394500 1.929522 -9.349123
v 12.394500 0.960884 -8.504507
v 10.436036 0.960884 -8.504507
v -16.958393 3.474951 0.688764
v -17.274128 3.677550 0.688764
v -16.958393 4.285360 0.688764
v -17.274128 4.082761 0.688764
v -16.958393 3.474951 1.591905
v -16.958393 4.285360 1.591905
v -17.274128 3.677550 1.591905
v -17.274128 4.082761 1.591905
v 14.014862 6.669210 7.878810
v 14.014862 8.702929 7.878810
v 14.014862 6.669210 8.839442
v 14.014862 8.702929 8.839442
v 12.732105 8.702929 7.878810
v 12.732105 8.702929 8.839442
v 12.732105 6.669210 7.878810
v 12.732105 6.669210 8.839442
v 17.112236 3.591092 -1.665407
v 17.427975 3.793691 -1.665407
v 17.427975 4.198902 -1.665407
v 17.112236 4.401500 -1.665407
v -0.923204 0.899397 8.433964
v 1.035231 0.899397 8.433964
v -0.923204 1.868036 9.278580
v 1.035231 1.868036 9.278580
v 1.035231 6.674493 9.278579
v -0.923204 6.674493 9.278579
v -0.923204 7.643113 8.433963
v 1.035231 7.643113 8.433963
v -13.861015 6.669212 7.878811
v -13.861015 6.669212 8.839444
v -13.861015 8.702931 7.878811
v -13.861015 8.702931 8.839444
v -12.578259 8.702931 7.878811
v -12.578259 8.702931 8.839444
v -12.578259 6.669212 7.878811
v -12.578259 6.669212 8.839444
v -10.270901 8.443355 -8.435140
v -10.270901 8.443355 8.364594
v 17.112236 3.591091 0.688762
v 17.112236 4.401499 0.688762
v 17.427975 3.793690 0.688762
v 17.427975 4.198901 0.688762
v 0.992440 8.443355 8.364738
v 0.992440 9.017531 8.364738
v 0.992440 8.443355 -8.435283
v 0.992440 9.017531 -8.435283
v 0.992440 9.540020 5.595651
v 0.992440 9.540022 -5.666199
v -10.282189 7.704600 -8.504508
v -10.282189 0.960884 -8.504507
v -10.282189 6.735973 -9.349124
v -10.282189 1.929522 -9.349123
v -12.240653 0.960884 -8.504505
v -12.240653 7.704600 -8.504506
v -12.240653 1.929522 -9.349121
v -12.240653 6.735976 -9.349122
vn -0.0000 -0.0000 1.0000
vn -0.5145 0.8575 -0.0000
vn -0.4901 0.8164 0.3055
vn -0.7892 0.6142 -0.0000
vn -0.4975 0.8286 -0.2570
vn -0.7953 0.5731 -0.1977
vn -0.9576 0.2881 -0.0000
vn -0.7948 0.5631 0.2265
vn -0.5021 0.5199 0.6911
vn -0.9115 0.2544 0.3232
vn -0.9660 0.2429 0.0882
vn -0.9653 0.2475 -0.0829
vn -1.0000 -0.0000 -0.0000
vn -0.9162 0.2587 -0.3062
vn -0.5093 0.5455 -0.6656
vn -0.5215 0.0123 -0.8532
vn -0.5292 0.0094 -0.8485
vn -0.5232 -0.5702 -0.6333
vn -0.4891 -0.5504 -0.6766
vn -0.4220 -0.8790 -0.2218
vn -0.3867 -0.8768 -0.2858
vn -0.4034 -0.9150 -0.0000
vn -0.4258 -0.8697 0.2495
vn -0.3801 -0.8617 0.3360
vn -0.4802 -0.5244 0.7031
vn -0.5222 -0.5530 0.6493
vn -0.5215 0.0123 0.8532
vn -0.5292 0.0094 0.8485
vn -0.5203 0.5864 -0.6208
vn -0.4126 0.8914 -0.1874
vn -0.5040 0.6060 -0.6154
vn -0.3980 0.9024 -0.1655
vn -0.4034 0.9150 -0.0000
vn -0.5292 -0.0116 -0.8484
vn -0.5275 -0.0086 -0.8495
vn -0.5048 -0.6162 -0.6046
vn -0.5200 -0.6003 -0.6076
vn -0.4127 -0.8930 -0.1793
vn -0.3984 -0.9034 -0.1588
vn -0.3991 -0.9049 0.1481
vn -0.4115 -0.8962 0.1656
vn -0.5202 -0.6119 0.5959
vn -0.5067 -0.6236 0.5953
vn -0.5275 -0.0086 0.8495
vn -0.5292 -0.0116 0.8484
vn -0.5061 0.6138 0.6059
vn -0.5206 0.5985 0.6089
vn -0.4115 0.8948 0.1732
vn -0.3987 0.9040 0.1545
vn -0.0000 -0.6572 0.7537
vn -0.0000 -0.3509 0.9364
vn -0.0000 0.3509 0.9364
vn -0.0000 0.6572 0.7537
vn 0.3984 -0.9034 -0.1588
vn 0.5048 -0.6162 -0.6046
vn 0.4127 -0.8930 -0.1793
vn 0.5200 -0.6003 -0.6076
vn 0.4034 -0.9150 -0.0000
vn 0.5275 -0.0086 -0.8495
vn 0.5292 -0.0116 -0.8484
vn 0.5203 0.5864 -0.6208
vn 0.5040 0.6060 -0.6154
vn 0.4126 0.8914 -0.1874
vn 1.0000 -0.0000 -0.0000
vn 0.3980 0.9023 -0.1655
vn 0.4034 0.9150 -0.0000
vn 0.4115 0.8948 0.1732
vn 0.3987 0.9040 0.1545
vn 0.5061 0.6138 0.6059
vn 0.5206 0.5985 0.6089
vn 0.5275 -0.0086 0.8495
vn 0.5292 -0.0116 0.8484
vn 0.5202 -0.6119 0.5958
vn 0.5067 -0.6236 0.5953
vn 0.4115 -0.8962 0.1656
vn 0.3991 -0.9049 0.1481
vn 0.5222 -0.5530 0.6493
vn 0.4258 -0.8697 0.2495
vn 0.4802 -0.5244 0.7031
vn 0.5215 0.0123 0.8532
vn 0.5292 0.0094 0.8485
vn 0.3801 -0.8617 0.3361
vn 0.3867 -0.8768 -0.2859
vn 0.4221 -0.8790 -0.2218
vn 0.4891 -0.5504 -0.6766
vn 0.5232 -0.5702 -0.6333
vn 0.5215 0.0123 -0.8532
vn 0.5292 0.0094 -0.8485
vn 0.5229 0.5867 -0.6184
vn 0.4916 0.5727 -0.6560
vn 0.4218 0.8824 -0.2084
vn 0.3889 0.8817 -0.2671
vn 0.3829 0.8682 0.3157
vn 0.4257 0.8738 0.2352
vn 0.4833 0.5481 0.6827
vn 0.5222 0.5707 0.6338
vn -0.0000 -0.0000 -1.0000
vn -0.0000 -1.0000 -0.0000
vn -0.0000 1.0000 -0.0000
vn -0.5401 -0.8416 -0.0000
vn -0.5401 0.8416 -0.0000
vn -0.0000 -0.6572 -0.7537
vn -0.0000 -0.3509 -0.9364
vn -0.0000 0.3509 -0.9364
vn -0.0000 0.6572 -0.7537
vn -0.0000 0.9827 -0.1854
vn -0.0000 0.9957 -0.0931
vn -0.0000 0.9957 0.0931
vn -0.0000 0.9827 0.1854
vn 0.5400 -0.8416 -0.0000
vn 0.5400 0.8416 -0.0000
vt 0.741176 -0.917647
vt 0.725490 -0.917647
vt 0.741176 -0.964706
vt 0.725490 -0.964706
vt 0.454902 -0.800000
vt 0.509804 -0.800000
vt 0.454902 -0.811765
vt 0.400000 -0.800000
vt 0.396078 -0.811765
vt 0.454902 -0.819608
vt 0.517647 -0.811765
vt 0.521569 -0.796078
vt 0.529412 -0.803922
vt 0.517647 -0.819608
vt 0.396078 -0.819608
vt 0.368627 -0.807843
vt 0.376471 -0.803922
vt 0.388235 -0.796078
vt 0.380392 -0.776471
vt 0.368627 -0.776471
vt 0.352941 -0.776471
vt 0.376471 -0.745098
vt 0.368627 -0.737255
vt 0.388235 -0.752941
vt 0.396078 -0.737255
vt 0.396078 -0.725490
vt 0.400000 -0.745098
vt 0.454902 -0.737255
vt 0.454902 -0.725490
vt 0.454902 -0.745098
vt 0.517647 -0.737255
vt 0.509804 -0.745098
vt 0.521569 -0.752941
vt 0.529412 -0.745098
vt 0.517647 -0.725490
vt 0.529412 -0.776471
vt 0.541176 -0.776471
vt 0.541176 -0.737255
vt 0.549020 -0.733333
vt 0.517647 -0.713725
vt 0.454902 -0.713725
vt 0.552941 -0.776471
vt 0.568627 -0.776471
vt 0.541176 -0.807843
vt 0.549020 -0.815686
vt 0.517647 -0.831373
vt 0.454902 -0.831373
vt 0.396078 -0.831373
vt 0.360784 -0.815686
vt 0.341176 -0.776471
vt 0.360784 -0.733333
vt 0.396078 -0.713725
vt 0.600000 -0.752941
vt 0.600000 -0.729412
vt 0.576471 -0.713725
vt 0.576471 -0.768627
vt 0.243137 -0.913725
vt 0.196078 -0.913725
vt 0.243137 -0.968627
vt 0.196078 -0.968627
vt 0.050980 -0.968627
vt 0.050980 -0.913725
vt 0.003922 -0.913725
vt 0.003922 -0.968627
vt 0.290196 -0.992157
vt 0.290196 -0.976471
vt 0.705882 -0.992157
vt 0.705882 -0.976471
vt 0.360784 -0.964706
vt 0.635294 -0.964706
vt 0.290196 -0.901961
vt 0.360784 -0.917647
vt 0.635294 -0.917647
vt 0.705882 -0.901961
vt 0.290196 -0.890196
vt 0.705882 -0.890196
vt 0.831373 -0.003922
vt 0.996078 -0.003922
vt 0.831373 -0.701961
vt 0.996078 -0.701961
vt 0.494118 -0.701961
vt 0.333333 -0.701961
vt 0.494118 -0.003922
vt 0.333333 -0.003922
vt 0.003922 -0.701961
vt 0.003922 -0.878431
vt 0.333333 -0.878431
vt 0.003922 -0.003922
vt 0.768627 -0.886275
vt 0.800000 -0.913725
vt 0.972549 -0.886275
vt 0.945098 -0.913725
vt 0.972549 -0.992157
vt 0.945098 -0.968627
vt 0.768627 -0.992157
vt 0.800000 -0.968627
vt 0.682353 -0.768627
vt 0.658824 -0.752941
vt 0.682353 -0.713725
vt 0.658824 -0.729412
vt 0.600000 -0.772549
vt 0.658824 -0.772549
vt 0.600000 -0.709804
vt 0.658824 -0.709804
vt 0.992157 -0.913725
vt 0.992157 -0.968627
vt 0.752941 -0.913725
vt 0.752941 -0.968627
vt 0.270588 -0.917647
vt 0.270588 -0.964706
vt 0.254902 -0.917647
vt 0.254902 -0.964706
vt 0.694118 -0.866667
vt 0.764706 -0.866667
vt 0.694118 -0.831373
vt 0.764706 -0.831373
vt 0.796078 -0.831373
vt 0.796078 -0.784314
vt 0.764706 -0.784314
vt 0.764706 -0.749020
vt 0.694118 -0.749020
vt 0.694118 -0.784314
vt 0.658824 -0.784314
vt 0.658824 -0.831373
vt 0.588235 -0.784314
vt 0.588235 -0.831373
vt 0.223529 -0.996078
vt 0.019608 -0.996078
vt 0.019608 -0.890196
vt 0.223529 -0.890196
s 1
usemtl Material03
f 1/1/1 2/2/1 3/3/1
f 3/3/1 2/2/1 4/4/1
f 5/5/2 6/6/3 7/7/4
f 8/8/5 5/5/2 7/7/4
f 9/9/6 8/8/5 7/7/4
f 9/9/6 7/7/4 10/10/7
f 7/7/4 11/11/8 10/10/7
f 6/6/3 11/11/8 7/7/4
f 11/11/8 6/6/3 12/12/9
f 13/13/10 11/11/8 12/12/9
f 11/11/8 14/14/11 10/10/7
f 14/14/11 11/11/8 13/13/10
f 15/15/12 9/9/6 10/10/7
f 16/16/13 17/17/14 15/15/12
f 17/17/14 9/9/6 15/15/12
f 17/17/14 18/18/15 9/9/6
f 19/19/16 18/18/15 17/17/14
f 20/20/17 19/19/16 17/17/14
f 20/20/13 17/17/14 16/16/13
f 21/21/13 20/20/13 16/16/13
f 20/20/17 22/22/18 19/19/16
f 22/22/13 20/20/13 23/23/13
f 21/21/13 23/23/13 20/20/13
f 24/24/19 19/19/16 22/22/18
f 22/22/18 25/25/20 24/24/19
f 26/26/13 25/25/13 22/22/13
f 23/23/13 26/26/13 22/22/13
f 25/25/20 27/27/21 24/24/19
f 27/27/21 25/25/20 28/28/22
f 28/28/13 25/25/13 29/29/13
f 25/25/13 26/26/13 29/29/13
f 30/30/22 27/27/21 28/28/22
f 31/31/23 32/32/24 28/28/22
f 32/32/24 30/30/22 28/28/22
f 33/33/25 32/32/24 31/31/23
f 34/34/26 33/33/25 31/31/23
f 34/34/13 31/31/13 35/35/13
f 35/35/13 31/31/13 29/29/13
f 31/31/13 28/28/13 29/29/13
f 36/36/27 33/33/25 34/34/26
f 37/37/28 36/36/27 34/34/26
f 37/37/13 34/34/13 38/38/13
f 38/38/13 34/34/13 35/35/13
f 38/38/29 35/35/30 39/39/31
f 40/40/32 39/39/31 35/35/30
f 40/40/32 35/35/30 41/41/33
f 35/35/30 29/29/33 41/41/33
f 42/42/13 37/37/13 38/38/13
f 42/42/34 38/38/29 43/43/35
f 39/39/31 43/43/35 38/38/29
f 42/42/13 44/44/13 37/37/13
f 44/44/13 14/14/11 13/13/10
f 13/13/10 37/37/13 44/44/13
f 12/12/9 36/36/27 13/13/10
f 37/37/28 13/13/10 36/36/27
f 45/45/36 44/44/37 43/43/35
f 44/44/37 42/42/34 43/43/35
f 14/14/38 44/44/37 45/45/36
f 46/46/39 14/14/38 45/45/36
f 10/10/22 14/14/38 47/47/22
f 14/14/38 46/46/39 47/47/22
f 48/48/40 15/15/41 47/47/22
f 15/15/41 10/10/22 47/47/22
f 16/16/42 15/15/41 49/49/43
f 48/48/40 49/49/43 15/15/41
f 49/49/43 50/50/44 16/16/42
f 21/21/45 16/16/42 50/50/44
f 51/51/46 23/23/47 50/50/44
f 23/23/47 21/21/45 50/50/44
f 26/26/48 23/23/47 51/51/46
f 52/52/49 26/26/48 51/51/46
f 29/29/33 26/26/48 41/41/33
f 26/26/48 52/52/49 41/41/33
f 18/18/15 8/8/5 9/9/6
f 53/53/1 54/54/1 55/55/1
f 56/56/1 53/53/1 55/55/1
f 57/57/50 58/58/51 59/59/50
f 59/59/50 58/58/51 60/60/51
f 60/60/51 58/58/51 61/61/52
f 61/61/52 58/58/51 62/62/52
f 63/63/53 61/61/52 62/62/52
f 64/64/53 61/61/52 63/63/53
f 65/46/54 66/45/55 67/14/56
f 67/14/56 66/45/55 68/44/57
f 69/10/58 70/47/58 67/14/56
f 67/14/56 70/47/58 65/46/54
f 66/45/55 71/43/59 68/44/57
f 68/44/57 71/43/59 72/42/60
f 72/42/60 71/43/59 73/38/61
f 74/39/62 73/38/61 71/43/59
f 73/38/61 74/39/62 75/35/63
f 73/38/64 75/35/64 76/34/64
f 77/37/64 73/38/64 76/34/64
f 72/42/64 73/38/64 77/37/64
f 78/40/65 75/35/63 74/39/62
f 78/40/65 79/41/66 75/35/63
f 75/35/63 79/41/66 80/29/66
f 75/35/64 80/29/64 81/31/64
f 76/34/64 75/35/64 81/31/64
f 80/29/66 79/41/66 82/26/67
f 82/26/67 79/41/66 83/52/68
f 83/52/68 84/51/69 82/26/67
f 82/26/67 84/51/69 85/23/70
f 84/51/69 86/50/71 85/23/70
f 85/23/70 86/50/71 87/21/72
f 87/21/72 86/50/71 88/16/73
f 89/49/74 88/16/73 86/50/71
f 88/16/73 89/49/74 90/15/75
f 91/48/76 90/15/75 89/49/74
f 91/48/76 70/47/58 90/15/75
f 90/15/75 70/47/58 69/10/58
f 76/34/77 81/31/78 92/33/79
f 93/36/80 76/34/77 92/33/79
f 77/37/81 76/34/77 93/36/80
f 92/33/79 81/31/78 94/32/82
f 81/31/64 80/29/64 95/28/64
f 81/31/78 95/28/58 94/32/82
f 94/32/82 95/28/58 96/30/58
f 96/30/58 95/28/58 97/27/83
f 97/27/83 95/28/58 98/25/84
f 98/25/84 99/24/85 97/27/83
f 82/26/64 100/22/64 98/25/64
f 98/25/64 80/29/64 82/26/64
f 95/28/64 80/29/64 98/25/64
f 100/22/86 99/24/85 98/25/84
f 99/24/85 100/22/86 101/19/87
f 85/23/64 100/22/64 82/26/64
f 100/22/64 85/23/64 102/20/64
f 102/20/88 101/19/87 100/22/86
f 101/19/87 103/17/89 104/18/90
f 102/20/88 103/17/89 101/19/87
f 102/20/64 88/16/64 103/17/64
f 87/21/64 88/16/64 102/20/64
f 87/21/64 102/20/64 85/23/64
f 103/17/64 90/15/64 105/9/64
f 88/16/64 90/15/64 103/17/64
f 103/17/89 105/9/91 104/18/90
f 104/18/90 105/9/91 106/8/92
f 105/9/91 107/7/66 106/8/92
f 106/8/92 107/7/66 108/5/66
f 108/5/66 107/7/66 109/6/93
f 109/6/93 107/7/66 110/11/94
f 110/11/94 111/12/95 109/6/93
f 67/14/64 112/13/64 110/11/64
f 110/11/64 69/10/64 67/14/64
f 107/7/64 69/10/64 110/11/64
f 112/13/96 111/12/95 110/11/94
f 111/12/95 112/13/96 93/36/80
f 112/13/64 68/44/64 77/37/64
f 68/44/64 112/13/64 67/14/64
f 77/37/81 93/36/80 112/13/96
f 72/42/64 77/37/64 68/44/64
f 105/9/64 69/10/64 107/7/64
f 90/15/64 69/10/64 105/9/64
f 113/65/64 114/66/64 1/67/64
f 1/67/64 114/66/64 2/68/64
f 114/66/64 115/69/64 2/68/64
f 2/68/64 115/69/64 116/70/64
f 117/53/1 118/54/1 119/55/1
f 120/56/1 117/53/1 119/55/1
f 121/71/13 122/72/13 123/73/13
f 124/74/13 121/71/13 123/73/13
f 121/71/13 124/74/13 125/75/13
f 124/74/13 126/76/13 125/75/13
f 127/77/97 128/78/97 129/79/97
f 129/79/97 128/78/97 130/80/97
f 131/81/1 132/82/1 133/83/1
f 133/83/1 132/82/1 134/84/1
f 127/77/98 129/79/98 133/83/98
f 133/83/98 129/79/98 131/81/98
f 128/85/13 127/86/13 134/82/13
f 134/82/13 127/86/13 133/87/13
f 130/85/99 128/88/99 132/82/99
f 132/82/99 128/88/99 134/84/99
f 129/86/64 130/85/64 131/87/64
f 131/87/64 130/85/64 132/82/64
f 135/89/13 136/90/13 137/91/13
f 137/91/13 136/90/13 138/92/13
f 139/93/64 140/94/64 141/95/64
f 141/95/64 140/94/64 142/96/64
f 143/97/97 144/98/97 145/99/97
f 144/98/97 146/100/97 145/99/97
f 147/56/1 148/55/1 149/53/1
f 149/53/1 148/55/1 150/54/1
f 147/101/100 149/53/100 143/102/100
f 149/53/100 144/98/100 143/102/100
f 149/53/13 150/54/13 144/98/13
f 150/54/13 146/100/13 144/98/13
f 150/54/101 148/103/101 146/100/101
f 148/103/101 145/104/101 146/100/101
f 151/71/13 152/73/13 153/72/13
f 154/74/13 152/73/13 151/71/13
f 151/71/13 155/75/13 154/74/13
f 154/74/13 155/75/13 156/76/13
f 157/71/13 158/73/13 159/72/13
f 4/74/13 158/73/13 157/71/13
f 157/71/13 160/75/13 4/74/13
f 4/74/13 160/75/13 3/76/13
f 137/105/102 138/92/103 139/106/102
f 139/106/102 138/92/103 140/94/103
f 140/94/103 138/92/103 142/96/104
f 142/96/104 138/92/103 136/90/104
f 135/107/105 142/96/104 136/90/104
f 141/108/105 142/96/104 135/107/105
f 151/109/106 153/72/107 161/110/106
f 161/110/106 153/72/107 162/69/107
f 162/69/107 153/72/107 163/70/108
f 163/70/108 153/72/107 152/73/108
f 154/2/109 163/70/108 152/73/108
f 164/4/109 163/70/108 154/2/109
f 157/109/106 159/72/107 114/110/106
f 114/110/106 159/72/107 115/69/107
f 115/69/107 159/72/107 116/70/108
f 116/70/108 159/72/107 158/73/108
f 4/2/109 116/70/108 158/73/108
f 2/4/109 116/70/108 4/2/109
f 165/57/50 166/59/50 167/58/51
f 166/59/50 168/60/51 167/58/51
f 168/60/51 169/61/52 167/58/51
f 169/61/52 170/62/52 167/58/51
f 171/63/53 170/62/52 169/61/52
f 172/64/53 171/63/53 169/61/52
f 173/64/105 174/61/104 175/63/105
f 175/63/105 174/61/104 176/62/104
f 174/61/104 177/58/103 176/62/104
f 178/60/103 177/58/103 174/61/104
f 179/59/102 177/58/103 178/60/103
f 180/57/102 177/58/103 179/59/102
f 181/97/97 182/98/97 183/99/97
f 182/98/97 184/100/97 183/99/97
f 185/56/1 186/55/1 187/53/1
f 187/53/1 186/55/1 188/54/1
f 185/101/100 187/53/100 181/102/100
f 187/53/100 182/98/100 181/102/100
f 187/53/13 188/54/13 182/98/13
f 188/54/13 184/100/13 182/98/13
f 188/54/101 186/103/101 184/100/101
f 186/103/101 183/104/101 184/100/101
f 160/111/97 157/109/97 113/112/97
f 113/112/97 157/109/97 114/110/97
f 189/113/64 190/114/64 191/115/64
f 191/115/64 190/114/64 192/116/64
f 190/117/99 193/118/99 192/116/99
f 192/116/99 193/118/99 194/119/99
f 193/120/13 195/121/13 194/119/13
f 194/119/13 195/121/13 196/122/13
f 195/123/98 189/124/98 196/122/98
f 196/122/98 189/124/98 191/115/98
f 191/115/1 192/116/1 196/122/1
f 196/122/1 192/116/1 194/119/1
f 195/123/97 193/125/97 189/124/97
f 189/124/97 193/125/97 190/126/97
f 120/101/110 197/102/110 117/53/110
f 117/53/110 197/102/110 198/98/110
f 117/53/64 198/98/64 118/54/64
f 118/54/64 198/98/64 199/100/64
f 118/54/111 199/100/111 119/103/111
f 119/103/111 199/100/111 200/104/111
f 197/97/97 200/99/97 198/98/97
f 198/98/97 200/99/97 199/100/97
f 166/127/64 172/128/64 168/60/64
f 172/128/64 169/61/64 168/60/64
f 171/129/13 165/130/13 170/62/13
f 165/130/13 167/58/13 170/62/13
f 201/105/50 202/106/50 203/92/51
f 202/106/50 204/94/51 203/92/51
f 204/94/51 205/96/52 203/92/51
f 205/96/52 206/90/52 203/92/51
f 207/107/53 206/90/52 205/96/52
f 208/108/53 207/107/53 205/96/52
f 202/93/64 208/95/64 204/94/64
f 208/95/64 205/96/64 204/94/64
f 207/89/13 201/91/13 206/90/13
f 201/91/13 203/92/13 206/90/13
f 179/127/64 178/60/64 173/128/64
f 173/128/64 178/60/64 174/61/64
f 175/129/13 176/62/13 180/130/13
f 180/130/13 176/62/13 177/58/13
f 209/113/13 210/115/13 211/114/13
f 210/115/13 212/116/13 211/114/13
f 211/117/99 212/116/99 213/118/99
f 212/116/99 214/119/99 213/118/99
f 213/120/64 214/119/64 215/121/64
f 214/119/64 216/122/64 215/121/64
f 215/123/98 216/122/98 209/124/98
f 216/122/98 210/115/98 209/124/98
f 210/115/1 216/122/1 212/116/1
f 216/122/1 214/119/1 212/116/1
f 215/123/97 209/124/97 213/125/97
f 209/124/97 211/126/97 213/125/97
f 59/127/13 60/60/13 64/128/13
f 64/128/13 60/60/13 61/61/13
f 63/129/64 62/62/64 57/130/64
f 57/130/64 62/62/64 58/58/64
f 217/65/64 161/66/64 218/67/64
f 218/67/64 161/66/64 164/68/64
f 161/66/64 162/69/64 164/68/64
f 164/68/64 162/69/64 163/70/64
f 219/97/97 220/99/97 221/98/97
f 221/98/97 220/99/97 222/100/97
f 56/101/110 219/102/110 53/53/110
f 53/53/110 219/102/110 221/98/110
f 53/53/64 221/98/64 54/54/64
f 54/54/64 221/98/64 222/100/64
f 54/54/111 222/100/111 55/103/111
f 55/103/111 222/100/111 220/104/111
f 125/111/1 223/112/1 121/109/1
f 223/112/1 224/110/1 121/109/1
f 225/1/97 126/3/97 226/2/97
f 126/3/97 124/4/97 226/2/97
f 121/109/109 224/110/109 122/72/108
f 224/110/109 227/69/108 122/72/108
f 227/69/108 228/70/107 122/72/108
f 228/70/107 123/73/107 122/72/108
f 124/2/106 123/73/107 228/70/107
f 226/4/106 124/2/106 228/70/107
f 223/65/64 225/67/64 224/66/64
f 225/67/64 226/68/64 224/66/64
f 224/66/64 226/68/64 227/69/64
f 226/68/64 228/70/64 227/69/64
f 229/129/64 230/130/64 231/62/64
f 230/130/64 232/58/64 231/62/64
f 233/127/13 234/128/13 235/60/13
f 234/128/13 236/61/13 235/60/13
f 230/57/102 233/59/102 232/58/103
f 233/59/102 235/60/103 232/58/103
f 235/60/103 236/61/104 232/58/103
f 236/61/104 231/62/104 232/58/103
f 229/63/105 231/62/104 236/61/104
f 234/64/105 229/63/105 236/61/104
f 155/111/97 151/109/97 217/112/97
f 217/112/97 151/109/97 161/110/97
f 218/1/1 164/2/1 156/3/1
f 156/3/1 164/2/1 154/4/1
