# Blender 4.2.3 LTS
# www.blender.org
mtllib crate1.mtl
o crate1
v -9.356396 22.963549 14.038042
v -9.356396 22.762121 13.983160
v -10.984213 22.963549 14.038046
v -10.984213 22.762121 13.983164
v -13.244501 1.159354 11.964348
v -12.461584 1.159356 10.451479
v -13.244499 21.512877 12.959272
v -10.127815 1.159356 10.451475
v -9.344894 21.512877 12.959269
v -13.244501 0.029483 11.183134
v -12.461584 0.029483 9.771299
v -17.144176 1.159354 11.964348
v -16.260864 0.029483 11.183134
v -18.595345 21.512877 12.959272
v -10.127815 0.029483 9.771296
v -9.344898 0.029483 11.183130
v -9.344898 1.159354 11.964342
v -5.445216 0.029483 11.183130
v -5.445216 1.159354 11.964342
v -5.445216 21.512877 12.959269
v -4.658109 1.159356 10.451475
v -4.658109 0.029483 9.771296
v -2.332673 1.159356 10.451475
v -1.545567 21.512877 12.959269
v -2.332674 0.029483 9.771296
v -1.545568 1.159354 11.964342
v -1.545568 0.029483 11.183130
v 2.354078 1.159354 11.964342
v 2.354078 0.029483 11.183130
v 2.354079 21.512877 12.959269
v 3.116392 1.159356 10.451475
v 3.116391 0.029483 9.771296
v 5.491412 1.159356 10.451475
v 6.253726 21.512877 12.959269
v 5.491412 0.029483 9.771296
v 6.253726 0.029483 11.183130
v 6.253726 1.159354 11.964342
v 10.153406 0.029483 11.183130
v 10.153406 1.159354 11.964342
v 10.153410 21.512877 12.959269
v 10.959682 1.159356 10.451475
v 10.959682 0.029483 9.771296
v 13.246662 1.159356 10.451471
v 14.053013 21.512877 12.959265
v 13.246662 0.029483 9.771292
v 14.053011 1.159354 11.964340
v 14.053011 0.029483 11.183126
v 17.069374 0.029483 11.183126
v 17.952686 1.159354 11.964340
v 19.403854 21.512877 12.959265
v -16.260864 0.029482 -2.074398
v -14.776823 0.029482 -2.892139
v -16.260864 0.029482 2.605185
v -14.776823 0.029482 3.497172
v -14.776823 0.029482 -5.936231
v -10.127819 0.029481 -9.240519
v -4.658113 0.029481 -9.240519
v -14.776823 0.029482 6.392769
v -5.445220 0.029481 -10.652353
v -9.344902 0.029481 -10.652353
v -2.332677 0.029481 -9.240519
v -12.461588 0.029481 -9.240513
v -16.260864 0.029481 -6.753972
v -13.244505 0.029481 -10.652348
v -16.260864 0.029481 -10.652348
v 3.116388 0.029481 -9.240519
v -1.545571 0.029481 -10.652353
v -16.260864 0.029483 7.284759
v 2.354075 0.029481 -10.652353
v 5.491408 0.029481 -9.240519
v 15.585331 0.029482 6.392767
v 15.585331 0.029482 3.497166
v 15.585331 0.029482 -2.892144
v 10.959681 0.029481 -9.240519
v 6.253722 0.029481 -10.652353
v 10.153402 0.029481 -10.652353
v 13.246660 0.029481 -9.240520
v 15.585331 0.029482 -5.936234
v 17.069374 0.029482 2.605179
v 17.069374 0.029482 -2.074404
v 17.069374 0.029481 -6.753979
v 14.053007 0.029481 -10.652355
v 17.069374 0.029481 -10.652355
v 17.069374 0.029483 7.284751
v 17.952686 1.159355 -2.074404
v 16.389975 1.159355 -2.892144
v 19.403854 21.512878 -2.074402
v 16.389975 1.159355 -5.936234
v 19.403854 21.512878 -6.753976
v 17.952686 1.159355 2.605179
v 16.389975 1.159355 3.497166
v 19.403854 21.512878 2.605180
v 16.389975 1.159356 6.392767
v 17.952686 1.159356 7.284751
v 19.403854 21.512875 7.284753
v 17.952686 1.159355 -6.753979
v 17.952686 1.159354 -11.433569
v 19.403854 21.512878 -12.428490
v -17.144176 1.159355 -2.074398
v -18.595345 21.512878 2.605186
v -18.595345 21.512878 -2.074396
v -17.144176 1.159355 2.605186
v -15.581467 1.159355 -2.892139
v -15.581467 1.159355 3.497172
v -15.581467 1.159355 -5.936231
v -17.144176 1.159355 -6.753972
v -18.595345 21.512878 -6.753970
v -17.144176 1.159354 -11.433561
v -18.595345 21.512878 -12.428482
v -15.581467 1.159356 6.392769
v -18.595345 21.512875 7.284761
v -17.144176 1.159356 7.284759
v -13.244507 21.512878 -12.428482
v -10.127819 1.159354 -9.920696
v -12.461588 1.159354 -9.920692
v -13.244507 1.159354 -11.433561
v -9.344902 21.512878 -12.428486
v -9.344902 1.159354 -11.433565
v -5.445220 1.159354 -11.433565
v -4.658113 1.159354 -9.920696
v -5.445220 21.512878 -12.428486
v -2.332677 1.159354 -9.920696
v -1.545571 1.159354 -11.433565
v -1.545572 21.512878 -12.428486
v 2.354075 1.159354 -11.433565
v 3.116388 1.159354 -9.920696
v 2.354074 21.512878 -12.428486
v 5.491408 1.159354 -9.920696
v 6.253722 1.159354 -11.433565
v 6.253722 21.512878 -12.428486
v 10.153402 1.159354 -11.433565
v 10.959681 1.159354 -9.920696
v 10.153402 21.512878 -12.428486
v 13.246660 1.159354 -9.920700
v 14.053005 1.159354 -11.433569
v 14.053005 21.512878 -12.428490
v -1.444391 22.960569 -13.510172
v -1.174364 22.534426 -13.452803
v 2.253161 22.960569 -13.510172
v 1.983127 22.534426 -13.452803
v -0.748357 21.528643 -13.452803
v 1.557120 21.528643 -13.452803
v -0.748356 21.286673 -13.253931
v 1.557121 21.286673 -13.253931
v -0.649070 21.146662 -13.510172
v -0.649070 21.388628 -13.709042
v -1.165248 22.534426 -13.709042
v -1.444391 22.960569 -14.056444
v -1.444391 24.030825 -13.510170
v -1.444391 24.030825 -14.056444
v -1.084677 24.420401 -13.772018
v -1.084677 24.420401 -13.510170
v 1.457840 21.146662 -13.510172
v 1.457840 21.388628 -13.709042
v 1.974017 22.534426 -13.709042
v 2.253161 22.960569 -14.056444
v 2.253161 24.030825 -14.056444
v 2.253161 24.030825 -13.510170
v 1.893440 24.420401 -13.772018
v 1.893440 24.420401 -13.510170
v -11.566910 21.743628 13.981884
v -11.566910 21.868658 14.186010
v -13.194727 21.743628 13.981884
v -13.194727 21.868658 14.186010
v -11.566910 22.769224 14.186010
v -13.194727 22.769224 14.186010
v -11.566910 22.807562 14.249130
v -13.194727 22.807562 14.249130
v -11.566910 22.885450 14.265032
v -13.194727 22.885450 14.265032
v -11.566910 22.953466 14.211712
v -13.194727 22.953466 14.211712
v -11.566910 24.355860 14.211712
v -13.194727 24.355860 14.211712
v -11.566910 24.502974 14.037762
v -13.194727 24.502974 14.037762
v 18.682920 22.864012 -12.643265
v 20.009626 22.963411 -12.734713
v 19.070936 22.864014 -11.899824
v 18.682920 22.963411 -13.507265
v -17.874411 22.864012 -12.643257
v -17.874411 22.963411 -13.507257
v -19.201117 22.963411 -12.734705
v -18.262426 22.864014 -11.899817
v -19.123301 22.761557 13.211321
v -18.262426 22.864006 12.430605
v -18.866211 22.864006 11.964846
v -19.738516 22.761555 11.964846
v -18.866211 22.864014 -11.434057
v -19.738516 22.761559 -11.434057
v -19.123301 22.761557 -12.680532
v 12.375425 22.963549 14.038038
v 14.003242 22.963549 14.038038
v 12.375425 22.762121 13.983156
v 14.003242 22.762121 13.983156
v 14.003242 21.743628 13.981876
v 14.003242 21.868658 14.186003
v 14.003242 22.769224 14.186003
v 14.003242 22.807562 14.249121
v 14.003242 22.885450 14.265024
v 14.003242 22.953466 14.211704
v 14.003242 24.355860 14.211704
v 14.003242 24.502974 14.037754
v 12.375425 21.743628 13.981876
v 12.375425 21.868658 14.186003
v 12.375425 22.769224 14.186003
v 12.375425 22.807562 14.249121
v 12.375425 22.885450 14.265024
v 12.375425 22.953466 14.211704
v 12.375425 24.355860 14.211704
v 12.375425 24.502974 14.037754
v -11.566910 22.963549 14.038046
v -11.566910 22.762121 13.983164
v -13.194727 22.963549 14.038046
v -13.194727 22.762121 13.983164
v 18.682920 21.556116 -13.451174
v 19.931810 21.556116 -12.680540
v -17.874411 21.556116 -13.451166
v -19.123301 21.556116 -12.680532
v 10.164911 22.963549 14.038042
v 11.792728 22.963549 14.038038
v 10.164911 22.762121 13.983160
v 11.792728 22.762121 13.983156
v 10.164911 21.743628 13.981882
v 10.164911 21.868658 14.186007
v 10.164911 22.769224 14.186007
v 10.164911 22.807562 14.249126
v 10.164911 22.885450 14.265030
v 10.164911 22.953466 14.211708
v 10.164911 24.355860 14.211710
v 10.164911 24.502974 14.037760
v -9.356396 21.743628 13.981882
v -9.356396 21.868658 14.186007
v -10.984213 21.743628 13.981884
v -10.984213 21.868658 14.186010
v -9.356396 22.769224 14.186007
v -10.984213 22.769224 14.186010
v -9.356396 22.807562 14.249126
v -10.984213 22.807562 14.249130
v -9.356396 22.885450 14.265030
v -10.984213 22.885450 14.265032
v -9.356396 22.953466 14.211708
v -10.984213 22.953466 14.211712
v -9.356396 24.355860 14.211710
v -10.984213 24.355860 14.211712
v -9.356396 24.502974 14.037760
v -10.984213 24.502974 14.037762
v 19.444468 20.704613 2.622879
v 19.690411 20.370773 1.871777
v 19.690411 20.370773 2.622880
v 19.444468 20.704613 1.871777
v 19.444468 21.599640 2.622879
v 19.444468 21.599640 1.871777
v 20.220497 20.370773 1.871777
v 20.466370 20.704613 1.871777
v 20.466370 21.599640 1.871777
v 20.239170 21.074310 2.651627
v 20.083820 20.778805 1.455022
v 20.239170 21.074310 1.455022
v 20.083820 20.778805 2.651627
v 20.083820 20.692757 3.064748
v 20.239170 20.917755 3.256391
v 20.239170 20.392143 3.643576
v 20.083820 20.387741 3.335138
v 20.083820 18.729321 3.756813
v 20.239170 18.694321 4.050249
v 20.239170 18.079388 3.706993
v 20.083820 18.296932 3.506972
v 20.239170 17.853256 3.004356
v 20.083820 18.146767 2.970340
v 20.083820 18.037926 0.265389
v 20.239170 17.742424 0.265389
v 20.239170 17.853256 -2.473578
v 20.083820 18.146770 -2.439562
v 20.083820 18.296936 -2.976193
v 20.239170 18.079391 -3.176215
v 20.083820 18.729324 -3.226037
v 20.239170 18.694321 -3.519472
v 20.239170 20.392143 -3.112798
v 20.083820 20.387741 -2.804360
v 20.083820 20.692757 -2.533972
v 20.239170 20.917755 -2.725615
v 20.239170 21.074310 -2.120852
v 20.083820 20.778809 -2.120852
v 20.083820 20.778805 -0.924245
v 20.239170 21.074310 -0.924245
v 11.792728 21.743628 13.981876
v 11.792728 21.868658 14.186003
v 11.792728 22.769224 14.186003
v 11.792728 22.807562 14.249121
v 11.792728 22.885450 14.265024
v 11.792728 22.953466 14.211704
v 11.792728 24.355860 14.211704
v 11.792728 24.502974 14.037754
v 20.547026 21.556118 -11.434065
v 20.547026 21.556114 11.964838
v 19.931810 21.556116 13.211313
v -18.635958 20.704613 -2.092097
v -18.881901 20.370773 -1.340993
v -18.881901 20.370773 -2.092095
v -18.635958 20.704613 -1.340994
v -18.635958 21.599640 -2.092096
v -18.635958 21.599640 -1.340994
v -19.411987 20.370773 -1.340993
v -19.657860 20.704613 -1.340993
v -19.657860 21.599640 -1.340993
v -19.275311 18.296936 -2.976187
v -19.275311 18.729324 -3.226028
v -19.430660 18.079391 -3.176208
v -19.430660 18.694321 -3.519464
v -19.430660 17.853256 -2.473570
v -19.430660 20.392143 -3.112790
v -19.275311 20.387741 -2.804352
v -19.275311 20.692757 -2.533964
v -19.430660 20.917755 -2.725607
v -19.430660 21.074310 -2.120843
v -19.275311 20.778809 -2.120844
v -19.275311 20.778805 -0.924238
v -19.430660 21.074310 -0.924237
v -19.430660 17.742424 0.265396
v -19.275311 18.037926 0.265396
v -19.275311 18.146770 -2.439554
v -19.430660 17.853256 3.004363
v -19.275311 18.146767 2.970346
v -19.275311 18.296932 3.506979
v -19.430660 18.079388 3.707000
v -19.275311 18.729321 3.756821
v -19.430660 18.694321 4.050257
v -19.430660 20.392143 3.643583
v -19.275311 20.387741 3.335145
v -19.275311 20.692757 3.064755
v -19.430660 20.917755 3.256398
v -19.430660 21.074310 2.651635
v -19.275311 20.778805 2.651634
v -19.275311 20.778805 1.455028
v -19.430660 21.074310 1.455028
v -17.874411 24.729109 -13.507256
v -19.201117 24.729109 -12.734705
v -17.995678 25.589699 -11.408497
v -19.817326 24.729111 -11.434055
v -18.239635 25.589695 12.363867
v 18.800640 25.589699 -11.408504
v 18.682920 24.729109 -13.507263
v 18.800640 25.589695 11.956177
v 20.625835 24.729107 11.964838
v 20.625835 24.729111 -11.434063
v 20.009626 24.729109 -12.734713
v 20.009626 24.729109 13.265488
v 18.682920 24.729109 14.038038
v -17.874411 24.729109 14.038046
v -19.201117 24.729109 13.265495
v -19.817326 24.729107 11.964846
v -19.817326 22.963413 -11.434057
v -19.817326 22.963406 11.964846
v -19.201117 22.963408 13.265493
v 18.682920 22.864008 13.174038
v 19.931810 22.761557 13.211313
v 19.070936 22.864006 12.430597
v 18.682920 22.761557 13.981947
v -17.874411 22.864008 13.174046
v -17.874411 22.761557 13.981955
v 18.682920 21.556116 13.981947
v -17.874411 21.556116 13.981955
v -19.123301 21.556116 13.211321
v 19.931810 22.761557 -12.680540
v 18.682920 22.761557 -13.451174
v -17.874411 22.761557 -13.451166
v -19.738516 21.556118 -11.434057
v -19.738516 21.556114 11.964846
v 19.958153 21.033485 -0.924245
v 19.754807 20.835255 -0.924245
v 19.706741 21.165615 -0.924245
v 20.006147 21.313370 -0.924245
v -19.149643 21.033485 1.455028
v -18.946297 20.835255 1.455028
v -18.898232 21.165615 1.455028
v -19.197638 21.313370 1.455028
v 19.674721 22.864006 11.964838
v 20.009626 22.963408 13.265486
v 20.625835 22.963406 11.964838
v 19.674721 22.864014 -11.434065
v 20.625835 22.963413 -11.434065
v 19.690411 20.370773 -1.341002
v 19.444468 20.704613 -2.092103
v 19.690411 20.370773 -2.092103
v 19.444468 20.704613 -1.341001
v 19.444468 21.599640 -2.092102
v 19.444468 21.599640 -1.341001
v 20.220497 20.370773 -2.092103
v 20.220497 20.370773 -1.341002
v 20.466370 20.704613 -1.341002
v 20.466370 20.704613 -2.092104
v 20.466370 21.599640 -1.341002
v 20.466370 21.599640 -2.092103
v 20.220497 20.370773 2.622880
v 20.466370 20.704613 2.622879
v 20.466370 21.599640 2.622879
v 20.547026 22.761555 11.964838
v 20.547026 22.761559 -11.434065
v 19.754807 18.255398 -3.014400
v 19.754807 18.722649 -3.282084
v 19.754807 20.388592 -2.863268
v 19.754807 18.090752 -2.446057
v 19.754807 17.981480 0.265389
v 19.754807 18.090748 2.976835
v 19.754807 18.255398 3.545177
v 19.754807 18.722649 3.812860
v 19.754807 20.388592 3.394047
v 19.754807 20.735779 3.101348
v 19.754807 20.835255 2.651627
v 19.754807 20.835255 1.455022
v 19.754807 20.735783 -2.570572
v 19.754807 20.835255 -2.120852
v -19.411987 20.370773 -2.092095
v -19.657860 20.704613 -2.092096
v -19.657860 21.599640 -2.092095
v 19.706741 21.165615 1.455022
v 19.706741 21.165615 2.651627
v 19.706741 20.987263 3.315619
v 19.706741 20.393490 3.738893
v 19.706741 18.683529 4.140923
v 19.706741 18.012222 3.768805
v 19.706741 17.762516 3.014871
v 19.706741 17.651115 0.265389
v 19.706741 17.762516 -2.484093
v 19.706741 18.012226 -3.238029
v 19.706741 18.683529 -3.610147
v 19.706741 20.393490 -3.208117
v 19.706741 20.987263 -2.784843
v 19.706741 21.165615 -2.120852
v 20.006147 21.313370 2.651627
v 20.006147 21.313370 1.455022
v 20.006147 21.099728 3.411442
v 20.006147 20.395691 3.893105
v 20.006147 18.665989 4.287640
v 20.006147 17.903450 3.868815
v 20.006147 17.615757 3.031883
v 20.006147 17.503365 0.265389
v 20.006147 17.615757 -2.501105
v 20.006147 17.903454 -3.338038
v 20.006147 18.665993 -3.756860
v 20.006147 20.395691 -3.362327
v 20.006147 21.099728 -2.880663
v 20.006147 21.313370 -2.120852
v -19.197638 17.903450 3.868824
v -18.898232 18.012222 3.768813
v -18.898232 18.683529 4.140931
v -19.197638 18.665989 4.287647
v -19.197638 20.395691 3.893112
v -18.898232 20.393490 3.738901
v -18.898232 17.762516 3.014878
v -19.197638 17.615757 3.031890
v -19.197638 17.503365 0.265396
v -18.898232 17.651115 0.265396
v -18.898232 17.762516 -2.484086
v -19.197638 17.615757 -2.501097
v -19.197638 17.903454 -3.338030
v -18.898232 18.012226 -3.238020
v -18.898232 18.683529 -3.610138
v -19.197638 18.665993 -3.756852
v -19.197638 20.395691 -3.362319
v -18.898232 20.393490 -3.208108
v -19.197638 21.099728 -2.880655
v -18.898232 20.987263 -2.784835
v -18.898232 21.165615 -2.120843
v -19.197638 21.313370 -2.120843
v -19.197638 21.313370 -0.924237
v -18.898232 21.165615 -0.924237
v -19.197638 21.099728 3.411449
v -18.898232 20.987263 3.315626
v -18.898232 21.165615 2.651634
v -19.197638 21.313370 2.651634
v -18.946297 20.835255 -2.120843
v -18.946297 20.835255 -0.924237
v -18.946297 20.735783 -2.570564
v -18.946297 20.388592 -2.863261
v -18.946297 18.722649 -3.282075
v -18.946297 18.255398 -3.014391
v -18.946297 18.090752 -2.446050
v -18.946297 17.981480 0.265396
v -18.946297 18.090748 2.976841
v -18.946297 18.255398 3.545184
v -18.946297 18.722649 3.812868
v -18.946297 20.388592 3.394053
v -18.946297 20.735779 3.101355
v -18.946297 20.835255 2.651634
v -18.881901 20.370773 1.871784
v -18.635958 20.704613 2.622886
v -18.881901 20.370773 2.622887
v -18.635958 20.704613 1.871784
v -18.635958 21.599640 2.622887
v -18.635958 21.599640 1.871784
v -19.411987 20.370773 2.622888
v -19.411987 20.370773 1.871784
v -19.657860 20.704613 1.871786
v -19.657860 20.704613 2.622887
v -19.657860 21.599640 1.871785
v -19.657860 21.599640 2.622887
v -17.874411 22.963408 14.038046
v 18.682920 22.963408 14.038038
v 19.958153 21.033485 1.455022
v -19.149643 21.033485 -0.924237
vn -0.0000 0.2629 -0.9648
vn 0.8801 -0.1337 0.4555
vn 0.8691 -0.1808 0.4604
vn 0.8879 -0.0225 0.4595
vn -0.0000 -0.3237 0.9461
vn -0.0000 -0.1223 0.9925
vn 0.8437 -0.2936 0.4494
vn 0.8395 -0.2802 0.4655
vn -0.0000 -0.5158 0.8567
vn -0.0000 -0.3211 0.9470
vn -0.0000 -0.0488 0.9988
vn -0.0000 -0.2547 0.9670
vn -0.0000 -0.5687 0.8225
vn -0.8437 -0.2936 0.4494
vn -0.8691 -0.1808 0.4604
vn -0.8395 -0.2802 0.4655
vn -0.8801 -0.1337 0.4555
vn -0.8879 -0.0225 0.4595
vn 0.8791 -0.1343 0.4574
vn 0.8424 -0.2948 0.4511
vn 0.8680 -0.1815 0.4622
vn 0.8869 -0.0226 0.4614
vn 0.8382 -0.2813 0.4673
vn -0.8791 -0.1343 0.4574
vn -0.8680 -0.1815 0.4622
vn -0.8424 -0.2948 0.4511
vn -0.8382 -0.2813 0.4673
vn -0.8869 -0.0226 0.4614
vn 0.8854 -0.1309 0.4461
vn 0.8501 -0.2880 0.4409
vn 0.8747 -0.1775 0.4511
vn 0.8928 -0.0220 0.4499
vn 0.8460 -0.2750 0.4568
vn -0.0000 -0.3238 0.9461
vn -0.8501 -0.2880 0.4409
vn -0.8747 -0.1775 0.4511
vn -0.8460 -0.2750 0.4568
vn -0.8854 -0.1309 0.4461
vn -0.8928 -0.0220 0.4499
vn 0.8742 -0.1369 0.4659
vn 0.8365 -0.2999 0.4587
vn 0.8628 -0.1846 0.4707
vn 0.8823 -0.0230 0.4702
vn 0.8321 -0.2861 0.4752
vn -0.0000 -0.3237 0.9462
vn -0.8742 -0.1369 0.4659
vn -0.8628 -0.1846 0.4707
vn -0.8364 -0.2999 0.4587
vn -0.8321 -0.2861 0.4752
vn -0.8822 -0.0230 0.4702
vn -0.0000 -1.0000 -0.0000
vn 0.4583 -0.1512 -0.8758
vn 0.4592 -0.2138 -0.8622
vn 0.4634 -0.0330 -0.8855
vn 0.9287 -0.3708 -0.0000
vn 0.9892 -0.1465 -0.0000
vn 0.8146 -0.5801 -0.0000
vn 0.4443 -0.3343 -0.8311
vn 0.4564 -0.3250 -0.8283
vn 0.7878 -0.6159 -0.0000
vn 0.9333 -0.3591 -0.0000
vn 0.9333 -0.3592 -0.0000
vn 0.9975 -0.0711 -0.0000
vn 0.4892 -0.1618 0.8570
vn 0.4893 -0.2266 0.8421
vn 0.4709 -0.3546 0.8078
vn 0.4836 -0.3444 0.8047
vn 0.4954 -0.0353 0.8679
vn 0.9288 -0.3706 -0.0000
vn 0.4709 -0.3546 -0.8078
vn 0.4836 -0.3444 -0.8047
vn 0.4893 -0.2266 -0.8421
vn 0.4892 -0.1618 -0.8570
vn 0.4954 -0.0353 -0.8679
vn 0.9537 -0.3006 -0.0000
vn 0.4634 -0.0330 0.8855
vn 0.4592 -0.2138 0.8622
vn 0.4583 -0.1512 0.8758
vn 0.4444 -0.3343 0.8311
vn 0.4564 -0.3250 0.8283
vn -0.9333 -0.3592 -0.0000
vn -0.9975 -0.0711 -0.0000
vn -0.9333 -0.3591 -0.0000
vn -0.4634 -0.0330 -0.8855
vn -0.4592 -0.2138 -0.8622
vn -0.4583 -0.1512 -0.8758
vn -0.4444 -0.3343 -0.8311
vn -0.7878 -0.6159 -0.0000
vn -0.4892 -0.1618 0.8570
vn -0.4709 -0.3546 0.8078
vn -0.4893 -0.2266 0.8421
vn -0.4954 -0.0353 0.8679
vn -0.4564 -0.3250 -0.8283
vn -0.8146 -0.5801 -0.0000
vn -0.9287 -0.3708 -0.0000
vn -0.9892 -0.1465 -0.0000
vn -0.4444 -0.3343 0.8311
vn -0.4564 -0.3250 0.8283
vn -0.4592 -0.2138 0.8622
vn -0.4583 -0.1512 0.8758
vn -0.4634 -0.0330 0.8855
vn -0.9537 -0.3006 -0.0000
vn -0.9288 -0.3706 -0.0000
vn -0.4836 -0.3444 0.8047
vn -0.4892 -0.1618 -0.8570
vn -0.4893 -0.2266 -0.8421
vn -0.4709 -0.3546 -0.8078
vn -0.4836 -0.3444 -0.8047
vn -0.4954 -0.0353 -0.8679
vn -0.0000 -0.1223 -0.9925
vn -0.0000 -0.3237 -0.9461
vn 0.8879 -0.0225 -0.4595
vn 0.8691 -0.1808 -0.4604
vn 0.8801 -0.1337 -0.4555
vn -0.0000 -0.5158 -0.8567
vn 0.8437 -0.2936 -0.4494
vn 0.8395 -0.2802 -0.4655
vn -0.8801 -0.1337 -0.4555
vn -0.8691 -0.1808 -0.4604
vn -0.8879 -0.0225 -0.4595
vn -0.8437 -0.2936 -0.4494
vn -0.8395 -0.2802 -0.4655
vn -0.0000 -0.3211 -0.9470
vn -0.0000 -0.5687 -0.8225
vn -0.0000 -0.0488 -0.9988
vn 0.8424 -0.2948 -0.4511
vn 0.8680 -0.1815 -0.4622
vn 0.8382 -0.2813 -0.4673
vn 0.8791 -0.1343 -0.4574
vn 0.8869 -0.0226 -0.4614
vn -0.8424 -0.2948 -0.4511
vn -0.8382 -0.2813 -0.4673
vn -0.8680 -0.1815 -0.4622
vn -0.8791 -0.1343 -0.4574
vn -0.8869 -0.0226 -0.4614
vn 0.8501 -0.2880 -0.4409
vn 0.8747 -0.1775 -0.4511
vn 0.8460 -0.2750 -0.4568
vn 0.8854 -0.1309 -0.4461
vn 0.8928 -0.0220 -0.4499
vn -0.0000 -0.3238 -0.9461
vn -0.8501 -0.2880 -0.4409
vn -0.8460 -0.2750 -0.4568
vn -0.8747 -0.1775 -0.4511
vn -0.8854 -0.1309 -0.4461
vn -0.8928 -0.0220 -0.4499
vn 0.8365 -0.2999 -0.4587
vn 0.8628 -0.1846 -0.4707
vn 0.8321 -0.2861 -0.4752
vn 0.8742 -0.1369 -0.4659
vn 0.8823 -0.0230 -0.4702
vn -0.0000 -0.3237 -0.9462
vn -0.8364 -0.2999 -0.4587
vn -0.8321 -0.2861 -0.4752
vn -0.8628 -0.1846 -0.4707
vn -0.8742 -0.1369 -0.4659
vn -0.8822 -0.0230 -0.4702
vn -0.0000 -0.2547 -0.9670
vn -0.0000 0.1334 0.9911
vn -0.0000 0.0863 0.9963
vn -0.0000 0.2989 0.9543
vn -0.0000 0.2988 0.9543
vn -0.0000 0.6350 0.7725
vn -0.0000 0.6350 0.7726
vn -0.9306 -0.3191 -0.1796
vn -0.9450 -0.2077 -0.2527
vn -0.9346 -0.2928 -0.2021
vn -0.8764 -0.4806 -0.0294
vn -0.8855 -0.4635 -0.0315
vn -0.9557 -0.2942 -0.0047
vn -0.9759 -0.2181 -0.0000
vn -1.0000 -0.0000 -0.0000
vn -0.7347 0.6784 -0.0000
vn 0.9306 -0.3191 -0.1796
vn 0.9450 -0.2077 -0.2527
vn 0.9346 -0.2928 -0.2021
vn 0.8764 -0.4806 -0.0294
vn 0.8855 -0.4635 -0.0315
vn 0.9557 -0.2942 -0.0047
vn 0.9759 -0.2181 -0.0000
vn 1.0000 -0.0000 -0.0000
vn 0.7347 0.6784 -0.0000
vn -0.0000 -0.8527 0.5223
vn -0.0000 -0.0000 1.0000
vn -0.0000 -0.8547 0.5191
vn -0.0000 -0.2000 0.9798
vn -0.0000 0.6170 0.7870
vn -0.0000 0.3263 0.9453
vn -0.0000 0.7636 0.6457
vn 0.0433 -0.9947 -0.0933
vn 0.0741 -0.9951 -0.0649
vn 0.0603 -0.9969 -0.0509
vn 0.0266 -0.9931 -0.1143
vn -0.0433 -0.9947 -0.0933
vn -0.0266 -0.9931 -0.1143
vn -0.0741 -0.9951 -0.0649
vn -0.0603 -0.9969 -0.0509
vn -0.0000 -0.8775 0.4795
vn -0.0000 1.0000 -0.0000
vn -0.0000 0.2299 -0.9732
vn -0.0000 0.5897 -0.8077
vn -0.0000 -0.2758 -0.9612
vn -0.0000 -0.4272 -0.9042
vn -0.0000 -0.2969 -0.9549
vn -0.0000 -0.6350 -0.7726
vn -0.0828 0.9940 0.0719
vn -0.0671 0.9961 0.0567
vn -0.0995 0.9943 0.0388
vn -0.1166 0.9929 0.0239
vn -0.0995 0.9943 -0.0389
vn -0.1166 0.9929 -0.0239
vn -0.0828 0.9940 -0.0720
vn -0.0671 0.9961 -0.0567
vn -0.0000 -0.8528 0.5223
vn -0.0000 -0.2001 0.9798
vn -0.0000 0.7635 0.6458
vn 0.0072 -0.9989 -0.0473
vn 0.0583 -0.9971 -0.0489
vn 0.0401 -0.9982 -0.0441
vn -0.0072 -0.9989 -0.0473
vn -0.0401 -0.9982 -0.0441
vn -0.0583 -0.9971 -0.0489
vn -0.0000 0.3264 0.9452
vn -0.9500 -0.3122 -0.0000
vn -0.8051 -0.5931 -0.0000
vn -0.0000 -0.0000 -1.0000
vn 0.8813 -0.4699 -0.0503
vn 0.8851 -0.4653 -0.0000
vn 0.8840 -0.4647 -0.0509
vn 0.8805 -0.4053 -0.2459
vn 0.8843 -0.3824 -0.2679
vn 0.8807 -0.1922 -0.4330
vn 0.8610 -0.2722 -0.4298
vn 0.8869 0.0662 -0.4573
vn 0.8851 0.0622 -0.4612
vn 0.8839 0.3602 -0.2984
vn 0.8869 0.3663 -0.2816
vn 0.8825 0.4642 -0.0752
vn 0.8849 0.4598 -0.0740
vn 0.8851 0.4654 -0.0000
vn 0.8851 0.4653 -0.0000
vn 0.8825 0.4642 0.0752
vn 0.8849 0.4598 0.0740
vn 0.8869 0.3663 0.2815
vn 0.8839 0.3602 0.2984
vn 0.8869 0.0662 0.4573
vn 0.8851 0.0622 0.4612
vn 0.8807 -0.1922 0.4330
vn 0.8610 -0.2722 0.4297
vn 0.8805 -0.4053 0.2459
vn 0.8843 -0.3824 0.2679
vn 0.8813 -0.4699 0.0503
vn 0.8840 -0.4647 0.0509
vn 0.0420 -0.9991 -0.0048
vn 0.0401 -0.9982 0.0441
vn 0.0420 -0.9991 0.0048
vn 0.0583 -0.9971 0.0489
vn 0.9500 -0.3122 -0.0000
vn 0.8051 -0.5931 -0.0000
vn -0.8869 0.3663 0.2815
vn -0.8869 0.0662 0.4573
vn -0.8839 0.3602 0.2984
vn -0.8851 0.0622 0.4612
vn -0.8825 0.4642 0.0752
vn -0.8807 -0.1922 0.4330
vn -0.8610 -0.2722 0.4298
vn -0.8805 -0.4053 0.2459
vn -0.8843 -0.3824 0.2679
vn -0.8813 -0.4699 0.0503
vn -0.8840 -0.4647 0.0509
vn -0.8851 -0.4653 -0.0000
vn -0.8851 0.4653 -0.0000
vn -0.8851 0.4654 -0.0000
vn -0.8849 0.4598 0.0740
vn -0.8825 0.4642 -0.0752
vn -0.8849 0.4598 -0.0740
vn -0.8869 0.3663 -0.2815
vn -0.8839 0.3602 -0.2984
vn -0.8869 0.0662 -0.4573
vn -0.8851 0.0622 -0.4612
vn -0.8807 -0.1922 -0.4330
vn -0.8610 -0.2722 -0.4298
vn -0.8805 -0.4053 -0.2459
vn -0.8843 -0.3824 -0.2679
vn -0.8813 -0.4699 -0.0503
vn -0.8840 -0.4647 -0.0509
vn -0.0868 0.9200 -0.3822
vn -0.3160 0.9009 -0.2975
vn -0.1928 0.9664 -0.1699
vn -0.4259 0.9005 -0.0880
vn -0.2333 0.9468 0.2217
vn 0.1932 0.9665 -0.1687
vn 0.0869 0.9200 -0.3821
vn 0.1944 0.9662 0.1696
vn 0.4246 0.9014 0.0852
vn 0.4239 0.9016 -0.0855
vn 0.3156 0.9012 -0.2970
vn 0.3176 0.9001 0.2983
vn 0.0899 0.9180 0.3863
vn -0.0983 0.8762 0.4718
vn -0.4021 0.8373 0.3704
vn -0.4938 0.8653 0.0859
vn -0.7365 -0.0000 -0.6765
vn -0.9756 -0.0000 -0.2194
vn -0.9756 -0.0000 0.2194
vn -0.7365 -0.0000 0.6765
vn 0.7365 -0.0000 -0.6765
vn 0.2606 -0.0000 -0.9654
vn -0.2606 -0.0000 -0.9654
vn 0.0495 0.9934 0.1036
vn 0.0828 0.9940 0.0719
vn 0.0671 0.9961 0.0567
vn 0.0305 0.9916 0.1257
vn -0.0495 0.9934 0.1036
vn -0.0305 0.9916 0.1257
vn -0.0603 -0.9969 0.0509
vn -0.0741 -0.9951 0.0649
vn -0.0881 -0.9955 0.0343
vn -0.1039 -0.9944 0.0206
vn -0.1039 -0.9944 -0.0206
vn -0.0881 -0.9955 -0.0343
vn 0.2729 -0.0000 0.9620
vn 0.7397 -0.0000 0.6730
vn -0.2729 -0.0000 0.9620
vn -0.7397 -0.0000 0.6730
vn 0.0828 0.9940 -0.0720
vn 0.0495 0.9934 -0.1036
vn 0.0671 0.9961 -0.0567
vn 0.0305 0.9916 -0.1257
vn -0.0305 0.9916 -0.1257
vn -0.0495 0.9934 -0.1036
vn -0.0072 -0.9989 0.0473
vn -0.0583 -0.9971 0.0489
vn -0.0401 -0.9982 0.0441
vn 0.0072 -0.9989 0.0473
vn -0.7397 -0.0000 -0.6730
vn -0.9738 -0.0000 -0.2272
vn -0.9738 -0.0000 0.2272
vn 0.7397 -0.0000 -0.6730
vn 0.2729 -0.0000 -0.9620
vn -0.2729 -0.0000 -0.9620
vn -0.0420 -0.9991 -0.0048
vn -0.0420 -0.9991 0.0048
vn 0.0603 -0.9969 0.0509
vn 0.0881 -0.9955 0.0343
vn 0.0741 -0.9951 0.0649
vn 0.1039 -0.9944 0.0206
vn 0.0881 -0.9955 -0.0343
vn 0.1039 -0.9944 -0.0206
vn 0.8052 -0.5930 -0.0000
vn 0.9501 -0.3121 -0.0000
vn 0.9738 -0.0000 0.2272
vn 0.9738 -0.0000 -0.2272
vn -0.1594 0.4927 0.8555
vn -0.1616 0.4937 0.8545
vn -0.1579 0.4920 0.8562
vn -0.1560 0.4910 0.8571
vn -0.1582 -0.2407 0.9576
vn -0.1598 -0.2410 0.9573
vn -0.1642 -0.4469 0.8794
vn -0.1564 -0.4732 0.8670
vn -0.1663 0.9739 0.1548
vn -0.1688 0.9735 0.1542
vn -0.1567 0.9494 0.2720
vn -0.1518 0.9494 0.2750
vn -0.1691 0.9856 -0.0000
vn -0.1663 0.9739 -0.1548
vn -0.1688 0.9735 -0.1542
vn -0.1567 0.9494 -0.2720
vn -0.1518 0.9494 -0.2750
vn -0.1594 0.4927 -0.8555
vn -0.1579 0.4920 -0.8562
vn -0.1615 0.4937 -0.8545
vn -0.1560 0.4910 -0.8571
vn -0.1598 -0.2410 -0.9573
vn -0.1642 -0.4469 -0.8794
vn -0.1564 -0.4732 -0.8670
vn -0.1582 -0.2407 -0.9576
vn -0.1634 -0.8509 -0.4993
vn -0.1672 -0.8409 -0.5147
vn -0.1650 -0.9809 -0.1025
vn -0.1682 -0.9804 -0.1022
vn -0.1691 -0.9856 -0.0000
vn -0.1634 -0.8509 0.4993
vn -0.1672 -0.8409 0.5147
vn -0.1650 -0.9810 0.1025
vn -0.1682 -0.9804 0.1022
vn -0.9501 -0.3121 -0.0000
vn -0.8052 -0.5930 -0.0000
vn -0.9891 -0.1459 -0.0201
vn -0.9896 -0.1440 -0.0000
vn -0.9894 -0.1440 -0.0176
vn -0.9898 -0.1167 -0.0822
vn -0.9888 -0.1285 -0.0759
vn -0.9891 -0.0580 -0.1352
vn -0.9870 -0.0846 -0.1364
vn -0.9897 0.0219 -0.1418
vn -0.9897 0.0197 -0.1420
vn -0.9897 0.1125 -0.0888
vn -0.9896 0.1101 -0.0929
vn -0.9893 0.1437 -0.0238
vn -0.9896 0.1422 -0.0237
vn -0.9896 0.1440 -0.0000
vn -0.9893 0.1437 0.0238
vn -0.9896 0.1422 0.0237
vn -0.9897 0.1125 0.0888
vn -0.9896 0.1101 0.0930
vn -0.9897 0.0197 0.1420
vn -0.9897 0.0219 0.1418
vn -0.9891 -0.0580 0.1352
vn -0.9870 -0.0846 0.1364
vn -0.9888 -0.1285 0.0759
vn -0.9898 -0.1167 0.0822
vn -0.9891 -0.1459 0.0201
vn -0.9894 -0.1440 0.0176
vn 0.7132 0.6952 0.0903
vn 0.7161 0.6980 -0.0000
vn 0.7093 0.6976 0.1010
vn 0.7122 0.5725 0.4062
vn 0.7130 0.5893 0.3800
vn 0.7000 0.3145 0.6412
vn 0.7069 0.2635 0.6564
vn 0.7180 -0.0918 0.6899
vn 0.7170 -0.0956 0.6904
vn 0.7178 -0.5335 0.4474
vn 0.7152 -0.5461 0.4361
vn 0.7123 -0.6894 0.1317
vn 0.7154 -0.6873 0.1262
vn 0.7160 -0.6981 -0.0000
vn 0.7161 -0.6980 -0.0000
vn 0.7123 -0.6894 -0.1317
vn 0.7154 -0.6873 -0.1262
vn 0.7178 -0.5335 -0.4474
vn 0.7152 -0.5461 -0.4361
vn 0.7170 -0.0956 -0.6904
vn 0.7180 -0.0918 -0.6899
vn 0.7000 0.3145 -0.6412
vn 0.7069 0.2635 -0.6564
vn 0.7122 0.5725 -0.4062
vn 0.7130 0.5893 -0.3800
vn 0.7093 0.6976 -0.1010
vn 0.7132 0.6952 -0.0903
vn 0.4442 -0.6860 0.5763
vn 0.4420 -0.6941 0.5683
vn 0.4451 -0.1262 0.8865
vn 0.4425 -0.1227 0.8883
vn 0.4295 0.3479 0.8334
vn 0.4297 0.3850 0.8168
vn 0.4388 -0.8828 0.1676
vn 0.4417 -0.8822 0.1634
vn 0.4425 -0.8968 -0.0000
vn 0.4388 -0.8828 -0.1676
vn 0.4417 -0.8822 -0.1634
vn 0.4442 -0.6860 -0.5763
vn 0.4420 -0.6941 -0.5683
vn 0.4451 -0.1262 -0.8865
vn 0.4425 -0.1227 -0.8883
vn 0.4295 0.3479 -0.8334
vn 0.4297 0.3850 -0.8168
vn 0.4390 0.7315 -0.5217
vn 0.4404 0.7430 -0.5040
vn 0.4361 0.8910 -0.1266
vn 0.4394 0.8905 -0.1183
vn 0.4425 0.8968 -0.0000
vn 0.4391 0.7315 0.5217
vn 0.4404 0.7430 0.5040
vn 0.4361 0.8910 0.1266
vn 0.4394 0.8905 0.1183
vn 0.4425 0.8967 -0.0000
vn -0.7132 0.6952 -0.0903
vn -0.7161 0.6980 -0.0000
vn -0.7093 0.6976 -0.1010
vn -0.7122 0.5725 -0.4062
vn -0.7130 0.5893 -0.3800
vn -0.7000 0.3145 -0.6412
vn -0.7069 0.2635 -0.6564
vn -0.7180 -0.0918 -0.6899
vn -0.7170 -0.0956 -0.6904
vn -0.7178 -0.5335 -0.4474
vn -0.7152 -0.5461 -0.4361
vn -0.7123 -0.6894 -0.1317
vn -0.7154 -0.6873 -0.1262
vn -0.7160 -0.6981 -0.0000
vn -0.7161 -0.6980 -0.0000
vn -0.7123 -0.6894 0.1317
vn -0.7154 -0.6873 0.1262
vn -0.7178 -0.5335 0.4474
vn -0.7152 -0.5461 0.4361
vn -0.7170 -0.0956 0.6904
vn -0.7180 -0.0918 0.6899
vn -0.7000 0.3145 0.6412
vn -0.7069 0.2635 0.6564
vn -0.7122 0.5725 0.4062
vn -0.7130 0.5893 0.3800
vn -0.7093 0.6976 0.1010
vn -0.7132 0.6951 0.0903
vn 0.9891 -0.1459 0.0201
vn 0.9896 -0.1440 -0.0000
vn 0.9894 -0.1440 0.0176
vn 0.9898 -0.1167 0.0822
vn 0.9888 -0.1285 0.0759
vn 0.9891 -0.0580 0.1352
vn 0.9870 -0.0846 0.1364
vn 0.9897 0.0219 0.1418
vn 0.9897 0.0197 0.1420
vn 0.9897 0.1125 0.0888
vn 0.9896 0.1101 0.0930
vn 0.9893 0.1437 0.0238
vn 0.9896 0.1422 0.0237
vn 0.9896 0.1440 -0.0000
vn 0.9893 0.1437 -0.0238
vn 0.9896 0.1422 -0.0237
vn 0.9897 0.1125 -0.0888
vn 0.9896 0.1101 -0.0929
vn 0.9897 0.0197 -0.1420
vn 0.9897 0.0219 -0.1418
vn 0.9891 -0.0580 -0.1352
vn 0.9870 -0.0846 -0.1364
vn 0.9888 -0.1285 -0.0759
vn 0.9898 -0.1167 -0.0822
vn 0.9891 -0.1459 -0.0201
vn 0.9894 -0.1440 -0.0176
vn 0.1691 -0.9856 -0.0000
vn 0.1682 -0.9804 -0.1022
vn 0.1650 -0.9809 -0.1025
vn 0.1634 -0.8509 -0.4993
vn 0.1672 -0.8409 -0.5147
vn 0.1642 -0.4469 -0.8794
vn 0.1564 -0.4732 -0.8669
vn 0.1598 -0.2410 -0.9573
vn 0.1582 -0.2407 -0.9576
vn 0.1560 0.4910 -0.8571
vn 0.1594 0.4927 -0.8555
vn 0.1579 0.4920 -0.8562
vn 0.1616 0.4937 -0.8545
vn 0.1518 0.9494 -0.2750
vn 0.1663 0.9739 -0.1548
vn 0.1567 0.9494 -0.2720
vn 0.1688 0.9735 -0.1542
vn 0.1691 0.9856 -0.0000
vn 0.1663 0.9739 0.1548
vn 0.1688 0.9735 0.1542
vn 0.1567 0.9494 0.2720
vn 0.1518 0.9494 0.2750
vn 0.1594 0.4927 0.8555
vn 0.1579 0.4920 0.8562
vn 0.1616 0.4937 0.8545
vn 0.1560 0.4910 0.8571
vn 0.1582 -0.2407 0.9576
vn 0.1642 -0.4469 0.8794
vn 0.1598 -0.2410 0.9573
vn 0.1564 -0.4732 0.8670
vn 0.1634 -0.8509 0.4993
vn 0.1672 -0.8409 0.5147
vn 0.1650 -0.9810 0.1025
vn 0.1682 -0.9804 0.1022
vn -0.4425 0.8968 -0.0000
vn -0.4361 0.8910 -0.1266
vn -0.4394 0.8905 -0.1183
vn -0.4390 0.7315 -0.5217
vn -0.4404 0.7430 -0.5040
vn -0.4297 0.3850 -0.8168
vn -0.4295 0.3479 -0.8334
vn -0.4451 -0.1262 -0.8865
vn -0.4425 -0.1227 -0.8883
vn -0.4442 -0.6860 -0.5763
vn -0.4420 -0.6941 -0.5683
vn -0.4388 -0.8828 -0.1676
vn -0.4417 -0.8822 -0.1634
vn -0.4425 -0.8968 -0.0000
vn -0.4388 -0.8828 0.1676
vn -0.4417 -0.8822 0.1634
vn -0.4442 -0.6860 0.5763
vn -0.4420 -0.6941 0.5683
vn -0.4451 -0.1262 0.8865
vn -0.4425 -0.1227 0.8883
vn -0.4295 0.3479 0.8334
vn -0.4297 0.3850 0.8168
vn -0.4391 0.7315 0.5217
vn -0.4404 0.7430 0.5040
vn -0.4361 0.8910 0.1266
vn -0.4394 0.8905 0.1183
vn -0.4425 0.8967 -0.0000
vn -0.9500 -0.3121 -0.0000
vn -0.2606 -0.0000 0.9654
vn 0.2606 -0.0000 0.9654
vn 0.7365 -0.0000 0.6765
vn 0.0995 0.9943 0.0388
vn 0.1166 0.9929 0.0239
vn 0.1166 0.9929 -0.0239
vn 0.0995 0.9943 -0.0389
vn 0.0433 -0.9947 0.0933
vn 0.0266 -0.9931 0.1143
vn -0.0266 -0.9931 0.1143
vn -0.0433 -0.9947 0.0933
vn 0.9756 -0.0000 -0.2194
vn 0.9756 -0.0000 0.2194
vt 0.607843 -0.345098
vt 0.615686 -0.345098
vt 0.607843 -0.400000
vt 0.615686 -0.400000
vt 0.984314 -0.431373
vt 0.984314 -0.419608
vt 0.717647 -0.431373
vt 0.984314 -0.388235
vt 0.717647 -0.380392
vt 1.000000 -0.431373
vt 1.000000 -0.419608
vt 0.984314 -0.482353
vt 1.000000 -0.470588
vt 0.717647 -0.501961
vt 1.000000 -0.388235
vt 1.000000 -0.380392
vt 0.984314 -0.380392
vt 1.000000 -0.329412
vt 0.984314 -0.329412
vt 0.717647 -0.329412
vt 0.984314 -0.317647
vt 1.000000 -0.317647
vt 0.984314 -0.286274
vt 0.717647 -0.278431
vt 1.000000 -0.286274
vt 0.984314 -0.278431
vt 1.000000 -0.278431
vt 0.984314 -0.227451
vt 1.000000 -0.227451
vt 0.717647 -0.227451
vt 0.984314 -0.215686
vt 1.000000 -0.215686
vt 0.984314 -0.184314
vt 0.717647 -0.176471
vt 1.000000 -0.184314
vt 1.000000 -0.176471
vt 0.984314 -0.176471
vt 1.000000 -0.125490
vt 0.984314 -0.125490
vt 0.717647 -0.125490
vt 0.984314 -0.113725
vt 1.000000 -0.113725
vt 0.984314 -0.082353
vt 0.717647 -0.074510
vt 1.000000 -0.082353
vt 0.984314 -0.074510
vt 1.000000 -0.074510
vt 1.000000 -0.031373
vt 0.984314 -0.023529
vt 0.717647 -0.003922
vt 0.639216 -0.058824
vt 0.647059 -0.070588
vt 0.600000 -0.058824
vt 0.596078 -0.070588
vt 0.670588 -0.070588
vt 0.694118 -0.109804
vt 0.694118 -0.152941
vt 0.545098 -0.109804
vt 0.572549 -0.070588
vt 0.705882 -0.145098
vt 0.705882 -0.113725
vt 0.545098 -0.152941
vt 0.694118 -0.172549
vt 0.694118 -0.090196
vt 0.674510 -0.058824
vt 0.705882 -0.082353
vt 0.705882 -0.058824
vt 0.545098 -0.172549
vt 0.694118 -0.215686
vt 0.705882 -0.176471
vt 0.533333 -0.145098
vt 0.545098 -0.090196
vt 0.533333 -0.113725
vt 0.564706 -0.058824
vt 0.533333 -0.082353
vt 0.533333 -0.058824
vt 0.705882 -0.207843
vt 0.545098 -0.215686
vt 0.694118 -0.231373
vt 0.545098 -0.231373
vt 0.533333 -0.207843
vt 0.533333 -0.176471
vt 0.545098 -0.278431
vt 0.545098 -0.294118
vt 0.572549 -0.313725
vt 0.596078 -0.313725
vt 0.647059 -0.313725
vt 0.694118 -0.278431
vt 0.705882 -0.239216
vt 0.533333 -0.270588
vt 0.533333 -0.239216
vt 0.705882 -0.270588
vt 0.694118 -0.294118
vt 0.670588 -0.313725
vt 0.600000 -0.325490
vt 0.639216 -0.325490
vt 0.674510 -0.325490
vt 0.705882 -0.301961
vt 0.705882 -0.325490
vt 0.564706 -0.325490
vt 0.533333 -0.301961
vt 0.533333 -0.325490
vt 0.200000 -0.984314
vt 0.211765 -0.984314
vt 0.200000 -0.713725
vt 0.250980 -0.984314
vt 0.262745 -0.713725
vt 0.211765 -0.996078
vt 0.200000 -0.996078
vt 0.137255 -0.996078
vt 0.137255 -0.984314
vt 0.125490 -0.984314
vt 0.125490 -0.996078
vt 0.137255 -0.713725
vt 0.090196 -0.996078
vt 0.090196 -0.984314
vt 0.078431 -0.996078
vt 0.078431 -0.984314
vt 0.078431 -0.713725
vt 0.027451 -0.996078
vt 0.015686 -0.984314
vt 0.003922 -0.713725
vt 0.250980 -0.996078
vt 0.262745 -0.984314
vt 0.262745 -0.996078
vt 0.321569 -0.984314
vt 0.313726 -0.996078
vt 0.337255 -0.713725
vt 0.529412 -0.729412
vt 0.470588 -0.996078
vt 0.529412 -0.996078
vt 0.470588 -0.729412
vt 0.541176 -0.729412
vt 0.529412 -0.713725
vt 0.470588 -0.713725
vt 0.458824 -0.729412
vt 0.541176 -0.713725
vt 0.580392 -0.713725
vt 0.580392 -0.729412
vt 0.592157 -0.713725
vt 0.592157 -0.729412
vt 0.592157 -0.996078
vt 0.643137 -0.713725
vt 0.654902 -0.729412
vt 0.666667 -0.996078
vt 0.458824 -0.713725
vt 0.419608 -0.729412
vt 0.407843 -0.996078
vt 0.419608 -0.713725
vt 0.407843 -0.729412
vt 0.407843 -0.713725
vt 0.356863 -0.713725
vt 0.349020 -0.729412
vt 0.333333 -0.996078
vt 0.996078 -0.921569
vt 0.729412 -0.878431
vt 0.729412 -0.909804
vt 0.729412 -0.921569
vt 0.717647 -0.878431
vt 0.717647 -0.909804
vt 0.717647 -0.921569
vt 0.996078 -0.870588
vt 0.729412 -0.870588
vt 0.717647 -0.870588
vt 0.717647 -0.819608
vt 0.729412 -0.819608
vt 0.729412 -0.807843
vt 0.717647 -0.807843
vt 0.996078 -0.819608
vt 0.729412 -0.776471
vt 0.717647 -0.776471
vt 0.717647 -0.764706
vt 0.729412 -0.764706
vt 0.996078 -0.764706
vt 0.717647 -0.713725
vt 0.729412 -0.713725
vt 0.729412 -0.705882
vt 0.717647 -0.705882
vt 0.996078 -0.713725
vt 0.729412 -0.674510
vt 0.717647 -0.674510
vt 0.717647 -0.662745
vt 0.729412 -0.662745
vt 0.996078 -0.662745
vt 0.717647 -0.611765
vt 0.729412 -0.611765
vt 0.729412 -0.603922
vt 0.717647 -0.603922
vt 0.996078 -0.611765
vt 0.729412 -0.572549
vt 0.717647 -0.572549
vt 0.717647 -0.560784
vt 0.729412 -0.560784
vt 0.996078 -0.560784
vt 0.717647 -0.521569
vt 0.729412 -0.509804
vt 0.996078 -0.490196
vt 0.717647 -0.960784
vt 0.729412 -0.972549
vt 0.996078 -0.992157
vt 0.552941 -0.643137
vt 0.560784 -0.627451
vt 0.674510 -0.643137
vt 0.666667 -0.627451
vt 0.576471 -0.596078
vt 0.650980 -0.596078
vt 0.576471 -0.588235
vt 0.650980 -0.588235
vt 0.533333 -0.564706
vt 0.533333 -0.576471
vt 0.525490 -0.572549
vt 0.541176 -0.568627
vt 0.541176 -0.533333
vt 0.533333 -0.533333
vt 0.533333 -0.517647
vt 0.552941 -0.517647
vt 0.533333 -0.482353
vt 0.552941 -0.482353
vt 0.541176 -0.470588
vt 0.533333 -0.470588
vt 0.694118 -0.564706
vt 0.701961 -0.572549
vt 0.694118 -0.576471
vt 0.686275 -0.568627
vt 0.686275 -0.533333
vt 0.694118 -0.533333
vt 0.694118 -0.517647
vt 0.674510 -0.517647
vt 0.674510 -0.482353
vt 0.694118 -0.482353
vt 0.686275 -0.470588
vt 0.694118 -0.470588
vt 0.643137 -0.443137
vt 0.643137 -0.435294
vt 0.698039 -0.443137
vt 0.698039 -0.435294
vt 0.643137 -0.403922
vt 0.698039 -0.403922
vt 0.643137 -0.400000
vt 0.698039 -0.400000
vt 0.643137 -0.349020
vt 0.698039 -0.349020
vt 0.643137 -0.345098
vt 0.698039 -0.345098
vt 0.478431 -0.109804
vt 0.466667 -0.094118
vt 0.478431 -0.094118
vt 0.466667 -0.109804
vt 0.478431 -0.596078
vt 0.466667 -0.596078
vt 0.466667 -0.611765
vt 0.478431 -0.611765
vt 0.576471 -0.576471
vt 0.647059 -0.576471
vt 0.662745 -0.458824
vt 0.662745 -0.470588
vt 0.564706 -0.458824
vt 0.564706 -0.470588
vt 0.666667 -0.533333
vt 0.560784 -0.533333
vt 0.647059 -0.568627
vt 0.576471 -0.568627
vt 0.090196 -0.670588
vt 0.090196 -0.658823
vt 0.105882 -0.658823
vt 0.105882 -0.670588
vt 0.415686 -0.658823
vt 0.415686 -0.670588
vt 0.431373 -0.670588
vt 0.431373 -0.658823
vt 0.701961 -0.345098
vt 0.701961 -0.400000
vt 0.709804 -0.345098
vt 0.709804 -0.400000
vt 0.631373 -0.439216
vt 0.631373 -0.403922
vt 0.623529 -0.435294
vt 0.623529 -0.403922
vt 0.627451 -0.400000
vt 0.619608 -0.400000
vt 0.623529 -0.400000
vt 0.623529 -0.349020
vt 0.627451 -0.345098
vt 0.639216 -0.435294
vt 0.639216 -0.403922
vt 0.635294 -0.400000
vt 0.639216 -0.349020
vt 0.639216 -0.400000
vt 0.635294 -0.345098
vt 0.505882 -0.109804
vt 0.517647 -0.094118
vt 0.521569 -0.101961
vt 0.505882 -0.596078
vt 0.521569 -0.603922
vt 0.517647 -0.611765
vt 0.537255 -0.439216
vt 0.545098 -0.435294
vt 0.537255 -0.403922
vt 0.545098 -0.403922
vt 0.549020 -0.403922
vt 0.541176 -0.400000
vt 0.549020 -0.400000
vt 0.545098 -0.400000
vt 0.545098 -0.349020
vt 0.541176 -0.345098
vt 0.549020 -0.443137
vt 0.549020 -0.435294
vt 0.607843 -0.443137
vt 0.607843 -0.435294
vt 0.607843 -0.403922
vt 0.549020 -0.349020
vt 0.607843 -0.349020
vt 0.549020 -0.345098
vt 0.611765 -0.027451
vt 0.592157 -0.035294
vt 0.611765 -0.035294
vt 0.592157 -0.027451
vt 0.611765 -0.003922
vt 0.592157 -0.003922
vt 0.678431 -0.027451
vt 0.658824 -0.035294
vt 0.670588 -0.035294
vt 0.650980 -0.027451
vt 0.678431 -0.003922
vt 0.650980 -0.003922
vt 0.690196 -0.972549
vt 0.686275 -0.992157
vt 0.690196 -0.992157
vt 0.686275 -0.972549
vt 0.686275 -0.956863
vt 0.690196 -0.956863
vt 0.690196 -0.941176
vt 0.686275 -0.941176
vt 0.686275 -0.894118
vt 0.690196 -0.894118
vt 0.690196 -0.878431
vt 0.686275 -0.878431
vt 0.690196 -0.858824
vt 0.686275 -0.858824
vt 0.686275 -0.803922
vt 0.690196 -0.803922
vt 0.690196 -0.745098
vt 0.686275 -0.745098
vt 0.686275 -0.725490
vt 0.690196 -0.725490
vt 0.686275 -0.709804
vt 0.690196 -0.709804
vt 0.690196 -0.662745
vt 0.686275 -0.662745
vt 0.686275 -0.647059
vt 0.690196 -0.647059
vt 0.690196 -0.631373
vt 0.686275 -0.631373
vt 0.686275 -0.611765
vt 0.690196 -0.611765
vt 0.529412 -0.435294
vt 0.529412 -0.403922
vt 0.537255 -0.400000
vt 0.529412 -0.400000
vt 0.529412 -0.349020
vt 0.537255 -0.345098
vt 0.431373 -0.011765
vt 0.415686 -0.019608
vt 0.427451 -0.007843
vt 0.094118 -0.007843
vt 0.105882 -0.019608
vt 0.090196 -0.011765
vt 0.541176 -0.027451
vt 0.560784 -0.035294
vt 0.541176 -0.035294
vt 0.560784 -0.027451
vt 0.541176 -0.003922
vt 0.560784 -0.003922
vt 0.474510 -0.027451
vt 0.494118 -0.035294
vt 0.482353 -0.035294
vt 0.498039 -0.027451
vt 0.474510 -0.003922
vt 0.498039 -0.003922
vt 0.443137 -0.596078
vt 0.431373 -0.611765
vt 0.415686 -0.596078
vt 0.415686 -0.619608
vt 0.101961 -0.600000
vt 0.415686 -0.109804
vt 0.443137 -0.109804
vt 0.105882 -0.109804
vt 0.105882 -0.086275
vt 0.415686 -0.086275
vt 0.431373 -0.094118
vt 0.090196 -0.094118
vt 0.078431 -0.113725
vt 0.078431 -0.596078
vt 0.090196 -0.611765
vt 0.105882 -0.619608
vt 0.431373 -0.619608
vt 0.431373 -0.647059
vt 0.415686 -0.647059
vt 0.105882 -0.647059
vt 0.090196 -0.619608
vt 0.090196 -0.647059
vt 0.443137 -0.094118
vt 0.443137 -0.611765
vt 0.043137 -0.113725
vt 0.031373 -0.094118
vt 0.043137 -0.094118
vt 0.031373 -0.113725
vt 0.043137 -0.596078
vt 0.031373 -0.596078
vt 0.031373 -0.611765
vt 0.043137 -0.611765
vt 0.015686 -0.094118
vt 0.015686 -0.113725
vt 0.015686 -0.596078
vt 0.015686 -0.611765
vt 0.490196 -0.094118
vt 0.490196 -0.109804
vt 0.490196 -0.596078
vt 0.490196 -0.611765
vt 0.003922 -0.611765
vt 0.003922 -0.603922
vt 0.003922 -0.101961
vt 0.003922 -0.094118
vt 0.431373 -0.686275
vt 0.415686 -0.686275
vt 0.105882 -0.686275
vt 0.090196 -0.686275
vt 0.505882 -0.094118
vt 0.505882 -0.611765
vt 0.047059 -0.035294
vt 0.050980 -0.023529
vt 0.043137 -0.027451
vt 0.039216 -0.031373
vt 0.035294 -0.023529
vt 0.047059 -0.019608
vt 0.431373 -0.694118
vt 0.427451 -0.701961
vt 0.094118 -0.701961
vt 0.090196 -0.694118
vt 0.047059 -0.058824
vt 0.050980 -0.050980
vt 0.043137 -0.050980
vt 0.035294 -0.058824
vt 0.035294 -0.047059
vt 0.047059 -0.043137
vt 0.090196 -0.047059
vt 0.105882 -0.047059
vt 0.090196 -0.062745
vt 0.105882 -0.062745
vt 0.415686 -0.047059
vt 0.415686 -0.062745
vt 0.431373 -0.062745
vt 0.431373 -0.047059
vt 0.517647 -0.047059
vt 0.517647 -0.035294
vt 0.498039 -0.047059
vt 0.498039 -0.035294
vt 0.517647 -0.027451
vt 0.517647 -0.003922
vt 0.537255 -0.035294
vt 0.525490 -0.035294
vt 0.635294 -0.047059
vt 0.650980 -0.047059
vt 0.635294 -0.035294
vt 0.650980 -0.035294
vt 0.635294 -0.027451
vt 0.635294 -0.003922
vt 0.090196 -0.019608
vt 0.090196 -0.035294
vt 0.105882 -0.035294
vt 0.415686 -0.035294
vt 0.431373 -0.035294
vt 0.431373 -0.019608
vt 0.615686 -0.035294
vt 0.627451 -0.035294
vt 0.701961 -0.725490
vt 0.705882 -0.725490
vt 0.705882 -0.709804
vt 0.701961 -0.709804
vt 0.701961 -0.662745
vt 0.705882 -0.662745
vt 0.701961 -0.745098
vt 0.705882 -0.745098
vt 0.705882 -0.803922
vt 0.701961 -0.803922
vt 0.701961 -0.858824
vt 0.705882 -0.858824
vt 0.705882 -0.878431
vt 0.701961 -0.878431
vt 0.705882 -0.894118
vt 0.701961 -0.894118
vt 0.701961 -0.941176
vt 0.705882 -0.941176
vt 0.705882 -0.956863
vt 0.701961 -0.956863
vt 0.701961 -0.972549
vt 0.705882 -0.972549
vt 0.701961 -0.992157
vt 0.705882 -0.992157
vt 0.705882 -0.647059
vt 0.701961 -0.647059
vt 0.701961 -0.631373
vt 0.705882 -0.631373
vt 0.701961 -0.611765
vt 0.705882 -0.611765
vt 0.698039 -0.992157
vt 0.698039 -0.972549
vt 0.698039 -0.956863
vt 0.698039 -0.941176
vt 0.698039 -0.894118
vt 0.698039 -0.878431
vt 0.698039 -0.858824
vt 0.698039 -0.803922
vt 0.698039 -0.745098
vt 0.698039 -0.725490
vt 0.698039 -0.709804
vt 0.698039 -0.662745
vt 0.698039 -0.647059
vt 0.698039 -0.631373
vt 0.698039 -0.611765
vt 0.694118 -0.972549
vt 0.694118 -0.992157
vt 0.694118 -0.956863
vt 0.694118 -0.941176
vt 0.694118 -0.894118
vt 0.694118 -0.878431
vt 0.694118 -0.858824
vt 0.694118 -0.803922
vt 0.694118 -0.745098
vt 0.694118 -0.725490
vt 0.694118 -0.709804
vt 0.694118 -0.662745
vt 0.694118 -0.647059
vt 0.694118 -0.631373
vt 0.694118 -0.611765
vt 0.054902 -0.611765
vt 0.054902 -0.596078
vt 0.078431 -0.611765
vt 0.054902 -0.113725
vt 0.054902 -0.094118
vt 0.078431 -0.094118
vt 0.431373 -0.086275
vt 0.090196 -0.086275
s 1
usemtl Material01
f 1/1/1 2/2/1 3/3/1
f 3/3/1 2/2/1 4/4/1
f 5/5/2 6/6/3 7/7/4
f 8/8/5 9/9/6 6/6/5
f 7/7/6 6/6/5 9/9/6
f 5/5/2 10/10/7 6/6/3
f 10/10/7 11/11/8 6/6/3
f 11/11/9 8/8/5 6/6/5
f 5/5/10 7/7/11 12/12/12
f 12/12/12 13/13/13 5/5/10
f 10/10/13 5/5/10 13/13/13
f 14/14/11 12/12/12 7/7/11
f 15/15/9 8/8/5 11/11/9
f 16/16/14 8/8/15 15/15/16
f 17/17/17 8/8/15 16/16/14
f 18/18/13 19/19/10 16/16/13
f 16/16/13 19/19/10 17/17/10
f 9/9/18 8/8/15 17/17/17
f 19/19/10 20/20/11 17/17/10
f 17/17/10 20/20/11 9/9/11
f 19/19/19 18/18/20 21/21/21
f 19/19/19 21/21/21 20/20/22
f 18/18/20 22/22/23 21/21/21
f 22/22/9 23/23/5 21/21/5
f 23/23/5 24/24/6 21/21/5
f 20/20/6 21/21/5 24/24/6
f 25/25/9 23/23/5 22/22/9
f 26/26/24 23/23/25 27/27/26
f 27/27/26 23/23/25 25/25/27
f 24/24/28 23/23/25 26/26/24
f 27/27/13 28/28/10 26/26/10
f 29/29/13 28/28/10 27/27/13
f 26/26/10 30/30/11 24/24/11
f 28/28/10 30/30/11 26/26/10
f 28/28/29 29/29/30 31/31/31
f 28/28/29 31/31/31 30/30/32
f 29/29/30 32/32/33 31/31/31
f 32/32/9 33/33/34 31/31/34
f 33/33/34 34/34/6 31/31/34
f 30/30/6 31/31/34 34/34/6
f 35/35/9 33/33/34 32/32/9
f 36/36/35 33/33/36 35/35/37
f 37/37/38 33/33/36 36/36/35
f 34/34/39 33/33/36 37/37/38
f 38/38/13 39/39/10 36/36/13
f 36/36/13 39/39/10 37/37/10
f 39/39/10 40/40/11 37/37/10
f 37/37/10 40/40/11 34/34/11
f 39/39/40 38/38/41 41/41/42
f 39/39/40 41/41/42 40/40/43
f 38/38/41 42/42/44 41/41/42
f 42/42/9 43/43/45 41/41/45
f 43/43/45 44/44/6 41/41/45
f 40/40/6 41/41/45 44/44/6
f 45/45/9 43/43/45 42/42/9
f 46/46/46 43/43/47 47/47/48
f 47/47/48 43/43/47 45/45/49
f 44/44/50 43/43/47 46/46/46
f 48/48/13 46/46/10 47/47/13
f 49/49/12 44/44/11 46/46/10
f 49/49/12 46/46/10 48/48/13
f 50/50/11 44/44/11 49/49/12
f 51/51/51 52/52/51 53/53/51
f 53/53/51 52/52/51 54/54/51
f 55/55/51 56/56/51 52/52/51
f 56/56/51 57/57/51 52/52/51
f 52/52/51 57/57/51 54/54/51
f 54/54/51 57/57/51 15/58/51
f 58/59/51 54/54/51 15/58/51
f 59/60/51 57/57/51 60/61/51
f 60/61/51 57/57/51 56/56/51
f 15/58/51 57/57/51 22/62/51
f 57/57/51 61/63/51 22/62/51
f 62/64/51 56/56/51 55/55/51
f 63/65/51 62/64/51 55/55/51
f 64/66/51 62/64/51 63/65/51
f 65/67/51 64/66/51 63/65/51
f 22/62/51 61/63/51 25/68/51
f 61/63/51 66/69/51 25/68/51
f 67/70/51 66/69/51 61/63/51
f 18/71/51 15/58/51 22/62/51
f 11/72/51 58/59/51 15/58/51
f 16/73/51 15/58/51 18/71/51
f 68/74/51 58/59/51 11/72/51
f 10/75/51 68/74/51 11/72/51
f 13/76/51 68/74/51 10/75/51
f 69/77/51 66/69/51 67/70/51
f 25/68/51 66/69/51 32/78/51
f 66/69/51 70/79/51 32/78/51
f 32/78/51 70/79/51 35/80/51
f 29/81/51 25/68/51 32/78/51
f 27/82/51 25/68/51 29/81/51
f 35/80/51 70/79/51 42/83/51
f 42/83/51 70/79/51 45/84/51
f 45/84/51 70/79/51 71/85/51
f 70/79/51 72/86/51 71/85/51
f 73/87/51 72/86/51 70/79/51
f 74/88/51 73/87/51 70/79/51
f 75/89/51 74/88/51 70/79/51
f 38/90/51 35/80/51 42/83/51
f 36/91/51 35/80/51 38/90/51
f 76/92/51 74/88/51 75/89/51
f 77/93/51 78/94/51 74/88/51
f 78/94/51 73/87/51 74/88/51
f 79/95/51 72/86/51 73/87/51
f 80/96/51 79/95/51 73/87/51
f 81/97/51 78/94/51 77/93/51
f 82/98/51 81/97/51 77/93/51
f 83/99/51 81/97/51 82/98/51
f 84/100/51 45/84/51 71/85/51
f 47/101/51 45/84/51 84/100/51
f 48/102/51 47/101/51 84/100/51
f 85/103/52 86/104/53 87/105/54
f 88/106/55 89/107/56 86/104/55
f 87/105/56 86/104/55 89/107/56
f 73/108/57 88/106/55 86/104/55
f 80/109/58 73/108/59 86/104/53
f 85/103/52 80/109/58 86/104/53
f 80/109/60 85/103/61 79/110/60
f 79/110/60 85/103/61 90/111/62
f 85/103/61 87/105/63 90/111/62
f 90/111/64 91/112/65 79/110/66
f 79/110/66 91/112/65 72/113/67
f 92/114/68 91/112/65 90/111/64
f 90/111/62 87/105/63 92/114/63
f 72/113/57 91/112/69 71/115/57
f 71/115/57 91/112/69 93/116/69
f 91/112/69 92/114/56 93/116/69
f 84/117/70 71/115/71 93/116/72
f 94/118/73 84/117/70 93/116/72
f 94/118/73 93/116/72 95/119/74
f 95/119/56 93/116/69 92/114/56
f 84/117/60 94/118/61 48/120/60
f 49/121/75 48/120/60 94/118/61
f 94/118/61 95/119/63 49/121/75
f 50/122/63 49/121/75 95/119/63
f 78/123/57 88/106/55 73/108/57
f 89/107/76 88/106/77 96/124/78
f 96/124/78 88/106/77 81/125/79
f 81/125/79 88/106/77 78/123/80
f 97/126/75 89/107/63 96/124/61
f 97/126/75 96/124/61 83/127/60
f 83/127/60 96/124/61 81/125/60
f 98/128/63 89/107/63 97/126/75
f 99/129/81 100/130/82 101/131/82
f 102/132/83 100/130/82 99/129/81
f 101/131/84 103/133/85 99/129/86
f 99/129/86 103/133/85 51/134/87
f 51/134/88 102/132/83 99/129/81
f 53/135/88 102/132/83 51/134/88
f 102/132/89 53/135/90 104/136/91
f 102/132/89 104/136/91 100/130/92
f 51/134/87 103/133/85 52/137/93
f 52/137/94 103/133/95 55/138/94
f 55/138/94 103/133/95 105/139/95
f 103/133/95 101/131/96 105/139/95
f 63/140/97 55/138/98 105/139/99
f 106/141/100 63/140/97 105/139/99
f 106/141/100 105/139/99 107/142/101
f 107/142/96 105/139/95 101/131/96
f 63/140/88 106/141/83 65/143/88
f 106/141/83 107/142/82 108/144/102
f 108/144/102 65/143/88 106/141/83
f 109/145/82 108/144/102 107/142/82
f 54/146/94 110/147/103 104/136/103
f 53/135/90 54/146/104 104/136/91
f 110/147/103 111/148/96 104/136/103
f 100/130/96 104/136/103 111/148/96
f 58/149/94 110/147/103 54/146/94
f 112/150/105 110/147/106 68/151/107
f 68/151/107 110/147/106 58/149/108
f 111/148/109 110/147/106 112/150/105
f 13/152/88 112/150/83 68/151/88
f 12/153/102 111/148/82 112/150/83
f 12/153/102 112/150/83 13/152/88
f 14/154/82 111/148/82 12/153/102
f 113/155/110 114/156/111 115/157/111
f 113/155/112 115/157/113 116/158/114
f 114/156/111 56/159/115 115/157/111
f 115/157/111 56/159/115 62/160/115
f 64/161/116 115/157/113 62/160/117
f 116/158/114 115/157/113 64/161/116
f 117/162/110 114/156/111 113/155/110
f 118/163/118 114/156/119 117/162/120
f 118/163/118 60/164/121 114/156/119
f 60/164/121 56/159/122 114/156/119
f 118/163/123 59/165/124 60/164/124
f 119/166/123 59/165/124 118/163/123
f 117/162/125 119/166/123 118/163/123
f 59/165/126 120/167/127 57/168/128
f 119/166/129 120/167/127 59/165/126
f 121/169/125 119/166/123 117/162/125
f 121/169/130 120/167/127 119/166/129
f 122/170/111 61/171/115 120/167/111
f 120/167/111 61/171/115 57/168/115
f 121/169/110 122/170/111 120/167/111
f 67/172/131 61/171/132 122/170/133
f 123/173/134 67/172/131 122/170/133
f 123/173/134 122/170/133 124/174/135
f 124/174/110 122/170/111 121/169/110
f 123/173/123 69/175/124 67/172/124
f 125/176/123 69/175/124 123/173/123
f 124/174/125 125/176/123 123/173/123
f 69/175/136 126/177/137 66/178/138
f 125/176/139 126/177/137 69/175/136
f 127/179/125 125/176/123 124/174/125
f 127/179/140 126/177/137 125/176/139
f 128/180/141 70/181/115 126/177/141
f 126/177/141 70/181/115 66/178/115
f 127/179/110 128/180/141 126/177/141
f 75/182/142 70/181/143 128/180/144
f 129/183/145 75/182/142 128/180/144
f 129/183/145 128/180/144 130/184/146
f 130/184/110 128/180/141 127/179/110
f 129/183/123 76/185/124 75/182/124
f 131/186/123 76/185/124 129/183/123
f 130/184/125 131/186/123 129/183/123
f 76/185/147 132/187/148 74/188/149
f 131/186/150 132/187/148 76/185/147
f 133/189/125 131/186/123 130/184/125
f 133/189/151 132/187/148 131/186/150
f 134/190/152 77/191/115 132/187/152
f 132/187/152 77/191/115 74/188/115
f 133/189/110 134/190/152 132/187/152
f 82/192/153 77/191/154 134/190/155
f 135/193/156 82/192/153 134/190/155
f 135/193/156 134/190/155 136/194/157
f 136/194/110 134/190/152 133/189/110
f 135/193/123 83/195/124 82/192/124
f 136/194/125 97/196/158 135/193/123
f 97/196/158 83/195/124 135/193/123
f 98/197/125 97/196/158 136/194/125
f 116/158/123 64/161/124 65/198/124
f 108/199/158 116/158/123 65/198/124
f 113/155/125 116/158/123 108/199/158
f 109/200/125 113/155/125 108/199/158
f 137/201/159 138/202/160 139/203/159
f 139/203/159 138/202/160 140/204/160
f 138/202/160 141/205/161 140/204/160
f 140/204/160 141/205/161 142/206/162
f 141/205/161 143/207/163 142/206/162
f 142/206/162 143/207/163 144/208/164
f 141/209/165 145/210/166 143/211/166
f 146/212/167 145/210/166 141/209/165
f 146/212/167 141/209/165 147/213/168
f 147/213/168 141/209/165 138/214/169
f 147/213/168 138/214/169 137/215/170
f 148/216/171 147/213/168 137/215/170
f 137/215/170 149/217/172 148/216/171
f 148/216/171 149/217/172 150/218/172
f 150/218/173 149/217/173 151/219/173
f 149/217/173 152/220/173 151/219/173
f 142/221/174 144/222/175 153/223/175
f 154/224/176 142/221/174 153/223/175
f 154/224/176 155/225/177 142/221/174
f 140/226/178 142/221/174 155/225/177
f 155/225/177 139/227/179 140/226/178
f 156/228/180 139/227/179 155/225/177
f 156/228/180 157/229/181 139/227/179
f 139/227/179 157/229/181 158/230/181
f 157/229/182 159/231/182 158/230/182
f 158/230/182 159/231/182 160/232/182
f 161/233/183 162/234/183 163/235/183
f 163/235/183 162/234/183 164/236/183
f 162/234/184 165/237/184 164/236/184
f 164/236/184 165/237/184 166/238/184
f 165/237/185 167/237/185 166/238/185
f 166/238/185 167/237/185 168/238/185
f 167/237/186 169/239/186 168/238/186
f 168/238/186 169/239/186 170/240/186
f 169/239/187 171/239/188 170/240/187
f 170/240/187 171/239/188 172/240/188
f 171/239/188 173/241/184 172/240/188
f 172/240/188 173/241/184 174/242/184
f 173/241/189 175/243/189 174/242/189
f 174/242/189 175/243/189 176/244/189
f 177/245/190 178/246/191 179/247/192
f 180/248/193 178/246/191 177/245/190
f 177/245/190 181/249/194 180/248/193
f 180/248/193 181/249/194 182/250/195
f 182/250/195 181/249/194 183/251/196
f 181/249/194 184/252/197 183/251/196
f 143/207/198 145/253/198 144/208/198
f 153/254/198 144/208/198 145/253/198
f 160/255/199 159/256/199 152/257/199
f 152/257/199 159/256/199 151/258/199
f 157/229/200 151/258/201 159/256/201
f 150/218/200 151/258/201 157/229/200
f 157/229/200 156/228/202 150/218/200
f 150/218/200 156/228/202 148/216/202
f 156/228/202 155/259/203 148/216/202
f 148/216/202 155/259/203 147/260/203
f 155/259/203 154/261/204 147/260/203
f 147/260/203 154/261/204 146/262/204
f 154/261/204 153/254/205 146/262/204
f 146/262/204 153/254/205 145/253/205
f 185/263/206 186/264/207 187/265/208
f 188/266/209 185/263/206 187/265/208
f 187/265/208 189/267/210 188/266/209
f 188/266/209 189/267/210 190/268/211
f 190/268/211 189/267/210 191/269/212
f 191/269/212 189/267/210 184/270/213
f 192/271/1 193/272/1 194/273/1
f 194/273/1 193/272/1 195/274/1
f 196/275/181 195/276/181 197/277/181
f 197/277/181 195/276/181 198/278/181
f 195/276/181 193/279/181 199/278/181
f 199/278/181 193/279/181 200/280/181
f 201/281/181 193/279/181 202/282/181
f 203/283/181 202/282/181 193/279/181
f 198/278/181 195/276/181 199/278/181
f 200/280/181 193/279/181 201/281/181
f 204/233/183 196/235/214 205/234/183
f 205/234/183 196/235/214 197/236/214
f 205/234/184 197/236/184 206/237/184
f 206/237/184 197/236/184 198/238/184
f 206/237/185 198/238/185 207/237/185
f 207/237/185 198/238/185 199/238/185
f 207/237/186 199/238/215 208/239/186
f 208/239/186 199/238/215 200/240/215
f 208/239/187 200/240/187 209/239/188
f 209/239/188 200/240/187 201/240/188
f 209/239/188 201/240/188 210/241/184
f 210/241/184 201/240/188 202/242/184
f 210/241/216 202/242/189 211/243/216
f 211/243/216 202/242/189 203/244/189
f 212/271/1 213/273/1 214/272/1
f 214/272/1 213/273/1 215/274/1
f 161/275/181 213/276/181 162/284/181
f 162/284/181 213/276/181 165/285/181
f 213/276/181 212/286/181 167/237/181
f 167/237/181 212/286/181 169/239/181
f 212/286/181 173/287/181 171/288/181
f 175/289/181 173/287/181 212/286/181
f 213/276/181 167/237/181 165/285/181
f 212/286/181 171/288/181 169/239/181
f 163/275/172 164/277/172 215/276/172
f 164/277/172 166/278/172 215/276/172
f 215/276/172 168/278/172 214/279/172
f 168/278/172 170/280/172 214/279/172
f 172/281/172 174/282/172 214/279/172
f 176/283/172 214/279/172 174/282/172
f 166/278/172 168/278/172 215/276/172
f 170/280/172 172/281/172 214/279/172
f 216/290/217 217/291/218 98/292/219
f 218/293/220 216/290/217 98/292/219
f 109/294/221 218/293/220 98/292/219
f 218/293/220 109/294/221 219/295/222
f 220/1/1 221/3/1 222/2/1
f 222/2/1 221/3/1 223/4/1
f 224/296/172 225/297/172 222/298/172
f 222/298/172 225/297/172 226/299/172
f 222/298/172 227/300/172 220/301/172
f 220/301/172 227/300/172 228/302/172
f 220/301/172 229/303/172 230/304/172
f 231/305/172 220/301/172 230/304/172
f 222/298/172 226/299/172 227/300/172
f 220/301/172 228/302/172 229/303/172
f 232/306/183 233/307/183 234/308/183
f 234/308/183 233/307/183 235/309/183
f 233/307/184 236/300/184 235/309/184
f 235/309/184 236/300/184 237/310/184
f 236/300/185 238/300/185 237/310/185
f 237/310/185 238/300/185 239/310/185
f 238/300/215 240/302/215 239/310/186
f 239/310/186 240/302/215 241/3/186
f 240/302/187 242/302/223 241/3/187
f 241/3/187 242/302/223 243/3/188
f 242/302/223 244/311/184 243/3/188
f 243/3/188 244/311/184 245/312/184
f 244/311/189 246/313/189 245/312/189
f 245/312/189 246/313/189 247/1/189
f 248/314/224 249/315/225 250/316/225
f 251/317/224 249/315/225 248/314/224
f 248/314/224 252/318/172 251/317/224
f 251/317/224 252/318/172 253/319/172
f 251/320/226 254/321/226 249/322/226
f 255/323/226 254/321/226 251/320/226
f 251/320/226 253/324/226 255/323/226
f 255/323/226 253/324/226 256/325/226
f 257/326/227 258/327/228 259/328/228
f 260/329/229 258/327/228 257/326/227
f 261/330/230 260/329/229 257/326/227
f 262/331/231 261/330/230 257/326/227
f 262/331/231 263/332/232 261/330/230
f 264/333/233 261/330/230 263/332/232
f 265/334/234 264/333/233 263/332/232
f 266/335/235 265/334/234 263/332/232
f 266/335/235 267/336/236 265/334/234
f 268/337/237 265/334/234 267/336/236
f 267/336/236 269/338/238 268/337/237
f 270/339/239 268/337/237 269/338/238
f 271/340/240 270/339/239 269/338/238
f 272/341/241 271/340/240 269/338/238
f 272/341/241 273/342/242 271/340/240
f 271/340/240 273/342/242 274/343/243
f 274/343/243 273/342/242 275/344/244
f 276/345/245 275/344/244 273/342/242
f 275/344/244 276/345/245 277/346/246
f 278/347/247 277/346/246 276/345/245
f 278/347/247 279/348/248 277/346/246
f 277/346/246 279/348/248 280/349/249
f 280/349/249 279/348/248 281/350/250
f 282/351/251 281/350/250 279/348/248
f 282/351/251 283/352/252 281/350/250
f 281/350/250 283/352/252 284/353/253
f 284/353/253 283/352/252 285/354/228
f 285/354/228 283/352/252 286/355/228
f 287/296/181 223/298/181 288/356/181
f 288/356/181 223/298/181 289/357/181
f 223/298/181 221/358/181 290/357/181
f 290/357/181 221/358/181 291/359/181
f 292/359/181 221/358/181 293/360/181
f 294/361/181 293/360/181 221/358/181
f 289/357/181 223/298/181 290/357/181
f 291/359/181 221/358/181 292/359/181
f 224/306/183 287/308/183 225/307/183
f 225/307/183 287/308/183 288/309/183
f 225/307/184 288/309/184 226/300/184
f 226/300/184 288/309/184 289/310/184
f 226/300/185 289/310/185 227/300/185
f 227/300/185 289/310/185 290/310/185
f 227/300/215 290/310/186 228/302/215
f 228/302/215 290/310/186 291/3/186
f 228/302/187 291/3/187 229/302/223
f 229/302/223 291/3/187 292/3/188
f 229/302/223 292/3/188 230/311/184
f 230/311/184 292/3/188 293/312/184
f 230/311/189 293/312/189 231/313/189
f 231/313/189 293/312/189 294/1/189
f 217/362/218 295/363/254 98/364/219
f 98/364/219 295/363/254 50/365/255
f 295/363/254 296/366/256 50/365/255
f 297/367/257 50/365/255 296/366/256
f 298/368/258 299/369/259 300/370/259
f 301/371/258 299/369/259 298/368/258
f 298/368/258 302/372/181 301/371/258
f 301/371/258 302/372/181 303/373/181
f 301/374/184 304/375/184 299/376/184
f 305/377/184 304/375/184 301/374/184
f 301/374/184 303/378/184 305/377/184
f 305/377/184 303/378/184 306/379/184
f 307/344/260 308/346/261 309/345/262
f 310/347/263 309/345/262 308/346/261
f 309/345/262 311/342/264 307/344/260
f 310/347/263 308/346/261 312/348/265
f 308/346/261 313/349/266 312/348/265
f 313/349/266 314/350/267 312/348/265
f 315/351/268 312/348/265 314/350/267
f 315/351/268 314/350/267 316/352/269
f 314/350/267 317/353/270 316/352/269
f 317/353/270 318/354/271 316/352/269
f 316/352/269 318/354/271 319/355/271
f 320/341/272 321/340/273 311/342/264
f 321/340/273 322/343/274 311/342/264
f 322/343/274 307/344/260 311/342/264
f 321/340/273 323/338/275 324/339/276
f 320/341/272 323/338/275 321/340/273
f 324/339/276 323/338/275 325/337/277
f 326/336/278 325/337/277 323/338/275
f 325/337/277 326/336/278 327/334/279
f 328/335/280 327/334/279 326/336/278
f 327/334/279 329/332/281 330/333/282
f 328/335/280 329/332/281 327/334/279
f 330/333/282 329/332/281 331/330/283
f 332/331/284 331/330/283 329/332/281
f 331/330/283 333/326/285 334/329/286
f 332/331/284 333/326/285 331/330/283
f 334/329/286 333/326/285 335/327/271
f 335/327/271 333/326/285 336/328/271
f 337/380/287 338/381/288 339/382/289
f 338/381/288 340/383/290 339/382/289
f 339/382/289 340/383/290 341/384/291
f 339/382/289 342/385/292 337/380/287
f 337/380/287 342/385/292 343/386/293
f 342/385/292 344/387/294 345/388/295
f 346/389/296 342/385/292 345/388/295
f 347/390/297 342/385/292 346/389/296
f 343/386/293 342/385/292 347/390/297
f 348/391/298 345/388/295 344/387/294
f 344/387/294 341/384/291 349/392/299
f 349/392/299 348/391/298 344/387/294
f 349/392/299 341/384/291 350/393/300
f 350/393/300 341/384/291 351/394/301
f 351/394/301 341/384/291 352/395/302
f 341/384/291 340/383/290 352/395/302
f 342/385/292 339/382/289 344/387/294
f 344/387/294 339/382/289 341/384/291
f 338/396/303 183/397/303 340/383/304
f 183/397/303 353/398/304 340/383/304
f 352/395/305 340/383/304 353/398/304
f 354/399/305 352/395/305 353/398/304
f 354/399/305 351/400/306 352/395/305
f 355/401/306 351/400/306 354/399/305
f 178/246/307 343/386/308 347/402/307
f 180/248/308 343/386/308 178/246/307
f 182/250/309 343/386/308 180/248/308
f 337/380/309 343/386/308 182/250/309
f 182/250/309 183/251/303 337/380/309
f 337/380/309 183/251/303 338/403/303
f 356/404/310 357/405/311 358/406/312
f 359/407/313 357/405/311 356/404/310
f 356/404/310 360/408/314 359/407/313
f 359/407/313 360/408/314 361/409/315
f 361/409/315 360/408/314 185/410/206
f 185/410/206 360/408/314 186/411/207
f 186/264/316 355/401/317 187/265/318
f 354/399/319 187/265/318 355/401/317
f 353/398/320 187/265/318 354/399/319
f 189/267/321 187/265/318 353/398/320
f 353/398/320 183/397/196 189/267/321
f 184/270/197 189/267/321 183/397/196
f 359/407/322 297/412/323 357/405/323
f 362/413/322 297/412/323 359/407/322
f 359/407/322 361/409/324 362/413/322
f 362/413/322 361/409/324 363/414/324
f 363/414/324 361/409/324 364/415/325
f 364/415/325 361/409/324 185/410/325
f 365/416/326 177/245/327 179/247/328
f 366/417/329 177/245/327 365/416/326
f 367/418/330 177/245/327 366/417/329
f 181/249/331 177/245/327 367/418/330
f 367/418/330 191/419/212 181/249/331
f 181/249/331 191/419/212 184/252/213
f 363/414/332 364/420/333 14/421/334
f 14/421/334 50/422/255 363/414/332
f 363/414/332 50/422/255 362/413/335
f 362/413/335 50/422/255 297/423/257
f 219/424/336 368/425/337 191/269/336
f 191/269/336 368/425/337 190/268/337
f 369/426/338 190/268/337 368/425/337
f 188/266/338 190/268/337 369/426/338
f 369/426/338 185/263/325 188/266/338
f 364/427/325 185/263/325 369/426/338
f 217/428/339 366/417/340 365/416/339
f 216/290/340 366/417/340 217/428/339
f 218/293/341 366/417/340 216/290/340
f 367/418/341 366/417/340 218/293/341
f 218/293/341 219/429/336 367/418/341
f 367/418/341 219/429/336 191/419/336
f 285/430/184 286/431/184 370/432/184
f 371/433/184 285/430/184 370/432/184
f 372/434/184 371/433/184 370/432/184
f 373/435/184 372/434/184 370/432/184
f 286/431/184 373/435/184 370/432/184
f 219/436/222 109/437/221 368/425/342
f 369/426/343 368/425/342 109/437/221
f 14/438/334 369/426/343 109/437/221
f 364/439/333 369/426/343 14/438/334
f 335/440/226 336/441/226 374/442/226
f 375/443/226 335/440/226 374/442/226
f 376/444/226 375/443/226 374/442/226
f 377/445/226 376/444/226 374/442/226
f 336/441/226 377/445/226 374/442/226
f 232/296/181 2/298/181 233/297/181
f 233/297/181 2/298/181 236/299/181
f 2/298/181 1/301/181 238/300/181
f 238/300/181 1/301/181 240/302/181
f 1/301/181 244/304/181 242/303/181
f 246/305/181 244/304/181 1/301/181
f 2/298/181 238/300/181 236/299/181
f 1/301/181 242/303/181 240/302/181
f 234/296/172 235/356/172 4/298/172
f 235/356/172 237/357/172 4/298/172
f 4/298/172 239/357/172 3/358/172
f 239/357/172 241/359/172 3/358/172
f 243/359/172 245/360/172 3/358/172
f 247/361/172 3/358/172 245/360/172
f 237/357/172 239/357/172 4/298/172
f 241/359/172 243/359/172 3/358/172
f 358/446/344 378/447/345 379/448/346
f 380/449/347 379/448/346 378/447/345
f 378/447/345 381/450/348 380/449/347
f 380/449/347 381/450/348 382/451/349
f 382/451/349 381/450/348 178/452/191
f 179/453/192 178/452/191 381/450/348
f 383/369/225 384/368/224 385/370/225
f 386/371/224 384/368/224 383/369/225
f 384/368/224 386/371/224 387/372/172
f 387/372/172 386/371/224 388/373/172
f 385/454/51 389/455/51 383/456/51
f 383/456/51 389/455/51 390/457/51
f 389/455/350 391/377/351 390/457/350
f 392/458/351 391/377/351 389/455/350
f 391/377/351 392/458/351 393/379/181
f 393/379/181 392/458/351 394/459/181
f 387/372/226 394/459/226 384/368/226
f 384/368/226 394/459/226 392/458/226
f 384/368/226 392/458/226 385/460/226
f 385/460/226 392/458/226 389/461/226
f 390/375/184 386/374/184 383/376/184
f 391/377/184 386/374/184 390/375/184
f 386/374/184 391/377/184 388/378/184
f 388/378/184 391/377/184 393/379/184
f 250/462/51 249/463/51 395/464/51
f 395/464/51 249/463/51 254/465/51
f 255/323/351 395/464/350 254/465/350
f 396/466/351 395/464/350 255/323/351
f 255/323/351 256/325/181 396/466/351
f 396/466/351 256/325/181 397/467/181
f 297/468/323 296/366/352 357/469/323
f 357/469/323 296/366/352 398/470/352
f 295/363/353 398/470/352 296/366/352
f 399/471/353 398/470/352 295/363/353
f 295/363/353 365/472/339 399/471/353
f 217/473/339 365/472/339 295/363/353
f 252/318/184 248/314/184 397/467/184
f 397/467/184 248/314/184 396/466/184
f 248/314/184 250/474/184 396/466/184
f 396/466/184 250/474/184 395/475/184
f 400/476/354 275/477/355 277/478/356
f 401/479/357 400/476/354 277/478/356
f 401/479/358 277/478/359 402/480/360
f 402/480/360 277/478/359 280/481/361
f 403/482/362 274/483/363 275/477/364
f 400/476/365 403/482/362 275/477/364
f 403/482/362 271/484/366 274/483/363
f 404/485/366 271/484/366 403/482/362
f 271/484/366 405/486/367 270/487/368
f 404/485/366 405/486/367 271/484/366
f 405/486/367 268/488/369 270/487/368
f 406/489/370 268/488/369 405/486/367
f 406/489/371 265/490/372 268/488/373
f 407/491/374 265/490/372 406/489/371
f 265/490/375 408/492/376 264/493/377
f 407/491/378 408/492/376 265/490/375
f 408/492/376 261/494/379 264/493/377
f 409/495/380 261/494/379 408/492/376
f 261/494/379 410/496/381 260/497/382
f 409/495/380 410/496/381 261/494/379
f 260/497/382 411/498/383 258/499/383
f 410/496/381 411/498/383 260/497/382
f 402/480/360 280/481/361 281/500/384
f 412/501/385 402/480/360 281/500/384
f 412/501/385 281/500/384 413/502/386
f 413/502/386 281/500/384 284/503/387
f 413/502/386 284/503/387 371/504/383
f 371/504/383 284/503/387 285/505/383
f 300/454/51 299/456/51 414/455/51
f 414/455/51 299/456/51 304/457/51
f 305/377/388 414/455/389 304/457/389
f 415/458/388 414/455/389 305/377/388
f 305/377/388 306/379/172 415/458/388
f 415/458/388 306/379/172 416/459/172
f 410/496/390 417/506/391 411/498/391
f 418/507/392 417/506/391 410/496/390
f 418/507/392 410/496/390 419/508/393
f 419/508/393 410/496/390 409/495/394
f 419/508/393 409/495/394 420/509/395
f 420/509/395 409/495/394 408/492/396
f 407/491/397 420/509/395 408/492/396
f 421/510/398 420/509/395 407/491/397
f 406/489/399 421/510/398 407/491/397
f 422/511/400 421/510/398 406/489/399
f 422/511/400 406/489/399 423/512/401
f 423/512/401 406/489/399 405/486/402
f 404/485/403 423/512/401 405/486/402
f 424/513/403 423/512/401 404/485/403
f 424/513/403 404/485/403 425/514/404
f 425/514/404 404/485/403 403/482/405
f 425/514/404 403/482/405 400/476/406
f 426/515/407 425/514/404 400/476/406
f 426/515/407 400/476/406 427/516/408
f 427/516/408 400/476/406 401/479/409
f 427/516/408 401/479/409 428/517/410
f 428/517/410 401/479/409 402/480/411
f 428/517/410 402/480/411 412/501/412
f 429/518/413 428/517/410 412/501/412
f 429/518/413 412/501/412 413/502/414
f 430/519/415 429/518/413 413/502/414
f 430/519/415 413/502/414 372/520/391
f 372/520/391 413/502/414 371/504/391
f 431/521/416 259/328/417 432/522/417
f 257/326/418 259/328/417 431/521/416
f 431/521/416 433/523/419 257/326/418
f 262/331/420 257/326/418 433/523/419
f 263/332/421 262/331/420 433/523/419
f 434/524/422 263/332/421 433/523/419
f 434/524/422 435/525/423 263/332/421
f 266/335/424 263/332/421 435/525/423
f 435/525/423 436/526/425 266/335/424
f 267/336/426 266/335/424 436/526/425
f 269/338/427 267/336/426 436/526/425
f 437/527/428 269/338/427 436/526/425
f 437/527/428 438/528/429 269/338/427
f 272/341/430 269/338/427 438/528/429
f 272/341/430 438/528/429 273/342/431
f 439/529/432 273/342/431 438/528/429
f 439/529/432 440/530/433 273/342/431
f 273/342/431 440/530/433 276/345/434
f 276/345/434 440/530/433 278/347/435
f 441/531/436 278/347/435 440/530/433
f 278/347/435 441/531/436 279/348/437
f 442/532/438 279/348/437 441/531/436
f 442/532/438 443/533/439 279/348/437
f 279/348/437 443/533/439 282/351/440
f 282/351/440 443/533/439 283/352/441
f 444/534/442 283/352/441 443/533/439
f 283/352/441 444/534/442 286/355/417
f 286/355/417 444/534/442 373/535/417
f 445/526/443 446/511/444 447/510/445
f 448/525/446 445/526/443 447/510/445
f 448/525/446 447/510/445 449/524/447
f 449/524/447 447/510/445 450/509/448
f 445/526/443 451/512/449 446/511/444
f 452/527/450 451/512/449 445/526/443
f 453/528/451 454/513/451 451/512/449
f 452/527/450 453/528/451 451/512/449
f 453/528/451 455/514/452 454/513/451
f 456/529/453 455/514/452 453/528/451
f 455/514/452 457/530/454 458/515/455
f 456/529/453 457/530/454 455/514/452
f 457/530/454 459/516/456 458/515/455
f 460/531/457 459/516/456 457/530/454
f 459/516/456 461/532/458 462/517/459
f 460/531/457 461/532/458 459/516/456
f 462/517/459 463/533/460 464/518/461
f 461/532/458 463/533/460 462/517/459
f 463/533/460 465/519/462 464/518/461
f 466/534/463 465/519/462 463/533/460
f 465/519/462 467/535/464 468/520/464
f 466/534/463 467/535/464 465/519/462
f 449/524/447 450/509/448 469/523/465
f 469/523/465 450/509/448 470/508/466
f 469/523/465 470/508/466 471/507/467
f 472/521/468 469/523/465 471/507/467
f 472/521/468 471/507/467 377/522/469
f 377/522/469 471/507/467 376/506/469
f 466/534/470 319/355/471 467/535/471
f 316/352/472 319/355/471 466/534/470
f 466/534/470 463/533/473 316/352/472
f 315/351/474 316/352/472 463/533/473
f 312/348/475 315/351/474 463/533/473
f 461/532/476 312/348/475 463/533/473
f 461/532/476 460/531/477 312/348/475
f 310/347/478 312/348/475 460/531/477
f 460/531/477 457/530/479 310/347/478
f 309/345/480 310/347/478 457/530/479
f 311/342/481 309/345/480 457/530/479
f 456/529/482 311/342/481 457/530/479
f 456/529/482 453/528/483 311/342/481
f 320/341/484 311/342/481 453/528/483
f 320/341/484 453/528/483 323/338/485
f 452/527/486 323/338/485 453/528/483
f 452/527/486 445/526/487 323/338/485
f 323/338/485 445/526/487 326/336/488
f 326/336/488 445/526/487 328/335/489
f 448/525/490 328/335/489 445/526/487
f 328/335/489 448/525/490 329/332/491
f 449/524/492 329/332/491 448/525/490
f 449/524/492 469/523/493 329/332/491
f 329/332/491 469/523/493 332/331/494
f 332/331/494 469/523/493 333/326/495
f 472/521/496 333/326/495 469/523/493
f 333/326/495 472/521/496 336/328/471
f 336/328/471 472/521/496 377/522/471
f 473/502/497 468/520/498 474/504/498
f 465/519/499 468/520/498 473/502/497
f 465/519/499 473/502/497 464/518/500
f 464/518/500 473/502/497 475/501/501
f 464/518/500 475/501/501 462/517/502
f 462/517/502 475/501/501 476/480/503
f 477/479/504 462/517/502 476/480/503
f 459/516/505 462/517/502 477/479/504
f 478/476/506 459/516/505 477/479/504
f 458/515/507 459/516/505 478/476/506
f 458/515/507 478/476/506 455/514/508
f 455/514/508 478/476/506 479/482/509
f 480/485/510 455/514/508 479/482/509
f 454/513/510 455/514/508 480/485/510
f 454/513/510 480/485/510 451/512/511
f 451/512/511 480/485/510 481/486/512
f 451/512/511 481/486/512 482/489/513
f 446/511/514 451/512/511 482/489/513
f 446/511/514 482/489/513 447/510/515
f 447/510/515 482/489/513 483/491/516
f 447/510/515 483/491/516 450/509/517
f 450/509/517 483/491/516 484/492/518
f 450/509/517 484/492/518 485/495/519
f 470/508/520 450/509/517 485/495/519
f 470/508/520 485/495/519 486/496/521
f 471/507/522 470/508/520 486/496/521
f 471/507/522 486/496/521 376/506/498
f 376/506/498 486/496/521 375/498/498
f 375/498/523 334/497/524 335/499/523
f 486/496/525 334/497/524 375/498/523
f 486/496/525 331/494/526 334/497/524
f 485/495/527 331/494/526 486/496/525
f 485/495/527 484/492/528 331/494/526
f 484/492/528 330/493/529 331/494/526
f 484/492/528 327/490/530 330/493/529
f 483/491/531 327/490/530 484/492/528
f 483/491/532 482/489/533 327/490/534
f 482/489/533 325/488/535 327/490/534
f 482/489/536 481/486/537 325/488/538
f 481/486/537 324/487/539 325/488/538
f 481/486/537 321/484/540 324/487/539
f 480/485/540 321/484/540 481/486/537
f 480/485/540 479/482/541 321/484/540
f 321/484/540 479/482/541 322/483/542
f 479/482/541 307/477/543 322/483/542
f 478/476/544 307/477/543 479/482/541
f 478/476/545 308/478/546 307/477/547
f 477/479/548 308/478/546 478/476/545
f 477/479/549 476/480/550 308/478/551
f 308/478/551 476/480/550 313/481/552
f 476/480/550 314/500/553 313/481/552
f 475/501/554 314/500/553 476/480/550
f 475/501/554 473/502/555 314/500/553
f 314/500/553 473/502/555 317/503/556
f 473/502/555 474/504/523 317/503/556
f 317/503/556 474/504/523 318/505/523
f 302/372/226 298/368/226 416/459/226
f 416/459/226 298/368/226 415/458/226
f 298/368/226 300/460/226 415/458/226
f 415/458/226 300/460/226 414/461/226
f 373/535/557 430/519/558 372/520/557
f 444/534/559 430/519/558 373/535/557
f 444/534/559 443/533/560 430/519/558
f 443/533/560 429/518/561 430/519/558
f 443/533/560 428/517/562 429/518/561
f 442/532/563 428/517/562 443/533/560
f 442/532/563 427/516/564 428/517/562
f 441/531/565 427/516/564 442/532/563
f 441/531/565 440/530/566 427/516/564
f 440/530/566 426/515/567 427/516/564
f 440/530/566 425/514/568 426/515/567
f 439/529/569 425/514/568 440/530/566
f 439/529/569 438/528/570 425/514/568
f 438/528/570 424/513/570 425/514/568
f 438/528/570 423/512/571 424/513/570
f 437/527/572 423/512/571 438/528/570
f 437/527/572 436/526/573 423/512/571
f 423/512/571 436/526/573 422/511/574
f 436/526/573 421/510/575 422/511/574
f 435/525/576 421/510/575 436/526/573
f 435/525/576 434/524/577 421/510/575
f 421/510/575 434/524/577 420/509/578
f 434/524/577 433/523/579 420/509/578
f 420/509/578 433/523/579 419/508/580
f 433/523/579 418/507/581 419/508/580
f 431/521/582 418/507/581 433/523/579
f 431/521/582 432/522/583 418/507/581
f 418/507/581 432/522/583 417/506/583
f 204/275/172 205/284/172 194/276/172
f 194/276/172 205/284/172 206/285/172
f 194/276/172 207/237/172 192/286/172
f 192/286/172 207/237/172 208/239/172
f 192/286/172 209/288/172 210/287/172
f 211/289/172 192/286/172 210/287/172
f 194/276/172 206/285/172 207/237/172
f 192/286/172 208/239/172 209/288/172
f 487/315/259 488/314/258 489/316/259
f 490/317/258 488/314/258 487/315/259
f 488/314/258 490/317/258 491/318/181
f 491/318/181 490/317/258 492/319/181
f 489/462/51 493/464/51 487/463/51
f 487/463/51 493/464/51 494/465/51
f 493/464/389 495/323/584 494/465/389
f 496/466/388 495/323/584 493/464/389
f 495/323/584 496/466/388 497/325/172
f 497/325/172 496/466/388 498/467/172
f 491/318/184 498/467/184 488/314/184
f 488/314/184 498/467/184 496/466/184
f 488/314/184 496/466/184 489/474/184
f 489/474/184 496/466/184 493/475/184
f 494/321/226 490/320/226 487/322/226
f 495/323/226 490/320/226 494/321/226
f 490/320/226 495/323/226 492/324/226
f 492/324/226 495/323/226 497/325/226
f 355/536/306 499/537/585 351/538/306
f 499/537/585 350/393/585 351/538/306
f 500/539/586 350/393/585 499/537/585
f 349/392/586 350/393/585 500/539/586
f 500/539/586 379/540/587 349/392/586
f 349/392/586 379/540/587 348/541/587
f 357/469/311 378/447/588 358/446/312
f 398/470/589 378/447/588 357/469/311
f 399/471/590 378/447/588 398/470/589
f 381/450/591 378/447/588 399/471/590
f 399/471/590 365/472/326 381/450/591
f 365/472/326 179/453/328 381/450/591
f 356/404/592 358/406/344 379/540/346
f 500/539/593 356/404/592 379/540/346
f 499/537/594 356/404/592 500/539/593
f 360/408/595 356/404/592 499/537/594
f 499/537/594 355/536/317 360/408/595
f 360/408/595 355/536/317 186/411/316
f 178/452/307 347/542/307 382/451/596
f 382/451/596 347/542/307 346/389/596
f 346/389/596 345/388/597 382/451/596
f 382/451/596 345/388/597 380/449/597
f 348/543/587 380/449/597 345/388/597
f 379/448/587 380/449/597 348/543/587
f 258/440/226 501/442/226 259/441/226
f 259/441/226 501/442/226 432/445/226
f 432/445/226 501/442/226 417/444/226
f 417/444/226 501/442/226 411/443/226
f 411/443/226 501/442/226 258/440/226
f 318/430/184 502/432/184 319/431/184
f 319/431/184 502/432/184 467/435/184
f 467/435/184 502/432/184 468/434/184
f 468/434/184 502/432/184 474/433/184
f 474/433/184 502/432/184 318/430/184
