# Blender 4.2.3 LTS
# www.blender.org
mtllib ElecBox.mtl
o ElecBox
v -4.000000 -0.033346 4.000000
v 4.000000 -0.033346 4.000000
v 4.000000 10.966654 3.999999
v -4.000000 10.966654 3.999999
v -3.502341 11.699332 1.379582
v -3.502341 11.699332 3.674770
v -1.196393 11.699332 3.674770
v -1.196393 11.699332 1.379582
v 5.349718 6.756351 2.028808
v 5.349718 9.314099 2.028807
v 5.349718 9.314099 3.557070
v 5.349718 6.756351 3.557070
v -4.000000 -0.033346 0.000000
v -4.000000 10.966654 -0.000001
v 4.000000 -0.033346 0.000000
v 2.525023 6.061578 -1.040524
v 2.525023 8.267750 -1.040525
v 3.478442 8.267750 -1.040525
v 3.478442 6.061578 -1.040524
v 2.525023 4.924898 -1.040524
v 3.478442 4.924898 -1.040524
v 4.358544 11.459652 -0.000001
v 4.358544 11.417666 -0.240458
v -4.358544 11.417666 -0.240458
v -4.358544 11.459652 -0.000001
v 4.358544 -0.526343 0.000000
v 4.358544 -0.568329 -0.240457
v -4.358544 -0.568329 -0.240457
v -4.358544 -0.526343 0.000000
v 4.000000 10.924668 -0.240458
v -4.000000 10.924668 -0.240458
v -4.000000 -0.075331 -0.240457
v 2.525023 8.267750 -0.240458
v 2.525023 6.061578 -0.240457
v 4.000000 -0.075331 -0.240457
v 3.478442 6.061578 -0.240457
v 3.478442 8.267750 -0.240458
v 4.000000 10.966654 -0.000001
v -3.502341 10.966654 3.674770
v -1.196393 10.966654 3.674770
v -3.502341 10.966654 1.379582
v -1.196393 10.966654 1.379582
v 4.000000 9.314099 2.028807
v 4.000000 9.314099 3.557070
v 4.000000 6.756351 2.028808
v 4.000000 6.756351 3.557070
v 4.714096 5.756390 2.091923
v 4.714054 7.135308 2.413899
v 4.826386 7.113298 2.682585
v 4.826466 5.640975 2.329887
v 4.713896 4.994222 1.556304
v 4.826310 4.810692 1.750454
v 4.714093 4.518312 0.995807
v 4.826553 4.336784 1.190129
v 4.714977 4.027186 0.632522
v 4.827222 3.937609 0.873464
v 4.733008 3.514781 0.573454
v 4.840375 3.582211 0.809306
v 4.795642 3.156712 0.797803
v 4.879162 3.379807 0.895826
v 4.931117 3.156570 1.210271
v 4.969585 3.411279 1.114382
v 5.069949 3.521569 1.743829
v 5.087341 3.762584 1.581747
v 5.062725 4.067811 2.615454
v 5.078365 4.324539 2.479699
v 4.772579 4.667972 4.066356
v 4.782139 4.946924 3.980396
v 4.447193 5.708134 2.191217
v 4.447135 7.126123 2.526018
v 4.447012 4.917515 1.637332
v 4.447233 4.441958 1.076884
v 4.448233 3.982743 0.732909
v 4.467133 3.513971 0.685423
v 4.556425 5.593276 2.428035
v 4.556330 7.104220 2.793406
v 4.556288 4.734869 1.830546
v 4.556554 4.261301 1.270269
v 4.557342 3.893540 0.972688
v 4.571411 3.580837 0.920250
v 4.611567 3.418124 1.003271
v 4.530928 3.196545 0.905171
v 4.693771 3.468335 1.184863
v 4.657883 3.215248 1.279387
v 4.800093 3.795686 1.603290
v 4.785201 3.556378 1.763866
v 4.789087 4.328991 2.451900
v 4.775949 4.074334 2.586769
v 4.499005 4.933649 3.910016
v 4.491847 4.657094 3.995848
v 5.250668 5.881935 2.218817
v 5.152755 7.156048 2.714494
v 5.135903 7.042004 2.982831
v 5.232760 5.787434 2.494210
v 5.266866 4.985384 1.943809
v 5.249864 4.924033 2.227467
v 5.227958 4.390894 1.847415
v 5.223663 4.400841 2.130843
v 5.148593 4.023324 1.913398
v 5.197678 4.161629 2.130681
v 5.062201 3.876328 2.134046
v 5.198247 4.098126 2.160101
v 5.052534 3.948962 2.385190
v 5.216773 4.146460 2.262653
v 5.092188 4.113302 2.620981
v 5.257728 4.295244 2.464057
v 5.142029 4.295696 2.895038
v 5.311644 4.490163 2.760742
v 5.182734 4.453456 3.247020
v 5.359045 4.668005 3.162716
v 5.198840 4.541643 3.704185
v 5.379569 4.770380 3.686568
v 4.961873 5.876437 2.198957
v 4.864758 7.137438 2.689776
v 4.978106 4.997357 1.929078
v 4.941771 4.429416 1.838271
v 4.874034 4.107154 1.906800
v 4.941723 5.782672 2.471908
v 4.845662 7.024184 2.955688
v 4.958855 4.936613 2.210267
v 4.935143 4.439599 2.119278
v 4.920441 4.245008 2.122231
v 4.813428 4.017700 2.108081
v 4.946290 4.238833 2.133706
v 4.977532 4.302680 2.204537
v 4.816604 4.105521 2.326546
v 5.020521 4.452599 2.398904
v 4.858287 4.270858 2.555074
v 5.076399 4.653747 2.705100
v 4.910108 4.459533 2.838750
v 5.126769 4.840563 3.125018
v 4.953812 4.626359 3.208939
v 5.149392 4.949608 3.672766
v 4.972036 4.721276 3.690352
v 4.338372 3.868219 3.351121
v 4.338372 5.156063 3.351120
v 5.502501 5.156063 3.351120
v 5.502501 3.868219 3.351121
v 4.338372 3.868219 4.000000
v 4.338372 5.156063 4.000000
v 5.502501 5.156063 4.000000
v 5.502501 3.868219 4.000000
v 2.525023 8.267750 -0.719449
v 3.478442 8.267750 -0.719449
v 2.525023 6.061578 -0.719448
v 2.525023 4.924898 -0.719448
v 3.478442 6.061578 -0.719448
v 3.478442 4.924898 -0.719448
vn -0.0000 -0.0000 1.0000
vn -0.0000 1.0000 -0.0000
vn 1.0000 -0.0000 -0.0000
vn -1.0000 -0.0000 -0.0000
vn -0.0000 -1.0000 -0.0000
vn -0.0000 -0.0000 -1.0000
vn -0.0000 0.9851 -0.1720
vn -0.0000 -0.9851 0.1720
vn 0.9461 0.1377 -0.2931
vn 0.9192 0.0907 -0.3831
vn 0.9217 0.0940 -0.3764
vn 0.9427 0.1060 -0.3165
vn 0.9394 0.2267 -0.2570
vn 0.9376 0.2174 -0.2715
vn 0.9026 0.2933 -0.3150
vn 0.9364 0.2399 -0.2563
vn 0.8751 0.1898 -0.4451
vn 0.9491 0.1358 -0.2842
vn 0.8699 -0.0222 -0.4927
vn 0.9455 0.0215 -0.3249
vn 0.8658 -0.2563 -0.4298
vn 0.9294 -0.0340 -0.3676
vn 0.9332 -0.3164 -0.1705
vn 0.9537 -0.1122 -0.2789
vn 0.9812 -0.1913 0.0259
vn 0.9936 -0.0174 -0.1114
vn 0.9854 -0.0782 0.1511
vn 0.9952 0.0708 0.0672
vn 0.9814 0.0248 0.1906
vn 0.9827 0.0295 0.1830
vn -0.5086 0.4205 -0.7513
vn -0.3795 0.2115 -0.9007
vn -0.3801 0.2167 -0.8992
vn -0.5114 0.2841 -0.8110
vn -0.4747 0.6291 -0.6155
vn -0.4709 0.5511 -0.6889
vn -0.4834 0.5951 -0.6421
vn -0.2801 0.6645 -0.6928
vn -0.6262 0.2545 -0.7369
vn -0.1154 0.3814 -0.9172
vn -0.4519 -0.2361 -0.8603
vn -0.3856 -0.2510 -0.8879
vn -0.8929 -0.1885 0.4089
vn -0.9225 -0.0898 0.3753
vn -0.9249 -0.0840 0.3708
vn -0.9498 -0.1245 0.2870
vn -0.9042 -0.2914 0.3123
vn -0.9429 -0.2228 0.2477
vn -0.9109 -0.2786 0.3045
vn -0.9097 -0.3059 0.2809
vn -0.9410 -0.1046 0.3219
vn -0.9432 -0.1723 0.2840
vn -0.8934 -0.0061 0.4492
vn -0.9303 0.0213 0.3663
vn -0.9296 0.1686 0.3277
vn -0.9216 0.1048 0.3736
vn -0.9832 0.1041 0.1498
vn -0.9478 0.1432 0.2850
vn -0.9949 0.0862 -0.0521
vn -0.9823 0.1874 0.0050
vn -0.9847 0.0414 -0.1694
vn -0.9929 0.0741 -0.0929
vn -0.9834 -0.0289 -0.1789
vn -0.9827 -0.0377 -0.1812
vn 0.5411 -0.3477 0.7657
vn 0.3720 -0.2172 0.9025
vn 0.3728 -0.2122 0.9033
vn 0.1968 -0.3946 0.8975
vn 0.4922 -0.5881 0.6418
vn 0.2575 -0.6446 0.7198
vn 0.3089 -0.6257 0.7163
vn 0.4501 -0.6411 0.6216
vn 0.5443 -0.2546 0.7993
vn 0.5146 -0.4784 0.7116
vn 0.5722 0.2521 0.7804
vn 0.5662 -0.0255 0.8239
vn -0.3746 -0.8510 -0.3680
vn -0.3855 -0.2511 -0.8879
vn -0.3302 -0.2648 -0.9060
vn -0.2881 -0.8773 -0.3838
vn -0.3840 -0.8290 0.4066
vn -0.2088 -0.8946 -0.3951
vn 0.1760 -0.9578 0.2271
vn 0.3978 0.4211 0.8151
vn 0.3623 0.4558 0.8130
vn 0.2013 0.8349 -0.5123
vn 0.0921 0.9671 -0.2371
vn 0.0252 0.9613 -0.2744
vn 0.2267 0.8887 -0.3986
vn -0.0420 -0.8461 0.5314
vn -0.0364 -0.8272 0.5607
vn 0.0070 -0.9119 0.4103
vn 0.0059 -0.8688 0.4952
vn 0.1010 0.8097 -0.5781
vn -0.0058 0.8211 -0.5707
vn 0.1468 0.8863 -0.4392
vn -0.0341 0.8862 -0.4620
vn -0.0577 -0.9265 0.3718
vn -0.0578 -0.9266 0.3717
vn 0.0498 0.9262 -0.3738
vn 0.0499 0.9260 -0.3741
vn 0.9984 0.0294 0.0485
vn 0.9957 0.0452 0.0810
vn 0.9956 0.0453 0.0818
vn 0.9953 0.0143 0.0957
vn 0.9995 -0.0281 0.0158
vn 0.9954 -0.0440 0.0849
vn 0.9899 -0.1314 -0.0540
vn 0.9857 -0.1405 0.0933
vn 0.9106 -0.3864 -0.1465
vn 0.9747 -0.1830 0.1282
vn 0.8681 -0.4929 0.0583
vn 0.9515 -0.3045 -0.0442
vn 0.7894 -0.5743 0.2167
vn 0.8657 -0.4982 0.0481
vn 0.8363 -0.5246 0.1592
vn 0.8136 -0.5402 0.2150
vn 0.8149 -0.5355 0.2220
vn 0.8118 -0.5601 0.1651
vn 0.8178 -0.5436 0.1889
vn 0.8061 -0.5844 0.0931
vn 0.8129 -0.5670 0.1330
vn 0.7849 -0.6130 0.0908
vn 0.7856 -0.6122 0.0896
vn 0.0198 0.3280 -0.9445
vn 0.0566 0.3658 -0.9290
vn 0.0565 0.3663 -0.9288
vn 0.0971 0.3326 -0.9380
vn -0.0151 0.2241 -0.9745
vn 0.1314 0.2264 -0.9651
vn -0.1672 -0.0091 -0.9859
vn 0.2102 -0.0263 -0.9773
vn -0.2251 -0.4969 -0.8381
vn -0.1723 -0.5288 -0.8311
vn -0.9982 -0.0172 -0.0572
vn -0.9952 -0.0423 -0.0888
vn -0.9951 -0.0416 -0.0892
vn -0.9944 -0.0224 -0.1036
vn -0.9989 0.0353 -0.0324
vn -0.9993 0.0046 -0.0369
vn -0.9944 0.1055 0.0119
vn -0.9992 0.0403 0.0013
vn -0.9525 0.2948 0.0768
vn -0.9547 0.2953 0.0370
vn -0.8848 0.4569 -0.0919
vn -0.8742 0.4762 -0.0951
vn -0.8473 0.4897 -0.2055
vn -0.8258 0.5260 -0.2033
vn -0.8071 0.5451 -0.2266
vn -0.8215 0.5279 -0.2155
vn -0.7881 0.5827 -0.1981
vn -0.8232 0.5401 -0.1753
vn -0.7706 0.6230 -0.1344
vn -0.8198 0.5606 -0.1170
vn -0.7899 0.6069 -0.0879
vn -0.7907 0.6057 -0.0887
vn -0.0349 -0.3142 0.9487
vn -0.0643 -0.3665 0.9282
vn -0.0645 -0.3664 0.9282
vn -0.0332 -0.3463 0.9375
vn -0.0140 -0.2129 0.9770
vn -0.0210 -0.2744 0.9614
vn -0.1173 -0.0242 0.9928
vn 0.0127 -0.1555 0.9878
vn -0.0901 0.4224 0.9019
vn 0.1965 0.0903 0.9763
vn 0.1779 0.5474 0.8178
vn 0.6207 -0.4884 -0.6134
vn -0.8853 0.1692 0.4332
vn 0.0758 0.2921 0.9534
vn -0.4988 -0.8495 -0.1717
vn -0.1723 -0.5289 -0.8310
vn -0.1454 -0.5365 -0.8313
vn -0.4638 -0.8726 -0.1534
vn -0.6933 -0.6155 0.3748
vn -0.4637 -0.8726 -0.1534
vn -0.4439 -0.8838 -0.1475
vn -0.4108 -0.8194 0.3997
vn -0.5732 -0.6318 0.5218
vn -0.5650 -0.6294 0.5335
vn -0.6427 -0.6424 0.4175
vn -0.6248 -0.6116 0.4854
vn -0.6838 -0.6928 0.2292
vn -0.6660 -0.6683 0.3313
vn -0.6178 -0.7665 0.1753
vn -0.6149 -0.7695 0.1726
vn -0.8721 0.4842 -0.0709
vn -0.9547 0.2953 0.0371
vn 0.5740 0.5725 -0.5854
vn 0.4783 0.6261 -0.6158
vn 0.5845 0.6050 -0.5406
vn 0.5309 0.6343 -0.5620
vn 0.6429 0.6333 -0.4309
vn 0.5111 0.7162 -0.4753
vn 0.6888 0.6776 -0.2576
vn 0.5062 0.8070 -0.3042
vn 0.6113 0.7720 -0.1740
vn 0.6083 0.7737 -0.1771
vt -0.740949 1.646165
vt -0.990094 1.646165
vt -0.990094 1.988738
vt -0.740949 1.988738
vt -0.534387 1.506484
vt -0.534387 1.413627
vt -0.627679 1.413627
vt -0.627679 1.506484
vt -0.604254 1.209013
vt -0.604254 1.372496
vt -0.506573 1.372496
vt -0.506573 1.209013
vt -0.674187 1.542053
vt -0.674187 1.380821
vt -0.996650 1.380821
vt -0.996650 1.542053
vt -0.213457 1.277884
vt -0.078444 1.277884
vt -0.078444 1.212650
vt -0.213457 1.212650
vt -0.283020 1.277884
vt -0.283020 1.212650
vt -0.955920 1.337778
vt -0.955920 1.342408
vt -0.790590 1.342408
vt -0.790590 1.337778
vt -0.751759 1.319006
vt -0.750949 1.315505
vt -0.978276 1.314565
vt -0.979087 1.318065
vt -0.752233 1.326374
vt -0.753029 1.321813
vt -0.980359 1.321813
vt -0.979562 1.326374
vt -0.955920 1.331028
vt -0.955920 1.335657
vt -0.790590 1.335657
vt -0.790590 1.331028
vt -0.492392 1.334383
vt -0.472811 1.361307
vt -0.035917 1.361307
vt -0.016336 1.334383
vt -0.035917 1.962036
vt -0.392260 1.506406
vt -0.392260 1.626889
vt -0.492392 1.988960
vt -0.472811 1.962036
vt -0.016336 1.988960
vt -0.444328 1.626889
vt -0.444328 1.506406
vt -0.856015 1.307677
vt -0.860225 1.298261
vt -0.957349 1.296770
vt -0.961845 1.306052
vt -0.754681 1.366106
vt -0.763964 1.361610
vt -0.972568 1.358406
vt -0.981984 1.362615
vt -0.842873 1.297717
vt -0.838664 1.307133
vt -0.741540 1.308625
vt -0.737044 1.299342
vt -0.981525 1.350689
vt -0.972243 1.355186
vt -0.763638 1.358389
vt -0.754222 1.354180
vt -0.534601 1.960726
vt -0.517378 1.987080
vt -0.517378 1.563428
vt -0.534601 1.838611
vt -0.729204 1.563428
vt -0.656146 1.960726
vt -0.729204 1.987080
vt -0.656146 1.838611
vt -0.534387 1.383985
vt -0.627679 1.383985
vt -0.504745 1.506484
vt -0.504745 1.413627
vt -0.627679 1.536126
vt -0.534387 1.536126
vt -0.657321 1.413627
vt -0.657321 1.506484
vt -0.089792 1.101445
vt -0.012752 1.196025
vt -0.012752 1.009550
vt -0.089792 1.030199
vt -0.525559 1.009550
vt -0.209032 1.101445
vt -0.525559 1.196025
vt -0.209032 1.030199
vt -0.604254 1.313341
vt -0.680151 1.313341
vt -0.680151 1.372496
vt -0.680151 1.209013
vt -0.622997 1.919418
vt -0.612001 1.931251
vt -0.609298 1.929364
vt -0.621124 1.916777
vt -0.632519 1.914826
vt -0.631458 1.911753
vt -0.640641 1.913189
vt -0.639567 1.910135
vt -0.646950 1.910327
vt -0.644901 1.907925
vt -0.650414 1.905566
vt -0.647525 1.904748
vt -0.650169 1.900701
vt -0.647768 1.902211
vt -0.645906 1.898203
vt -0.645288 1.901165
vt -0.638379 1.898638
vt -0.638523 1.901864
vt -0.626873 1.899286
vt -0.626677 1.902526
vt -0.610088 1.897830
vt -0.609298 1.901030
vt -0.591684 1.879751
vt -0.589822 1.895805
vt -0.586566 1.895256
vt -0.588390 1.879663
vt -0.591296 1.868815
vt -0.588010 1.869112
vt -0.590177 1.861008
vt -0.586891 1.861301
vt -0.589854 1.854535
vt -0.586566 1.854403
vt -0.590516 1.849567
vt -0.587290 1.848935
vt -0.579105 1.912676
vt -0.567043 1.899677
vt -0.569741 1.897826
vt -0.580983 1.910068
vt -0.589736 1.917968
vt -0.590809 1.914923
vt -0.597835 1.919650
vt -0.598921 1.916624
vt -0.602791 1.921696
vt -0.604842 1.919327
vt -0.605033 1.924536
vt -0.607906 1.923748
vt -0.605062 1.926666
vt -0.607433 1.928186
vt -0.602846 1.927293
vt -0.603433 1.930241
vt -0.596720 1.926491
vt -0.596546 1.929695
vt -0.585514 1.925745
vt -0.585671 1.928966
vt -0.568589 1.927055
vt -0.569333 1.930241
vt -0.597085 1.871012
vt -0.595233 1.854391
vt -0.598519 1.853854
vt -0.600407 1.870929
vt -0.596684 1.882506
vt -0.599998 1.882804
vt -0.595578 1.890347
vt -0.598891 1.890642
vt -0.595233 1.896086
vt -0.598549 1.895961
vt -0.595621 1.899981
vt -0.598880 1.899366
vt -0.572318 1.885938
vt -0.572055 1.881958
vt -0.575311 1.881682
vt -0.575609 1.885915
vt -0.572055 1.889845
vt -0.575305 1.890317
vt -0.589186 1.940885
vt -0.588959 1.942879
vt -0.585667 1.942879
vt -0.585875 1.941113
vt -0.588993 1.938627
vt -0.585757 1.939332
vt -0.593348 1.936345
vt -0.586500 1.937271
vt -0.585712 1.934084
vt -0.593184 1.933069
vt -0.604398 1.937271
vt -0.604876 1.934018
vt -0.579841 1.944928
vt -0.578930 1.951665
vt -0.575724 1.950832
vt -0.576540 1.944717
vt -0.579010 1.932887
vt -0.575724 1.933325
vt -0.613158 1.908314
vt -0.595808 1.904836
vt -0.596128 1.901563
vt -0.613994 1.905117
vt -0.581196 1.951950
vt -0.581196 1.933110
vt -0.584496 1.933433
vt -0.584521 1.951742
vt -0.629730 1.880508
vt -0.640586 1.890211
vt -0.638506 1.892745
vt -0.627820 1.883184
vt -0.621631 1.874476
vt -0.620033 1.877355
vt -0.615774 1.871405
vt -0.614951 1.874526
vt -0.611517 1.870867
vt -0.612427 1.873710
vt -0.608961 1.872761
vt -0.611695 1.873815
vt -0.608851 1.875741
vt -0.611934 1.875098
vt -0.609925 1.878872
vt -0.612967 1.877802
vt -0.611102 1.882482
vt -0.614215 1.881702
vt -0.611743 1.886856
vt -0.614928 1.886690
vt -0.611241 1.892137
vt -0.614375 1.892745
vt -0.579187 1.868133
vt -0.578199 1.853036
vt -0.581492 1.852779
vt -0.582488 1.868033
vt -0.579322 1.878526
vt -0.582621 1.878632
vt -0.578914 1.885088
vt -0.582183 1.885503
vt -0.578199 1.888592
vt -0.581339 1.889522
vt -0.555390 1.870549
vt -0.552904 1.856538
vt -0.556128 1.856095
vt -0.558646 1.870325
vt -0.556236 1.880066
vt -0.559501 1.880214
vt -0.555975 1.885590
vt -0.559038 1.886520
vt -0.555439 1.887656
vt -0.557361 1.889907
vt -0.554812 1.890448
vt -0.555354 1.887592
vt -0.554801 1.886602
vt -0.552642 1.888865
vt -0.553132 1.884302
vt -0.550633 1.886307
vt -0.550391 1.881087
vt -0.548100 1.883303
vt -0.546360 1.877696
vt -0.544550 1.880295
vt -0.540682 1.874829
vt -0.539554 1.877790
vt -0.568332 1.874877
vt -0.567629 1.889521
vt -0.564310 1.889378
vt -0.565009 1.874887
vt -0.568261 1.864861
vt -0.564943 1.865071
vt -0.567811 1.858845
vt -0.564529 1.859357
vt -0.567451 1.856129
vt -0.564310 1.857147
vt -0.567446 1.855426
vt -0.564605 1.857078
vt -0.575969 1.874682
vt -0.576342 1.876573
vt -0.573242 1.876758
vt -0.572710 1.874850
vt -0.576087 1.872005
vt -0.572791 1.871869
vt -0.576316 1.868956
vt -0.573019 1.868744
vt -0.576494 1.865227
vt -0.573194 1.865141
vt -0.576450 1.860628
vt -0.573155 1.860771
vt -0.575983 1.855058
vt -0.572710 1.855488
vt -0.615676 1.910117
vt -0.616952 1.910412
vt -0.616276 1.913624
vt -0.615204 1.913410
vt -0.612828 1.909781
vt -0.612416 1.913087
vt -0.608785 1.909218
vt -0.608244 1.912503
vt -0.603852 1.908234
vt -0.603084 1.911473
vt -0.598239 1.906649
vt -0.597202 1.909815
vt -0.810502 1.199097
vt -0.810502 1.007582
vt -0.983620 1.007582
vt -0.983620 1.199097
vt -0.690048 1.009566
vt -0.592844 1.009566
vt -0.592844 1.202487
vt -0.690048 1.202487
vt -0.794649 1.202487
vt -0.697446 1.202487
vt -0.697446 1.009566
vt -0.794649 1.009566
vt -0.056475 1.277884
vt -0.023702 1.277884
vt -0.023702 1.212650
vt -0.056475 1.212650
vt -0.885676 1.255179
vt -0.885676 1.214420
vt -0.697941 1.214420
vt -0.697941 1.255179
vt -0.885676 1.282501
vt -0.982402 1.255179
vt -0.697941 1.282501
vt -0.982402 1.282501
vt -0.370618 1.212650
vt -0.403392 1.212650
vt -0.403392 1.277884
vt -0.370618 1.277884
vt -0.292845 1.277884
vt -0.292845 1.212650
s 1
usemtl DefaultLib_Material
f 1/1/1 2/2/1 3/3/1
f 4/4/1 1/1/1 3/3/1
f 5/5/2 6/6/2 7/7/2
f 8/8/2 5/5/2 7/7/2
f 9/9/3 10/10/3 11/11/3
f 12/12/3 9/9/3 11/11/3
f 13/13/4 1/14/4 4/15/4
f 14/16/4 13/13/4 4/15/4
f 13/16/5 15/13/5 2/14/5
f 1/15/5 13/16/5 2/14/5
f 16/17/6 17/18/6 18/19/6
f 19/20/6 16/17/6 18/19/6
f 20/21/6 16/17/6 19/20/6
f 21/22/6 20/21/6 19/20/6
f 22/23/7 23/24/7 24/25/7
f 25/26/7 22/23/7 24/25/7
f 26/27/3 27/28/3 23/29/3
f 22/30/3 26/27/3 23/29/3
f 25/31/4 24/32/4 28/33/4
f 29/34/4 25/31/4 28/33/4
f 29/35/8 28/36/8 27/37/8
f 26/38/8 29/35/8 27/37/8
f 23/39/6 30/40/6 31/41/6
f 24/42/6 23/39/6 31/41/6
f 24/42/6 31/41/6 32/43/6
f 33/44/6 31/41/6 30/40/6
f 34/45/6 32/43/6 31/41/6
f 33/44/6 34/45/6 31/41/6
f 23/39/6 27/46/6 30/40/6
f 27/46/6 35/47/6 30/40/6
f 27/46/6 28/48/6 35/47/6
f 28/48/6 32/43/6 35/47/6
f 36/49/6 35/47/6 32/43/6
f 37/50/6 30/40/6 35/47/6
f 36/49/6 37/50/6 35/47/6
f 28/48/6 24/42/6 32/43/6
f 34/45/6 36/49/6 32/43/6
f 37/50/6 33/44/6 30/40/6
f 25/51/1 14/52/1 38/53/1
f 22/54/1 25/51/1 38/53/1
f 29/55/1 13/56/1 14/57/1
f 25/58/1 29/55/1 14/57/1
f 26/59/1 15/60/1 13/61/1
f 29/62/1 26/59/1 13/61/1
f 22/63/1 38/64/1 15/65/1
f 26/66/1 22/63/1 15/65/1
f 39/67/2 4/68/2 3/69/2
f 40/70/2 39/67/2 3/69/2
f 40/70/2 3/69/2 38/71/2
f 41/72/2 14/73/2 4/68/2
f 39/67/2 41/72/2 4/68/2
f 42/74/2 38/71/2 14/73/2
f 41/72/2 42/74/2 14/73/2
f 42/74/2 40/70/2 38/71/2
f 6/6/1 39/75/1 40/76/1
f 7/7/1 6/6/1 40/76/1
f 5/5/4 41/77/4 39/78/4
f 6/6/4 5/5/4 39/78/4
f 8/8/6 42/79/6 41/80/6
f 5/5/6 8/8/6 41/80/6
f 7/7/3 40/81/3 42/82/3
f 8/8/3 7/7/3 42/82/3
f 43/83/3 38/84/3 3/85/3
f 44/86/3 43/83/3 3/85/3
f 44/86/3 3/85/3 2/87/3
f 45/88/3 15/89/3 38/84/3
f 43/83/3 45/88/3 38/84/3
f 46/90/3 2/87/3 15/89/3
f 45/88/3 46/90/3 15/89/3
f 46/90/3 44/86/3 2/87/3
f 10/91/2 43/92/2 44/93/2
f 11/10/2 10/91/2 44/93/2
f 9/9/6 45/94/6 43/92/6
f 10/91/6 9/9/6 43/92/6
f 12/92/5 46/91/5 45/10/5
f 9/93/5 12/92/5 45/10/5
f 11/94/1 44/9/1 46/91/1
f 12/92/1 11/94/1 46/91/1
f 47/95/9 48/96/10 49/97/11
f 50/98/12 47/95/9 49/97/11
f 51/99/13 47/95/9 50/98/12
f 52/100/14 51/99/13 50/98/12
f 53/101/15 51/99/13 52/100/14
f 54/102/16 53/101/15 52/100/14
f 55/103/17 53/101/15 54/102/16
f 56/104/18 55/103/17 54/102/16
f 57/105/19 55/103/17 56/104/18
f 58/106/20 57/105/19 56/104/18
f 59/107/21 57/105/19 58/106/20
f 60/108/22 59/107/21 58/106/20
f 61/109/23 59/107/21 60/108/22
f 62/110/24 61/109/23 60/108/22
f 63/111/25 61/109/23 62/110/24
f 64/112/26 63/111/25 62/110/24
f 65/113/27 63/111/25 64/112/26
f 66/114/28 65/113/27 64/112/26
f 67/115/29 65/113/27 66/114/28
f 68/116/30 67/115/29 66/114/28
f 69/117/31 70/118/32 48/119/33
f 47/120/34 69/117/31 48/119/33
f 71/121/35 69/117/31 47/120/34
f 51/122/36 71/121/35 47/120/34
f 72/123/37 71/121/35 51/122/36
f 53/124/38 72/123/37 51/122/36
f 73/125/39 72/123/37 53/124/38
f 55/126/40 73/125/39 53/124/38
f 74/127/41 73/125/39 55/126/40
f 57/128/42 74/127/41 55/126/40
f 75/129/43 76/130/44 70/131/45
f 69/132/46 75/129/43 70/131/45
f 77/133/47 75/129/43 69/132/46
f 71/134/48 77/133/47 69/132/46
f 78/135/49 77/133/47 71/134/48
f 72/136/50 78/135/49 71/134/48
f 79/137/51 78/135/49 72/136/50
f 73/138/52 79/137/51 72/136/50
f 80/139/53 79/137/51 73/138/52
f 74/140/54 80/139/53 73/138/52
f 81/141/55 80/139/53 74/140/54
f 82/142/56 81/141/55 74/140/54
f 83/143/57 81/141/55 82/142/56
f 84/144/58 83/143/57 82/142/56
f 85/145/59 83/143/57 84/144/58
f 86/146/60 85/145/59 84/144/58
f 87/147/61 85/145/59 86/146/60
f 88/148/62 87/147/61 86/146/60
f 89/149/63 87/147/61 88/148/62
f 90/150/64 89/149/63 88/148/62
f 50/151/65 49/152/66 76/153/67
f 75/154/68 50/151/65 76/153/67
f 52/155/69 50/151/65 75/154/68
f 77/156/70 52/155/69 75/154/68
f 54/157/71 52/155/69 77/156/70
f 78/158/72 54/157/71 77/156/70
f 56/159/73 54/157/71 78/158/72
f 79/160/74 56/159/73 78/158/72
f 58/161/75 56/159/73 79/160/74
f 80/162/76 58/161/75 79/160/74
f 82/163/77 74/164/78 57/165/79
f 59/166/80 82/163/77 57/165/79
f 84/167/81 82/163/80 59/166/82
f 61/168/83 84/167/81 59/166/82
f 60/169/84 58/170/75 80/171/76
f 81/172/85 60/169/84 80/171/76
f 62/173/86 60/169/87 81/172/88
f 83/174/89 62/173/86 81/172/88
f 86/175/90 84/176/81 61/177/83
f 63/178/91 86/175/90 61/177/83
f 88/179/92 86/175/90 63/178/91
f 65/180/93 88/179/92 63/178/91
f 64/181/94 62/182/86 83/183/89
f 85/184/95 64/181/94 83/183/89
f 66/185/96 64/181/94 85/184/95
f 87/186/97 66/185/96 85/184/95
f 90/187/98 88/188/92 65/189/93
f 67/190/99 90/187/98 65/189/93
f 68/191/100 66/192/96 87/193/97
f 89/194/101 68/191/100 87/193/97
f 91/195/102 92/196/103 93/197/104
f 94/198/105 91/195/102 93/197/104
f 95/199/106 91/195/102 94/198/105
f 96/200/107 95/199/106 94/198/105
f 97/201/108 95/199/106 96/200/107
f 98/202/109 97/201/108 96/200/107
f 99/203/110 97/201/108 98/202/109
f 100/204/111 99/203/110 98/202/109
f 101/205/112 99/203/110 100/204/111
f 102/206/112 101/205/112 100/204/113
f 103/207/114 101/205/112 102/206/115
f 104/208/116 103/207/114 102/206/115
f 105/209/117 103/207/114 104/208/116
f 106/210/118 105/209/117 104/208/116
f 107/211/119 105/209/117 106/210/118
f 108/212/120 107/211/119 106/210/118
f 109/213/121 107/211/119 108/212/120
f 110/214/122 109/213/121 108/212/120
f 111/215/123 109/213/121 110/214/122
f 112/216/124 111/215/123 110/214/122
f 113/217/125 114/218/126 92/219/127
f 91/220/128 113/217/125 92/219/127
f 115/221/129 113/217/125 91/220/128
f 95/222/130 115/221/129 91/220/128
f 116/223/131 115/221/129 95/222/130
f 97/224/132 116/223/131 95/222/130
f 117/225/133 116/223/131 97/224/132
f 99/226/134 117/225/133 97/224/132
f 118/227/135 119/228/136 114/229/137
f 113/230/138 118/227/135 114/229/137
f 120/231/139 118/227/135 113/230/138
f 115/232/140 120/231/139 113/230/138
f 121/233/141 120/231/139 115/232/140
f 116/234/142 121/233/141 115/232/140
f 122/235/143 121/233/141 116/234/142
f 117/236/144 122/235/143 116/234/142
f 123/237/145 124/238/146 117/236/144
f 125/239/147 124/238/146 123/237/145
f 126/240/148 125/239/147 123/237/145
f 127/241/149 125/239/147 126/240/148
f 128/242/150 127/241/149 126/240/148
f 129/243/151 127/241/149 128/242/150
f 130/244/152 129/243/151 128/242/150
f 131/245/153 129/243/151 130/244/152
f 132/246/154 131/245/153 130/244/152
f 133/247/155 131/245/153 132/246/154
f 134/248/156 133/247/155 132/246/154
f 94/249/157 93/250/158 119/251/159
f 118/252/160 94/249/157 119/251/159
f 96/253/161 94/249/157 118/252/160
f 120/254/162 96/253/161 118/252/160
f 98/255/163 96/253/161 120/254/162
f 121/256/164 98/255/163 120/254/162
f 100/257/165 98/255/163 121/256/164
f 122/258/166 100/257/165 121/256/164
f 102/259/167 100/257/165 122/258/166
f 124/260/168 102/259/169 122/258/170
f 123/261/171 117/262/172 99/263/173
f 101/264/174 123/261/171 99/263/173
f 126/265/175 123/261/176 101/264/177
f 103/266/178 126/265/175 101/264/177
f 128/267/179 126/265/175 103/266/178
f 105/268/180 128/267/179 103/266/178
f 130/269/181 128/267/179 105/268/180
f 107/270/182 130/269/181 105/268/180
f 132/271/183 130/269/181 107/270/182
f 109/272/184 132/271/183 107/270/182
f 134/273/185 132/271/183 109/272/184
f 111/274/186 134/273/185 109/272/184
f 124/238/187 122/235/144 117/236/188
f 104/275/189 102/276/169 124/277/168
f 125/278/190 104/275/189 124/277/168
f 106/279/191 104/275/189 125/278/190
f 127/280/192 106/279/191 125/278/190
f 108/281/193 106/279/191 127/280/192
f 129/282/194 108/281/193 127/280/192
f 110/283/195 108/281/193 129/282/194
f 131/284/196 110/283/195 129/282/194
f 112/285/197 110/283/195 131/284/196
f 133/286/198 112/285/197 131/284/196
f 135/287/6 136/288/6 137/289/6
f 138/290/6 135/287/6 137/289/6
f 135/291/4 139/292/4 140/293/4
f 136/294/4 135/291/4 140/293/4
f 136/295/2 140/296/2 141/297/2
f 137/298/2 136/295/2 141/297/2
f 137/295/3 141/296/3 142/297/3
f 138/298/3 137/295/3 142/297/3
f 138/298/5 142/297/5 139/296/5
f 135/295/5 138/298/5 139/296/5
f 143/299/2 33/300/2 37/301/2
f 144/302/2 143/299/2 37/301/2
f 143/299/2 144/302/2 17/18/2
f 144/302/2 18/19/2 17/18/2
f 145/303/4 34/304/4 33/305/4
f 143/306/4 145/303/4 33/305/4
f 145/303/4 143/306/4 16/307/4
f 146/308/4 145/303/4 16/307/4
f 143/306/4 17/309/4 16/307/4
f 20/310/4 146/308/4 16/307/4
f 147/311/5 36/312/5 34/313/5
f 145/314/5 147/311/5 34/313/5
f 144/306/3 37/305/3 36/304/3
f 147/303/3 144/306/3 36/304/3
f 144/306/3 147/303/3 18/309/3
f 147/303/3 19/307/3 18/309/3
f 21/310/3 19/307/3 147/303/3
f 148/308/3 21/310/3 147/303/3
f 146/315/5 20/21/5 21/22/5
f 148/316/5 146/315/5 21/22/5
f 148/316/1 147/311/1 145/314/1
f 146/315/1 148/316/1 145/314/1
