# Blender 4.1.1
# www.blender.org
mtllib heavydoor1.mtl
o heavydoor1
v 0.833333 3.160000 -0.030000
v 0.100000 2.560000 -0.030000
v 0.100000 3.160000 -0.030000
v 0.760000 0.620000 0.070000
v 0.140000 0.620000 0.070000
v 0.140000 0.620000 -0.070000
v 0.760000 0.620000 -0.070000
v 0.760000 0.640000 -0.070000
v 0.760000 0.640000 0.070000
v 0.140000 0.640000 -0.070000
v 0.140000 0.640000 0.070000
v 0.760000 2.560000 0.070000
v 0.140000 2.560000 0.070000
v 0.140000 2.560000 -0.070000
v 0.760000 2.560000 -0.070000
v 0.760000 2.580000 -0.070000
v 0.760000 2.580000 0.070000
v 0.140000 2.580000 -0.070000
v 0.140000 2.580000 0.070000
v 0.100000 3.160000 -0.020000
v 0.833333 3.160000 -0.020000
v 0.860000 3.160000 -0.020000
v 0.860000 3.160000 -0.030000
v 0.100000 2.560000 -0.020000
v 0.860000 0.040000 -0.020000
v 0.833333 0.040000 -0.020000
v -0.780000 1.360000 -0.020000
v -0.780000 1.840000 -0.020000
v 0.100000 0.640000 -0.020000
v 0.100000 0.040000 -0.020000
v 0.860000 0.040000 -0.030000
v -0.780000 1.840000 -0.030000
v -0.780000 1.360000 -0.030000
v 0.833333 0.040000 -0.030000
v 0.100000 0.040000 -0.030000
v 0.100000 0.640000 -0.030000
v 0.833333 3.160000 0.030000
v 0.100000 3.160000 0.030000
v 0.100000 2.560000 0.030000
v 0.860000 0.040000 0.030000
v 0.860000 3.160000 0.030000
v 0.833333 0.040000 0.030000
v -0.780000 1.360000 0.030000
v -0.780000 1.840000 0.030000
v 0.100000 0.640000 0.030000
v 0.100000 0.040000 0.030000
v 0.833333 3.160000 0.020000
v 0.100000 2.560000 0.020000
v 0.100000 3.160000 0.020000
v 0.860000 3.160000 0.020000
v 0.860000 0.040000 0.020000
v -0.780000 1.840000 0.020000
v -0.780000 1.360000 0.020000
v 0.833333 0.040000 0.020000
v 0.100000 0.040000 0.020000
v 0.100000 0.640000 0.020000
v 0.920000 0.040000 -0.080000
v 0.920000 0.040000 0.080000
v 0.760000 0.040000 0.080000
v 0.760000 0.040000 -0.080000
v -0.720000 1.360000 0.060000
v 0.160000 0.640000 0.060000
v 0.920000 0.640000 0.060000
v -0.720000 1.840000 0.060000
v 0.160000 2.560000 0.060000
v 0.920000 2.560000 0.060000
v 0.920000 0.040000 0.060000
v 0.160000 3.160000 0.060000
v 0.920000 3.160000 0.060000
v 0.160000 0.040000 0.060000
v 0.920000 2.560000 -0.060000
v 0.920000 0.640000 -0.060000
v 0.160000 0.640000 -0.060000
v 0.920000 0.040000 -0.060000
v 0.160000 0.040000 -0.060000
v 0.160000 2.560000 -0.060000
v -0.720000 1.840000 -0.060000
v -0.720000 1.360000 -0.060000
v 0.920000 3.160000 -0.060000
v 0.160000 3.160000 -0.060000
v 0.920000 3.160000 0.080000
v 0.760000 3.160000 0.080000
v 0.760000 3.160000 -0.080000
v 0.920000 3.160000 -0.080000
vn -0.0000 -0.0000 -1.0000
vn -0.0000 -1.0000 -0.0000
vn 1.0000 -0.0000 -0.0000
vn -0.0000 1.0000 -0.0000
vn -1.0000 -0.0000 -0.0000
vn -0.0000 -0.0000 1.0000
vn 0.6332 -0.7740 -0.0000
vn -0.6332 0.7740 -0.0000
vn -0.6332 -0.7740 -0.0000
vn 0.6332 0.7740 -0.0000
vt 0.508600 1.753900
vt 0.329600 1.636700
vt 0.329600 1.753900
vt 0.921900 1.410200
vt 0.679700 1.410200
vt 0.679700 1.464800
vt 0.921900 1.464800
vt 0.464800 2.007800
vt 0.410200 2.007800
vt 0.410200 2.000000
vt 0.464800 2.000000
vt 0.921900 2.000000
vt 0.679700 2.000000
vt 0.679700 2.007800
vt 0.921900 2.007800
vt 0.329600 1.148400
vt 0.329600 1.146500
vt 0.508600 1.146500
vt 0.508600 1.148400
vt 0.515100 1.146500
vt 0.515100 1.148400
vt 0.305200 1.753900
vt 0.305200 1.636700
vt 0.302700 1.636700
vt 0.302700 1.753900
vt 0.515100 1.144500
vt 0.515100 1.753900
vt 0.508600 1.144500
vt 0.114700 1.402300
vt 0.114700 1.496100
vt 0.329600 1.261700
vt 0.329600 1.144500
vt 0.302700 1.144500
vt 0.305200 1.144500
vt 0.302700 1.496100
vt 0.305200 1.496100
vt 0.305200 1.402300
vt 0.302700 1.402300
vt 0.430500 1.000000
vt 0.430500 1.002000
vt 0.036600 1.002000
vt 0.036600 1.000000
vt 0.087900 1.003900
vt 0.481800 1.003900
vt 0.481800 1.002000
vt 0.087900 1.002000
vt 0.305200 1.261700
vt 0.302700 1.261700
vt 0.329600 1.152300
vt 0.329600 1.150400
vt 0.508600 1.150400
vt 0.508600 1.152300
vt 0.515100 1.150400
vt 0.515100 1.152300
vt 0.310100 1.753900
vt 0.310100 1.636700
vt 0.307600 1.636700
vt 0.307600 1.753900
vt 0.307600 1.144500
vt 0.310100 1.144500
vt 0.310100 1.261700
vt 0.307600 1.261700
vt 0.087900 1.007800
vt 0.481800 1.007800
vt 0.481800 1.005900
vt 0.087900 1.005900
vt 0.430500 1.003900
vt 0.430500 1.005900
vt 0.036600 1.005900
vt 0.036600 1.003900
vt 0.307600 1.496100
vt 0.310100 1.496100
vt 0.310100 1.402300
vt 0.307600 1.402300
vt -1.059600 1.119100
vt -1.059600 1.150400
vt -1.020500 1.150400
vt -1.020500 1.119100
vt 0.112300 0.400400
vt 0.327100 0.259800
vt 0.512700 0.259800
vt 0.112300 0.494100
vt 0.327100 0.634800
vt 0.512700 0.634800
vt 0.512700 0.142600
vt 0.327100 0.752000
vt 0.512700 0.752000
vt 0.327100 0.142600
vt 0.188000 0.634800
vt 0.158700 0.634800
vt 0.158700 0.259800
vt 0.188000 0.259800
vt 0.158700 0.142600
vt 0.188000 0.752000
vt 0.158700 0.752000
vt 0.188000 0.142600
vt 0.327100 0.367200
vt 0.327100 0.343700
vt 0.512700 0.343700
vt 0.512700 0.367200
vt 0.112300 0.367200
vt 0.112300 0.343700
vt 0.188000 0.400400
vt 0.158700 0.400400
vt 0.158700 0.494100
vt 0.188000 0.494100
vt -1.059600 1.205100
vt -1.059600 1.814500
vt -1.020500 1.814500
vt -1.020500 1.205100
vt -0.864300 1.814500
vt -0.825200 1.814500
vt -0.825200 1.205100
vt -0.864300 1.205100
vt -0.014600 1.007800
vt -0.014600 1.617200
vt -0.053700 1.617200
vt -0.053700 1.007800
s 0
usemtl material_1
f 1/1/1 2/2/1 3/3/1
f 4/4/2 5/5/2 6/6/2
f 7/7/2 4/4/2 6/6/2
f 8/8/3 9/9/3 4/10/3
f 7/11/3 8/8/3 4/10/3
f 10/6/4 11/5/4 9/4/4
f 8/7/4 10/6/4 9/4/4
f 10/8/5 6/11/5 5/10/5
f 11/9/5 10/8/5 5/10/5
f 7/12/1 6/13/1 10/14/1
f 8/15/1 7/12/1 10/14/1
f 9/15/6 11/14/6 5/13/6
f 4/12/6 9/15/6 5/13/6
f 12/4/2 13/5/2 14/6/2
f 15/7/2 12/4/2 14/6/2
f 16/8/3 17/9/3 12/10/3
f 15/11/3 16/8/3 12/10/3
f 18/6/4 19/5/4 17/4/4
f 16/7/4 18/6/4 17/4/4
f 18/8/5 14/11/5 13/10/5
f 19/9/5 18/8/5 13/10/5
f 15/12/1 14/13/1 18/14/1
f 16/15/1 15/12/1 18/14/1
f 17/15/6 19/14/6 13/13/6
f 12/12/6 17/15/6 13/13/6
f 3/16/4 20/17/4 21/18/4
f 1/19/4 3/16/4 21/18/4
f 21/18/4 22/20/4 23/21/4
f 1/19/4 21/18/4 23/21/4
f 1/19/7 21/18/7 24/17/7
f 2/16/7 1/19/7 24/17/7
f 3/22/5 2/23/5 24/24/5
f 20/25/5 3/22/5 24/24/5
f 25/26/6 22/27/6 21/1/6
f 26/28/6 25/26/6 21/1/6
f 27/29/6 26/28/6 21/1/6
f 21/1/6 28/30/6 27/29/6
f 21/1/6 20/3/6 24/2/6
f 26/28/6 29/31/6 30/32/6
f 1/1/1 23/27/1 31/26/1
f 32/30/1 1/1/1 31/26/1
f 33/29/1 32/30/1 31/26/1
f 31/26/1 34/28/1 33/29/1
f 31/21/2 25/20/2 26/18/2
f 34/19/2 31/21/2 26/18/2
f 34/19/2 26/18/2 30/17/2
f 35/16/2 34/19/2 30/17/2
f 22/25/3 25/33/3 31/34/3
f 23/22/3 22/25/3 31/34/3
f 28/35/5 32/36/5 33/37/5
f 27/38/5 28/35/5 33/37/5
f 21/39/8 1/40/8 32/41/8
f 28/42/8 21/39/8 32/41/8
f 33/43/9 34/44/9 26/45/9
f 27/46/9 33/43/9 26/45/9
f 36/31/1 34/28/1 35/32/1
f 36/16/10 29/17/10 26/18/10
f 34/19/10 36/16/10 26/18/10
f 36/47/5 35/34/5 30/33/5
f 29/48/5 36/47/5 30/33/5
f 37/1/6 38/3/6 39/2/6
f 40/26/6 41/27/6 37/1/6
f 42/28/6 40/26/6 37/1/6
f 43/29/6 42/28/6 37/1/6
f 37/1/6 44/30/6 43/29/6
f 42/28/6 45/31/6 46/32/6
f 47/1/1 48/2/1 49/3/1
f 49/49/4 38/50/4 37/51/4
f 47/52/4 49/49/4 37/51/4
f 37/51/4 41/53/4 50/54/4
f 47/52/4 37/51/4 50/54/4
f 47/52/7 37/51/7 39/50/7
f 48/49/7 47/52/7 39/50/7
f 49/55/5 48/56/5 39/57/5
f 38/58/5 49/55/5 39/57/5
f 47/1/1 50/27/1 51/26/1
f 52/30/1 47/1/1 51/26/1
f 53/29/1 52/30/1 51/26/1
f 51/26/1 54/28/1 53/29/1
f 51/54/2 40/53/2 42/51/2
f 54/52/2 51/54/2 42/51/2
f 54/52/2 42/51/2 46/50/2
f 55/49/2 54/52/2 46/50/2
f 41/58/3 40/59/3 51/60/3
f 50/55/3 41/58/3 51/60/3
f 56/61/5 55/60/5 46/59/5
f 45/62/5 56/61/5 46/59/5
f 56/49/10 45/50/10 42/51/10
f 54/52/10 56/49/10 42/51/10
f 56/31/1 54/28/1 55/32/1
f 53/63/9 54/64/9 42/65/9
f 43/66/9 53/63/9 42/65/9
f 37/67/8 47/68/8 52/69/8
f 44/70/8 37/67/8 52/69/8
f 44/71/5 52/72/5 53/73/5
f 43/74/5 44/71/5 53/73/5
usemtl material_2
f 57/75/2 58/76/2 59/77/2
f 60/78/2 57/75/2 59/77/2
f 61/79/6 62/80/6 63/81/6
f 64/82/6 61/79/6 63/81/6
f 65/83/6 64/82/6 63/81/6
f 63/81/6 66/84/6 65/83/6
f 67/85/6 63/81/6 62/80/6
f 65/83/6 66/84/6 68/86/6
f 66/84/6 69/87/6 68/86/6
f 70/88/6 67/85/6 62/80/6
f 71/84/1 72/81/1 73/80/1
f 72/81/1 74/85/1 75/88/1
f 73/80/1 72/81/1 75/88/1
f 76/83/1 71/84/1 73/80/1
f 77/82/1 76/83/1 73/80/1
f 73/80/1 78/79/1 77/82/1
f 79/87/1 71/84/1 76/83/1
f 80/86/1 79/87/1 76/83/1
f 71/89/3 66/90/3 63/91/3
f 72/92/3 71/89/3 63/91/3
f 72/92/3 63/91/3 67/93/3
f 79/94/3 69/95/3 66/90/3
f 71/89/3 79/94/3 66/90/3
f 74/96/3 72/92/3 67/93/3
f 76/97/4 65/98/4 66/99/4
f 71/100/4 76/97/4 66/99/4
f 77/101/8 64/102/8 65/98/8
f 76/97/8 77/101/8 65/98/8
f 78/103/5 61/104/5 64/105/5
f 77/106/5 78/103/5 64/105/5
f 73/97/9 62/98/9 61/102/9
f 78/101/9 73/97/9 61/102/9
f 72/100/2 63/99/2 62/98/2
f 73/97/2 72/100/2 62/98/2
f 76/97/2 71/100/2 66/99/2
f 65/98/2 76/97/2 66/99/2
f 79/100/4 80/97/4 68/98/4
f 69/99/4 79/100/4 68/98/4
f 68/95/5 80/94/5 76/89/5
f 65/90/5 68/95/5 76/89/5
f 75/97/2 74/100/2 67/99/2
f 70/98/2 75/97/2 67/99/2
f 72/100/4 73/97/4 62/98/4
f 63/99/4 72/100/4 62/98/4
f 62/91/5 73/92/5 75/96/5
f 70/93/5 62/91/5 75/96/5
f 58/107/6 81/108/6 82/109/6
f 59/110/6 58/107/6 82/109/6
f 60/110/1 83/109/1 84/108/1
f 57/107/1 60/110/1 84/108/1
f 84/75/4 83/78/4 82/77/4
f 81/76/4 84/75/4 82/77/4
f 84/111/3 81/112/3 58/113/3
f 57/114/3 84/111/3 58/113/3
f 59/115/5 82/116/5 83/117/5
f 60/118/5 59/115/5 83/117/5
