# Blender 4.1.1
# www.blender.org
mtllib heavydoor2.mtl
o heavydoor2
v -0.040000 0.640000 0.060000
v -0.040000 0.040000 0.060000
v 0.920000 0.040000 0.060000
v 0.920000 1.400000 0.060000
v -0.040000 0.040000 -0.060000
v 0.920000 0.040000 -0.060000
v 0.920000 1.400000 -0.060000
v -0.040000 0.640000 -0.060000
v 0.920000 1.800000 0.060000
v 0.920000 3.160000 0.060000
v -0.040000 3.160000 0.060000
v -0.040000 2.563636 0.060000
v -0.040000 2.563636 -0.060000
v -0.040000 3.160000 -0.060000
v 0.920000 3.160000 -0.060000
v 0.920000 1.800000 -0.060000
v 0.920000 0.040000 0.080000
v 0.920000 3.160000 0.080000
v 0.760000 3.160000 0.080000
v 0.760000 0.040000 0.080000
v 0.760000 0.040000 -0.080000
v 0.760000 3.160000 -0.080000
v 0.920000 3.160000 -0.080000
v 0.920000 0.040000 -0.080000
v -0.050000 0.640000 0.070000
v -0.050000 0.640000 -0.070000
v -0.050000 0.620000 -0.070000
v -0.050000 0.620000 0.070000
v 0.680000 1.200000 -0.020000
v 0.680000 2.000000 -0.020000
v 0.840000 2.000000 -0.020000
v 0.840000 1.200000 -0.020000
v -0.120000 2.563636 0.020000
v -0.120000 3.160000 0.020000
v -0.120000 3.160000 -0.020000
v -0.120000 2.563636 -0.020000
v 0.680000 1.920000 -0.020000
v 0.680000 1.920000 0.020000
v 0.680000 3.160000 -0.020000
v 0.680000 3.160000 0.020000
v -0.120000 0.640000 -0.020000
v -0.120000 0.040000 -0.020000
v -0.120000 0.040000 0.020000
v -0.120000 0.640000 0.020000
v 0.680000 1.280000 0.020000
v 0.680000 1.280000 -0.020000
v 0.680000 0.040000 0.020000
v 0.680000 0.040000 -0.020000
v 0.680000 2.000000 0.020000
v 0.680000 1.200000 0.020000
v 0.840000 1.200000 0.020000
v 0.840000 2.000000 0.020000
v -0.050000 2.580000 -0.070000
v 0.760000 2.580000 -0.070000
v 0.760000 2.560000 -0.070000
v -0.050000 2.560000 -0.070000
v -0.050000 2.560000 0.070000
v 0.760000 2.560000 0.070000
v 0.760000 2.580000 0.070000
v -0.050000 2.580000 0.070000
v 0.760000 0.640000 -0.070000
v 0.760000 0.620000 -0.070000
v 0.760000 0.620000 0.070000
v 0.760000 0.640000 0.070000
vn -0.0000 -0.0000 1.0000
vn -0.0000 -1.0000 -0.0000
vn 1.0000 -0.0000 -0.0000
vn -0.6207 0.7840 -0.0000
vn -1.0000 -0.0000 -0.0000
vn -0.0000 -0.0000 -1.0000
vn -0.0000 1.0000 -0.0000
vn -0.6225 -0.7826 -0.0000
vn -0.6269 -0.7791 -0.0000
vn -0.6247 0.7809 -0.0000
vt -0.681200 1.261700
vt -0.681200 1.144500
vt -0.915500 1.144500
vt -0.915500 1.410200
vt -0.915500 1.148400
vt -0.681200 1.148400
vt -0.681200 1.125000
vt -0.915500 1.125000
vt -0.686000 1.144500
vt -0.715300 1.144500
vt -0.715300 1.410200
vt -0.686000 1.410200
vt -0.944800 1.162100
vt -0.944800 1.138700
vt -0.710400 1.138700
vt -0.710400 1.162100
vt -0.715300 1.261700
vt -0.686000 1.261700
vt -0.915500 1.488300
vt -0.915500 1.753900
vt -0.681200 1.753900
vt -0.681200 1.637400
vt -0.715300 1.753900
vt -0.686000 1.753900
vt -0.686000 1.488300
vt -0.715300 1.488300
vt -0.925300 0.984400
vt -0.925300 1.007800
vt -0.690900 1.007800
vt -0.690900 0.984400
vt -0.686000 1.637400
vt -0.715300 1.637400
vt -1.059600 1.205100
vt -1.059600 1.814500
vt -1.020500 1.814500
vt -1.020500 1.205100
vt -1.059600 1.119100
vt -1.020500 1.119100
vt -1.020500 1.150400
vt -1.059600 1.150400
vt -0.864300 1.814500
vt -0.825200 1.814500
vt -0.825200 1.205100
vt -0.864300 1.205100
vt -0.014600 1.007800
vt -0.014600 1.617200
vt -0.053700 1.617200
vt -0.053700 1.007800
vt 0.464800 2.007800
vt 0.410200 2.007800
vt 0.410200 2.000000
vt 0.464800 2.000000
vt -0.250000 1.468800
vt -0.250000 1.781300
vt -0.312500 1.781300
vt -0.312500 1.468800
vt 0.007800 2.001400
vt 0.007800 2.234400
vt -0.007800 2.234400
vt -0.007800 2.001400
vt -0.250000 0.992200
vt -0.250000 1.007800
vt 0.062500 1.007800
vt 0.062500 0.992200
vt 0.007800 1.750000
vt -0.007800 1.750000
vt 0.062500 2.001400
vt 0.062500 2.234400
vt -0.250000 2.234400
vt -0.250000 1.750000
vt -0.007800 1.250000
vt -0.007800 1.015600
vt 0.007800 1.015600
vt 0.007800 1.250000
vt -0.007800 1.500000
vt 0.007800 1.500000
vt 0.062500 1.250000
vt 0.062500 1.015600
vt -0.250000 1.015600
vt -0.250000 1.500000
vt -0.312500 1.007800
vt -0.312500 0.992200
vt -0.007800 1.781300
vt 0.007800 1.781300
vt 0.007800 1.468800
vt -0.007800 1.468800
vt 0.996100 2.007800
vt 0.679700 2.007800
vt 0.679700 2.000000
vt 0.996100 2.000000
vt 0.679700 1.464800
vt 0.679700 1.410200
vt 0.996100 1.410200
vt 0.996100 1.464800
s 0
usemtl material_2
f 1/1/1 2/2/1 3/3/1
f 4/4/1 1/1/1 3/3/1
f 3/5/2 2/6/2 5/7/2
f 6/8/2 3/5/2 5/7/2
f 3/9/3 6/10/3 7/11/3
f 4/12/3 3/9/3 7/11/3
f 4/13/4 7/14/4 8/15/4
f 1/16/4 4/13/4 8/15/4
f 8/17/5 5/10/5 2/9/5
f 1/18/5 8/17/5 2/9/5
f 9/19/1 10/20/1 11/21/1
f 12/22/1 9/19/1 11/21/1
f 13/22/6 14/21/6 15/20/6
f 16/19/6 13/22/6 15/20/6
f 15/8/7 14/7/7 11/6/7
f 10/5/7 15/8/7 11/6/7
f 15/23/3 10/24/3 9/25/3
f 16/26/3 15/23/3 9/25/3
f 16/27/8 9/28/8 12/29/8
f 13/30/8 16/27/8 12/29/8
f 12/31/5 11/24/5 14/23/5
f 13/32/5 12/31/5 14/23/5
f 17/33/1 18/34/1 19/35/1
f 20/36/1 17/33/1 19/35/1
f 21/36/6 22/35/6 23/34/6
f 24/33/6 21/36/6 23/34/6
f 23/37/7 22/38/7 19/39/7
f 18/40/7 23/37/7 19/39/7
f 23/41/3 18/42/3 17/43/3
f 24/44/3 23/41/3 17/43/3
f 24/37/2 17/40/2 20/39/2
f 21/38/2 24/37/2 20/39/2
f 20/45/5 19/46/5 22/47/5
f 21/48/5 20/45/5 22/47/5
f 7/4/6 6/3/6 5/2/6
f 8/1/6 7/4/6 5/2/6
usemtl material_1
f 25/49/5 26/50/5 27/51/5
f 28/52/5 25/49/5 27/51/5
f 29/53/6 30/54/6 31/55/6
f 32/56/6 29/53/6 31/55/6
f 33/57/5 34/58/5 35/59/5
f 36/60/5 33/57/5 35/59/5
f 37/61/9 38/62/9 33/63/9
f 36/64/9 37/61/9 33/63/9
f 39/59/3 40/58/3 38/65/3
f 37/66/3 39/59/3 38/65/3
f 39/61/7 35/64/7 34/63/7
f 40/62/7 39/61/7 34/63/7
f 36/67/6 35/68/6 39/69/6
f 37/70/6 36/67/6 39/69/6
f 38/70/1 40/69/1 34/68/1
f 33/67/1 38/70/1 34/68/1
f 41/71/5 42/72/5 43/73/5
f 44/74/5 41/71/5 43/73/5
f 45/62/10 46/61/10 41/64/10
f 44/63/10 45/62/10 41/64/10
f 47/73/3 48/72/3 46/75/3
f 45/76/3 47/73/3 46/75/3
f 47/62/2 43/63/2 42/64/2
f 48/61/2 47/62/2 42/64/2
f 44/77/1 43/78/1 47/79/1
f 45/80/1 44/77/1 47/79/1
f 46/80/6 48/79/6 42/78/6
f 41/77/6 46/80/6 42/78/6
f 49/54/1 50/53/1 51/56/1
f 52/55/1 49/54/1 51/56/1
f 51/81/2 50/62/2 29/61/2
f 32/82/2 51/81/2 29/61/2
f 49/62/7 52/81/7 31/82/7
f 30/61/7 49/62/7 31/82/7
f 31/83/3 52/84/3 51/85/3
f 32/86/3 31/83/3 51/85/3
f 49/84/5 30/83/5 29/86/5
f 50/85/5 49/84/5 29/86/5
f 53/87/6 54/88/6 55/89/6
f 56/90/6 53/87/6 55/89/6
f 57/90/1 58/89/1 59/88/1
f 60/87/1 57/90/1 59/88/1
f 59/49/3 58/52/3 55/51/3
f 54/50/3 59/49/3 55/51/3
f 59/91/7 54/92/7 53/93/7
f 60/94/7 59/91/7 53/93/7
f 60/49/5 53/50/5 56/51/5
f 57/52/5 60/49/5 56/51/5
f 56/93/2 55/92/2 58/91/2
f 57/94/2 56/93/2 58/91/2
f 26/87/6 61/88/6 62/89/6
f 27/90/6 26/87/6 62/89/6
f 28/90/1 63/89/1 64/88/1
f 25/87/1 28/90/1 64/88/1
f 64/49/3 63/52/3 62/51/3
f 61/50/3 64/49/3 62/51/3
f 64/91/7 61/92/7 26/93/7
f 25/94/7 64/91/7 26/93/7
f 27/93/2 62/92/2 63/91/2
f 28/94/2 27/93/2 63/91/2
