# File produced by Open Asset Import Library (http://www.assimp.sf.net)
# (assimp v4.1.216079013)

mtllib keyboard.mtl

# 32 vertex positions
v  19.50198936462402 0 7.942614078521729
v  19.5020866394043 1.068304061889648 7.852581024169922
v  -19.50198936462402 0 7.942614078521729
v  9.044208526611328 1.068542957305908 7.85693883895874
v  -19.49667739868164 1.074061989784241 7.85524320602417
v  19.49436569213867 3.619087934494019 -9.420719146728516
v  18.54842567443848 1.474563956260681 5.157763957977295
v  7.238124847412109 1.474563956260681 5.157763957977295
v  10.85029411315918 1.474563956260681 5.157763957977295
v  10.85029411315918 3.195733070373535 -6.315825939178467
v  18.24328994750977 1.982542991638184 4.874332904815674
v  11.15542984008789 1.982542991638184 4.874332904815674
v  18.23727416992188 3.579994916915894 -5.683856010437012
v  11.15542984008789 3.580782890319824 -5.689685821533203
v  18.54189109802246 3.194876909255981 -6.309494018554688
v  9.044208526611328 3.615754127502441 -9.423641204833984
v  7.238124847412109 3.1961350440979 -6.31879997253418
v  -17.71316719055176 3.19891095161438 -6.339340209960938
v  6.496628761291504 3.588293075561523 -5.846525192260742
v  -16.97390937805176 3.590903997421265 -5.865847110748291
v  -19.50186920166016 3.61544394493103 -9.42218017578125
v  -17.75087356567383 1.474565029144287 5.157763957977295
v  -17.00937843322754 1.958771944046021 4.948955059051514
v  6.496628761291504 1.958771944046021 4.948955059051514
v  -19.50198745727539 2.304516077041626 -9.454710006713867
v  19.50198936462402 2.361051082611084 -9.453371047973633
v  17.50050354003906 2.182064056396484 -8.483173370361328
v  17.50050354003906 0.005231999792158604 -8.53337574005127
v  -17.50050163269043 2.131330966949463 -8.484375
v  -17.50050354003906 0.005231999792158604 -8.53337574005127
v  -17.50050354003906 0.005231999792158604 6.966672897338867
v  17.50050354003906 0.005231999792158604 6.966672897338867

# 46 UV coordinates
vt 0.955715000629425 0.4963250160217285 0
vt 0.9556919932365417 0.5189750194549561 0
vt 0.04545599967241287 0.4965609908103943 0
vt 0.7116870284080505 0.5188950300216675 0
vt 0.04556899890303612 0.5192760229110718 0
vt 0.9558429718017578 0.9578040242195129 0
vt 0.9335259795188904 0.5874649882316589 0
vt 0.6695610284805298 0.5874649882316589 0
vt 0.7538639903068542 0.5874649882316589 0
vt 0.7538639903068542 0.8791769742965698 0
vt 0.9264050126075745 0.5965409874916077 0
vt 0.7609850168228149 0.5965409874916077 0
vt 0.9262650012969971 0.8650339841842651 0
vt 0.7609850168228149 0.8651819825172424 0
vt 0.9333739876747131 0.8790159821510315 0
vt 0.7117570042610168 0.9579449892044067 0
vt 0.6695610284805298 0.879252016544342 0
vt 0.08723600208759308 0.8797730207443237 0
vt 0.6522560119628906 0.8691049814224243 0
vt 0.1044889986515045 0.8695949912071228 0
vt 0.04553600028157234 0.9576349854469299 0
vt 0.08635599911212921 0.5874649882316589 0
vt 0.1036619991064072 0.5945940017700195 0
vt 0.6522560119628906 0.5945940017700195 0
vt 0.016482999548316 0.513592004776001 0
vt 0.00942699983716011 0.9532520174980164 0
vt 0.9558500051498413 0.9844629764556885 0
vt 0.04559199884533882 0.9853540062904358 0
vt 0.9906359910964966 0.9536030292510986 0
vt 0.9845920205116272 0.5131809711456299 0
vt 0.2441959977149963 0.04342198371887207 0
vt 0.2441959977149963 0.01148098707199097 0
vt 0.7576940059661865 0.04267698526382446 0
vt 0.7576940059661865 0.01148098707199097 0
vt 0.9850350022315979 0.01672101020812988 0
vt 0.01685599982738495 0.01672202348709106 0
vt 0.01553600002080202 0.4829049706459045 0
vt 0.06492400169372559 0.4589639902114868 0
vt 0.9779899716377258 0.4829379916191101 0
vt 0.9286019802093506 0.4589939713478088 0
vt 0.977990984916687 0.05364501476287842 0
vt 0.06492400169372559 0.07772701978683472 0
vt 0.01553600002080202 0.05364501476287842 0
vt 0.9286019802093506 0.07772701978683472 0
vt 0.06492400169372559 0.4602029919624329 0
vt 0.9286019802093506 0.4602029919624329 0

# 45 vertex normals
vn 0 0.08397900313138962 0.9964680075645447
vn 0.3071140050888062 0.6484630107879639 0.6965460181236267
vn 0.0001250000059371814 0.07796800136566162 0.9969559907913208
vn 0.0001320000010309741 0.8458020091056824 0.5334969758987427
vn -0.4214079976081848 0.8441449999809265 0.3314119875431061
vn 0.5317850112915039 0.8444799780845642 0.06369999796152115
vn 0.2872529923915863 0.9188129901885986 0.2706809937953949
vn 0.1416539996862411 0.9551640152931213 0.2599929869174957
vn -0.163444995880127 0.8799890279769897 0.4459869861602783
vn -0.2360779941082001 0.9705600142478943 0.0477599985897541
vn 0.2523530125617981 0.7599260210990906 0.5990250110626221
vn -0.4042209982872009 0.8559809923171997 0.3223389983177185
vn 0.3935970067977905 0.9191650152206421 -0.01475599966943264
vn -0.2446590065956116 0.9399170279502869 -0.2381139993667603
vn 0.2030200064182281 0.9665129780769348 -0.1569560021162033
vn -9.100000170292333e-05 0.9358090162277222 0.3525069952011108
vn 0.09702400118112564 0.986050009727478 -0.1352500021457672
vn -0.1630859971046448 0.9862499833106995 0.02672000043094158
vn 0.2288309931755066 0.9732840061187744 -0.01882500015199184
vn -0.1476999968290329 0.947996973991394 -0.2819330096244812
vn -0.5229700207710266 0.6659380197525024 -0.5320050120353699
vn -0.1199740022420883 0.8422260284423828 0.5256050229072571
vn -0.234937995672226 0.9141799807548523 0.330271989107132
vn 0.1514990031719208 0.7701780200004578 0.6195759773254395
vn -0.999987006187439 0.004999000113457441 0.0006619999767281115
vn -0.9999970197677612 0.00254100002348423 0.0004870000120718032
vn 1.700000029813964e-05 0.02537599951028824 -0.9996780157089233
vn -1.999999994950485e-06 0.02480700053274632 -0.9996920228004456
vn 0.9999809861183167 0.006039000116288662 0.0008200000156648457
vn 0.9999960064888 0.002953999908640981 0.0001769999944372103
vn 0.7071070075035095 0.01630299910902977 -0.7069180011749268
vn 0.4472140073776245 0.02061500027775764 -0.8941890001296997
vn -0.4472129940986633 0.02061600051820278 -0.8941900134086609
vn -0.7071070075035095 0.0162930004298687 -0.7069190144538879
vn -1 9.999999974752427e-07 0
vn 1 0 0
vn 0.02841999940574169 -0.9881500005722046 -0.1508390009403229
vn 0.007929000072181225 -0.9861649870872498 -0.1655749976634979
vn -0.006417000200599432 -0.9866290092468262 -0.1628559976816177
vn -0.028158999979496 -0.9884790182113647 -0.148717999458313
vn -0.02151699922978878 -0.9973369836807251 -0.06967999786138535
vn 0.01679700054228306 -0.9982309937477112 -0.05702700093388557
vn 0.0315140001475811 -0.9970510005950928 -0.06997399777173996
vn -0.01597099937498569 -0.9992449879646301 -0.03542400151491165
vn 0 -1 0

# Mesh 'default' with 60 faces
g default
usemtl Material02
f  1/1/1 2/2/2 3/3/3
f  2/2/2 4/4/4 3/3/3
f  4/4/4 5/5/5 3/3/3
f  2/2/2 6/6/6 7/7/7
f  2/2/2 7/7/7 4/4/4
f  4/4/4 8/8/8 5/5/5
f  9/9/9 8/8/8 4/4/4
f  7/7/7 9/9/9 4/4/4
f  9/9/9 10/10/10 8/8/8
f  7/7/7 11/11/11 9/9/9
f  11/11/11 12/12/12 9/9/9
f  9/9/9 12/12/12 10/10/10
f  11/11/11 13/13/13 12/12/12
f  13/13/13 11/11/11 7/7/7
f  13/13/13 14/14/14 12/12/12
f  12/12/12 14/14/14 10/10/10
f  15/15/15 13/13/13 7/7/7
f  14/14/14 13/13/13 15/15/15
f  10/10/10 14/14/14 15/15/15
f  6/6/6 15/15/15 7/7/7
f  15/15/15 6/6/6 10/10/10
f  10/10/10 16/16/16 17/17/17
f  10/10/10 17/17/17 8/8/8
f  6/6/6 16/16/16 10/10/10
f  17/17/17 16/16/16 18/18/18
f  17/17/17 19/19/19 8/8/8
f  18/18/18 20/20/20 17/17/17
f  20/20/20 19/19/19 17/17/17
f  16/16/16 21/21/21 18/18/18
f  22/22/22 18/18/18 5/5/5
f  18/18/18 21/21/21 5/5/5
f  22/22/22 23/23/23 18/18/18
f  23/23/23 20/20/20 18/18/18
f  19/19/19 20/20/20 23/23/23
f  24/24/24 19/19/19 23/23/23
f  19/19/19 24/24/24 8/8/8
f  24/24/24 23/23/23 22/22/22
f  8/8/8 22/22/22 5/5/5
f  8/8/8 24/24/24 22/22/22
f  3/25/25 5/5/5 25/26/26
f  5/5/5 21/21/21 25/26/26
f  16/16/16 6/6/6 21/21/21
f  6/6/6 26/27/27 21/21/21
f  26/27/27 25/28/28 21/21/21
f  26/29/29 6/6/6 1/30/30
f  6/6/6 2/2/2 1/30/30
f  27/31/31 28/32/32 29/33/33
f  28/32/32 30/34/34 29/33/33
f  31/35/35 29/33/33 30/34/34
f  28/32/32 27/31/31 32/36/36
f  26/37/37 27/38/38 25/39/39
f  27/38/38 29/40/40 25/39/39
f  25/39/39 29/40/40 3/41/41
f  32/42/42 27/38/38 26/37/37
f  1/43/43 32/42/42 26/37/37
f  31/44/44 32/42/42 3/41/41
f  32/42/42 1/43/43 3/41/41
f  32/42/42 31/44/44 28/45/45
f  29/40/40 31/44/44 3/41/41
f  31/44/44 30/46/45 28/45/45

