# File produced by Open Asset Import Library (http://www.assimp.sf.net)
# (assimp v4.1.216079013)

mtllib lamp1.mtl

# 180 vertex positions
v  -9.246500015258789 103.8744812011719 -74.62889862060547
v  -3.429699897766113 108.2461395263672 -68.6263427734375
v  5.131400108337402 105.6618347167969 -77.38117218017578
v  3.429699897766113 108.2461395263672 -68.6263427734375
v  0 106.2997207641602 -78.36341857910156
v  -11.53020000457764 101.291748046875 -70.65181732177734
v  -6.209000110626221 86.83052062988281 -61.53184509277344
v  0 110.6193237304688 -61.45650100708008
v  0 86.05865478515625 -60.34329605102539
v  -11.18830013275146 88.99317169189453 -64.86206817626953
v  -13.95149993896484 92.11831665039062 -69.67434692382812
v  -13.95149993896484 95.58698272705078 -75.01557922363281
v  -11.18830013275146 98.71212005615234 -79.82786560058594
v  -6.209000110626221 100.8747406005859 -83.15805816650391
v  0 101.6465530395508 -84.3465576171875
v  6.209000110626221 86.83052062988281 -61.53184509277344
v  11.18830013275146 88.99317169189453 -64.86206817626953
v  13.95149993896484 92.11831665039062 -69.67434692382812
v  13.95149993896484 95.58698272705078 -75.01557922363281
v  11.18830013275146 98.71212005615234 -79.82786560058594
v  6.209000110626221 100.8747406005859 -83.15805816650391
v  4.758299827575684 117.5330963134766 -55.12324142456055
v  0 115.6502304077148 -52.22388076782227
v  2.940799951553345 116.1706390380859 -53.02521896362305
v  4.758299827575684 119.217170715332 -57.71649932861328
v  -2.940799951553345 116.1706390380859 -53.02521896362305
v  2.940799951553345 120.5795822143555 -59.81442642211914
v  -4.758299827575684 117.5330963134766 -55.12324142456055
v  0 121.0999603271484 -60.61580657958984
v  -4.758299827575684 119.217170715332 -57.71649932861328
v  -2.940799951553345 120.5795822143555 -59.81442642211914
v  3.429699897766113 103.1040725708008 -60.70827102661133
v  5.549399852752686 104.6930694580078 -63.15508651733398
v  5.549399852752686 106.6571578979492 -66.17950439453125
v  0 102.4971313476562 -59.77366256713867
v  0 108.8530883789062 -69.56095123291016
v  -5.549399852752686 106.6571578979492 -66.17950439453125
v  -5.549399852752686 104.6930694580078 -63.15508651733398
v  -3.429699897766113 103.1040725708008 -60.70827102661133
v  -9.246500015258789 95.84236145019531 -62.2605094909668
v  -11.53020000457764 98.42509460449219 -66.23756408691406
v  -5.131400108337402 94.05500793457031 -59.50825881958008
v  0 93.41713714599609 -58.5259895324707
v  -5.131400108337402 105.6618347167969 -77.38117218017578
v  9.246500015258789 103.8744812011719 -74.62889862060547
v  11.53020000457764 101.291748046875 -70.65181732177734
v  11.53020000457764 98.42509460449219 -66.23756408691406
v  9.246500015258789 95.84236145019531 -62.2605094909668
v  5.131400108337402 94.05500793457031 -59.50825881958008
v  0 120.2603149414062 -54.60845947265625
v  0 120.7967147827148 -55.43446350097656
v  -0.4925000071525574 120.5284881591797 -55.02141571044922
v  0.4925000071525574 120.5284881591797 -55.02141571044922
v  -0.4925000071525574 118.0502853393555 -56.63077545166016
v  0 118.3185119628906 -57.04380416870117
v  0 117.7821044921875 -56.21780776977539
v  0.4925000071525574 118.0502853393555 -56.63077545166016
v  0.6352999806404114 103.5876693725586 -54.82888031005859
v  0 106.4774398803711 -58.11231994628906
v  0 104.1204681396484 -54.48286056518555
v  -0.6352999806404114 105.9446487426758 -58.45832061767578
v  -0.6352999806404114 103.5876693725586 -54.82888031005859
v  0.6352999806404114 105.9446487426758 -58.45832061767578
v  0 103.0548400878906 -55.17488861083984
v  0 105.4118270874023 -58.80434417724609
v  -0.8321999907493591 111.4792022705078 -48.84559631347656
v  -0.8321999907493591 108.5979995727539 -49.38970184326172
v  -0.8321999907493591 110.1176986694336 -47.06420135498047
v  -0.8321999907493591 105.5613021850586 -56.29610061645508
v  -0.8321999907493591 105.2153015136719 -51.51839828491211
v  -0.8321999907493591 102.6783981323242 -55.43299865722656
v  -0.8321999907493591 102.7778015136719 -48.57540130615234
v  -0.8321999907493591 104.7226028442383 -48.26609802246094
v  0.8321999907493591 108.5980987548828 -49.38970184326172
v  0.8321999907493591 111.4792022705078 -48.84559631347656
v  0.8321999907493591 110.1176986694336 -47.06420135498047
v  0.8321999907493591 105.5613021850586 -56.29610061645508
v  0.8321999907493591 105.2153015136719 -51.51839828491211
v  0.8321999907493591 102.6783981323242 -55.43299865722656
v  0.8321999907493591 102.7778015136719 -48.57540130615234
v  0.8321999907493591 104.7226028442383 -48.26609802246094
v  -0.493800014257431 69.19550323486328 6.894402027130127
v  -0.493800014257431 104.2520980834961 -49.05269622802734
v  -0.493800014257431 103.1940002441406 -49.6885986328125
v  -0.493800014257431 70.25360107421875 7.530197143554688
v  0.493800014257431 69.19550323486328 6.894402027130127
v  0.493800014257431 104.2520980834961 -49.05269622802734
v  0.493800014257431 70.25360107421875 7.530197143554688
v  0.493800014257431 103.1940002441406 -49.68849945068359
v  0.493800014257431 75.20850372314453 9.185401916503906
v  0.493800014257431 109.0378036499023 -49.51290130615234
v  0.493800014257431 110.0960006713867 -48.87709808349609
v  0.493800014257431 74.15039825439453 8.549598693847656
v  -0.493800014257431 75.20850372314453 9.185401916503906
v  -0.493800014257431 109.0378036499023 -49.51290130615234
v  -0.493800014257431 74.15039825439453 8.549598693847656
v  -0.493800014257431 110.0960006713867 -48.87709808349609
v  0.9154999852180481 71.77559661865234 13.51820373535156
v  -0.9154999852180481 66.64800262451172 9.185096740722656
v  0.9154999852180481 66.64800262451172 9.185096740722656
v  -0.9154999852180481 71.77559661865234 13.51820373535156
v  -0.9154999852180481 76.10880279541016 8.390602111816406
v  -0.9154999852180481 70.981201171875 4.057404041290283
v  0.9154999852180481 76.10880279541016 8.390602111816406
v  0.9154999852180481 70.981201171875 4.057404041290283
v  -0.493800014257431 72.95690155029297 10.53489685058594
v  -0.493800014257431 8.00360107421875 -1.302695989608765
v  -0.493800014257431 72.71289825439453 11.74500274658203
v  -0.493800014257431 8.247600555419922 -2.512802124023438
v  0.493800014257431 72.95690155029297 10.53489685058594
v  0.493800014257431 8.00360107421875 -1.302695989608765
v  0.493800014257431 8.247600555419922 -2.512802124023438
v  0.493800014257431 72.71289825439453 11.74500274658203
v  0.493800014257431 72.17720031738281 7.593596935272217
v  0.493800014257431 7.711901187896729 -6.664199829101562
v  0.493800014257431 72.42120361328125 6.383499145507812
v  0.493800014257431 7.467898845672607 -5.454102039337158
v  -0.493800014257431 72.17720031738281 7.593596935272217
v  -0.493800014257431 7.711901187896729 -6.664199829101562
v  -0.493800014257431 7.467898845672607 -5.454102039337158
v  -0.493800014257431 72.42120361328125 6.383499145507812
v  -0.9372000098228455 8.235599517822266 -0.009597999975085258
v  -0.9372000098228455 2.580600023269653 -7.957602977752686
v  -0.9372000098228455 2.580699920654297 -3.877197027206421
v  -0.9372000098228455 16.94470024108887 -6.673798084259033
v  -0.9372000098228455 15.22819900512695 -9.0968017578125
v  -2.810800075531006 0 2.832099914550781
v  -0.9372000098228455 8.235599517822266 -4.068497180938721
v  -2.810800075531006 0 -4.243796825408936
v  0.9372000098228455 2.580600023269653 -7.957602977752686
v  0.9372000098228455 2.580699920654297 -3.877197027206421
v  0.9372000098228455 15.22819900512695 -9.0968017578125
v  0.9372000098228455 16.94470024108887 -6.673798084259033
v  0.9372000098228455 8.235599517822266 -4.068497180938721
v  2.810800075531006 0 -4.243796825408936
v  2.810800075531006 0 2.832099914550781
v  0.9372000098228455 8.235599517822266 -0.009597999975085258
v  0 109.7341766357422 -64.67691802978516
v  2.081599950790405 105.1158142089844 -69.32956695556641
v  0 105.4196166992188 -69.79739379882812
v  1.921499967575073 109.1299819946289 -63.74649047851562
v  3.605499982833862 104.2858734130859 -68.051513671875
v  1.802700042724609 103.1068878173828 -70.05825805664062
v  3.122400045394897 102.3881378173828 -68.95149230957031
v  4.163300037384033 103.1521301269531 -66.30576324462891
v  3.605499982833862 101.4062805175781 -67.43952941894531
v  1.921499967575073 107.921516418457 -61.88567352294922
v  3.605499982833862 102.0184097290039 -64.55996704101562
v  3.122400045394897 100.4244537353516 -65.92765045166016
v  2.081599950790405 101.1884231567383 -63.28192138671875
v  0 107.3172912597656 -60.95524978637695
v  1.802700042724609 99.7056884765625 -64.82085418701172
v  0 100.884635925293 -62.81411743164062
v  0 103.3699722290039 -70.46335601806641
v  0 99.44255828857422 -64.41568756103516
v  -2.081599950790405 101.1884231567383 -63.28192138671875
v  -1.921499967575073 107.921516418457 -61.88567352294922
v  -3.605499982833862 102.0184097290039 -64.55996704101562
v  -1.802700042724609 99.7056884765625 -64.82085418701172
v  -3.122400045394897 100.4244537353516 -65.92765045166016
v  -4.163300037384033 103.1521301269531 -66.30576324462891
v  -3.605499982833862 101.4062805175781 -67.43952941894531
v  -1.802700042724609 99.56143951416016 -67.39653015136719
v  -2.081599950790405 100.1283111572266 -68.26942443847656
v  -3.122400045394897 102.3881378173828 -68.95149230957031
v  -1.802700042724609 100.6951675415039 -69.14232635498047
v  0 99.66049957275391 -68.57323455810547
v  -1.040799975395203 99.14647674560547 -66.75756072998047
v  0 98.99459075927734 -66.52366638183594
v  1.040799975395203 99.14647674560547 -66.75756072998047
v  1.802700042724609 99.56143951416016 -67.39653015136719
v  2.081599950790405 100.1283111572266 -68.26942443847656
v  1.802700042724609 100.6951675415039 -69.14232635498047
v  1.040799975395203 101.1101913452148 -69.78139495849609
v  0 101.2620315551758 -70.01522827148438
v  -1.040799975395203 101.1101913452148 -69.78139495849609
v  -1.802700042724609 103.1068878173828 -70.05825805664062
v  -3.605499982833862 104.2858734130859 -68.051513671875
v  -1.921499967575073 109.1299819946289 -63.74649047851562
v  -2.081599950790405 105.1158142089844 -69.32956695556641

# 209 UV coordinates
vt 0.4361000061035156 0.6365000009536743 0
vt 0.51910001039505 0.7361999750137329 0
vt 0.6294999718666077 0.6123999953269958 0
vt 0.6171000003814697 0.7330999970436096 0
vt 0.5595999956130981 0.607699990272522 0
vt 0.3790000081062317 0.6761000156402588 0
vt 0.4287000000476837 0.3658999800682068 0
vt 0.7006000280380249 0.5255999565124512 0
vt 0.3950999975204468 0.4388999938964844 0
vt 0.4753000140190125 0.301800012588501 0
vt 0.5430999994277954 0.2534999847412109 0
vt 0.6159999966621399 0.2204999923706055 0
vt 0.6991999745368958 0.2099999785423279 0
vt 0.7786999940872192 0.2192999720573425 0
vt 0.8539999723434448 0.2483999729156494 0
vt 0.6516000032424927 0.9126999974250793 0
vt 0.6983000040054321 0.8485000133514404 0
vt 0.6854000091552734 0.8881999850273132 0
vt 0.6100000143051147 0.9126999974250793 0
vt 0.6854000091552734 0.808899998664856 0
vt 0.576200008392334 0.8881999850273132 0
vt 0.6516000032424927 0.7843999862670898 0
vt 0.5633000135421753 0.8485000133514404 0
vt 0.6100000143051147 0.7843999862670898 0
vt 0.576200008392334 0.808899998664856 0
vt 0.517799973487854 0.2085999846458435 0
vt 0.4519000053405762 0.01330000162124634 0
vt 0.4961999952793121 0.007899999618530273 0
vt 0.5555999875068665 0.2056000232696533 0
vt 0.542900025844574 0.003899991512298584 0
vt 0.4781999886035919 0.2145000100135803 0
vt 0.4070999920368195 0.01929998397827148 0
vt 0.4395999908447266 0.2196000218391418 0
vt 0.5954999923706055 0.2031000256538391 0
vt 0.5889999866485596 0.003300011157989502 0
vt 0.6353999972343445 0.2031000256538391 0
vt 0.6351000070571899 0.002499997615814209 0
vt 0.6807000041007996 0.002300024032592773 0
vt 0.6740000247955322 0.2034000158309937 0
vt 0.7282000184059143 0.003300011157989502 0
vt 0.7128000259399414 0.205299973487854 0
vt 0.7728000283241272 0.00709998607635498 0
vt 0.7522000074386597 0.2091000080108643 0
vt 0.8197000026702881 0.0131000280380249 0
vt 0.7921000123023987 0.2145000100135803 0
vt 0.8575000166893005 0.01980000734329224 0
vt 0.8305000066757202 0.2196000218391418 0
vt 0.3052999973297119 0.779699981212616 0
vt 0.4327000081539154 0.8008999824523926 0
vt 0.3407000005245209 0.7245000004768372 0
vt 0.2660000026226044 0.6712999939918518 0
vt 0.4668999910354614 0.7597000002861023 0
vt 0.3181999921798706 0.6024999618530273 0
vt 0.4079999923706055 0.8510000109672546 0
vt 0.2202000021934509 0.7455999851226807 0
vt 0.2851000130176544 0.8464999794960022 0
vt 0.2845999896526337 0.9121999740600586 0
vt 0.4049000144004822 0.8968999981880188 0
vt 0.1934999972581863 0.8263999819755554 0
vt 0.1918999999761581 0.9059000015258789 0
vt 0.3882000148296356 0.553600013256073 0
vt 0.4754000008106232 0.5228999853134155 0
vt 0.496399998664856 0.6168999671936035 0
vt 0.5595999956130981 0.5090999603271484 0
vt 0.5698000192642212 0.7279000282287598 0
vt 0.6442000269889832 0.5148000121116638 0
vt 0.6557000279426575 0.7569999694824219 0
vt 0.6898000240325928 0.6331999897956848 0
vt 0.7346000075340271 0.5436999797821045 0
vt 0.7445999979972839 0.6747000217437744 0
vt 0.8133999705314636 0.6040999889373779 0
vt 0.7871999740600586 0.727400004863739 0
vt 0.6894000172615051 0.7960000038146973 0
vt 0.8686000108718872 0.6764000058174133 0
vt 0.9061999917030334 0.7549999952316284 0
vt 0.8129000067710876 0.7886999845504761 0
vt 0.7070000171661377 0.8463000059127808 0
vt 0.9236999750137329 0.836400032043457 0
vt 0.826200008392334 0.8522000312805176 0
vt 0.8270000219345093 0.9143999814987183 0
vt 0.7096999883651733 0.8902999758720398 0
vt 0.9257000088691711 0.9129999876022339 0
vt 0.8579000234603882 0.3154000043869019 0
vt 0.847599983215332 0.3051999807357788 0
vt 0.847599983215332 0.3154000043869019 0
vt 0.8579000234603882 0.3051999807357788 0
vt 0.8267999887466431 0.3154000043869019 0
vt 0.8371999859809875 0.3554999828338623 0
vt 0.8371999859809875 0.3154000043869019 0
vt 0.8267999887466431 0.3554999828338623 0
vt 0.847599983215332 0.3554999828338623 0
vt 0.8579000234603882 0.3554999828338623 0
vt 0.8683000206947327 0.3554999828338623 0
vt 0.8683000206947327 0.3154000043869019 0
vt 0.8073999881744385 0.3867999911308289 0
vt 0.8698999881744385 0.3733999729156494 0
vt 0.8073999881744385 0.3733999729156494 0
vt 0.8698999881744385 0.3600000143051147 0
vt 0.8073999881744385 0.3600000143051147 0
vt 0.8698999881744385 0.3867999911308289 0
vt 0.8073999881744385 0.4000999927520752 0
vt 0.8698999881744385 0.4000999927520752 0
vt 0.8073999881744385 0.4135000109672546 0
vt 0.8698999881744385 0.4135000109672546 0
vt 0.7365999817848206 0.5059000253677368 0
vt 0.7677000164985657 0.5296000242233276 0
vt 0.7365000247955322 0.5327999591827393 0
vt 0.8579000234603882 0.5058000087738037 0
vt 0.814300000667572 0.5458999872207642 0
vt 0.8718000054359436 0.5403000116348267 0
vt 0.8046000003814697 0.5922000408172607 0
vt 0.7865999937057495 0.5758000016212463 0
vt 0.9266999959945679 0.7050999999046326 0
vt 0.9050999879837036 0.7461000084877014 0
vt 0.9266999959945679 0.7461000084877014 0
vt 0.9050999879837036 0.7050999999046326 0
vt 0.9266999959945679 0.3133000135421753 0
vt 0.9050999879837036 0.4041000008583069 0
vt 0.9266999959945679 0.4041000008583069 0
vt 0.9050999879837036 0.4297000169754028 0
vt 0.9266999959945679 0.4297000169754028 0
vt 0.9050999879837036 0.3133000135421753 0
vt 0.9266999959945679 0.4726999998092651 0
vt 0.9050999879837036 0.4726999998092651 0
vt 0.9266999959945679 0.5234000086784363 0
vt 0.9050999879837036 0.5234000086784363 0
vt 0.9266999959945679 0.5586000084877014 0
vt 0.9050999879837036 0.5586000084877014 0
vt 0.9266999959945679 0.5859000086784363 0
vt 0.9050999879837036 0.5859000086784363 0
vt 0.9495000243186951 0.9390000104904175 0
vt 0.9300000071525574 0.003000020980834961 0
vt 0.9495000243186951 0.003000020980834961 0
vt 0.9300000071525574 0.9390000104904175 0
vt 0.9642000198364258 0.9390000104904175 0
vt 0.9836999773979187 0.003000020980834961 0
vt 0.9836999773979187 0.9390000104904175 0
vt 0.9642000198364258 0.003000020980834961 0
vt 0.9983999729156494 0.003000020980834961 0
vt 0.9983999729156494 0.9390000104904175 0
vt 0.7667999863624573 0.4980000257492065 0
vt 0.7864999771118164 0.4154000282287598 0
vt 0.7667999863624573 0.4154000282287598 0
vt 0.7865999937057495 0.4980999827384949 0
vt 0.8687999844551086 0.4153000116348267 0
vt 0.8686000108718872 0.498199999332428 0
vt 0.4528000056743622 0.4652000069618225 0
vt 0.436599999666214 0.5259000062942505 0
vt 0.4273999929428101 0.5011999607086182 0
vt 0.5203999876976013 0.4857000112533569 0
vt 0.515500009059906 0.5041999816894531 0
vt 0.396699994802475 0.4666000008583069 0
vt 0.4620000123977661 0.4896000027656555 0
vt 0.4126999974250793 0.5092999935150146 0
vt 0.8689000010490417 0.632099986076355 0
vt 0.84170001745224 0.5769000053405762 0
vt 0.84170001745224 0.632099986076355 0
vt 0.8689000010490417 0.5769000053405762 0
vt 0.8992000222206116 0.6769999861717224 0
vt 0.8737999796867371 0.5097000002861023 0
vt 0.8737000226974487 0.6769999861717224 0
vt 0.8992000222206116 0.5097000002861023 0
vt 0.8741999864578247 0.4700999855995178 0
vt 0.8992999792098999 0.4700000286102295 0
vt 0.9002000093460083 0.01099997758865356 0
vt 0.8743000030517578 0.01099997758865356 0
vt 0.8460000157356262 0.1186000108718872 0
vt 0.927299976348877 0.1186000108718872 0
vt 0.9275000095367432 0.2141000032424927 0
vt 0.8460000157356262 0.2142000198364258 0
vt 0.8741000294685364 0.3312000036239624 0
vt 0.8991000056266785 0.3312000036239624 0
vt 0.333299994468689 0.3352000117301941 0
vt 0.3260999917984009 0.2555000185966492 0
vt 0.3003000020980835 0.2479000091552734 0
vt 0.3659000098705292 0.345300018787384 0
vt 0.3537000119686127 0.2609999775886536 0
vt 0.338699996471405 0.2092000246047974 0
vt 0.3567000031471252 0.2271999716758728 0
vt 0.3815000057220459 0.2621999979019165 0
vt 0.3813000023365021 0.2343000173568726 0
vt 0.3964999914169312 0.3440999984741211 0
vt 0.4083999991416931 0.2601000070571899 0
vt 0.4063000082969666 0.2267000079154968 0
vt 0.4366999864578247 0.2541999816894531 0
vt 0.4282999932765961 0.3335000276565552 0
vt 0.423799991607666 0.2092000246047974 0
vt 0.4629999995231628 0.2440999746322632 0
vt 0.3321999907493591 0.1845999956130981 0
vt 0.4417999982833862 0.2282999753952026 0
vt 0.3671000003814697 0.2095999717712402 0
vt 0.3813000023365021 0.2134000062942505 0
vt 0.3955000042915344 0.2095999717712402 0
vt 0.3813000023365021 0.1851000189781189 0
vt 0.3567000031471252 0.1991999745368958 0
vt 0.3528999984264374 0.1850000023841858 0
vt 0.338699996471405 0.160099983215332 0
vt 0.3567000031471252 0.1707999706268311 0
vt 0.3567000031471252 0.1420999765396118 0
vt 0.3671000003814697 0.1603999733924866 0
vt 0.3813000023365021 0.1355000138282776 0
vt 0.3813000023365021 0.1565999984741211 0
vt 0.4058000147342682 0.1420999765396118 0
vt 0.3955000042915344 0.1603999733924866 0
vt 0.423799991607666 0.160099983215332 0
vt 0.4058000147342682 0.1707999706268311 0
vt 0.430400013923645 0.1845999956130981 0
vt 0.4095999896526337 0.1850000023841858 0
vt 0.4058000147342682 0.1991999745368958 0

# 188 vertex normals
vn -0.6486520171165466 0.7603520154953003 0.03341300040483475
vn -0.5001109838485718 0.7472929954528809 -0.4375399947166443
vn 0.2006720006465912 0.9460539817810059 -0.2543880045413971
vn 0.5001109838485718 0.7472929954528809 -0.4375399947166443
vn 0.04369800165295601 0.872285008430481 -0.4870420098304749
vn 0.482015997171402 0.7658830285072327 -0.4255400002002716
vn -0.8511809706687927 0.5221610069274902 0.0532820001244545
vn -0.6473510265350342 0.6940730214118958 -0.3149600028991699
vn 0.3527980148792267 -0.5820969939231873 -0.7325959801673889
vn 0 -1 0
vn 0 -0.5821080207824707 -0.8131110072135925
vn 0.6356989741325378 -0.5820990204811096 -0.5069990158081055
vn 0.7927619814872742 -0.5820720195770264 -0.1808910071849823
vn 0.7927619814872742 -0.5820720195770264 0.1808910071849823
vn 0.6356989741325378 -0.5820990204811096 0.5069990158081055
vn 0.3527980148792267 -0.5820969939231873 0.7325959801673889
vn 0 -0.5821080207824707 0.8131110072135925
vn -0.3527980148792267 -0.5820969939231873 -0.7325959801673889
vn -0.6356989741325378 -0.5820990204811096 -0.5069990158081055
vn -0.7927619814872742 -0.5820720195770264 -0.1808910071849823
vn -0.7927619814872742 -0.5820720195770264 0.1808910071849823
vn -0.6356989741325378 -0.5820990204811096 0.5069990158081055
vn -0.3527980148792267 -0.5820969939231873 0.7325959801673889
vn -3.999999989900971e-06 0.838674008846283 0.5446339845657349
vn -1.999999994950485e-06 0.8386719822883606 0.5446360111236572
vn -7.000000096013537e-06 0.8386759757995605 0.5446310043334961
vn 9.999999974752427e-07 0.8386710286140442 0.544638991355896
vn 9.999999974752427e-07 0.8386710286140442 0.5446379780769348
vn -3.000000106112566e-06 0.838674008846283 0.5446339845657349
vn -9.999999974752427e-07 0.838674008846283 0.5446339845657349
vn 4.999999873689376e-06 0.8386710286140442 0.544638991355896
vn 1.100000008591451e-05 0.8386679887771606 0.5446439981460571
vn 1.700000029813964e-05 0.8386639952659607 0.5446500182151794
vn 0.9108960032463074 -0.177033007144928 0.3727299869060516
vn 0.5349149703979492 -0.03208800032734871 0.8442969918251038
vn 0.8879510164260864 0.1896239966154099 0.4190300107002258
vn 0.9773439764976501 0.1571179926395416 -0.1418209969997406
vn 0.8483039736747742 0.5291690230369568 -0.01897799968719482
vn 0.4965150058269501 -0.4260919988155365 0.7562530040740967
vn 0 -0.2978129982948303 0.9546239972114563
vn 0 -0.4978139996528625 0.8672839999198914
vn 0.6704760193824768 0.4487249851226807 -0.5908529758453369
vn 0 0.589821994304657 -0.8075330257415771
vn 0 0.8869829773902893 -0.4618020057678223
vn -0.6704760193824768 0.4487249851226807 -0.5908529758453369
vn -0.8483039736747742 0.5291690230369568 -0.01897799968719482
vn -0.9773439764976501 0.1571179926395416 -0.1418209969997406
vn -0.8879510164260864 0.1896239966154099 0.4190300107002258
vn -0.9108960032463074 -0.177033007144928 0.3727299869060516
vn -0.5349149703979492 -0.03208800032734871 0.8442969918251038
vn -0.4965150058269501 -0.4260919988155365 0.7562530040740967
vn -0.7021639943122864 0.1441570073366165 0.6972690224647522
vn -0.8555610179901123 0.3505190014839172 0.3809869885444641
vn -0.9027810096740723 0.1218210011720657 0.4124870002269745
vn -0.9346889853477478 0.3502349853515625 0.06076199933886528
vn -0.6920660138130188 -0.07643099874258041 0.7177760004997253
vn -0.4231820106506348 -0.0290329996496439 0.9055799841880798
vn -0.03136299923062325 -0.01757699996232986 0.9993540048599243
vn -0.3442800045013428 -0.2052630037069321 0.9161540269851685
vn 0.07169599831104279 -0.2391469925642014 0.9683330059051514
vn -0.781466007232666 0.5635820031166077 -0.2677429914474487
vn -0.4734660089015961 0.7195820212364197 -0.507968008518219
vn -0.3267540037631989 0.8565869927406311 -0.3993630111217499
vn -0.0716949999332428 0.7873460054397583 -0.6123279929161072
vn 0.3442730009555817 0.7534639835357666 -0.5601500272750854
vn 0.7021629810333252 0.695622980594635 -0.1519059985876083
vn 0.6920639872550964 0.6246399879455566 -0.3617630004882812
vn 0.8706769943237305 0.4757699966430664 0.1247569993138313
vn 0.9027799963951111 0.4263780117034912 -0.05648000165820122
vn 0.8411200046539307 0.3125309944152832 0.4414089918136597
vn 0.9346889853477478 0.1979590058326721 0.2952420115470886
vn 0.7814689874649048 -0.01537400018423796 0.6237540245056152
vn 0.6571199893951416 0.113256998360157 0.7452290058135986
vn 0.4734709858894348 -0.1713770031929016 0.863976001739502
vn 0.3444240093231201 -0.04970499873161316 0.9374970197677612
vn 0.2356690019369125 0.1739539951086044 0.956138014793396
vn -0.2356960028409958 0.9442300200462341 -0.2299479991197586
vn -0.8659960031509399 0.185140997171402 0.4645150005817413
vn 0.8660209774971008 0.4996170103549957 -0.01974000036716461
vn -0.9486870169639587 0.1722230017185211 -0.2652040123939514
vn 0.3162229955196381 0.5166869759559631 -0.795635998249054
vn -0.3161680102348328 -0.5166969895362854 0.7956519722938538
vn 0.9486590027809143 -0.1722690016031265 0.2652739882469177
vn 0.9486799836158752 0.2652190029621124 0.1722330003976822
vn 0.316224992275238 0.795635998249054 0.5166869759559631
vn -0.3162220120429993 0.795635998249054 0.5166879892349243
vn -0.9486799836158752 0.2652190029621124 0.1722330003976822
vn -0.9486870169639587 -0.2652019858360291 -0.1722230017185211
vn 0.9486879706382751 -0.2651990056037903 -0.1722220033407211
vn 0.3162359893321991 -0.7956309914588928 -0.5166869759559631
vn -0.3162359893321991 -0.7956309914588928 -0.5166869759559631
vn -1 0 0
vn -0.8320500254631042 -0.1590930074453354 -0.5313959717750549
vn -0.8944270014762878 -0.128264993429184 -0.4284250140190125
vn 1 0 0
vn 0.9486830234527588 -0.09069699794054031 -0.3029420077800751
vn 0.7071070075035095 -0.2028039991855621 -0.6773999929428101
vn 0 -0.9998949766159058 0.01449400000274181
vn 0 -0.9045630097389221 0.4263409972190857
vn 0 -0.5510900020599365 0.8344460129737854
vn 0 -0.1570670008659363 0.9875879883766174
vn 0 0.783490002155304 0.6214039921760559
vn 0 0.9887189865112305 0.1497830003499985
vn 1.700000029813964e-05 -0.04147500172257423 0.9991400241851807
vn 2.800000038405415e-05 -0.6473519802093506 0.7621909976005554
vn 2.800000038405415e-05 -0.7509790062904358 0.6603260040283203
vn 2.499999936844688e-05 -0.8371130228042603 0.547029972076416
vn 0 -0.8371210098266602 0.547016978263855
vn 0 0.9654979705810547 -0.2604100108146667
vn 0 0.7830430269241333 -0.6219670176506042
vn 0 0.9701910018920898 0.2423419952392578
vn 0 0.7945169806480408 0.6072419881820679
vn 0 0.8571670055389404 0.5150390267372131
vn 2.599999970698263e-05 -0.8571670055389404 -0.515038013458252
vn 5.199999941396527e-05 -0.8571670055389404 -0.515038013458252
vn 0 -0.8571670055389404 -0.5150390267372131
vn 0 -0.8571680188179016 -0.5150370001792908
vn 0 0.8571670055389404 0.515038013458252
vn 0.4082469940185547 -0.2151930034160614 0.8871449828147888
vn -0.6666669845581055 -0.684902012348175 0.294048011302948
vn 0.6666669845581055 -0.7243509888648987 -0.1757030040025711
vn -0.4082469940185547 0.3601270020008087 0.8388339877128601
vn -0.6666669845581055 0.6849049925804138 -0.2940419912338257
vn -0.4082489907741547 -0.3601320087909698 -0.8388310074806213
vn 0.6666669845581055 0.7243490219116211 0.175709992647171
vn 0.4082489907741547 0.2151979953050613 -0.8871430158615112
vn 0 0.1976580023765564 -0.9802709817886353
vn 0 -0.1976580023765564 0.9802709817886353
vn -0.9329100251197815 0.2601189911365509 0.2490310072898865
vn -0.9486830234527588 -0.3162280023097992 7.999999979801942e-06
vn -0.4472140073776245 -0.8944270014762878 2.200000017182902e-05
vn -0.7071070075035095 0.4297069907188416 0.5615620017051697
vn -0.9750850200653076 0.2218320071697235 0
vn 0 -1 2.499999936844688e-05
vn 0 -0.08970899879932404 -0.9959679841995239
vn 0 0.815991997718811 -0.5780640244483948
vn 0 0.02128100022673607 -0.9997739791870117
vn 0.8705000281333923 0.2075379937887192 -0.4462699890136719
vn 0.3455809950828552 -0.6151189804077148 -0.7086619734764099
vn 0 -0.6995419859886169 -0.7145910263061523
vn 0 -0.5804399847984314 0.8143029808998108
vn 0.8948240280151367 -0.1056059971451759 0.4337489902973175
vn 0.8191829919815063 0.2407059967517853 0.5205770134925842
vn 0 0.3261789977550507 0.9453080296516418
vn 0 0.6076970100402832 0.794169008731842
vn 0 0.7914360165596008 -0.6112520098686218
vn 0.5380229949951172 0.4799970090389252 -0.6929169893264771
vn 0.05365699902176857 0.5094519853591919 -0.8588250279426575
vn 0.8172529935836792 0.5344550013542175 -0.2155340015888214
vn 0.8908889889717102 0.212446004152298 -0.4014770090579987
vn 0.4226250052452087 -0.009665000252425671 -0.9062529802322388
vn 0.7433840036392212 -0.1798280030488968 -0.6442369818687439
vn 0.9986850023269653 -0.003227999899536371 0.0511620007455349
vn 0.8649669885635376 -0.4145559966564178 -0.2827990055084229
vn 0.8172540068626404 0.02048400044441223 0.5759130120277405
vn 0.8372349739074707 -0.3309809863567352 0.4353030025959015
vn 0.7547780275344849 -0.6509339809417725 0.08120500296354294
vn 0.4606769979000092 -0.462114006280899 0.757777988910675
vn 0 -0.2364989966154099 0.9716320037841797
vn 0.4423640072345734 -0.8256329894065857 0.3502070009708405
vn -0.05366500094532967 -0.5773670077323914 0.814719021320343
vn -0.01140599977225065 0.05034299939870834 -0.9986670017242432
vn 0.01139600016176701 -0.8918560147285461 0.4521749913692474
vn -0.5380240082740784 -0.4377939999103546 0.7203239798545837
vn -0.8172540068626404 0.02048400044441223 0.5759130120277405
vn -0.8908889889717102 -0.280366986989975 0.3573670089244843
vn -0.4226329922676086 -0.8318340182304382 0.3597699999809265
vn -0.74338299036026 -0.6616849899291992 0.09775099903345108
vn -0.9986850023269653 0.04542699828743935 -0.02375500090420246
vn -0.86496502161026 -0.4269739985466003 -0.2636849880218506
vn -0.4512949883937836 -0.8695679903030396 -0.2004580050706863
vn -0.5435649752616882 -0.7243899703025818 -0.4240230023860931
vn -0.7547820210456848 -0.1905789971351624 -0.6276819705963135
vn -0.4901970028877258 -0.5735329985618591 -0.656328022480011
vn 0 -0.8386719822883606 -0.5446370244026184
vn -0.2380950003862381 -0.9701730012893677 -0.04554900154471397
vn 0.03891599923372269 -0.9992420077323914 -0.0007919999770820141
vn 0.3054839968681335 -0.9489830136299133 -0.07817099988460541
vn 0.4901979863643646 -0.8328679800033569 -0.256976991891861
vn 0.5435630083084106 -0.6820060014724731 -0.4892930090427399
vn 0.4512940049171448 -0.5368229746818542 -0.7128490209579468
vn 0.238087996840477 -0.4362179934978485 -0.8677719831466675
vn -0.03890899941325188 -0.4071460068225861 -0.9125339984893799
vn -0.3054760098457336 -0.457410991191864 -0.8351410031318665
vn -0.4423460066318512 -0.01586000062525272 -0.8967040181159973
vn -0.8372319936752319 0.2630650103092194 -0.4794160127639771
vn -0.8172529935836792 0.5344550013542175 -0.2155340015888214
vn -0.4606710076332092 0.5043169856071472 -0.7303739786148071

# Mesh 'classname_mesh' with 4 faces
g classname_mesh
usemtl _2_office_lamps_dif
l  1/1 2/2
l  3/3 4/4
l  5/5 3/3
l  6/6 1/1

# Mesh 'classname_mesh' with 286 faces
g classname_mesh
usemtl _2_office_lamps_dif
f  7/7/9 8/8/10 9/9/11
f  10/10/12 8/8/10 7/7/9
f  11/11/13 8/8/10 10/10/12
f  12/12/14 8/8/10 11/11/13
f  13/13/15 8/8/10 12/12/14
f  14/14/16 8/8/10 13/13/15
f  15/15/17 8/8/10 14/14/16
f  16/7/18 9/9/11 8/8/10
f  17/10/19 16/7/18 8/8/10
f  18/11/20 17/10/19 8/8/10
f  19/12/21 18/11/20 8/8/10
f  20/13/22 19/12/21 8/8/10
f  21/14/23 20/13/22 8/8/10
f  15/15/17 21/14/23 8/8/10
f  22/16/24 23/17/25 24/18/26
f  22/16/24 25/19/27 23/17/25
f  26/20/28 23/17/25 25/19/27
f  26/20/28 25/19/27 27/21/29
f  28/22/30 26/20/28 27/21/29
f  28/22/30 27/21/29 29/23/31
f  30/24/32 28/22/30 29/23/31
f  30/24/32 29/23/31 31/25/33
f  22/26/34 32/27/35 33/28/36
f  25/29/37 33/28/36 34/30/38
f  25/29/37 22/26/34 33/28/36
f  22/26/34 24/31/39 32/27/35
f  24/31/39 35/32/40 32/27/35
f  24/31/39 23/33/41 35/32/40
f  27/34/42 25/29/37 34/30/38
f  27/34/42 34/30/38 4/35/4
f  29/36/43 27/34/42 4/35/4
f  29/36/43 4/35/4 36/37/44
f  2/38/2 29/36/43 36/37/44
f  2/38/2 31/39/45 29/36/43
f  37/40/46 31/39/45 2/38/2
f  37/40/46 30/41/47 31/39/45
f  38/42/48 30/41/47 37/40/46
f  38/42/48 28/43/49 30/41/47
f  39/44/50 28/43/49 38/42/48
f  39/44/50 26/45/51 28/43/49
f  35/46/40 26/45/51 39/44/50
f  35/46/40 23/47/41 26/45/51
f  40/48/52 38/49/48 41/50/53
f  11/51/54 40/48/52 41/50/53
f  41/50/53 37/52/46 6/6/7
f  41/50/53 38/49/48 37/52/46
f  12/53/55 41/50/53 6/6/7
f  12/53/55 11/51/54 41/50/53
f  40/48/52 39/54/50 38/49/48
f  10/55/56 42/56/57 40/48/52
f  11/51/54 10/55/56 40/48/52
f  39/54/50 40/48/52 42/56/57
f  39/54/50 43/57/58 35/58/40
f  39/54/50 42/56/57 43/57/58
f  7/59/59 43/57/58 42/56/57
f  10/55/56 7/59/59 42/56/57
f  7/59/59 9/60/60 43/57/58
f  13/61/61 12/53/55 6/6/7
f  13/61/61 6/6/7 1/1/8
f  14/62/62 13/61/61 1/1/8
f  14/62/62 1/1/8 44/63/63
f  1/1/8 2/2/2 44/63/63
f  15/64/64 14/62/62 44/63/63
f  44/63/63 36/65/44 5/5/5
f  44/63/63 2/2/2 36/65/44
f  15/64/64 44/63/63 5/5/5
f  2/2/2 1/1/1 37/52/46
f  6/6/7 37/52/46 1/1/1
f  21/66/65 15/64/64 5/5/5
f  21/66/65 5/5/5 3/3/6
f  5/5/5 36/65/44 3/3/3
f  4/4/4 3/3/3 36/65/44
f  34/67/38 45/68/66 4/4/4
f  3/3/6 4/4/4 45/68/66
f  20/69/67 3/3/6 45/68/66
f  20/69/67 21/66/65 3/3/6
f  34/67/38 46/70/68 45/68/66
f  19/71/69 45/68/66 46/70/68
f  19/71/69 20/69/67 45/68/66
f  47/72/70 34/67/38 33/73/36
f  47/72/70 46/70/68 34/67/38
f  18/74/71 46/70/68 47/72/70
f  18/74/71 19/71/69 46/70/68
f  17/75/72 47/72/70 48/76/73
f  17/75/72 18/74/71 47/72/70
f  33/73/36 48/76/73 47/72/70
f  33/73/36 32/77/35 48/76/73
f  16/78/74 48/76/73 49/79/75
f  16/78/74 17/75/72 48/76/73
f  32/77/35 49/79/75 48/76/73
f  43/80/58 32/77/35 35/81/40
f  43/80/58 49/79/75 32/77/35
f  9/82/60 49/79/75 43/80/58
f  9/82/60 16/78/74 49/79/75
f  50/83/76 51/84/77 52/85/78
f  50/83/76 53/86/79 51/84/77
f  51/87/77 54/88/80 52/89/78
f  51/87/77 55/90/81 54/88/80
f  52/89/78 54/88/80 56/91/82
f  52/89/78 56/91/82 50/85/76
f  50/85/76 56/91/82 57/92/83
f  53/83/79 57/92/83 55/93/81
f  50/85/76 57/92/83 53/83/79
f  53/83/79 55/93/81 51/94/77
f  58/95/84 59/96/85 60/97/86
f  60/97/86 61/98/87 62/99/88
f  60/97/86 59/96/85 61/98/87
f  58/95/84 63/100/89 59/96/85
f  64/101/90 63/100/89 58/95/84
f  64/101/90 65/102/91 63/100/89
f  62/103/88 65/102/91 64/101/90
f  62/103/88 61/104/87 65/102/91
f  66/105/92 67/106/92 68/107/92
f  66/105/92 69/108/93 67/106/92
f  70/109/92 67/106/92 69/108/93
f  70/109/92 69/108/93 71/110/94
f  70/109/92 72/111/92 73/112/92
f  70/109/92 71/110/94 72/111/92
f  74/106/95 75/105/95 76/107/95
f  74/106/95 77/108/96 75/105/95
f  77/108/96 74/106/95 78/109/95
f  77/108/96 78/109/95 79/110/97
f  80/111/95 78/109/95 81/112/95
f  80/111/95 79/110/97 78/109/95
f  69/113/93 79/114/97 71/115/94
f  69/113/93 77/116/96 79/114/97
f  71/117/98 80/118/99 72/119/100
f  72/119/100 81/120/101 73/121/101
f  72/119/100 80/118/99 81/120/101
f  71/117/98 79/122/98 80/118/99
f  70/123/102 81/120/103 78/124/104
f  67/125/105 78/124/104 74/126/106
f  67/125/105 70/123/102 78/124/104
f  70/123/102 73/121/103 81/120/103
f  68/127/107 67/125/105 74/126/106
f  68/127/107 74/126/106 76/128/108
f  66/129/109 77/116/110 69/113/110
f  66/129/109 75/130/111 77/116/110
f  68/127/112 75/130/111 66/129/109
f  68/127/112 76/128/112 75/130/111
f  82/131/92 83/132/92 84/133/92
f  82/131/92 85/134/92 83/132/92
f  86/135/95 87/136/95 88/137/95
f  86/135/95 89/138/95 87/136/95
f  88/137/113 83/139/113 85/140/113
f  88/137/113 87/136/113 83/139/113
f  89/138/114 82/131/114 84/133/115
f  89/138/114 86/135/116 82/131/114
f  90/131/95 91/132/95 92/133/95
f  90/131/95 93/134/95 91/132/95
f  94/135/92 95/136/92 96/137/92
f  94/135/92 97/138/92 95/136/92
f  96/137/117 91/139/117 93/140/117
f  96/137/117 95/136/117 91/139/117
f  97/138/118 90/131/118 92/133/118
f  97/138/118 94/135/118 90/131/118
f  98/141/119 99/142/120 100/143/121
f  98/141/119 101/144/122 99/142/120
f  99/145/120 102/144/123 103/142/124
f  99/145/120 101/146/122 102/144/123
f  104/144/125 100/145/121 105/142/126
f  104/144/125 98/146/119 100/145/121
f  100/141/121 103/142/124 105/143/126
f  100/141/121 99/144/120 103/142/124
f  105/141/126 102/142/123 104/143/125
f  105/141/126 103/144/124 102/142/123
f  104/141/125 101/142/122 98/143/119
f  104/141/125 102/144/123 101/142/122
f  106/132/92 107/131/92 108/133/92
f  106/132/92 109/134/92 107/131/92
f  110/136/95 111/135/95 112/137/95
f  110/136/95 113/138/95 111/135/95
f  106/139/127 112/137/127 109/140/127
f  106/139/127 110/136/127 112/137/127
f  107/131/128 113/138/128 108/133/128
f  107/131/128 111/135/128 113/138/128
f  114/132/95 115/131/95 116/133/95
f  114/132/95 117/134/95 115/131/95
f  118/136/92 119/135/92 120/137/92
f  118/136/92 121/138/92 119/135/92
f  114/139/128 120/137/128 117/140/128
f  114/139/128 118/136/128 120/137/128
f  115/131/127 121/138/127 116/133/127
f  115/131/127 119/135/127 121/138/127
f  122/147/129 123/148/130 124/149/131
f  125/150/132 123/148/130 122/147/129
f  125/150/132 126/151/92 123/148/130
f  127/152/133 122/147/129 128/153/133
f  127/152/133 128/153/133 129/154/133
f  124/155/131 130/156/134 131/157/134
f  124/155/131 123/158/130 130/156/134
f  123/159/135 132/160/135 130/161/135
f  123/159/135 126/162/135 132/160/135
f  126/162/136 133/163/136 132/160/136
f  126/162/136 125/164/136 133/163/136
f  128/165/137 134/166/138 135/167/139
f  135/167/139 129/168/140 128/165/137
f  127/169/141 135/167/139 136/170/142
f  127/169/141 129/168/140 135/167/139
f  137/171/143 127/169/141 136/170/142
f  137/171/143 122/172/144 127/169/141
f  125/164/132 137/171/145 133/163/145
f  125/164/132 122/172/129 137/171/145
f  137/147/143 131/149/95 130/148/95
f  130/148/95 133/150/95 137/147/143
f  130/148/95 132/151/95 133/150/95
f  134/153/138 137/147/143 136/152/142
f  134/153/138 136/152/142 135/154/139
f  138/173/146 139/174/147 140/175/148
f  138/173/146 141/176/149 139/174/147
f  141/176/149 142/177/150 139/174/147
f  143/178/151 140/175/148 139/174/147
f  144/179/152 139/174/147 142/177/150
f  144/179/152 143/178/151 139/174/147
f  141/176/149 145/180/153 142/177/150
f  146/181/154 142/177/150 145/180/153
f  146/181/154 144/179/152 142/177/150
f  141/176/149 147/182/155 145/180/153
f  147/182/155 148/183/156 145/180/153
f  149/184/157 145/180/153 148/183/156
f  149/184/157 146/181/154 145/180/153
f  147/182/155 150/185/158 148/183/156
f  147/182/155 151/186/159 150/185/158
f  152/187/160 148/183/156 150/185/158
f  152/187/160 149/184/157 148/183/156
f  151/186/159 153/188/161 150/185/158
f  143/178/151 154/189/162 140/175/148
f  155/190/163 150/185/158 153/188/161
f  155/190/163 152/187/160 150/185/158
f  151/173/159 156/174/164 153/175/161
f  151/173/159 157/176/165 156/174/164
f  157/176/165 158/177/166 156/174/164
f  159/178/167 153/175/161 156/174/164
f  160/179/168 156/174/164 158/177/166
f  160/179/168 159/178/167 156/174/164
f  157/176/165 161/180/169 158/177/166
f  162/181/170 158/177/166 161/180/169
f  162/181/170 160/179/168 158/177/166
f  163/191/171 159/178/167 160/179/168
f  164/192/172 160/179/168 162/181/170
f  164/192/172 163/191/171 160/179/168
f  165/184/173 162/181/170 161/180/169
f  166/193/174 162/181/170 165/184/173
f  166/193/174 164/192/172 162/181/170
f  167/194/175 163/191/171 164/192/172
f  167/194/175 164/192/172 166/193/174
f  163/191/171 168/195/176 159/178/167
f  167/194/175 168/195/176 163/191/171
f  168/195/176 155/189/163 159/178/167
f  168/195/176 169/196/177 155/189/163
f  167/194/175 169/196/177 168/195/176
f  169/196/177 152/197/160 155/189/163
f  169/196/177 170/198/178 152/197/160
f  167/194/175 170/198/178 169/196/177
f  170/198/178 149/199/157 152/197/160
f  170/198/178 171/200/179 149/199/157
f  167/194/175 171/200/179 170/198/178
f  171/200/179 146/201/154 149/199/157
f  171/200/179 172/202/180 146/201/154
f  167/194/175 172/202/180 171/200/179
f  172/202/180 144/203/152 146/201/154
f  172/202/180 173/204/181 144/203/152
f  167/194/175 173/204/181 172/202/180
f  173/204/181 143/205/151 144/203/152
f  173/204/181 174/206/182 143/205/151
f  167/194/175 174/206/182 173/204/181
f  174/206/182 154/207/162 143/205/151
f  174/206/182 175/208/183 154/207/162
f  167/194/175 175/208/183 174/206/182
f  167/194/175 166/193/174 176/209/184
f  167/194/175 176/209/184 175/208/183
f  175/208/183 177/187/185 154/207/162
f  175/208/183 176/209/184 177/187/185
f  176/209/184 165/184/173 177/187/185
f  176/209/184 166/193/174 165/184/173
f  165/184/173 161/180/169 178/183/186
f  177/187/185 165/184/173 178/183/186
f  179/182/187 178/183/186 161/180/169
f  179/182/187 180/185/188 178/183/186
f  177/187/185 178/183/186 180/185/188
f  157/176/165 179/182/187 161/180/169
f  179/182/187 138/186/146 180/185/188
f  138/186/146 140/188/148 180/185/188
f  159/178/167 155/189/163 153/175/161
f  154/190/162 180/185/188 140/188/148
f  154/190/162 177/187/185 180/185/188

