# Blender 4.2.3 LTS
# www.blender.org
mtllib monitor_checkpoint.mtl
o monitor_checkpoint
v -38.779392 -26.435638 -3.941648
v -39.197140 -25.991066 -3.941648
v 38.396160 -26.435635 -3.941646
v -38.779392 25.909752 -3.941645
v 38.813908 25.465187 -3.941641
v 38.813908 -25.991062 -3.941646
v -39.197140 25.465179 -3.941645
v 38.396160 25.909760 -3.941641
v 38.813908 25.465187 0.498674
v 38.813908 -25.991062 0.498671
v -38.779392 25.909752 0.498672
v 38.396160 25.909760 0.498674
v -39.197140 25.465179 0.498672
v -39.197140 -25.991066 0.498667
v -38.779392 -26.435638 0.498667
v 38.396160 -26.435635 0.498671
v 38.518513 25.595398 0.498674
v 36.843250 23.812584 0.498675
v 36.843250 -24.338451 0.498671
v 38.518513 -26.121273 0.498671
v -37.226482 23.812576 0.498671
v -38.901745 25.595390 0.498672
v -37.226482 -24.338455 0.498669
v -38.901745 -26.121277 0.498667
v 36.843250 23.812584 -0.661295
v 36.843250 -24.338451 -0.661299
v -37.226482 23.812576 -0.661299
v -37.226482 -24.338455 -0.661303
v 25.082315 -26.773964 0.791361
v 25.082315 -26.773964 0.053383
v 27.066961 -26.773964 0.791361
v 27.066961 -26.773964 0.053385
v 27.066961 -25.723351 0.053385
v 27.066961 -25.723351 0.791361
v 25.082315 -25.723351 0.791361
v 25.082315 -25.723351 0.053383
v 27.500074 -26.773964 0.791361
v 27.500074 -26.773964 0.053385
v 29.484724 -26.773968 0.791361
v 29.484724 -26.773968 0.053385
v 29.484724 -25.723351 0.053385
v 29.484724 -25.723351 0.791361
v 27.500074 -25.723351 0.791361
v 27.500074 -25.723351 0.053385
v 30.096043 -26.773968 0.791361
v 30.096043 -26.773968 0.053385
v 34.602913 -26.773968 0.791361
v 34.602913 -26.773968 0.053385
v 34.602913 -25.723351 0.053385
v 34.602913 -25.723351 0.791361
v 30.096043 -25.723351 0.791361
v 30.096043 -25.723351 0.053385
v -19.889238 -12.319242 -8.012933
v -19.889238 12.286498 -8.012931
v 19.506001 -12.319240 -8.012931
v 19.506004 12.286502 -8.012929
v 26.607244 -19.420494 -6.759943
v 26.607244 19.387726 -6.759941
v -26.990479 19.387718 -6.759943
v -26.990479 -19.420498 -6.759946
v 26.607244 19.387726 -3.720363
v 26.607244 -19.420494 -3.720366
v -26.990479 -19.420498 -3.720369
v -26.990479 19.387718 -3.720365
v 15.262419 10.331311 -15.583955
v 15.262417 10.331311 -8.012935
v 15.262417 -0.722531 -15.584106
v 15.262417 -0.722528 -8.013000
v 13.900776 -0.722531 -15.584106
v 13.900776 10.331311 -8.012935
v 13.900776 10.331311 -15.583955
v 13.900774 -0.722528 -8.013000
v -14.284014 10.331307 -15.583957
v -14.284014 10.331307 -8.012936
v -14.284014 -0.722531 -15.584106
v -14.284014 -0.722529 -8.013002
v -15.645658 -0.722531 -15.584106
v -15.645658 10.331307 -8.012936
v -15.645658 10.331307 -15.583957
v -15.645658 -0.722529 -8.013002
v -23.963036 13.325786 -15.583989
v -23.963036 -3.717025 -15.583988
v 23.579803 13.325786 -15.583987
v 23.579802 -3.717023 -15.583986
v 23.579803 13.325786 -16.918835
v -23.963036 -3.717026 -16.918835
v 23.579802 -3.717024 -16.918833
v -23.963036 13.325786 -16.918837
vn -0.0000 -0.0000 -1.0000
vn 1.0000 -0.0000 -0.0000
vn -0.0000 1.0000 -0.0000
vn -0.7287 0.6848 -0.0000
vn -0.7288 0.6848 -0.0000
vn -1.0000 -0.0000 -0.0000
vn -0.7288 -0.6848 -0.0000
vn -0.0000 -1.0000 -0.0000
vn -0.0000 -0.0000 1.0000
vn 0.7288 0.6848 -0.0000
vn 0.7287 0.6848 -0.0000
vn 0.7287 -0.6848 -0.0000
vn 0.7288 -0.6848 -0.0000
vn -0.0656 -0.0656 -0.9957
vn -0.0656 0.0656 -0.9957
vn 0.0656 -0.0656 -0.9957
vn 0.0656 0.0656 -0.9957
vn 0.0875 -0.0875 -0.9923
vn 0.0875 0.0875 -0.9923
vn -0.0875 0.0875 -0.9923
vn -0.0875 -0.0875 -0.9923
vt 0.545243 0.206059
vt 0.547774 0.208752
vt 0.077708 0.206059
vt 0.545243 0.523171
vt 0.075177 0.520478
vt 0.075177 0.208752
vt 0.547774 0.520478
vt 0.077708 0.523171
vt 0.666505 0.974022
vt 0.633502 0.974022
vt 0.666505 0.591571
vt 0.633502 0.591571
vt 0.666505 0.587037
vt 0.633502 0.587037
vt 0.666505 0.013426
vt 0.633502 0.013426
vt 0.633502 0.978556
vt 0.666505 0.978556
vt 0.717012 0.587027
vt 0.684009 0.587027
vt 0.717012 0.013416
vt 0.684009 0.013416
vt 0.605821 0.560701
vt 0.603569 0.561693
vt 0.605821 0.168530
vt 0.590801 0.548105
vt 0.590801 0.181125
vt 0.603569 0.167538
vt 0.602637 0.165142
vt 0.602637 0.564089
vt 0.026284 0.548105
vt 0.014449 0.564089
vt 0.013516 0.561693
vt 0.026284 0.181125
vt 0.011265 0.560701
vt 0.011265 0.168530
vt 0.013516 0.167538
vt 0.014449 0.165142
vt 0.693427 0.988719
vt 0.684586 0.988719
vt 0.693427 0.621739
vt 0.684586 0.621739
vt 0.729189 0.016674
vt 0.738030 0.016674
vt 0.729189 0.581191
vt 0.738030 0.581191
vt 0.684586 0.621738
vt 0.693427 0.621738
vt 0.926039 0.705238
vt 0.949150 0.705238
vt 0.926039 0.767394
vt 0.949150 0.767394
vt 0.949150 0.800297
vt 0.926039 0.800297
vt 0.926039 0.672335
vt 0.949150 0.672335
vt 0.870023 0.767394
vt 0.870023 0.705238
vt 0.893135 0.767394
vt 0.893135 0.705238
vt 0.982054 0.705238
vt 0.982054 0.767394
vt 0.946875 0.872414
vt 0.961166 0.872414
vt 0.946875 0.959687
vt 0.961166 0.959687
vt 0.961166 0.980032
vt 0.946875 0.980032
vt 0.946875 0.852069
vt 0.961166 0.852069
vt 0.912241 0.959687
vt 0.912241 0.872414
vt 0.926531 0.959687
vt 0.926531 0.872414
vt 0.981511 0.872414
vt 0.981511 0.959687
vt 0.939678 0.442234
vt 0.805029 0.442234
vt 0.939678 0.226654
vt 0.805029 0.226654
vt 0.978838 0.187494
vt 0.765870 0.187494
vt 0.765870 0.481394
vt 0.978838 0.481394
vt 0.766170 0.170561
vt 0.978538 0.170561
vt 0.978538 0.498327
vt 0.766170 0.498327
vt 0.748936 0.481094
vt 0.748936 0.187794
vt 0.995771 0.187794
vt 0.995771 0.481094
vt 0.765098 0.686855
vt 0.716214 0.686855
vt 0.765099 0.615483
vt 0.716214 0.615483
vt 0.765099 0.606691
vt 0.716214 0.695647
vt 0.765098 0.695647
vt 0.716214 0.767019
vt 0.765099 0.767019
vt 0.716214 0.606691
vt 0.769164 0.869729
vt 0.720279 0.869729
vt 0.769165 0.798357
vt 0.720280 0.798357
vt 0.769165 0.789565
vt 0.720279 0.878521
vt 0.769164 0.878521
vt 0.720280 0.949893
vt 0.769165 0.949893
vt 0.720280 0.789565
vt 0.028091 0.128531
vt 0.028091 0.022848
vt 0.322905 0.128531
vt 0.322905 0.022848
vt 0.322905 0.136808
vt 0.028091 0.014570
vt 0.322905 0.014570
vt 0.028091 0.136808
vt 0.331183 0.022848
vt 0.331183 0.128531
vt 0.019814 0.128531
vt 0.019814 0.022848
vt 1.000000 1.000000
vt 0.000000 1.000000
vt 1.000000 0.000000
vt 0.000000 0.000000
s 1
usemtl 01_-_Default.001
f 1/1/1 2/2/1 3/3/1
f 2/2/1 4/4/1 3/3/1
f 4/4/1 5/5/1 3/3/1
f 3/3/1 5/5/1 6/6/1
f 7/7/1 4/4/1 2/2/1
f 8/8/1 5/5/1 4/4/1
f 5/9/2 9/10/2 6/11/2
f 10/12/2 6/11/2 9/10/2
f 4/13/3 11/14/3 8/15/3
f 12/16/3 8/15/3 11/14/3
f 11/14/4 4/13/5 13/12/4
f 7/11/5 13/12/4 4/13/5
f 13/12/6 7/11/6 14/10/6
f 2/9/6 14/10/6 7/11/6
f 14/10/7 2/9/7 15/17/7
f 1/18/7 15/17/7 2/9/7
f 3/19/8 16/20/8 1/21/8
f 15/22/8 1/21/8 16/20/8
f 9/23/9 17/24/9 10/25/9
f 17/24/9 18/26/9 10/25/9
f 18/26/9 19/27/9 10/25/9
f 10/25/9 19/27/9 20/28/9
f 20/28/9 16/29/9 10/25/9
f 12/30/9 18/26/9 17/24/9
f 17/24/9 9/23/9 12/30/9
f 21/31/9 18/26/9 12/30/9
f 11/32/9 22/33/9 12/30/9
f 22/33/9 21/31/9 12/30/9
f 23/34/9 21/31/9 13/35/9
f 13/35/9 21/31/9 22/33/9
f 22/33/9 11/32/9 13/35/9
f 14/36/9 24/37/9 13/35/9
f 24/37/9 23/34/9 13/35/9
f 19/27/9 23/34/9 15/38/9
f 15/38/9 23/34/9 24/37/9
f 24/37/9 14/36/9 15/38/9
f 16/29/9 20/28/9 15/38/9
f 20/28/9 19/27/9 15/38/9
f 18/39/6 25/40/6 19/41/6
f 26/42/6 19/41/6 25/40/6
f 21/43/8 27/44/8 18/45/8
f 25/46/8 18/45/8 27/44/8
f 23/47/2 28/48/2 21/40/2
f 27/39/2 21/40/2 28/48/2
f 19/43/3 26/44/3 23/45/3
f 28/46/3 23/45/3 26/44/3
f 8/11/10 12/12/11 5/13/10
f 9/14/11 5/13/10 12/12/11
f 16/18/12 3/17/13 10/9/12
f 6/10/13 10/9/12 3/17/13
f 29/49/8 30/50/8 31/51/8
f 32/52/8 31/51/8 30/50/8
f 32/52/2 33/53/2 31/51/2
f 34/54/2 31/51/2 33/53/2
f 29/49/6 35/55/6 30/50/6
f 36/56/6 30/50/6 35/55/6
f 33/57/3 36/58/3 34/59/3
f 35/60/3 34/59/3 36/58/3
f 31/51/9 34/59/9 29/49/9
f 35/60/9 29/49/9 34/59/9
f 30/50/1 36/61/1 32/52/1
f 33/62/1 32/52/1 36/61/1
f 37/49/8 38/50/8 39/51/8
f 40/52/8 39/51/8 38/50/8
f 40/52/2 41/53/2 39/51/2
f 42/54/2 39/51/2 41/53/2
f 37/49/6 43/55/6 38/50/6
f 44/56/6 38/50/6 43/55/6
f 41/57/3 44/58/3 42/59/3
f 43/60/3 42/59/3 44/58/3
f 39/51/9 42/59/9 37/49/9
f 43/60/9 37/49/9 42/59/9
f 38/50/1 44/61/1 40/52/1
f 41/62/1 40/52/1 44/61/1
f 45/63/8 46/64/8 47/65/8
f 48/66/8 47/65/8 46/64/8
f 48/66/2 49/67/2 47/65/2
f 50/68/2 47/65/2 49/67/2
f 45/63/6 51/69/6 46/64/6
f 52/70/6 46/64/6 51/69/6
f 49/71/3 52/72/3 50/73/3
f 51/74/3 50/73/3 52/72/3
f 47/65/9 50/73/9 45/63/9
f 51/74/9 45/63/9 50/73/9
f 46/64/1 52/75/1 48/66/1
f 49/76/1 48/66/1 52/75/1
f 53/77/14 54/78/15 55/79/16
f 56/80/17 55/79/16 54/78/15
f 55/79/16 57/81/18 53/77/14
f 57/81/18 55/79/16 58/82/19
f 56/80/17 58/82/19 55/79/16
f 59/83/20 54/78/15 60/84/21
f 53/77/14 60/84/21 54/78/15
f 54/78/15 59/83/20 56/80/17
f 60/84/21 53/77/14 57/81/18
f 58/82/2 61/85/2 57/81/2
f 62/86/2 57/81/2 61/85/2
f 58/82/19 56/80/17 59/83/20
f 60/84/6 63/87/6 59/83/6
f 64/88/6 59/83/6 63/87/6
f 59/83/3 64/89/3 58/82/3
f 61/90/3 58/82/3 64/89/3
f 57/81/8 62/91/8 60/84/8
f 63/92/8 60/84/8 62/91/8
f 65/93/2 66/94/2 67/95/2
f 68/96/2 67/95/2 66/94/2
f 67/95/8 68/96/8 69/97/8
f 66/94/3 65/93/3 70/98/3
f 71/99/3 70/98/3 65/93/3
f 70/98/6 71/99/6 72/100/6
f 69/101/6 72/100/6 71/99/6
f 72/102/8 69/97/8 68/96/8
f 73/103/2 74/104/2 75/105/2
f 76/106/2 75/105/2 74/104/2
f 75/105/8 76/106/8 77/107/8
f 74/104/3 73/103/3 78/108/3
f 79/109/3 78/108/3 73/103/3
f 78/108/6 79/109/6 80/110/6
f 77/111/6 80/110/6 79/109/6
f 80/112/8 77/107/8 76/106/8
f 81/113/9 82/114/9 83/115/9
f 84/116/9 83/115/9 82/114/9
f 83/115/3 85/117/3 81/113/3
f 82/114/8 86/118/8 84/116/8
f 87/119/8 84/116/8 86/118/8
f 88/120/3 81/113/3 85/117/3
f 84/116/2 87/121/2 83/115/2
f 85/122/2 83/115/2 87/121/2
f 81/113/6 88/123/6 82/114/6
f 86/124/6 82/114/6 88/123/6
usemtl ScreenTexture
f 25/125/9 27/126/9 26/127/9
f 28/128/9 26/127/9 27/126/9
