# File produced by Open Asset Import Library (http://www.assimp.sf.net)
# (assimp v4.1.216079013)

mtllib monitor.mtl

# 56 vertex positions
v  17.15377426147461 9.287998199462891 5.354105949401855
v  17.15377426147461 37.41343688964844 5.354105949401855
v  -16.63612747192383 9.287998199462891 5.354105949401855
v  -16.63612747192383 37.41343688964844 5.354105949401855
v  19.5187873840332 39.38428497314453 6.635241985321045
v  19.5187873840332 39.38428497314453 4.614223957061768
v  -19.00114059448242 39.38428497314453 6.635241985321045
v  -19.00114059448242 39.38428497314453 4.614223957061768
v  19.5187873840332 7.301106929779053 4.614223957061768
v  19.5187873840332 7.301106929779053 6.635241985321045
v  -19.00114059448242 7.301106929779053 4.614223957061768
v  -19.00114059448242 7.301106929779053 6.635241985321045
v  17.42770767211914 9.046239852905273 6.635241985321045
v  -16.91006088256836 9.046239852905273 6.635241985321045
v  17.42770767211914 37.64171600341797 6.635241985321045
v  -16.91006088256836 37.64171600341797 6.635241985321045
v  15.14008617401123 35.73536682128906 2.441982984542847
v  -14.6224365234375 35.73536682128906 2.441982984542847
v  15.14008617401123 10.9332447052002 2.441982984542847
v  15.14008617401123 34.0411376953125 2.441982984542847
v  -14.6224365234375 34.08071899414063 2.441982984542847
v  14.58435916900635 33.15264892578125 1.585017919540405
v  5.374951839447021 34.05103302001953 2.441982984542847
v  15.14008617401123 18.43710327148438 2.441982984542847
v  14.58435916900635 19.32464599609375 1.585017919540405
v  -4.857304096221924 34.07082366943359 2.441982984542847
v  -4.857304096221924 18.38246536254883 2.441982984542847
v  5.374951839447021 18.41889190673828 2.441982984542847
v  5.930678844451904 33.16141510009766 1.585017919540405
v  5.930678844451904 19.30850601196289 1.585017919540405
v  -8.024065971374512 16.61894989013672 2.441982984542847
v  -8.024065971374512 12.55282974243164 2.441982984542847
v  -14.6224365234375 10.9332447052002 2.441982984542847
v  -14.6224365234375 18.36425018310547 2.441982984542847
v  8.541714668273926 12.55282974243164 2.441982984542847
v  8.541714668273926 16.61894989013672 2.441982984542847
v  -14.04953002929688 33.15865325927734 1.585017919540405
v  -5.430211067199707 33.14991760253906 1.585017919540405
v  -14.04953002929688 19.28631210327148 1.585017919540405
v  -5.430211067199707 19.30239105224609 1.585017919540405
v  21.6561164855957 -0.01136799994856119 -5.805922031402588
v  21.6561164855957 -0.0082609998062253 5.06783390045166
v  -21.13846588134766 -0.01136799994856119 -5.805922031402588
v  -21.13846588134766 -0.0082609998062253 5.06783390045166
v  8.541714668273926 16.58247375488281 -1.799351930618286
v  -8.024065971374512 16.58247375488281 -1.799351930618286
v  8.541714668273926 12.58930206298828 1.061264991760254
v  8.541714668273926 2.694664001464844 1.115558981895447
v  8.541714668273926 2.69359302520752 -1.853641986846924
v  -8.024065971374512 12.58930206298828 1.061264991760254
v  -8.024065971374512 2.69359302520752 -1.853641986846924
v  -8.024065971374512 2.694664001464844 1.115558981895447
v  21.6561164855957 0.8877779841423035 -5.805922031402588
v  -21.13846588134766 0.8877779841423035 -5.805922031402588
v  21.6561164855957 0.8908860087394714 5.06783390045166
v  -21.13846588134766 0.8908860087394714 5.06783390045166

# 94 UV coordinates
vt 0.5546429753303528 0.5424779653549194 0
vt 0.5546429753303528 0.9915199875831604 0
vt 0.01516399998217821 0.5424779653549194 0
vt 0.01516399998217821 0.9915199875831604 0
vt 0.9628880023956299 0.6771609783172607 0
vt 0.9628880023956299 0.6914409995079041 0
vt 0.603082001209259 0.6771609783172607 0
vt 0.603082001209259 0.6914409995079041 0
vt 0.9628880023956299 0.358601987361908 0
vt 0.9628880023956299 0.3774790167808533 0
vt 0.603082001209259 0.358601987361908 0
vt 0.603082001209259 0.3774790167808533 0
vt 0.9898790121078491 0.3774790167808533 0
vt 0.9898790121078491 0.6771609783172607 0
vt 0.5842040181159973 0.3774799704551697 0
vt 0.5842040181159973 0.6771609783172607 0
vt 0.9433550238609314 0.393779993057251 0
vt 0.6226140260696411 0.393779993057251 0
vt 0.9433550238609314 0.6608840227127075 0
vt 0.6226140260696411 0.6608840227127075 0
vt 0.9814910292625427 0.02221900224685669 0
vt 0.9814749956130981 0.04805898666381836 0
vt 0.7175920009613037 0.02222102880477905 0
vt 0.7178540229797363 0.04805701971054077 0
vt 0.2347539961338043 0.02269202470779419 0
vt 0.2353750020265579 0.04848098754882813 0
vt 0.01576800085604191 0.02263998985290527 0
vt 0.01647000014781952 0.04841601848602295 0
vt 0.4981609880924225 0.02046000957489014 0
vt 0.4985060095787048 0.04628902673721313 0
vt 0.921986997127533 0.7186279892921448 0
vt 0.6439819931983948 0.7186279892921448 0
vt 0.9628880023956299 0.9861710071563721 0
vt 0.921986997127533 0.9527739882469177 0
vt 0.921986997127533 0.7346220016479492 0
vt 0.603082001209259 0.9861710071563721 0
vt 0.6439819931983948 0.7342489957809448 0
vt 0.9164580106735229 0.7369930148124695 0
vt 0.8267959952354431 0.7345290184020996 0
vt 0.921986997127533 0.8819339871406555 0
vt 0.9164580106735229 0.8795660138130188 0
vt 0.7415090203285217 0.7343419790267944 0
vt 0.7415090203285217 0.8824490308761597 0
vt 0.8267959952354431 0.8821060061454773 0
vt 0.8323249816894531 0.7369019985198975 0
vt 0.8323249816894531 0.8797320127487183 0
vt 0.7056159973144531 0.8994889855384827 0
vt 0.7056159973144531 0.9374690055847168 0
vt 0.6439819931983948 0.9527739882469177 0
vt 0.6439819931983948 0.8826209902763367 0
vt 0.8603529930114746 0.9374690055847168 0
vt 0.8603529930114746 0.8994889855384827 0
vt 0.6516199707984924 0.7391729950904846 0
vt 0.7377640008926392 0.7392599582672119 0
vt 0.6516199707984924 0.8776969909667969 0
vt 0.7377640008926392 0.8775359988212585 0
vt 0.03662699833512306 0.5089049935340881 0
vt 0.03662699833512306 0.3755180239677429 0
vt 0.5530350208282471 0.5089049935340881 0
vt 0.5530350208282471 0.3755180239677429 0
vt 0.6597059965133667 0.3361089825630188 0
vt 0.6599500179290771 0.2735509872436523 0
vt 0.9040430188179016 0.3370640277862549 0
vt 0.9042879939079285 0.2745059728622437 0
vt 0.5973920226097107 0.2141159772872925 0
vt 0.6177570223808289 0.2146540284156799 0
vt 0.5973920226097107 0.274088978767395 0
vt 0.6169559955596924 0.06871098279953003 0
vt 0.6607509851455688 0.06869602203369141 0
vt 0.1932200044393539 0.2060580253601074 0
vt 0.1932200044393539 0.1887040138244629 0
vt 0.401432991027832 0.2060580253601074 0
vt 0.401432991027832 0.1887040138244629 0
vt 0.9668400287628174 0.2755339741706848 0
vt 0.9673089981079102 0.2155619859695435 0
vt 0.946940004825592 0.215939998626709 0
vt 0.9050890207290649 0.06965100765228271 0
vt 0.948881983757019 0.07000899314880371 0
vt 0.1932200044393539 0.06433898210525513 0
vt 0.401432991027832 0.06433999538421631 0
vt 0.1889510005712509 0.2795829772949219 0
vt 0.03662699833512306 0.2311009764671326 0
vt 0.3921619951725006 0.2795829772949219 0
vt 0.5530350208282471 0.2311000227928162 0
vt 0.1889510005712509 0.3160060048103333 0
vt 0.03662699833512306 0.3644880056381226 0
vt 0.3921619951725006 0.3160060048103333 0
vt 0.5530350208282471 0.3644880056381226 0
vt 0.03662699833512306 0.220071017742157 0
vt 0.5530350208282471 0.220071017742157 0
vt 0.02559800073504448 0.3644850254058838 0
vt 0.02559700049459934 0.2310979962348938 0
vt 0.5640640258789063 0.2310969829559326 0
vt 0.5640649795532227 0.3644850254058838 0

# 99 vertex normals
vn -0.03680186718702316 0.08914440870285034 0.9953386187553406
vn -0.03773309662938118 -0.02247844077646732 0.9990349411964417
vn 0.03772418573498726 0.02247313223779202 0.9990354180335999
vn 0.03683625161647797 -0.08922769129276276 0.995329737663269
vn 0 1 0
vn 0 0.8623305559158325 -0.5063458681106567
vn 0 0.6721339821815491 -0.7404294610023499
vn 0 -0.6738311052322388 -0.7388853430747986
vn 0 -1 0
vn 0 -0.8633466958999634 -0.5046112537384033
vn 0.6032664179801941 0 -0.7975395917892456
vn 0.817453920841217 0 -0.575994074344635
vn 1 0 0
vn -1 0 0
vn -0.7129465937614441 0 -0.7012183666229248
vn -0.691647469997406 0 -0.7222352027893066
vn 0 0 1
vn -0.3197620511054993 0.1935779005289078 0.9275127649307251
vn 0.1583439707756042 0.3772486746311188 0.9124749302864075
vn -0.158974677324295 -0.3787513375282288 0.9117425680160522
vn 0 0 0.9999999403953552
vn 0.320611983537674 -0.1940924227237701 0.9271116852760315
vn 0 0.2198052704334259 0.9755437970161438
vn 0 0.08990997076034546 0.9959499835968018
vn 0 0.3945361077785492 0.9188804030418396
vn 0 0.02267210185527802 0.9997429251670837
vn -0.1850496530532837 0 0.9827291369438171
vn -0.03789434209465981 0 0.9992817640304565
vn -0.3377916216850281 0 0.9412209391593933
vn -0.03758328780531883 0 0.9992935061454773
vn 0 -0.2205034792423248 0.9753862023353577
vn 0 -0.08999475836753845 0.995942234992981
vn 0 -0.3961915373802185 0.9181679487228394
vn 0 -0.02267750911414623 0.9997428059577942
vn 0.03758328780531883 0 0.9992935061454773
vn 0.3380679488182068 0 0.9411216974258423
vn 0.0378943458199501 0 0.9992818236351013
vn 0.1849688440561295 0 0.9827443957328796
vn 0.1855073571205139 0.6371649503707886 -0.7480694055557251
vn 0.2124490737915039 0.2550139129161835 -0.9433098435401917
vn -0.1528725922107697 0.4961233139038086 -0.8546879887580872
vn -0.198517307639122 0.1751261204481125 -0.9643245339393616
vn 0.5622655749320984 0.2359755337238312 -0.7925736308097839
vn 0.3413782119750977 -0.268751323223114 -0.9006850719451904
vn 0.1078546643257141 -0.1294254809617996 -0.9857060313224792
vn 0.197732001543045 0.06558264046907425 -0.978059709072113
vn -0.3070931732654572 0.3385775685310364 -0.8894149661064148
vn -0.5369455218315125 -0.1774084568023682 -0.8247518539428711
vn -0.3190072774887085 0.0981876477599144 -0.9426522850990295
vn 0.0817938894033432 0.1088021323084831 -0.990692675113678
vn -0.03864289447665215 0.04558601602911949 -0.9982127547264099
vn 0.06170692294836044 -0.07267811894416809 -0.995444655418396
vn 0.09526760131120682 -0.02799546718597412 -0.9950580596923828
vn 0.1343680024147034 0.04440977051854134 -0.9899358749389648
vn 0.03526657074689865 -0.04123710095882416 -0.9985268115997314
vn -0.1138108372688293 -0.03771623224020004 -0.9927862882614136
vn -0.09534566104412079 0.02799168787896633 -0.9950506091117859
vn -0.0815061628818512 -0.1086399182677269 -0.9907341003417969
vn 0 0 -1
vn -0.03743080794811249 -0.3439463675022125 -0.9382429122924805
vn -0.3637146651744843 -0.04024843499064445 -0.9306403994560242
vn 0.2206835001707077 -0.403931051492691 -0.8877716064453125
vn -0.261153370141983 -0.5058988332748413 -0.8221102356910706
vn -0.0956069678068161 0.02785885520279408 -0.9950292706489563
vn 0.08162711560726166 0.1082253530621529 -0.9907695055007935
vn -0.08134147524833679 -0.1080657094717026 -0.9908104538917542
vn 0.09552931785583496 -0.02786270901560783 -0.9950365424156189
vn 0.1323760598897934 -0.1588511317968369 -0.9783878922462463
vn 0.1978715807199478 0.06562893837690353 -0.9780285358428955
vn 0 -0.9999999403953552 0.0002857338404282928
vn 0 0.999963104724884 -0.008599837310612202
vn 0 -0.999651312828064 -0.02640626206994057
vn -0.9999999403953552 0 0
vn 0 0.003908856306225061 -0.999992311000824
vn 0 0.1359921544790268 -0.9907099008560181
vn 0 0.5725097060203552 -0.8198979496955872
vn 0 0.005487130954861641 0.9999849200248718
vn 0 0.1848233789205551 0.9827717542648315
vn 0 0.6559700965881348 0.7547868490219116
vn 0.04540546983480453 0.4521940648555756 -0.8907630443572998
vn 0.04847118631005287 0.9317247271537781 -0.3599161803722382
vn -0.0123199475929141 0.6310999393463135 -0.7756037712097168
vn -0.06507299840450287 0.9133821725845337 -0.4018689095973969
vn 0.01824371889233589 0.9310665130615234 0.3643931448459625
vn 0.06941276788711548 0.9742958545684814 0.2143116146326065
vn 0.09990400075912476 0.9877536296844482 -0.1198411360383034
vn 0.04997778683900833 0.9606849551200867 -0.2731057703495026
vn -0.05724934861063957 0.5701475739479065 0.8195451498031616
vn -0.0484859012067318 0.9318918585777283 0.3594810962677002
vn 0.01389633491635323 0.7115300297737122 0.7025184035301208
vn 0.06508641690015793 0.9135700464248657 0.4014394283294678
vn -0.01823210157454014 0.9308946132659912 -0.3648325204849243
vn -0.06940458714962006 0.9741815328598022 -0.214832991361618
vn -0.0999109074473381 0.9878213405609131 0.1192761212587357
vn -0.04999100044369698 0.9608196616172791 0.2726286947727203
vn 0 0.8495539426803589 -0.5275018811225891
vn 0 0.7389039397239685 -0.6738107800483704
vn 0 0.849749743938446 0.527186393737793
vn 0 0.7390928864479065 0.6736034750938416

# Mesh 'default' with 108 faces
g default
usemtl Material01
f  1/1/1 2/2/2 3/3/3
f  2/2/2 4/4/4 3/3/3
f  5/5/5 6/6/6 7/7/5
f  6/6/6 8/8/7 7/7/5
f  9/9/8 10/10/9 11/11/10
f  10/10/9 12/12/9 11/11/10
f  9/13/11 6/14/12 10/10/13
f  6/14/12 5/5/13 10/10/13
f  12/12/14 7/7/14 11/15/15
f  7/7/14 8/16/16 11/15/15
f  10/10/17 13/17/18 12/12/17
f  13/17/18 14/18/19 12/12/17
f  12/12/17 14/18/19 7/7/17
f  15/19/20 13/17/18 10/10/17
f  5/5/21 15/19/20 10/10/17
f  16/20/22 15/19/20 5/5/21
f  7/7/17 16/20/22 5/5/21
f  14/18/19 16/20/22 7/7/17
f  13/21/23 1/22/24 14/23/25
f  1/22/24 3/24/26 14/23/25
f  15/25/27 2/26/28 13/27/29
f  2/26/28 1/28/30 13/27/29
f  16/29/31 4/30/32 15/25/33
f  4/30/32 2/26/34 15/25/33
f  4/30/35 16/29/36 3/24/37
f  16/29/36 14/23/38 3/24/37
f  6/6/39 17/31/40 8/8/41
f  17/31/40 18/32/42 8/8/41
f  6/6/43 9/33/44 17/31/40
f  9/33/44 19/34/45 17/31/40
f  18/32/42 17/31/40 20/35/46
f  8/8/47 18/32/42 11/36/48
f  18/32/42 21/37/49 11/36/48
f  21/37/49 18/32/42 20/35/46
f  20/35/46 22/38/50 23/39/51
f  24/40/52 25/41/53 20/35/46
f  26/42/54 23/39/51 27/43/55
f  23/39/51 28/44/56 27/43/55
f  22/38/50 29/45/57 23/39/51
f  29/45/57 22/38/50 25/41/53
f  30/46/58 29/45/57 25/41/53
f  29/45/57 30/46/58 28/44/56
f  30/46/58 25/41/53 24/40/52
f  25/41/53 22/38/50 20/35/46
f  28/44/56 30/46/58 24/40/52
f  28/44/56 24/40/52 31/47/59
f  24/40/52 19/34/45 31/47/59
f  32/48/59 33/49/60 31/47/59
f  33/49/60 34/50/61 31/47/59
f  34/50/61 27/43/55 31/47/59
f  27/43/55 28/44/56 31/47/59
f  33/49/60 32/48/59 19/34/45
f  32/48/59 35/51/59 19/34/45
f  33/49/60 19/34/45 9/33/62
f  19/34/45 35/51/59 36/52/59
f  11/36/63 33/49/60 9/33/62
f  34/50/61 33/49/60 11/36/48
f  21/37/49 34/50/61 11/36/48
f  21/37/49 37/53/64 34/50/61
f  26/42/54 38/54/65 21/37/49
f  38/54/65 37/53/64 21/37/49
f  39/55/66 37/53/64 40/56/67
f  37/53/64 38/54/65 40/56/67
f  37/53/64 39/55/66 34/50/61
f  40/56/67 38/54/65 26/42/54
f  27/43/55 40/56/67 26/42/54
f  39/55/66 40/56/67 27/43/55
f  34/50/61 39/55/66 27/43/55
f  23/39/51 29/45/57 28/44/56
f  19/34/68 24/40/52 17/31/40
f  24/40/52 20/35/69 17/31/40
f  41/57/70 42/58/70 43/59/70
f  42/58/70 44/60/70 43/59/70
f  36/61/71 45/62/71 31/63/71
f  45/62/71 46/64/71 31/63/71
f  35/65/13 47/66/13 36/67/13
f  47/66/13 45/62/13 36/67/13
f  47/66/13 48/68/13 45/62/13
f  48/68/13 49/69/13 45/62/13
f  32/70/72 50/71/72 35/72/72
f  50/71/72 47/73/72 35/72/72
f  31/74/14 46/64/14 32/75/14
f  46/64/14 50/76/73 32/75/14
f  46/64/14 51/77/14 50/76/73
f  51/77/14 52/78/14 50/76/73
f  45/62/74 49/69/75 46/64/74
f  49/69/75 51/77/76 46/64/74
f  50/71/77 52/79/78 47/73/77
f  52/79/78 48/80/79 47/73/77
f  49/81/80 53/82/81 51/83/82
f  53/82/81 54/84/83 51/83/82
f  48/85/84 55/86/85 49/81/86
f  55/86/85 53/82/87 49/81/86
f  52/87/88 56/88/89 48/85/90
f  56/88/89 55/86/91 48/85/90
f  51/83/92 54/84/93 52/87/94
f  54/84/93 56/88/95 52/87/94
f  53/82/96 41/89/59 54/84/97
f  41/89/59 43/90/59 54/84/97
f  55/86/13 42/91/13 53/82/13
f  42/91/13 41/92/13 53/82/13
f  56/88/98 44/60/17 55/86/99
f  44/60/17 42/58/17 55/86/99
f  54/84/14 43/93/14 56/88/14
f  43/93/14 44/94/14 56/88/14
f  23/39/51 26/42/54 20/35/46
f  26/42/17 21/37/17 20/35/17
f  19/34/21 36/52/21 31/47/21

