# Blender 4.2.3 LTS
# www.blender.org
mtllib mug.mtl
o mug
v -0.277600 -1.298900 -0.199500
v -0.116100 -1.298900 -0.207300
v 0.036000 -1.298900 -0.152700
v 0.224700 -1.298900 0.102300
v 0.155700 -1.298900 -0.043900
v 0.340100 -1.380000 -0.658600
v -0.028900 -1.380000 -0.791100
v -0.420500 -1.380000 -0.772300
v 0.001000 -1.380000 -0.990700
v -0.469300 -1.380000 -0.968100
v 0.630300 -1.380000 -0.395100
v 0.444000 -1.380000 -0.831600
v 0.797500 -1.380000 -0.040500
v 0.792500 -1.380000 -0.515100
v 0.993300 -1.380000 -0.089300
v 0.816300 -1.380000 0.351100
v 0.232500 -1.298900 0.263800
v 1.015900 -1.380000 0.380900
v 0.683800 -1.380000 0.720000
v 0.177800 -1.298900 0.416000
v -0.077100 -1.298900 0.604700
v 0.069100 -1.298900 0.535700
v 0.420200 -1.380000 1.010200
v 0.856800 -1.380000 0.824000
v 0.065700 -1.380000 1.177400
v 0.540300 -1.380000 1.172400
v 0.114500 -1.380000 1.373300
v -0.325900 -1.380000 1.196300
v -0.238600 -1.298900 0.612400
v -0.355700 -1.380000 1.395800
v -0.694800 -1.380000 1.063800
v -0.390800 -1.298900 0.557800
v -0.510500 -1.298900 0.449100
v -0.579500 -1.298900 0.302800
v -0.985000 -1.380000 0.800200
v -0.798800 -1.380000 1.236800
v -1.152300 -1.380000 0.445600
v -1.147300 -1.380000 0.920200
v -1.348100 -1.380000 0.494500
v -1.171100 -1.380000 0.054100
v -0.587200 -1.298900 0.141300
v -1.370700 -1.380000 0.024200
v -1.038600 -1.380000 -0.314900
v -0.532600 -1.298900 -0.010900
v -0.423900 -1.298900 -0.130600
v -0.775000 -1.380000 -0.605100
v -1.211600 -1.380000 -0.418800
v -0.895100 -1.380000 -0.767300
v 0.993300 -0.834800 -0.089300
v 1.015900 -0.834800 0.380900
v 0.856800 -0.834800 0.824000
v 0.993300 -0.431800 -0.089300
v 1.015900 -0.431800 0.380900
v 0.776000 -0.858000 -0.548200
v 0.993300 0.731500 -0.089300
v 0.776000 -0.402400 -0.548200
v 0.792500 0.700600 -0.515100
v 1.015900 0.731500 0.380900
v 0.856800 -0.431800 0.824000
v 0.993300 1.110000 -0.089300
v 0.792500 1.271800 -0.515100
v 0.444000 0.700600 -0.831600
v 0.412000 -0.402400 -0.895900
v 0.001000 0.731500 -0.990700
v 0.001000 1.110000 -0.990700
v 0.444000 1.271800 -0.831600
v 0.001000 -0.431800 -0.990700
v 0.412000 -0.858000 -0.895900
v -0.469300 0.731500 -0.968100
v -0.469300 1.110000 -0.968100
v -0.469300 -0.431800 -0.968100
v 0.001000 -0.834800 -0.990700
v -0.469300 -0.834800 -0.968100
v -0.895100 -0.834800 -0.767300
v -0.895100 -0.431800 -0.767300
v -1.211600 -0.834800 -0.418800
v -1.211600 -0.431800 -0.418800
v -1.211600 0.731500 -0.418800
v -0.895100 0.731500 -0.767300
v -1.370700 -0.431800 0.024200
v -1.370700 0.731500 0.024200
v -1.370700 1.110000 0.024200
v -1.211600 1.110000 -0.418800
v -0.895100 1.110000 -0.767300
v -1.370700 1.805200 0.024200
v -1.211600 1.805200 -0.418800
v -1.348100 1.110000 0.494500
v -1.348100 1.805200 0.494500
v -1.147300 1.805200 0.920200
v -1.147300 1.110000 0.920200
v -1.348100 0.731500 0.494500
v -0.798800 1.805200 1.236800
v -0.798800 1.110000 1.236800
v -1.147300 0.731500 0.920200
v -1.348100 -0.431800 0.494500
v -0.798800 0.731500 1.236800
v -1.147300 -0.431800 0.920200
v -0.355700 1.110000 1.395800
v -0.355700 1.805200 1.395800
v -0.355700 0.731500 1.395800
v -0.798800 -0.431800 1.236800
v -1.147300 -0.834800 0.920200
v -1.348100 -0.834800 0.494500
v -0.355700 -0.431800 1.395800
v -0.798800 -0.834800 1.236800
v 0.114500 0.731500 1.373300
v 0.114500 1.110000 1.373300
v 0.114500 -0.431800 1.373300
v -0.355700 -0.834800 1.395800
v 0.114500 -0.834800 1.373300
v -1.370700 -0.834800 0.024200
v 0.114500 1.805200 1.373300
v -0.895100 1.805200 -0.767300
v -0.469300 1.805200 -0.968100
v 0.001000 1.805200 -0.990700
v 0.444000 1.805200 -0.831600
v 0.792500 1.805200 -0.515100
v 0.993300 1.805200 -0.089300
v 1.015900 1.110000 0.380900
v 1.015900 1.805200 0.380900
v 0.856800 1.110000 0.824000
v 0.856800 0.731500 0.824000
v 0.856800 1.805200 0.824000
v 0.540300 1.110000 1.172400
v 0.540300 0.731500 1.172400
v 0.540300 -0.431800 1.172400
v 0.540300 1.805200 1.172400
v 0.540300 -0.834800 1.172400
v 0.802200 -1.116000 0.791200
v 0.952900 -1.116000 0.371500
v 0.931500 -1.116000 -0.073900
v 0.411200 -1.116000 -0.777000
v 0.741200 -1.116000 -0.477200
v 0.099100 -1.116000 1.311400
v 0.502400 -1.116000 1.121200
v -0.766000 -1.116000 1.182100
v -1.157000 -1.116000 -0.386000
v -0.453800 -1.116000 -0.906300
v -0.008500 -1.116000 -0.927700
v -1.286200 -1.116000 0.479000
v -1.307600 -1.116000 0.033700
v -0.857200 -1.116000 -0.716100
v -0.346300 -1.116000 1.332800
v -1.096000 -1.116000 0.882300
v 0.931500 1.805200 -0.073900
v 0.952900 1.805200 0.371500
v 0.802200 1.805200 0.791200
v 0.502400 1.805200 1.121200
v 0.099100 1.805200 1.311400
v 0.741200 1.805200 -0.477200
v 0.411200 1.805200 -0.777000
v -0.008500 1.805200 -0.927700
v -0.453800 1.805200 -0.906300
v -0.857200 1.805200 -0.716100
v -1.157000 1.805200 -0.386000
v -1.307600 1.805200 0.033700
v -1.286200 1.805200 0.479000
v -1.096000 1.805200 0.882300
v -0.766000 1.805200 1.182100
v -0.346300 1.805200 1.332800
v 0.931500 1.110000 -0.073900
v 0.952900 1.110000 0.371500
v 0.802200 1.110000 0.791200
v 0.931500 0.731500 -0.073900
v 0.952900 0.731500 0.371500
v 0.741200 1.110000 -0.477200
v 0.411200 1.110000 -0.777000
v 0.411200 0.731500 -0.777000
v 0.741200 0.731500 -0.477200
v -0.008500 1.110000 -0.927700
v -0.008500 0.731500 -0.927700
v -0.008500 -0.431800 -0.927700
v 0.411200 -0.431800 -0.777000
v 0.741200 -0.431800 -0.477200
v -0.008500 -0.834800 -0.927700
v 0.411200 -0.834800 -0.777000
v 0.931500 -0.431800 -0.073900
v 0.741200 -0.834800 -0.477200
v 0.952900 -0.431800 0.371500
v 0.931500 -0.834800 -0.073900
v -0.453800 -0.834800 -0.906300
v -0.857200 -0.834800 -0.716100
v -0.453800 -0.431800 -0.906300
v -0.857200 -0.431800 -0.716100
v -1.157000 -0.834800 -0.386000
v -1.157000 -0.431800 -0.386000
v -1.307600 -0.834800 0.033700
v -0.857200 0.731500 -0.716100
v -0.453800 0.731500 -0.906300
v -1.157000 0.731500 -0.386000
v -1.307600 -0.431800 0.033700
v -1.286200 -0.834800 0.479000
v -1.307600 0.731500 0.033700
v -1.286200 -0.431800 0.479000
v -1.157000 1.110000 -0.386000
v -0.857200 1.110000 -0.716100
v -1.307600 1.110000 0.033700
v -1.286200 0.731500 0.479000
v -1.096000 -0.431800 0.882300
v -1.096000 -0.834800 0.882300
v -1.286200 1.110000 0.479000
v -1.096000 0.731500 0.882300
v -1.096000 1.110000 0.882300
v -0.766000 0.731500 1.182100
v -0.766000 -0.431800 1.182100
v -0.766000 1.110000 1.182100
v -0.346300 0.731500 1.332800
v -0.346300 -0.431800 1.332800
v -0.346300 -0.834800 1.332800
v -0.766000 -0.834800 1.182100
v 0.099100 -0.431800 1.311400
v 0.099100 -0.834800 1.311400
v 0.099100 0.731500 1.311400
v -0.346300 1.110000 1.332800
v 0.099100 1.110000 1.311400
v -0.453800 1.110000 -0.906300
v 0.952900 -0.834800 0.371500
v 0.802200 0.731500 0.791200
v 0.802200 -0.431800 0.791200
v 0.802200 -0.834800 0.791200
v 0.502400 0.731500 1.121200
v 0.502400 -0.431800 1.121200
v 0.502400 1.110000 1.121200
v 0.502400 -0.834800 1.121200
v 0.755000 1.265100 -1.164600
v 1.103400 1.265100 -0.848000
v 1.440900 1.110700 -1.228900
v 1.085000 1.114300 -1.537000
v 0.756700 0.886600 -1.166400
v 0.938700 0.806900 -1.371700
v 1.018100 0.666400 -1.467500
v 1.246700 0.808300 -1.733700
v 1.301100 0.407300 -1.817800
v 1.058900 0.357900 -1.531200
v 1.047400 0.163900 -1.530300
v 1.276000 0.054800 -1.811500
v 0.964600 -0.048300 -1.452100
v 1.138600 -0.294100 -1.681400
v 0.906000 -0.535900 -1.440100
v 0.803100 -0.206900 -1.283900
v 0.681800 -0.681500 -1.202100
v 0.623600 -0.323700 -1.093300
v 0.572700 -0.725700 -1.084600
v 0.530600 -0.360800 -0.993200
v 1.105000 0.886600 -0.849800
v 1.294600 0.803300 -1.063500
v 1.378100 0.654400 -1.164500
v 1.606800 0.796300 -1.430600
v 1.661900 0.390600 -1.515800
v 1.419700 0.341200 -1.229200
v 1.407400 0.139200 -1.228000
v 1.636000 0.030100 -1.509300
v 1.321900 -0.079900 -1.147200
v 1.495900 -0.325700 -1.376500
v 1.259700 -0.571800 -1.131500
v 1.156800 -0.242800 -0.975300
v 0.975000 -0.361000 -0.782300
v 1.033200 -0.718800 -0.891100
v 0.923300 -0.763400 -0.772700
v 0.881200 -0.398500 -0.681300
vn 0.0185 -0.9971 0.0744
vn -0.0113 -0.9971 0.0758
vn -0.0395 -0.9971 0.0657
vn -0.0744 -0.9971 0.0186
vn -0.0616 -0.9971 0.0456
vn -0.0308 -0.9982 0.0512
vn -0.0088 -0.9982 0.0591
vn 0.0144 -0.9982 0.0579
vn -0.0000 -1.0000 -0.0000
vn -0.0480 -0.9982 0.0355
vn -0.0579 -0.9982 0.0144
vn -0.0591 -0.9982 -0.0088
vn -0.0759 -0.9971 -0.0113
vn -0.0512 -0.9982 -0.0308
vn -0.0657 -0.9971 -0.0395
vn -0.0185 -0.9971 -0.0744
vn -0.0456 -0.9971 -0.0616
vn -0.0355 -0.9982 -0.0480
vn -0.0145 -0.9982 -0.0579
vn 0.0088 -0.9982 -0.0590
vn 0.0113 -0.9971 -0.0758
vn 0.0308 -0.9982 -0.0512
vn 0.0395 -0.9971 -0.0657
vn 0.0616 -0.9971 -0.0456
vn 0.0744 -0.9971 -0.0185
vn 0.0480 -0.9982 -0.0355
vn 0.0579 -0.9982 -0.0144
vn 0.0591 -0.9982 0.0088
vn 0.0758 -0.9971 0.0113
vn 0.0512 -0.9982 0.0308
vn 0.0657 -0.9971 0.0395
vn 0.0456 -0.9971 0.0617
vn 0.0355 -0.9982 0.0480
vn 0.9703 -0.0000 -0.2419
vn 0.9701 0.0002 -0.2425
vn 0.9890 -0.0000 0.1478
vn 0.8571 -0.0000 0.5151
vn 0.9701 -0.0001 -0.2426
vn 0.8087 -0.0122 -0.5881
vn 0.8402 -0.0126 -0.5421
vn 0.8428 0.0065 -0.5382
vn 0.8428 0.0040 -0.5382
vn 0.8414 -0.0000 -0.5403
vn 0.4643 0.0206 -0.8855
vn 0.3963 0.0113 -0.9181
vn 0.1417 0.0084 -0.9899
vn 0.1478 -0.0000 -0.9890
vn 0.4572 -0.0000 -0.8893
vn 0.0892 -0.0000 -0.9960
vn 0.3981 -0.0309 -0.9168
vn -0.2419 -0.0000 -0.9703
vn 0.1225 -0.0275 -0.9921
vn 0.5319 -0.0646 -0.8443
vn -0.5948 -0.0000 -0.8038
vn -0.8572 -0.0000 -0.5150
vn -0.9890 -0.0000 -0.1479
vn -0.9890 -0.0000 -0.1478
vn -0.9703 -0.0000 0.2420
vn -0.8039 -0.0000 0.5948
vn -0.5150 -0.0000 0.8572
vn -0.1478 -0.0000 0.9890
vn 0.2419 -0.0000 0.9703
vn 0.1479 -0.0000 -0.9890
vn 0.5150 -0.0000 -0.8572
vn 0.8038 -0.0000 -0.5948
vn 0.5949 -0.0000 0.8038
vn -0.0000 1.0000 -0.0000
vn -0.8571 -0.0000 -0.5151
vn -0.8038 -0.0000 0.5949
vn -0.5151 -0.0000 0.8571
vn 0.5948 -0.0000 0.8039
vn 0.8572 -0.0000 0.5149
vn 0.9890 -0.0000 0.1477
vn 0.8039 -0.0000 -0.5948
vn 0.5151 -0.0000 -0.8571
vn -0.5948 -0.0000 -0.8039
vn 0.1036 0.9881 -0.1138
vn 0.0099 0.9999 -0.0109
vn 0.1036 0.9881 -0.1140
vn 0.1953 0.9570 -0.2146
vn 0.1953 0.9570 -0.2144
vn -0.7394 -0.0001 -0.6732
vn -0.7308 -0.0000 -0.6826
vn -0.7387 -0.0002 -0.6740
vn -0.7543 0.0061 -0.6565
vn -0.7553 0.0066 -0.6553
vn -0.7637 0.0215 -0.6453
vn -0.7644 0.0225 -0.6444
vn -0.7665 0.0368 -0.6411
vn -0.7664 0.0370 -0.6413
vn -0.7649 0.0515 -0.6421
vn -0.7649 0.0519 -0.6420
vn -0.7584 0.0676 -0.6483
vn -0.7586 0.0675 -0.6480
vn -0.7515 0.0763 -0.6553
vn -0.7513 0.0763 -0.6555
vn -0.7472 0.0791 -0.6599
vn -0.7471 0.0790 -0.6600
vn -0.7425 0.0505 -0.6679
vn -0.7011 0.0961 -0.7066
vn -0.6944 0.0727 -0.7159
vn -0.7613 -0.0000 -0.6484
vn 0.2530 -0.9265 -0.2785
vn 0.2532 -0.9265 -0.2785
vn 0.2529 -0.9265 -0.2785
vn -0.1880 -0.9602 0.2066
vn -0.1887 -0.9600 0.2067
vn -0.1884 -0.9601 0.2066
vn -0.1877 -0.9603 0.2064
vn 0.7393 -0.0000 0.6734
vn 0.7387 -0.0000 0.6741
vn 0.7309 -0.0001 0.6825
vn 0.7309 -0.0000 0.6825
vn 0.7545 -0.0062 0.6562
vn 0.7553 -0.0066 0.6553
vn 0.7637 -0.0216 0.6452
vn 0.7641 -0.0227 0.6447
vn 0.7665 -0.0369 0.6412
vn 0.7664 -0.0370 0.6413
vn 0.7650 -0.0517 0.6420
vn 0.7650 -0.0520 0.6419
vn 0.7585 -0.0675 0.6482
vn 0.7587 -0.0674 0.6479
vn 0.7515 -0.0763 0.6553
vn 0.7513 -0.0762 0.6555
vn 0.7471 -0.0790 0.6600
vn 0.7472 -0.0791 0.6599
vn 0.7882 -0.0466 0.6136
vn 0.7661 -0.0716 0.6387
vn 0.8059 -0.0386 0.5908
vn 0.8361 -0.0000 0.5486
vn 0.5834 0.4508 -0.6756
vn 0.5832 0.4518 -0.6751
vn 0.5074 0.6391 -0.5780
vn 0.5073 0.6388 -0.5785
vn 0.6417 0.0916 -0.7615
vn 0.6417 0.0914 -0.7615
vn 0.6074 -0.2728 -0.7461
vn 0.6076 -0.2725 -0.7460
vn 0.4552 -0.6564 -0.6016
vn 0.4549 -0.6567 -0.6015
vn -0.5793 -0.4633 0.6707
vn -0.5802 -0.4613 0.6712
vn -0.4957 -0.6611 0.5633
vn -0.4940 -0.6628 0.5627
vn -0.6415 -0.0982 0.7608
vn -0.6417 -0.0978 0.7607
vn -0.6097 0.2620 0.7481
vn -0.6098 0.2630 0.7476
vn -0.4494 0.6657 0.5957
vn -0.4496 0.6649 0.5964
vn 0.2793 -0.8634 -0.4201
vn 0.2790 -0.8635 -0.4201
vn 0.1683 -0.9381 -0.3028
vn 0.1843 -0.9440 -0.2737
vn 0.1889 -0.9269 -0.3243
vn 0.2507 -0.9041 -0.3462
vn 0.2329 -0.9414 -0.2439
vn -0.2714 0.8700 0.4116
vn -0.2715 0.8697 0.4123
vn -0.1672 0.9386 0.3016
vn -0.1673 0.9386 0.3017
vn -0.1278 0.9702 0.2059
vn -0.0335 0.9870 0.1570
vn -0.0010 0.9956 0.0936
vn -0.1820 0.9647 0.1906
vt 0.500000 1.328400
vt 0.565700 1.341500
vt 0.621300 1.378700
vt 0.671600 1.500000
vt 0.658500 1.434300
vt 0.794100 1.205900
vt 0.659200 1.115700
vt 0.500000 1.084000
vt 0.691200 1.038500
vt 0.500000 1.000500
vt 0.884300 1.340800
vt 0.853200 1.146800
vt 0.916000 1.500000
vt 0.961500 1.308800
vt 0.999500 1.500000
vt 0.884300 1.659200
vt 0.658500 1.565700
vt 0.961500 1.691200
vt 0.794100 1.794100
vt 0.621300 1.621300
vt 0.500000 1.671600
vt 0.565700 1.658500
vt 0.659200 1.884300
vt 0.853200 1.853200
vt 0.500000 1.916000
vt 0.691200 1.961500
vt 0.500000 1.999500
vt 0.340800 1.884300
vt 0.434300 1.658500
vt 0.308800 1.961500
vt 0.205900 1.794100
vt 0.378700 1.621300
vt 0.341500 1.565700
vt 0.328400 1.500000
vt 0.115700 1.659200
vt 0.146800 1.853200
vt 0.084000 1.500000
vt 0.038500 1.691200
vt 0.000500 1.500000
vt 0.115700 1.340800
vt 0.341500 1.434300
vt 0.038500 1.308800
vt 0.205900 1.205900
vt 0.378700 1.378700
vt 0.434300 1.341500
vt 0.340800 1.115700
vt 0.146800 1.146800
vt 0.308800 1.038500
vt 0.750000 1.500000
vt 0.750000 1.725900
vt 0.812500 1.725900
vt 0.812500 1.500000
vt 0.875000 1.725900
vt 0.750000 1.893000
vt 0.812500 1.893000
vt 0.687500 1.500000
vt 0.682700 1.716300
vt 0.750000 2.375000
vt 0.682700 1.905100
vt 0.687500 2.362200
vt 0.812500 2.375000
vt 0.875000 1.893000
vt 0.750000 2.531900
vt 0.687500 2.598900
vt 0.625000 2.362200
vt 0.617300 1.905100
vt 0.562500 2.375000
vt 0.562500 2.531900
vt 0.625000 2.598900
vt 0.562500 1.893000
vt 0.617300 1.716300
vt 0.500000 2.375000
vt 0.500000 2.531900
vt 0.500000 1.893000
vt 0.562500 1.725900
vt 0.562500 1.500000
vt 0.625000 1.500000
vt 0.500000 1.500000
vt 0.500000 1.725900
vt 0.437500 1.500000
vt 0.437500 1.725900
vt 0.437500 1.893000
vt 0.375000 1.500000
vt 0.375000 1.725900
vt 0.375000 1.893000
vt 0.375000 2.375000
vt 0.437500 2.375000
vt 0.312500 1.893000
vt 0.312500 2.375000
vt 0.312500 2.531900
vt 0.375000 2.531900
vt 0.437500 2.531900
vt 0.312500 2.820000
vt 0.375000 2.820000
vt 0.250000 2.531900
vt 0.250000 2.820000
vt 0.187500 2.820000
vt 0.187500 2.531900
vt 0.250000 2.375000
vt 0.125000 2.820000
vt 0.125000 2.531900
vt 0.187500 2.375000
vt 0.250000 1.893000
vt 0.125000 2.375000
vt 0.187500 1.893000
vt 0.062500 2.531900
vt 0.062500 2.820000
vt 0.062500 2.375000
vt 0.125000 1.893000
vt 0.187500 1.725900
vt 0.250000 1.725900
vt 0.062500 1.893000
vt 0.125000 1.725900
vt -0.000000 2.375000
vt -0.000000 2.531900
vt -0.000000 1.893000
vt 0.062500 1.725900
vt 0.062500 1.500000
vt 0.125000 1.500000
vt -0.000000 1.500000
vt -0.000000 1.725900
vt 0.187500 1.500000
vt 0.250000 1.500000
vt 0.312500 1.725900
vt 0.312500 1.500000
vt -0.000000 2.820000
vt 0.437500 2.820000
vt 0.500000 2.820000
vt 0.562500 2.820000
vt 0.625000 2.820000
vt 0.687500 2.820000
vt 0.750000 2.820000
vt 0.812500 2.531900
vt 0.812500 2.820000
vt 0.875000 2.531900
vt 0.875000 2.375000
vt 0.875000 2.820000
vt 0.937500 2.531900
vt 0.937500 2.375000
vt 0.937500 1.893000
vt 1.000000 2.375000
vt 1.000000 1.893000
vt 0.937500 2.820000
vt 1.000000 2.531900
vt 1.000000 2.820000
vt 1.000000 1.725900
vt 0.937500 1.725900
vt 0.875000 1.500000
vt 0.937500 1.500000
vt 1.000000 1.500000
vt 0.834500 1.834500
vt 0.937100 1.681100
vt 0.973100 1.500000
vt 0.834500 1.165500
vt 0.937100 1.318900
vt 0.500000 1.973100
vt 0.681100 1.937100
vt 0.165500 1.834500
vt 0.165500 1.165500
vt 0.500000 1.026900
vt 0.681100 1.062900
vt 0.026900 1.500000
vt 0.062900 1.318900
vt 0.318900 1.062900
vt 0.318900 1.937100
vt 0.062900 1.681100
vt 0.687500 2.531900
vt 0.625000 2.531900
vt 0.625000 2.375000
vt 0.687500 2.375000
vt 0.625000 1.893000
vt 0.687500 1.893000
vt 0.625000 1.725900
vt 0.687500 1.725900
vt 0.625000 1.609400
vt 0.687500 1.609400
vt 0.562500 1.609400
vt 0.500000 1.609400
vt 0.437500 1.609400
vt 0.375000 1.609400
vt 0.312500 1.609400
vt 0.250000 1.609400
vt -0.000000 1.609400
vt 0.062500 1.609400
vt 0.125000 1.609400
vt 0.187500 1.609400
vt 0.750000 1.609400
vt 0.812500 1.609400
vt 0.875000 1.609400
vt 0.937500 1.609400
vt 1.000000 1.609400
vt 0.292100 1.439800
vt 0.011900 1.656800
vt 0.203600 1.999500
vt 0.483800 1.782600
vt 0.791400 1.530500
vt 0.592900 1.193300
vt 0.293700 1.818800
vt 0.011900 1.731600
vt 0.011900 1.999500
vt 0.292100 1.996400
vt 0.459500 1.781400
vt 0.592900 1.925600
vt 0.533000 1.715600
vt 0.742900 1.782100
vt 0.796400 1.594000
vt 0.573300 1.570800
vt 0.565000 1.479800
vt 0.777500 1.428700
vt 0.492200 1.380300
vt 0.656600 1.265000
vt 0.448400 1.151600
vt 0.347600 1.305900
vt 0.246700 1.083300
vt 0.186000 1.251100
vt 0.148300 1.062600
vt 0.102100 1.233700
vt 0.000500 1.214200
vt 0.000500 1.000500
vt 0.706300 1.438600
vt 0.514700 1.781400
vt 0.796400 1.999500
vt 0.988100 1.656800
vt 0.540500 1.302800
vt 0.342000 1.639900
vt 0.514700 1.818800
vt 0.516200 1.996400
vt 0.796400 1.731600
vt 0.342000 1.779700
vt 0.208600 1.923900
vt 0.264600 1.709900
vt 0.054800 1.776500
vt 0.000500 1.586200
vt 0.223600 1.563000
vt 0.232500 1.468200
vt 0.020000 1.417100
vt 0.307700 1.365500
vt 0.143300 1.250200
vt 0.354700 1.134700
vt 0.455600 1.289100
vt 0.619200 1.233600
vt 0.558500 1.065800
vt 0.657700 1.044900
vt 0.703800 1.216000
vt 0.802200 1.214200
vt 0.802200 1.000500
vt 0.394200 1.776500
vt 0.060500 1.782100
vt 0.193300 1.925600
vt 0.530500 1.923900
vt 0.333500 1.586200
vt 0.000500 1.594000
vt 0.333600 1.417100
vt 0.000500 1.428700
vt 0.416700 1.250200
vt 0.082000 1.265000
vt 0.761900 1.715600
vt 0.428200 1.709900
vt 0.360100 1.779700
vt 0.697200 1.781400
vt 0.807300 1.570800
vt 0.474300 1.563000
vt 0.809000 1.479800
vt 0.475900 1.468200
vt 0.760000 1.380300
vt 0.425300 1.365500
vt 0.354700 1.574800
vt 0.551600 1.237700
vt 0.343400 1.082000
vt 0.143300 1.416700
vt 0.558500 1.731100
vt 0.753300 1.392400
vt 0.657700 1.808300
vt 0.851700 1.469100
vt 0.999500 1.595400
vt 0.802200 1.967900
vt 0.347600 1.348600
vt 0.544400 1.685700
vt 0.692300 1.574700
vt 0.492200 1.240000
vt 0.186000 1.472500
vt 0.380800 1.811200
vt 0.102100 1.537900
vt 0.296200 1.877100
vt 0.197800 1.967900
vt 0.000500 1.595400
s 1
usemtl Material__116
f 1/1/1 2/2/2 3/3/3
f 4/4/4 1/1/1 3/3/3
f 4/4/4 3/3/3 5/5/5
f 5/5/5 3/3/3 6/6/6
f 3/3/3 2/2/2 7/7/7
f 6/6/6 3/3/3 7/7/7
f 2/2/2 1/1/1 8/8/8
f 7/7/7 2/2/2 8/8/8
f 6/6/6 7/7/7 9/9/9
f 7/7/7 8/8/8 10/10/9
f 9/9/9 7/7/7 10/10/9
f 11/11/10 6/6/6 12/12/9
f 12/12/9 6/6/6 9/9/9
f 11/11/10 5/5/5 6/6/6
f 4/4/4 5/5/5 11/11/10
f 13/13/11 11/11/10 14/14/9
f 14/14/9 11/11/10 12/12/9
f 13/13/11 4/4/4 11/11/10
f 15/15/9 13/13/11 14/14/9
f 16/16/12 13/13/11 15/15/9
f 17/17/13 4/4/4 13/13/11
f 16/16/12 17/17/13 13/13/11
f 18/18/9 16/16/12 15/15/9
f 19/19/14 16/16/12 18/18/9
f 20/20/15 17/17/13 16/16/12
f 19/19/14 20/20/15 16/16/12
f 4/4/4 17/17/13 20/20/15
f 4/4/4 20/20/15 21/21/16
f 1/1/1 4/4/4 21/21/16
f 20/20/15 22/22/17 21/21/16
f 22/22/17 20/20/15 19/19/14
f 23/23/18 19/19/14 24/24/9
f 24/24/9 19/19/14 18/18/9
f 23/23/18 22/22/17 19/19/14
f 21/21/16 22/22/17 23/23/18
f 25/25/19 23/23/18 26/26/9
f 26/26/9 23/23/18 24/24/9
f 25/25/19 21/21/16 23/23/18
f 27/27/9 25/25/19 26/26/9
f 28/28/20 25/25/19 27/27/9
f 29/29/21 21/21/16 25/25/19
f 28/28/20 29/29/21 25/25/19
f 30/30/9 28/28/20 27/27/9
f 31/31/22 28/28/20 30/30/9
f 32/32/23 29/29/21 28/28/20
f 31/31/22 32/32/23 28/28/20
f 21/21/16 29/29/21 32/32/23
f 32/32/23 33/33/24 34/34/25
f 21/21/16 32/32/23 34/34/25
f 33/33/24 32/32/23 31/31/22
f 35/35/26 31/31/22 36/36/9
f 36/36/9 31/31/22 30/30/9
f 35/35/26 33/33/24 31/31/22
f 34/34/25 33/33/24 35/35/26
f 37/37/27 35/35/26 38/38/9
f 38/38/9 35/35/26 36/36/9
f 37/37/27 34/34/25 35/35/26
f 39/39/9 37/37/27 38/38/9
f 40/40/28 37/37/27 39/39/9
f 41/41/29 34/34/25 37/37/27
f 40/40/28 41/41/29 37/37/27
f 42/42/9 40/40/28 39/39/9
f 43/43/30 40/40/28 42/42/9
f 44/44/31 41/41/29 40/40/28
f 43/43/30 44/44/31 40/40/28
f 34/34/25 41/41/29 44/44/31
f 44/44/31 45/45/32 1/1/1
f 34/34/25 44/44/31 1/1/1
f 45/45/32 44/44/31 43/43/30
f 46/46/33 43/43/30 47/47/9
f 47/47/9 43/43/30 42/42/9
f 46/46/33 45/45/32 43/43/30
f 1/1/1 45/45/32 46/46/33
f 34/34/25 1/1/1 21/21/16
f 8/8/8 1/1/1 46/46/33
f 8/8/8 46/46/33 48/48/9
f 48/48/9 46/46/33 47/47/9
f 10/10/9 8/8/8 48/48/9
f 15/49/34 49/50/35 50/51/36
f 18/52/36 15/49/34 50/51/36
f 18/52/36 50/51/36 51/53/37
f 50/51/36 49/50/35 52/54/38
f 53/55/36 50/51/36 52/54/38
f 51/53/37 50/51/36 53/55/36
f 14/56/39 54/57/40 49/50/35
f 15/49/34 14/56/39 49/50/35
f 49/50/35 54/57/40 52/54/38
f 53/55/36 52/54/38 55/58/34
f 52/54/38 56/59/41 57/60/42
f 55/58/34 52/54/38 57/60/42
f 54/57/40 56/59/41 52/54/38
f 58/61/36 53/55/36 55/58/34
f 59/62/37 53/55/36 58/61/36
f 59/62/37 51/53/37 53/55/36
f 58/61/36 55/58/34 60/63/34
f 55/58/34 57/60/42 60/63/34
f 57/60/42 61/64/43 60/63/34
f 57/60/42 56/59/41 62/65/44
f 56/59/41 63/66/45 62/65/44
f 62/65/44 64/67/46 65/68/47
f 66/69/48 62/65/44 65/68/47
f 62/65/44 63/66/45 64/67/46
f 63/66/45 67/70/49 64/67/46
f 63/66/45 68/71/50 67/70/49
f 64/67/46 69/72/51 70/73/51
f 65/68/47 64/67/46 70/73/51
f 64/67/46 67/70/49 69/72/51
f 67/70/49 71/74/51 69/72/51
f 67/70/49 72/75/49 71/74/51
f 68/71/50 72/75/49 67/70/49
f 9/76/52 72/75/49 68/71/50
f 12/77/53 9/76/52 68/71/50
f 12/77/53 68/71/50 54/57/40
f 10/78/51 73/79/51 72/75/49
f 9/76/52 10/78/51 72/75/49
f 72/75/49 73/79/51 71/74/51
f 48/80/54 74/81/54 73/79/51
f 10/78/51 48/80/54 73/79/51
f 73/79/51 74/81/54 75/82/54
f 71/74/51 73/79/51 75/82/54
f 47/83/55 76/84/55 74/81/54
f 48/80/54 47/83/55 74/81/54
f 74/81/54 76/84/55 77/85/55
f 75/82/54 74/81/54 77/85/55
f 75/82/54 77/85/55 78/86/55
f 79/87/54 75/82/54 78/86/55
f 71/74/51 75/82/54 79/87/54
f 77/85/55 80/88/56 81/89/57
f 78/86/55 77/85/55 81/89/57
f 77/85/55 76/84/55 80/88/56
f 78/86/55 81/89/57 82/90/57
f 83/91/55 78/86/55 82/90/57
f 79/87/54 78/86/55 83/91/55
f 84/92/54 79/87/54 83/91/55
f 69/72/51 79/87/54 84/92/54
f 69/72/51 71/74/51 79/87/54
f 83/91/55 82/90/57 85/93/57
f 86/94/55 83/91/55 85/93/57
f 84/92/54 83/91/55 86/94/55
f 82/90/57 87/95/58 88/96/58
f 85/93/57 82/90/57 88/96/58
f 82/90/57 81/89/57 87/95/58
f 88/96/58 87/95/58 89/97/59
f 87/95/58 90/98/59 89/97/59
f 87/95/58 91/99/58 90/98/59
f 81/89/57 91/99/58 87/95/58
f 89/97/59 90/98/59 92/100/60
f 90/98/59 93/101/60 92/100/60
f 90/98/59 94/102/59 93/101/60
f 91/99/58 94/102/59 90/98/59
f 91/99/58 95/103/58 94/102/59
f 80/88/56 95/103/58 91/99/58
f 81/89/57 80/88/56 91/99/58
f 94/102/59 96/104/60 93/101/60
f 94/102/59 97/105/59 96/104/60
f 95/103/58 97/105/59 94/102/59
f 93/101/60 98/106/61 99/107/61
f 92/100/60 93/101/60 99/107/61
f 93/101/60 96/104/60 98/106/61
f 96/104/60 100/108/61 98/106/61
f 96/104/60 101/109/60 100/108/61
f 97/105/59 101/109/60 96/104/60
f 97/105/59 102/110/59 101/109/60
f 103/111/58 102/110/59 97/105/59
f 95/103/58 103/111/58 97/105/59
f 101/109/60 104/112/61 100/108/61
f 101/109/60 105/113/60 104/112/61
f 102/110/59 105/113/60 101/109/60
f 100/108/61 106/114/62 107/115/62
f 98/106/61 100/108/61 107/115/62
f 100/108/61 104/112/61 106/114/62
f 104/112/61 108/116/62 106/114/62
f 104/112/61 109/117/61 108/116/62
f 105/113/60 109/117/61 104/112/61
f 30/118/61 109/117/61 105/113/60
f 36/119/60 30/118/61 105/113/60
f 36/119/60 105/113/60 102/110/59
f 27/120/62 110/121/62 109/117/61
f 30/118/61 27/120/62 109/117/61
f 109/117/61 110/121/62 108/116/62
f 38/122/59 36/119/60 102/110/59
f 38/122/59 102/110/59 103/111/58
f 39/123/58 38/122/59 103/111/58
f 39/123/58 103/111/58 111/124/57
f 111/124/57 103/111/58 95/103/58
f 42/125/56 39/123/58 111/124/57
f 42/125/56 111/124/57 76/84/55
f 80/88/56 111/124/57 95/103/58
f 76/84/55 111/124/57 80/88/56
f 47/83/55 42/125/56 76/84/55
f 98/106/61 107/115/62 112/126/62
f 99/107/61 98/106/61 112/126/62
f 113/127/54 84/92/54 86/94/55
f 70/73/51 84/92/54 113/127/54
f 70/73/51 69/72/51 84/92/54
f 114/128/51 70/73/51 113/127/54
f 65/68/47 70/73/51 114/128/51
f 115/129/63 65/68/47 114/128/51
f 66/69/48 65/68/47 115/129/63
f 116/130/64 66/69/48 115/129/63
f 61/64/43 66/69/48 116/130/64
f 117/131/65 61/64/43 116/130/64
f 61/64/43 117/131/65 118/132/34
f 60/63/34 61/64/43 118/132/34
f 119/133/36 60/63/34 118/132/34
f 120/134/36 119/133/36 118/132/34
f 119/133/36 58/61/36 60/63/34
f 121/135/37 119/133/36 120/134/36
f 122/136/37 58/61/36 119/133/36
f 121/135/37 122/136/37 119/133/36
f 123/137/37 121/135/37 120/134/36
f 124/138/66 121/135/37 123/137/37
f 125/139/66 122/136/37 121/135/37
f 124/138/66 125/139/66 121/135/37
f 122/136/37 59/62/37 58/61/36
f 126/140/66 59/62/37 122/136/37
f 125/139/66 126/140/66 122/136/37
f 106/141/62 125/139/66 124/138/66
f 108/142/62 126/140/66 125/139/66
f 106/141/62 108/142/62 125/139/66
f 127/143/66 124/138/66 123/137/37
f 107/144/62 124/138/66 127/143/66
f 107/144/62 106/141/62 124/138/66
f 112/145/62 107/144/62 127/143/66
f 108/142/62 110/146/62 126/140/66
f 126/140/66 128/147/66 59/62/37
f 110/146/62 128/147/66 126/140/66
f 128/147/66 51/53/37 59/62/37
f 24/148/37 51/53/37 128/147/66
f 26/149/66 24/148/37 128/147/66
f 26/149/66 128/147/66 110/146/62
f 27/150/62 26/149/66 110/146/62
f 24/148/37 18/52/36 51/53/37
f 14/56/39 12/77/53 54/57/40
f 129/151/67 130/152/67 131/153/67
f 132/154/67 129/151/67 131/153/67
f 132/154/67 131/153/67 133/155/67
f 134/156/67 135/157/67 129/151/67
f 136/158/67 134/156/67 129/151/67
f 129/151/67 132/154/67 137/159/67
f 136/158/67 129/151/67 137/159/67
f 132/154/67 138/160/67 137/159/67
f 132/154/67 139/161/67 138/160/67
f 137/159/67 140/162/67 136/158/67
f 137/159/67 141/163/67 140/162/67
f 138/160/67 142/164/67 137/159/67
f 136/158/67 143/165/67 134/156/67
f 140/162/67 144/166/67 136/158/67
f 145/132/67 146/134/67 120/134/67
f 146/134/67 147/137/67 123/137/67
f 147/137/67 148/143/67 127/143/67
f 148/143/67 149/145/67 112/145/67
f 150/131/67 145/132/67 118/132/67
f 151/130/67 150/131/67 117/131/67
f 152/129/67 151/130/67 116/130/67
f 153/128/67 152/129/67 115/129/67
f 154/127/67 153/128/67 114/128/67
f 155/94/67 154/127/67 113/127/67
f 156/93/67 155/94/67 86/94/67
f 157/96/67 156/93/67 85/93/67
f 158/97/67 157/96/67 88/96/67
f 159/100/67 158/97/67 89/97/67
f 160/107/67 159/100/67 92/100/67
f 149/126/67 160/107/67 99/107/67
f 118/132/67 145/132/67 120/134/67
f 120/134/67 146/134/67 123/137/67
f 117/131/67 150/131/67 118/132/67
f 116/130/67 151/130/67 117/131/67
f 115/129/67 152/129/67 116/130/67
f 114/128/67 153/128/67 115/129/67
f 113/127/67 154/127/67 114/128/67
f 86/94/67 155/94/67 113/127/67
f 85/93/67 156/93/67 86/94/67
f 88/96/67 157/96/67 85/93/67
f 89/97/67 158/97/67 88/96/67
f 92/100/67 159/100/67 89/97/67
f 99/107/67 160/107/67 92/100/67
f 112/126/67 149/126/67 99/107/67
f 123/137/67 147/137/67 127/143/67
f 127/143/67 148/143/67 112/145/67
f 145/132/58 161/63/58 162/133/57
f 146/134/57 145/132/58 162/133/57
f 146/134/57 162/133/57 163/135/68
f 162/133/57 161/63/58 164/58/58
f 165/61/57 162/133/57 164/58/58
f 163/135/68 162/133/57 165/61/57
f 145/132/58 150/131/69 161/63/58
f 150/131/69 151/130/70 166/167/69
f 150/131/69 166/167/69 161/63/58
f 151/130/70 167/168/70 166/167/69
f 166/167/69 167/168/70 168/169/70
f 169/170/69 166/167/69 168/169/70
f 161/63/58 166/167/69 169/170/69
f 151/130/70 152/129/61 167/168/70
f 152/129/61 170/68/61 167/168/70
f 167/168/70 170/68/61 171/67/61
f 168/169/70 167/168/70 171/67/61
f 168/169/70 171/67/61 172/70/61
f 173/171/70 168/169/70 172/70/61
f 169/170/69 168/169/70 173/171/70
f 164/58/58 161/63/58 169/170/69
f 174/172/69 169/170/69 173/171/70
f 164/58/58 169/170/69 174/172/69
f 173/171/70 172/70/61 175/75/61
f 176/173/70 173/171/70 175/75/61
f 174/172/69 173/171/70 176/173/70
f 177/54/58 164/58/58 174/172/69
f 178/174/69 174/172/69 176/173/70
f 177/54/58 174/172/69 178/174/69
f 165/61/57 164/58/58 177/54/58
f 179/55/57 165/61/57 177/54/58
f 179/55/57 177/54/58 180/50/58
f 180/50/58 177/54/58 178/174/69
f 178/174/69 176/173/70 132/175/70
f 133/176/69 178/174/69 132/175/70
f 180/50/58 178/174/69 133/176/69
f 176/173/70 175/75/61 139/177/61
f 132/175/70 176/173/70 139/177/61
f 139/177/61 175/75/61 138/178/62
f 138/178/62 181/79/62 142/179/71
f 175/75/61 181/79/62 138/178/62
f 142/179/71 182/81/71 137/180/72
f 181/79/62 182/81/71 142/179/71
f 181/79/62 183/74/62 182/81/71
f 172/70/61 183/74/62 181/79/62
f 175/75/61 172/70/61 181/79/62
f 182/81/71 184/82/71 185/84/72
f 183/74/62 184/82/71 182/81/71
f 182/81/71 185/84/72 137/180/72
f 137/180/72 185/84/72 141/181/73
f 185/84/72 186/85/72 187/124/73
f 184/82/71 186/85/72 185/84/72
f 185/84/72 187/124/73 141/181/73
f 184/82/71 188/87/71 186/85/72
f 189/72/62 188/87/71 184/82/71
f 183/74/62 189/72/62 184/82/71
f 186/85/72 190/86/72 191/88/73
f 188/87/71 190/86/72 186/85/72
f 186/85/72 191/88/73 187/124/73
f 187/124/73 191/88/73 192/111/34
f 187/124/73 192/111/34 140/182/34
f 141/181/73 187/124/73 140/182/34
f 191/88/73 193/89/73 194/103/34
f 190/86/72 193/89/73 191/88/73
f 191/88/73 194/103/34 192/111/34
f 190/86/72 195/91/72 193/89/73
f 196/92/71 195/91/72 190/86/72
f 188/87/71 196/92/71 190/86/72
f 193/89/73 197/90/73 198/99/34
f 195/91/72 197/90/73 193/89/73
f 193/89/73 198/99/34 194/103/34
f 194/103/34 198/99/34 199/105/74
f 194/103/34 199/105/74 200/110/74
f 192/111/34 194/103/34 200/110/74
f 198/99/34 201/95/34 202/102/74
f 197/90/73 201/95/34 198/99/34
f 198/99/34 202/102/74 199/105/74
f 157/96/34 201/95/34 197/90/73
f 156/93/73 157/96/34 197/90/73
f 156/93/73 197/90/73 195/91/72
f 158/97/74 203/98/74 201/95/34
f 157/96/34 158/97/74 201/95/34
f 201/95/34 203/98/74 202/102/74
f 202/102/74 203/98/74 204/104/75
f 202/102/74 204/104/75 205/109/75
f 199/105/74 202/102/74 205/109/75
f 159/100/75 206/101/75 203/98/74
f 158/97/74 159/100/75 203/98/74
f 203/98/74 206/101/75 204/104/75
f 204/104/75 206/101/75 207/108/47
f 204/104/75 207/108/47 208/112/47
f 205/109/75 204/104/75 208/112/47
f 205/109/75 208/112/47 209/117/47
f 210/113/75 205/109/75 209/117/47
f 199/105/74 205/109/75 210/113/75
f 208/112/47 207/108/47 211/116/51
f 208/112/47 211/116/51 212/121/51
f 209/117/47 208/112/47 212/121/51
f 209/117/47 212/121/51 134/183/51
f 143/184/47 209/117/47 134/183/51
f 210/113/75 209/117/47 143/184/47
f 200/110/74 199/105/74 210/113/75
f 136/185/75 210/113/75 143/184/47
f 200/110/74 210/113/75 136/185/75
f 144/186/74 200/110/74 136/185/75
f 192/111/34 200/110/74 144/186/74
f 140/182/34 192/111/34 144/186/74
f 207/108/47 213/114/51 211/116/51
f 214/106/47 215/115/51 213/114/51
f 207/108/47 214/106/47 213/114/51
f 206/101/75 214/106/47 207/108/47
f 149/126/51 215/115/51 214/106/47
f 160/107/47 149/126/51 214/106/47
f 160/107/47 214/106/47 206/101/75
f 159/100/75 160/107/47 206/101/75
f 155/94/72 156/93/73 195/91/72
f 155/94/72 195/91/72 196/92/71
f 154/127/71 155/94/72 196/92/71
f 154/127/71 196/92/71 216/73/62
f 216/73/62 196/92/71 188/87/71
f 153/128/62 154/127/71 216/73/62
f 153/128/62 216/73/62 170/68/61
f 189/72/62 216/73/62 188/87/71
f 170/68/61 216/73/62 189/72/62
f 152/129/61 153/128/62 170/68/61
f 171/67/61 170/68/61 189/72/62
f 171/67/61 189/72/62 183/74/62
f 172/70/61 171/67/61 183/74/62
f 217/51/57 179/55/57 180/50/58
f 217/51/57 180/50/58 131/187/58
f 131/187/58 180/50/58 133/176/69
f 218/136/68 165/61/57 179/55/57
f 219/62/68 218/136/68 179/55/57
f 219/62/68 179/55/57 217/51/57
f 220/53/68 219/62/68 217/51/57
f 130/188/57 217/51/57 131/187/58
f 220/53/68 217/51/57 130/188/57
f 221/139/76 218/136/68 219/62/68
f 222/140/76 221/139/76 219/62/68
f 222/140/76 219/62/68 220/53/68
f 218/136/68 163/135/68 165/61/57
f 223/138/76 163/135/68 218/136/68
f 221/139/76 223/138/76 218/136/68
f 215/144/51 223/138/76 221/139/76
f 213/141/51 215/144/51 221/139/76
f 213/141/51 221/139/76 222/140/76
f 211/142/51 213/141/51 222/140/76
f 224/147/76 222/140/76 220/53/68
f 211/142/51 222/140/76 224/147/76
f 212/146/51 211/142/51 224/147/76
f 224/147/76 220/53/68 129/189/68
f 135/190/76 224/147/76 129/189/68
f 212/146/51 224/147/76 135/190/76
f 134/191/51 212/146/51 135/190/76
f 129/189/68 220/53/68 130/188/57
f 148/143/76 223/138/76 215/144/51
f 149/145/51 148/143/76 215/144/51
f 148/143/76 147/137/68 223/138/76
f 147/137/68 163/135/68 223/138/76
f 147/137/68 146/134/57 163/135/68
f 225/192/77 66/193/78 61/194/78
f 226/195/79 225/192/77 61/194/78
f 227/196/80 228/197/81 225/192/77
f 226/195/79 227/196/80 225/192/77
f 229/198/82 62/199/83 66/200/83
f 225/201/84 229/198/82 66/200/83
f 230/202/85 229/198/82 225/201/84
f 228/203/86 230/202/85 225/201/84
f 231/204/87 230/202/85 228/203/86
f 232/205/88 231/204/87 228/203/86
f 233/206/89 234/207/90 231/204/87
f 232/205/88 233/206/89 231/204/87
f 235/208/91 234/207/90 233/206/89
f 236/209/92 235/208/91 233/206/89
f 237/210/93 235/208/91 236/209/92
f 238/211/94 237/210/93 236/209/92
f 239/212/95 240/213/96 237/210/93
f 238/211/94 239/212/95 237/210/93
f 241/214/97 242/215/98 240/213/96
f 239/212/95 241/214/97 240/213/96
f 243/216/99 244/217/100 242/215/98
f 241/214/97 243/216/99 242/215/98
f 244/217/100 243/216/99 63/218/101
f 243/216/99 68/219/102 63/218/101
f 229/220/103 245/221/104 57/222/103
f 62/223/105 229/220/103 57/222/103
f 230/224/106 246/225/107 245/221/108
f 229/220/109 230/224/106 245/221/108
f 245/226/110 226/227/111 61/222/112
f 57/228/113 245/226/110 61/222/112
f 246/229/114 227/230/115 226/227/111
f 245/226/110 246/229/114 226/227/111
f 247/231/116 248/232/117 227/230/115
f 246/229/114 247/231/116 227/230/115
f 249/233/118 248/232/117 247/231/116
f 250/234/119 249/233/118 247/231/116
f 251/235/120 252/236/121 249/233/118
f 250/234/119 251/235/120 249/233/118
f 253/237/122 254/238/123 252/236/121
f 251/235/120 253/237/122 252/236/121
f 255/239/124 254/238/123 253/237/122
f 256/240/125 255/239/124 253/237/122
f 257/241/126 258/242/127 255/239/124
f 256/240/125 257/241/126 255/239/124
f 259/243/128 258/242/127 257/241/126
f 260/244/129 259/243/128 257/241/126
f 259/243/128 260/244/129 56/245/130
f 54/246/131 259/243/128 56/245/130
f 248/247/132 232/248/133 228/249/134
f 227/250/135 248/247/132 228/249/134
f 249/251/136 233/252/137 232/248/133
f 248/247/132 249/251/136 232/248/133
f 252/253/138 236/254/139 233/252/137
f 249/251/136 252/253/138 233/252/137
f 254/255/140 238/256/141 236/254/139
f 252/253/138 254/255/140 236/254/139
f 231/257/142 247/258/143 246/259/144
f 230/260/145 231/257/142 246/259/144
f 234/261/146 250/262/147 247/258/143
f 231/257/142 234/261/146 247/258/143
f 235/263/148 251/264/149 250/262/147
f 234/261/146 235/263/148 250/262/147
f 237/265/150 253/266/151 251/264/149
f 235/263/148 237/265/150 251/264/149
f 255/267/152 239/268/153 238/269/141
f 254/270/140 255/267/152 238/269/141
f 258/271/154 241/272/154 239/268/153
f 255/267/152 258/271/154 239/268/153
f 259/273/155 243/274/156 241/272/154
f 258/271/154 259/273/155 241/272/154
f 243/274/156 259/273/155 68/275/157
f 259/273/155 54/276/158 68/275/157
f 240/277/159 256/278/160 253/279/151
f 237/280/150 240/277/159 253/279/151
f 242/281/161 257/282/162 256/278/160
f 240/277/159 242/281/161 256/278/160
f 244/283/163 260/284/164 257/282/162
f 242/281/161 244/283/163 257/282/162
f 260/284/164 244/283/163 56/285/165
f 244/283/163 63/286/166 56/285/165
