# Blender 4.2.3 LTS
# www.blender.org
mtllib Tank2.mtl
o Tank2
v -12.296418 2.807784 -51.720940
v 0.000997 0.000980 -51.720940
v -12.296418 2.807796 72.233696
v 0.000997 0.000992 72.233696
v -22.158176 10.672291 72.233696
v 12.298384 2.807771 -51.720940
v 12.298384 2.807783 72.233696
v 22.160156 10.672256 -51.720940
v 22.160156 10.672270 72.233696
v 27.633030 22.036772 -51.720940
v 27.633030 22.036785 72.233696
v 27.633039 34.650448 -51.720943
v 27.633039 34.650452 72.233696
v 22.160179 46.014977 -51.720932
v 22.160179 46.014977 72.233696
v 12.298417 53.879471 -51.720932
v 12.298417 53.879478 72.233688
v 0.000999 56.686279 -51.720932
v 0.000999 56.686283 72.233688
v -22.158176 10.672276 -51.720940
v -27.631041 22.036806 72.233696
v -27.631041 22.036793 -51.720940
v -27.631041 34.650467 72.233696
v -27.631041 34.650463 -51.720943
v -22.158178 46.014984 72.233696
v -22.158178 46.014984 -51.720932
v -12.296420 53.879478 72.233688
v -12.296420 53.879471 -51.720932
v -9.860764 7.865488 76.832375
v 0.000997 5.614605 76.832375
v -17.769279 14.172318 76.832375
v -5.471865 16.979124 80.014740
v -9.860759 20.479151 80.014740
v -22.158175 23.285952 76.832375
v -12.296412 25.536837 80.014740
v 0.000998 28.343639 81.150520
v 0.000998 15.729980 80.014740
v 9.862735 7.865477 76.832375
v 5.473848 16.979118 80.014740
v 17.771261 14.172301 76.832375
v 9.862748 20.479141 80.014740
v 22.160166 23.285936 76.832375
v 12.298406 25.536827 80.014740
v 22.160172 33.401314 76.832367
v 12.298409 31.150436 80.014740
v 17.771280 42.514957 76.832367
v 9.862759 36.208126 80.014740
v 9.862761 48.821796 76.832367
v 5.473863 39.708157 80.014740
v 0.000999 51.072678 76.832359
v 0.000999 40.957302 80.014740
v -9.860765 48.821796 76.832367
v -5.471866 39.708157 80.014740
v -17.769281 42.514961 76.832367
v -9.860760 36.208130 80.014740
v -22.158175 33.401325 76.832367
v -12.296412 31.150442 80.014740
v -6.982517 18.731653 83.662109
v 0.000998 16.462568 83.662109
v 0.000999 28.343639 83.662102
v -11.298570 24.672190 83.662109
v -11.298567 32.015099 83.662102
v -6.982512 37.955631 83.662102
v 0.001010 40.224709 83.662102
v 6.984528 37.955620 83.662102
v 11.300572 32.015079 83.662102
v 11.300561 24.672169 83.662109
v 6.984497 18.731638 83.662109
v 6.984497 18.731638 79.774544
v 0.000998 16.462568 79.774544
v -6.982517 18.731653 79.774544
v 11.300561 24.672167 79.774544
v 11.300572 32.015076 79.774544
v 6.984528 37.955620 79.774544
v 0.001010 40.224709 79.774544
v -6.982512 37.955631 79.774544
v -11.298570 24.672190 79.774544
v -11.298567 32.015099 79.774544
v 6.984514 18.731638 -83.664101
v 0.000998 16.462555 -83.664101
v 0.000998 28.343624 -83.664101
v 11.300567 24.672174 -83.664101
v 11.300564 32.015079 -83.664101
v 6.984509 37.955616 -83.664101
v 0.000986 40.224689 -83.664101
v -6.982532 37.955601 -83.664101
v -11.298575 32.015057 -83.664101
v -11.298564 24.672153 -83.664101
v -6.982501 18.731625 -83.664101
v -6.982500 18.731627 -79.496986
v 0.000999 16.462557 -79.496986
v 6.984515 18.731638 -79.496986
v -11.298563 24.672153 -79.496986
v -11.298574 32.015060 -79.496986
v -6.982531 37.955601 -79.496986
v 0.000987 40.224689 -79.496986
v 6.984509 37.955616 -79.496986
v 11.300568 24.672176 -79.496986
v 11.300565 32.015079 -79.496986
v -28.519958 35.765121 -80.086586
v -28.519958 22.745682 -80.086586
v -28.519958 35.765137 -51.622860
v -28.519958 22.745687 -51.622856
v -22.871035 47.495247 -51.622849
v -28.519958 0.000985 -80.086586
v -28.519958 0.000991 -51.622856
v -22.871035 47.495235 -80.086586
v -12.692026 55.612740 -51.622849
v -12.692026 55.612728 -80.086594
v 0.000999 58.509842 -51.622849
v 0.000999 58.509827 -80.086594
v 12.694023 55.612740 -51.622849
v 12.694023 55.612728 -80.086594
v 22.873035 47.495239 -51.622849
v 22.873035 47.495228 -80.086586
v 28.521957 35.765121 -51.622860
v 28.521957 35.765106 -80.086586
v 28.521948 22.745665 -51.622856
v 28.521948 22.745661 -80.086586
v 28.521946 0.000991 -51.622856
v 28.521946 0.000985 -80.086586
v 0.000995 29.255398 -80.086586
v 0.000995 0.000985 -80.086586
v 0.000996 29.255402 -51.622860
v 0.000996 0.000991 -51.622856
v 20.024689 0.000988 -24.189972
v 20.024687 10.620543 -24.189980
v -21.212772 0.000988 -24.189972
v -21.212772 10.620543 -24.189980
v 20.024689 0.000987 -32.252960
v 20.024687 10.620540 -32.252968
v -21.212772 0.000987 -32.252960
v -21.212772 10.620540 -32.252968
v 20.024689 0.000992 59.518528
v 20.024687 10.620547 59.518532
v -21.212772 0.000992 59.518528
v -21.212772 10.620547 59.518532
v 20.024689 0.000992 51.455540
v 20.024687 10.620546 51.455540
v -21.212772 0.000992 51.455540
v -21.212772 10.620546 51.455540
vn -0.4339 -0.9010 -0.0000
vn -0.0000 -1.0000 -0.0000
vn -0.7818 -0.6235 -0.0000
vn 0.4339 -0.9010 -0.0000
vn 0.7818 -0.6235 -0.0000
vn 0.9749 -0.2225 -0.0000
vn 0.9749 0.2225 -0.0000
vn 0.7818 0.6235 -0.0000
vn 0.4339 0.9010 -0.0000
vn -0.0000 1.0000 -0.0000
vn -0.9749 -0.2225 -0.0000
vn -0.9749 0.2225 -0.0000
vn -0.7818 0.6235 -0.0000
vn -0.4339 0.9010 -0.0000
vn -0.2750 -0.5710 0.7736
vn -0.0000 -0.6337 0.7736
vn -0.2152 -0.4468 0.8684
vn -0.0000 -0.4959 0.8684
vn -0.3877 -0.3092 0.8684
vn -0.0914 -0.1898 0.9776
vn -0.1647 -0.1314 0.9776
vn -0.4955 -0.3951 0.7736
vn -0.4835 -0.1104 0.8684
vn -0.2054 -0.0469 0.9776
vn -0.0000 -0.0000 1.0000
vn -0.0000 -0.2107 0.9776
vn 0.2152 -0.4468 0.8684
vn 0.0914 -0.1898 0.9776
vn 0.2750 -0.5710 0.7736
vn 0.4955 -0.3951 0.7736
vn 0.3877 -0.3092 0.8684
vn 0.1647 -0.1313 0.9776
vn 0.6178 -0.1410 0.7736
vn 0.4835 -0.1104 0.8684
vn 0.2054 -0.0469 0.9776
vn 0.6178 0.1410 0.7736
vn 0.4835 0.1104 0.8684
vn 0.2054 0.0469 0.9776
vn 0.4955 0.3951 0.7736
vn 0.3877 0.3092 0.8684
vn 0.1647 0.1314 0.9776
vn 0.2750 0.5710 0.7736
vn 0.2152 0.4468 0.8684
vn 0.0914 0.1898 0.9776
vn -0.0000 0.6337 0.7736
vn -0.0000 0.4959 0.8684
vn -0.0000 0.2107 0.9776
vn -0.2750 0.5710 0.7736
vn -0.2152 0.4468 0.8684
vn -0.0914 0.1898 0.9776
vn -0.4955 0.3951 0.7736
vn -0.3877 0.3092 0.8684
vn -0.1647 0.1314 0.9776
vn -0.6178 0.1410 0.7736
vn -0.4835 0.1104 0.8684
vn -0.2054 0.0469 0.9776
vn -0.6178 -0.1410 0.7736
vn 0.3090 -0.9511 -0.0000
vn -0.3090 -0.9511 -0.0000
vn 0.8090 -0.5878 -0.0000
vn 1.0000 -0.0000 -0.0000
vn 0.8090 0.5878 -0.0000
vn 0.3090 0.9511 -0.0000
vn -0.3090 0.9511 -0.0000
vn -0.8090 -0.5878 -0.0000
vn -1.0000 -0.0000 -0.0000
vn -0.8090 0.5878 -0.0000
vn -0.0000 -0.0000 -1.0000
vt 0.483273 0.593641
vt 0.422864 0.593641
vt 0.483273 0.000000
vt 0.422864 0.000000
vt 0.543682 0.000000
vt 0.362455 0.593641
vt 0.362455 0.000000
vt 0.302046 0.593641
vt 0.302046 0.000000
vt 0.241637 0.593641
vt 0.241637 0.000000
vt 0.181227 0.593641
vt 0.181227 0.000000
vt 0.120818 0.593641
vt 0.120818 0.000000
vt 0.060409 0.593641
vt 0.060409 0.000000
vt 0.000000 0.593641
vt 0.000000 0.000000
vt 0.543682 0.593641
vt 0.604091 0.000000
vt 0.604091 0.593641
vt 0.664500 0.000000
vt 0.664500 0.593641
vt 0.724909 0.000000
vt 0.724909 0.593641
vt 0.785318 0.000000
vt 0.785318 0.593641
vt 0.845727 0.000000
vt 0.845727 0.593641
vt 0.709311 0.823119
vt 0.694849 0.759754
vt 0.735372 0.810569
vt 0.723774 0.759754
vt 0.767869 0.851319
vt 0.782331 0.787954
vt 0.800366 0.810569
vt 0.749834 0.873933
vt 0.814828 0.873933
vt 0.826426 0.823119
vt 0.840889 0.759754
vt 0.775895 0.759754
vt 0.735372 0.708940
vt 0.782331 0.731555
vt 0.709311 0.696390
vt 0.749834 0.645576
vt 0.767869 0.668190
vt 0.800366 0.708940
vt 0.808392 0.617376
vt 0.814828 0.645576
vt 0.826426 0.696390
vt 0.873386 0.617376
vt 0.866949 0.645576
vt 0.855351 0.696390
vt 0.931943 0.645576
vt 0.913909 0.668190
vt 0.881412 0.708940
vt 0.972466 0.696390
vt 0.946406 0.708940
vt 0.899446 0.731555
vt 0.986929 0.759754
vt 0.958004 0.759754
vt 0.905883 0.759754
vt 0.972466 0.823119
vt 0.946406 0.810569
vt 0.899446 0.787954
vt 0.931943 0.873933
vt 0.913909 0.851319
vt 0.881412 0.810569
vt 0.873386 0.902133
vt 0.866949 0.873933
vt 0.855351 0.823119
vt 0.808392 0.902133
vt 0.880134 0.479754
vt 0.868293 0.443312
vt 0.930293 0.443312
vt 0.911134 0.502277
vt 0.949452 0.502277
vt 0.980452 0.479754
vt 0.992293 0.443312
vt 0.980452 0.406869
vt 0.949452 0.384346
vt 0.911134 0.384346
vt 0.880134 0.406869
vt 0.970577 0.191973
vt 0.991491 0.191973
vt 0.970577 0.228826
vt 0.991491 0.228826
vt 0.991491 0.265679
vt 0.970577 0.265679
vt 0.970577 0.155120
vt 0.991491 0.155120
vt 0.970577 0.118267
vt 0.991491 0.118267
vt 0.970577 0.081414
vt 0.991491 0.081414
vt 0.970577 0.044561
vt 0.991491 0.044561
vt 0.970577 0.007708
vt 0.991491 0.007708
vt 0.970577 0.302532
vt 0.991491 0.302532
vt 0.970577 0.339385
vt 0.991491 0.339385
vt 0.970577 0.376238
vt 0.991491 0.376238
vt 0.172755 1.000000
vt 0.109866 1.000000
vt 0.172755 0.862509
vt 0.109866 0.862509
vt 0.235644 0.862509
vt 0.000000 1.000000
vt 0.000000 0.862509
vt 0.235644 1.000000
vt 0.298533 0.862509
vt 0.298533 1.000000
vt 0.361422 0.862509
vt 0.361422 1.000000
vt 0.424312 0.862509
vt 0.424312 1.000000
vt 0.487201 0.862509
vt 0.487201 1.000000
vt 0.550090 0.862509
vt 0.550090 1.000000
vt 0.612979 0.862509
vt 0.612979 1.000000
vt 0.722845 0.862509
vt 0.722845 1.000000
vt 0.129169 0.856453
vt 0.158583 0.727582
vt 0.187998 0.856453
vt 0.290769 0.727582
vt 0.290769 0.856453
vt 0.076167 0.830929
vt 0.039488 0.784935
vt 0.026398 0.727582
vt 0.039488 0.670228
vt 0.076167 0.624234
vt 0.129169 0.598710
vt 0.187998 0.598710
vt 0.290769 0.598710
vt 0.428431 0.856453
vt 0.457845 0.727582
vt 0.487259 0.856453
vt 0.540262 0.830929
vt 0.325659 0.856453
vt 0.325659 0.727582
vt 0.428431 0.598710
vt 0.325659 0.598710
vt 0.487259 0.598710
vt 0.540262 0.624234
vt 0.576941 0.670228
vt 0.590031 0.727582
vt 0.576941 0.784935
vt 0.887876 0.174475
vt 0.923310 0.174475
vt 0.887876 0.312072
vt 0.923310 0.312072
vt 0.887876 0.147572
vt 0.923310 0.147572
vt 0.887876 0.009974
vt 0.923310 0.009974
vt 0.887876 0.338976
vt 0.923310 0.338976
vt 0.961916 0.172269
vt 0.926482 0.172269
vt 0.961916 0.034672
vt 0.926482 0.034672
vt 0.961916 0.199173
vt 0.926482 0.199173
vt 0.961916 0.336770
vt 0.926482 0.336770
vt 0.961916 0.007769
vt 0.926482 0.007768
s 1
usemtl 07_-_Default
f 1/1/1 2/2/2 3/3/1
f 4/4/2 3/3/1 2/2/2
f 3/3/1 5/5/3 1/1/1
f 2/2/2 6/6/4 4/4/2
f 7/7/4 4/4/2 6/6/4
f 6/6/4 8/8/5 7/7/4
f 9/9/5 7/7/4 8/8/5
f 8/8/5 10/10/6 9/9/5
f 11/11/6 9/9/5 10/10/6
f 10/10/6 12/12/7 11/11/6
f 13/13/7 11/11/6 12/12/7
f 12/12/7 14/14/8 13/13/7
f 15/15/8 13/13/7 14/14/8
f 14/14/8 16/16/9 15/15/8
f 17/17/9 15/15/8 16/16/9
f 16/16/9 18/18/10 17/17/9
f 19/19/10 17/17/9 18/18/10
f 20/20/3 1/1/1 5/5/3
f 5/5/3 21/21/11 20/20/3
f 22/22/11 20/20/3 21/21/11
f 21/21/11 23/23/12 22/22/11
f 24/24/12 22/22/11 23/23/12
f 23/23/12 25/25/13 24/24/12
f 26/26/13 24/24/12 25/25/13
f 25/25/13 27/27/14 26/26/13
f 28/28/14 26/26/13 27/27/14
f 27/27/14 19/29/10 28/28/14
f 18/30/10 28/28/14 19/29/10
f 3/31/15 4/32/16 29/33/17
f 30/34/18 29/33/17 4/32/16
f 29/33/17 31/35/19 3/31/15
f 29/33/17 30/34/18 32/36/20
f 31/35/19 29/33/17 33/37/21
f 32/36/20 33/37/21 29/33/17
f 5/38/22 3/31/15 31/35/19
f 31/35/19 34/39/23 5/38/22
f 34/39/23 31/35/19 35/40/24
f 33/37/21 35/40/24 31/35/19
f 33/37/21 32/36/20 36/41/25
f 35/40/24 33/37/21 36/41/25
f 37/42/26 32/36/20 30/34/18
f 32/36/20 37/42/26 36/41/25
f 30/34/18 38/43/27 37/42/26
f 39/44/28 37/42/26 38/43/27
f 37/42/26 39/44/28 36/41/25
f 7/45/29 9/46/30 38/43/27
f 40/47/31 38/43/27 9/46/30
f 38/43/27 30/34/18 7/45/29
f 38/43/27 40/47/31 39/44/28
f 41/48/32 39/44/28 40/47/31
f 39/44/28 41/48/32 36/41/25
f 9/46/30 11/49/33 40/47/31
f 42/50/34 40/47/31 11/49/33
f 40/47/31 42/50/34 41/48/32
f 43/51/35 41/48/32 42/50/34
f 41/48/32 43/51/35 36/41/25
f 11/49/33 13/52/36 42/50/34
f 44/53/37 42/50/34 13/52/36
f 42/50/34 44/53/37 43/51/35
f 45/54/38 43/51/35 44/53/37
f 43/51/35 45/54/38 36/41/25
f 13/52/36 15/55/39 44/53/37
f 46/56/40 44/53/37 15/55/39
f 44/53/37 46/56/40 45/54/38
f 47/57/41 45/54/38 46/56/40
f 45/54/38 47/57/41 36/41/25
f 15/55/39 17/58/42 46/56/40
f 48/59/43 46/56/40 17/58/42
f 46/56/40 48/59/43 47/57/41
f 49/60/44 47/57/41 48/59/43
f 47/57/41 49/60/44 36/41/25
f 17/58/42 19/61/45 48/59/43
f 50/62/46 48/59/43 19/61/45
f 48/59/43 50/62/46 49/60/44
f 51/63/47 49/60/44 50/62/46
f 49/60/44 51/63/47 36/41/25
f 19/61/45 27/64/48 50/62/46
f 52/65/49 50/62/46 27/64/48
f 50/62/46 52/65/49 51/63/47
f 53/66/50 51/63/47 52/65/49
f 51/63/47 53/66/50 36/41/25
f 27/64/48 25/67/51 52/65/49
f 54/68/52 52/65/49 25/67/51
f 52/65/49 54/68/52 53/66/50
f 55/69/53 53/66/50 54/68/52
f 53/66/50 55/69/53 36/41/25
f 25/67/51 23/70/54 54/68/52
f 56/71/55 54/68/52 23/70/54
f 54/68/52 56/71/55 55/69/53
f 57/72/56 55/69/53 56/71/55
f 55/69/53 57/72/56 36/41/25
f 57/72/56 35/40/24 36/41/25
f 56/71/55 34/39/23 57/72/56
f 35/40/24 57/72/56 34/39/23
f 23/70/54 21/73/57 56/71/55
f 34/39/23 56/71/55 21/73/57
f 21/73/57 5/38/22 34/39/23
f 4/32/16 7/45/29 30/34/18
f 58/74/25 59/75/25 60/76/25
f 61/77/25 58/74/25 60/76/25
f 62/78/25 61/77/25 60/76/25
f 63/79/25 62/78/25 60/76/25
f 64/80/25 63/79/25 60/76/25
f 65/81/25 64/80/25 60/76/25
f 66/82/25 65/81/25 60/76/25
f 67/83/25 66/82/25 60/76/25
f 68/84/25 67/83/25 60/76/25
f 59/75/25 68/84/25 60/76/25
f 69/85/58 68/86/58 70/87/58
f 59/88/58 70/87/58 68/86/58
f 59/88/59 58/89/59 70/87/59
f 71/90/59 70/87/59 58/89/59
f 72/91/60 67/92/60 69/85/60
f 68/86/60 69/85/60 67/92/60
f 73/93/61 66/94/61 72/91/61
f 67/92/61 72/91/61 66/94/61
f 74/95/62 65/96/62 73/93/62
f 66/94/62 73/93/62 65/96/62
f 75/97/63 64/98/63 74/95/63
f 65/96/63 74/95/63 64/98/63
f 76/99/64 63/100/64 75/97/64
f 64/98/64 75/97/64 63/100/64
f 71/90/65 58/89/65 77/101/65
f 77/101/66 61/102/66 78/103/66
f 61/102/65 77/101/65 58/89/65
f 78/103/67 62/104/67 76/105/67
f 62/104/66 78/103/66 61/102/66
f 63/106/67 76/105/67 62/104/67
f 79/74/68 80/75/68 81/76/68
f 82/77/68 79/74/68 81/76/68
f 83/78/68 82/77/68 81/76/68
f 84/79/68 83/78/68 81/76/68
f 85/80/68 84/79/68 81/76/68
f 86/81/68 85/80/68 81/76/68
f 87/82/68 86/81/68 81/76/68
f 88/83/68 87/82/68 81/76/68
f 89/84/68 88/83/68 81/76/68
f 80/75/68 89/84/68 81/76/68
f 90/85/59 89/86/59 91/87/59
f 80/88/59 91/87/59 89/86/59
f 80/88/58 79/89/58 91/87/58
f 92/90/58 91/87/58 79/89/58
f 93/91/65 88/92/65 90/85/65
f 89/86/65 90/85/65 88/92/65
f 94/93/66 87/94/66 93/91/66
f 88/92/66 93/91/66 87/94/66
f 95/95/67 86/96/67 94/93/67
f 87/94/67 94/93/67 86/96/67
f 96/97/64 85/98/64 95/95/64
f 86/96/64 95/95/64 85/98/64
f 97/99/63 84/100/63 96/97/63
f 85/98/63 96/97/63 84/100/63
f 92/90/60 79/89/60 98/101/60
f 98/101/61 82/102/61 99/103/61
f 82/102/60 98/101/60 79/89/60
f 99/103/62 83/104/62 97/105/62
f 83/104/61 99/103/61 82/102/61
f 84/106/62 97/105/62 83/104/62
f 100/107/12 101/108/66 102/109/12
f 103/110/66 102/109/12 101/108/66
f 102/109/12 104/111/13 100/107/12
f 101/108/66 105/112/66 103/110/66
f 106/113/66 103/110/66 105/112/66
f 107/114/13 100/107/12 104/111/13
f 104/111/13 108/115/14 107/114/13
f 109/116/14 107/114/13 108/115/14
f 108/115/14 110/117/10 109/116/14
f 111/118/10 109/116/14 110/117/10
f 110/117/10 112/119/9 111/118/10
f 113/120/9 111/118/10 112/119/9
f 112/119/9 114/121/8 113/120/9
f 115/122/8 113/120/9 114/121/8
f 114/121/8 116/123/7 115/122/8
f 117/124/7 115/122/8 116/123/7
f 116/123/7 118/125/61 117/124/7
f 119/126/61 117/124/7 118/125/61
f 118/125/61 120/127/61 119/126/61
f 121/128/61 119/126/61 120/127/61
f 100/129/68 122/130/68 101/131/68
f 122/130/68 123/132/68 101/131/68
f 105/133/68 101/131/68 123/132/68
f 107/134/68 122/130/68 100/129/68
f 109/135/68 122/130/68 107/134/68
f 111/136/68 122/130/68 109/135/68
f 113/137/68 122/130/68 111/136/68
f 115/138/68 122/130/68 113/137/68
f 117/139/68 122/130/68 115/138/68
f 119/140/68 122/130/68 117/139/68
f 119/140/68 121/141/68 122/130/68
f 123/132/68 122/130/68 121/141/68
f 103/142/25 124/143/25 102/144/25
f 102/144/25 124/143/25 104/145/25
f 103/142/25 106/146/25 124/143/25
f 125/147/25 124/143/25 106/146/25
f 124/143/25 125/147/25 118/148/25
f 120/149/25 118/148/25 125/147/25
f 116/150/25 124/143/25 118/148/25
f 114/151/25 124/143/25 116/150/25
f 112/152/25 124/143/25 114/151/25
f 110/153/25 124/143/25 112/152/25
f 108/154/25 124/143/25 110/153/25
f 104/145/25 124/143/25 108/154/25
f 126/155/25 127/156/25 128/157/25
f 129/158/25 128/157/25 127/156/25
f 130/159/61 131/160/61 126/155/61
f 127/156/61 126/155/61 131/160/61
f 132/161/68 133/162/68 130/159/68
f 131/160/68 130/159/68 133/162/68
f 128/157/66 129/158/66 132/163/66
f 133/164/66 132/163/66 129/158/66
f 134/165/25 135/166/25 136/167/25
f 137/168/25 136/167/25 135/166/25
f 138/169/61 139/170/61 134/165/61
f 135/166/61 134/165/61 139/170/61
f 140/171/68 141/172/68 138/169/68
f 139/170/68 138/169/68 141/172/68
f 136/167/66 137/168/66 140/173/66
f 141/174/66 140/173/66 137/168/66
