# Blender 4.2.3 LTS
# www.blender.org
mtllib Tank1.mtl
o Tank1
v 0.000999 152.324112 -12.488472
v -5.471866 152.324112 -11.239326
v 0.001000 153.459885 0.125194
v -9.860761 152.324112 -7.739296
v -12.296414 152.324112 -2.681611
v -12.296414 152.324112 2.932000
v -9.860762 152.324112 7.989686
v -5.471867 152.324112 11.489716
v 0.001000 152.324112 12.738861
v 5.473866 152.324112 11.489716
v 9.862764 152.324112 7.989686
v 12.298416 152.324112 2.931996
v 12.298412 152.324112 -2.681617
v 9.862754 152.324112 -7.739304
v 5.473852 152.324112 -11.239330
v 22.160175 149.141739 5.182868
v 22.160170 149.141739 -4.932507
v 17.771263 149.141739 -14.046143
v 9.862738 149.141739 -20.352968
v 0.000999 149.141739 -22.603846
v -9.860762 149.141739 -20.352961
v -12.296416 144.543060 -25.410646
v 0.000999 144.543060 -28.217455
v 12.298386 144.543060 -25.410662
v 22.160158 144.543060 -17.546175
v 27.633032 144.543060 -6.181655
v 27.633041 144.543060 6.432011
v 17.771282 149.141739 14.296513
v 22.160181 144.543060 17.796535
v 9.862764 149.141739 20.603352
v 12.298419 144.543060 25.661037
v 0.001000 149.141739 22.854237
v 0.001000 144.543060 28.467838
v -9.860764 149.141739 20.603352
v -12.296418 144.543060 25.661037
v -17.769279 149.141739 14.296516
v -22.158176 144.543060 17.796543
v -22.158175 149.141739 5.182880
v -27.631039 144.543060 6.432026
v -22.158175 149.141739 -4.932491
v -27.631039 144.543060 -6.181636
v -17.769279 149.141739 -14.046127
v -22.158175 144.543060 -17.546160
v -12.296416 20.588415 -25.410656
v 0.000999 20.588415 -28.217457
v -22.158175 20.588413 -17.546162
v 12.298386 20.588415 -25.410671
v 22.160158 20.588413 -17.546185
v 27.633032 20.588415 -6.181665
v 27.633041 20.588415 6.432005
v 22.160181 20.588417 17.796530
v 12.298419 20.588408 25.661024
v 0.001000 20.588408 28.467833
v -27.631039 20.588415 -6.181643
v -27.631039 20.588415 6.432021
v -22.158176 20.588417 17.796537
v -12.296418 20.588408 25.661024
v -9.860762 15.989744 -20.352970
v 0.000999 15.989744 -22.603848
v -17.769278 15.989745 -14.046132
v -5.471864 12.807372 -11.239327
v -9.860757 12.807372 -7.739305
v -22.158173 15.989746 -4.932497
v -12.296410 12.807373 -2.681615
v 0.001000 11.671593 0.125190
v 0.000999 12.807372 -12.488473
v 9.862737 15.989744 -20.352978
v 5.473850 12.807372 -11.239335
v 17.771263 15.989745 -14.046151
v 9.862750 12.807372 -7.739312
v 22.160168 15.989746 -4.932516
v 12.298408 12.807373 -2.681623
v 22.160173 15.989746 5.182864
v 12.298411 12.807373 2.931987
v 17.771282 15.989747 14.296504
v 9.862761 12.807374 7.989673
v 9.862763 15.989748 20.603338
v 5.473865 12.807374 11.489699
v 0.001000 15.989748 22.854223
v 0.001000 12.807374 12.738845
v -9.860763 15.989748 20.603338
v -5.471865 12.807374 11.489699
v -17.769279 15.989747 14.296508
v -9.860758 12.807374 7.989676
v -22.158173 15.989746 5.182876
v -12.296410 12.807373 2.931991
v 13.126160 13.469323 13.250342
v 19.127808 13.469323 13.250342
v 13.126160 13.469324 19.251997
v 19.127808 13.469324 19.251997
v 19.127808 21.442177 19.251997
v 13.126160 21.442177 19.251997
v 19.127808 21.442177 13.250349
v 13.126160 21.442177 13.250349
v 18.549677 -0.010245 14.490982
v 18.549677 13.745667 14.490981
v 19.121597 -0.010245 16.251175
v 19.121597 13.745667 16.251173
v 18.549679 -0.010245 18.011360
v 17.052370 13.745667 13.403121
v 17.052370 -0.010245 13.403122
v 15.201599 13.745667 13.403121
v 15.201599 -0.010245 13.403122
v 13.704290 13.745667 14.490981
v 13.704290 -0.010245 14.490982
v 13.132370 13.745667 16.251173
v 13.132370 -0.010245 16.251175
v 13.704292 13.745667 18.011366
v 13.704292 -0.010245 18.011368
v 15.201597 13.745668 19.099218
v 15.201597 -0.010245 19.099220
v 17.052370 13.745668 19.099218
v 17.052370 -0.010245 19.099220
v 18.549679 13.745667 18.011358
v -14.016834 7.127520 17.647484
v -14.016834 7.127519 14.143020
v -17.521294 7.127520 17.647484
v -17.521294 7.127519 14.143020
v -17.521294 5.200243 17.647484
v -17.521294 5.200242 14.143021
v 14.018835 7.127520 17.647484
v -14.016834 5.200243 17.647484
v 14.018835 7.127519 14.143020
v 17.523293 7.127520 17.647484
v 17.523293 7.127519 14.143020
v 17.523293 7.127517 -13.892648
v 14.018835 7.127517 -13.892648
v 17.523293 5.200242 14.143021
v 17.523293 5.200243 17.647484
v 17.523293 7.127517 -17.397104
v 17.523293 5.200240 -13.892647
v 14.018835 7.127517 -17.397104
v 17.523293 5.200240 -17.397104
v -14.016834 7.127517 -17.397104
v 14.018835 5.200240 -17.397104
v -14.016834 5.200240 -17.397104
v -17.521294 5.200240 -17.397104
v -17.521294 7.127517 -17.397104
v -14.016834 7.127517 -13.892648
v -17.521294 7.127517 -13.892648
v -17.521294 5.200240 -13.892647
v -14.016834 5.200242 14.143021
v 14.018835 5.200242 14.143021
v -14.016834 5.200240 -13.892647
v 14.018835 5.200240 -13.892647
v 14.018835 5.200243 17.647484
v -13.702291 -0.010245 14.490982
v -13.702291 13.745667 14.490981
v -13.130370 -0.010245 16.251175
v -13.130370 13.745667 16.251173
v -13.702290 -0.010245 18.011360
v -15.199597 13.745667 13.403121
v -15.199597 -0.010245 13.403122
v -17.050371 13.745667 13.403121
v -17.050371 -0.010245 13.403122
v -18.547678 13.745667 14.490981
v -18.547678 -0.010245 14.490982
v -19.119598 13.745667 16.251173
v -19.119598 -0.010245 16.251175
v -18.547678 13.745667 18.011366
v -18.547678 -0.010245 18.011368
v -13.702290 13.745667 18.011358
v -15.199596 -0.010245 19.099220
v -15.199596 13.745668 19.099218
v -17.050371 -0.010245 19.099220
v -17.050371 13.745668 19.099218
v -19.125809 13.469323 13.250342
v -13.124159 13.469323 13.250342
v -19.125809 13.469324 19.251997
v -13.124159 13.469324 19.251997
v -13.124159 21.442177 19.251997
v -19.125809 21.442177 19.251997
v -13.124159 21.442177 13.250349
v -19.125809 21.442177 13.250349
v -19.125809 13.469320 -19.001621
v -13.124159 13.469320 -19.001621
v -19.125809 13.469321 -12.999970
v -13.124159 13.469321 -12.999970
v -13.124159 21.442173 -12.999971
v -19.125809 21.442173 -12.999971
v -13.124159 21.442173 -19.001621
v -19.125809 21.442173 -19.001621
v -13.702291 -0.010247 -17.760988
v -13.702291 13.745666 -17.760990
v -13.130370 -0.010247 -16.000795
v -13.130370 13.745666 -16.000797
v -13.702290 -0.010247 -14.240608
v -15.199597 13.745666 -18.848843
v -15.199597 -0.010247 -18.848841
v -17.050371 13.745666 -18.848843
v -17.050371 -0.010247 -18.848841
v -18.547678 13.745666 -17.760990
v -18.547678 -0.010247 -17.760988
v -19.119598 13.745666 -16.000797
v -19.119598 -0.010247 -16.000795
v -18.547678 13.745666 -14.240609
v -18.547678 -0.010247 -14.240608
v -13.702290 13.745666 -14.240609
v -15.199596 -0.010247 -13.152748
v -15.199596 13.745666 -13.152749
v -17.050371 -0.010247 -13.152748
v -17.050371 13.745666 -13.152749
v 18.549677 -0.010247 -17.760988
v 18.549677 13.745666 -17.760990
v 19.121597 -0.010247 -16.000795
v 19.121597 13.745666 -16.000797
v 18.549679 -0.010247 -14.240608
v 17.052370 13.745666 -18.848843
v 17.052370 -0.010247 -18.848841
v 15.201599 13.745666 -18.848843
v 15.201599 -0.010247 -18.848841
v 13.704290 13.745666 -17.760990
v 13.704290 -0.010247 -17.760988
v 13.132370 13.745666 -16.000797
v 13.132370 -0.010247 -16.000795
v 13.704292 13.745666 -14.240609
v 13.704292 -0.010247 -14.240608
v 15.201597 13.745666 -13.152749
v 15.201597 -0.010247 -13.152748
v 17.052370 13.745666 -13.152749
v 17.052370 -0.010247 -13.152748
v 18.549679 13.745666 -14.240609
v 13.126160 13.469320 -19.001621
v 19.127808 13.469320 -19.001621
v 13.126160 13.469321 -12.999970
v 19.127808 13.469321 -12.999970
v 19.127808 21.442173 -12.999971
v 13.126160 21.442173 -12.999971
v 19.127808 21.442173 -19.001621
v 13.126160 21.442173 -19.001621
v -6.982516 9.160003 -9.486802
v 0.001000 9.160003 -11.755883
v 0.001000 9.160004 0.125190
v -11.298568 9.160004 -3.546262
v -11.298565 9.160004 3.796645
v -6.982511 9.160005 9.737174
v 0.001012 9.160005 12.006255
v 6.984529 9.160005 9.737166
v 11.300574 9.160004 3.796626
v 11.300563 9.160004 -3.546281
v 6.984499 9.160003 -9.486817
v 6.984499 13.047568 -9.486817
v 0.001000 13.047568 -11.755883
v -6.982516 13.047568 -9.486802
v 11.300563 13.047569 -3.546281
v 11.300574 13.047569 3.796626
v 6.984529 13.047570 9.737166
v 0.001012 13.047570 12.006255
v -6.982511 13.047570 9.737174
v -11.298568 13.047569 -3.546262
v -11.298565 13.047569 3.796645
v 6.984515 156.242661 -9.486794
v 0.001000 156.242661 -11.755875
v 0.000999 156.242661 0.125194
v 11.300569 156.242661 -3.546254
v 11.300566 156.242661 3.796653
v 6.984510 156.242661 9.737186
v 0.000988 156.242661 12.006264
v -6.982530 156.242661 9.737175
v -11.298573 156.242661 3.796630
v -11.298562 156.242661 -3.546277
v -6.982499 156.242661 -9.486805
v -6.982498 152.075577 -9.486805
v 0.001001 152.075577 -11.755875
v 6.984516 152.075577 -9.486794
v -11.298561 152.075577 -3.546277
v -11.298573 152.075577 3.796631
v -6.982529 152.075577 9.737175
v 11.300570 152.075577 -3.546253
v 11.300567 152.075577 3.796654
v 6.984510 152.075577 9.737186
v 0.000988 152.075577 12.006264
vn -0.0000 0.9776 -0.2107
vn -0.0914 0.9776 -0.1898
vn -0.0000 1.0000 -0.0000
vn -0.1647 0.9776 -0.1314
vn -0.2054 0.9776 -0.0469
vn -0.2054 0.9776 0.0469
vn -0.1647 0.9776 0.1314
vn -0.0914 0.9776 0.1898
vn -0.0000 0.9776 0.2107
vn 0.0914 0.9776 0.1898
vn 0.1647 0.9776 0.1313
vn 0.2054 0.9776 0.0469
vn 0.2054 0.9776 -0.0469
vn 0.1647 0.9776 -0.1314
vn 0.0914 0.9776 -0.1898
vn 0.4835 0.8684 0.1104
vn 0.4835 0.8684 -0.1104
vn 0.3877 0.8684 -0.3092
vn 0.2152 0.8684 -0.4468
vn -0.0000 0.8684 -0.4959
vn -0.2152 0.8684 -0.4468
vn -0.2750 0.7736 -0.5710
vn -0.0000 0.7736 -0.6337
vn 0.2750 0.7736 -0.5710
vn 0.4955 0.7736 -0.3951
vn 0.6178 0.7736 -0.1410
vn 0.6178 0.7736 0.1410
vn 0.3877 0.8684 0.3092
vn 0.4955 0.7736 0.3951
vn 0.2152 0.8684 0.4468
vn 0.2750 0.7736 0.5710
vn -0.0000 0.8684 0.4959
vn -0.0000 0.7736 0.6337
vn -0.2152 0.8684 0.4468
vn -0.2750 0.7736 0.5710
vn -0.3877 0.8684 0.3092
vn -0.4955 0.7736 0.3951
vn -0.4835 0.8684 0.1104
vn -0.6178 0.7736 0.1410
vn -0.4835 0.8684 -0.1104
vn -0.6178 0.7736 -0.1410
vn -0.3877 0.8684 -0.3092
vn -0.4955 0.7736 -0.3951
vn -0.4339 -0.0000 -0.9010
vn -0.0000 -0.0000 -1.0000
vn -0.7818 -0.0000 -0.6235
vn 0.4339 -0.0000 -0.9010
vn 0.7818 -0.0000 -0.6235
vn 0.9749 -0.0000 -0.2225
vn 0.9749 -0.0000 0.2225
vn 0.7818 -0.0000 0.6235
vn 0.4339 -0.0000 0.9010
vn -0.0000 -0.0000 1.0000
vn -0.9749 -0.0000 -0.2225
vn -0.9749 -0.0000 0.2225
vn -0.7818 -0.0000 0.6235
vn -0.4339 -0.0000 0.9010
vn -0.2750 -0.7736 -0.5710
vn -0.0000 -0.7736 -0.6337
vn -0.2152 -0.8684 -0.4468
vn -0.0000 -0.8684 -0.4959
vn -0.3877 -0.8684 -0.3092
vn -0.0914 -0.9776 -0.1898
vn -0.1647 -0.9776 -0.1314
vn -0.4955 -0.7736 -0.3951
vn -0.4835 -0.8684 -0.1104
vn -0.2054 -0.9776 -0.0469
vn -0.0000 -1.0000 -0.0000
vn -0.0000 -0.9776 -0.2107
vn 0.2152 -0.8684 -0.4468
vn 0.0914 -0.9776 -0.1898
vn 0.2750 -0.7736 -0.5710
vn 0.4955 -0.7736 -0.3951
vn 0.3877 -0.8684 -0.3092
vn 0.1647 -0.9776 -0.1314
vn 0.6178 -0.7736 -0.1410
vn 0.4835 -0.8684 -0.1104
vn 0.2054 -0.9776 -0.0469
vn 0.6178 -0.7736 0.1410
vn 0.4835 -0.8684 0.1104
vn 0.2054 -0.9776 0.0469
vn 0.4955 -0.7736 0.3951
vn 0.3877 -0.8684 0.3092
vn 0.1647 -0.9776 0.1314
vn 0.2750 -0.7736 0.5710
vn 0.2152 -0.8684 0.4468
vn 0.0914 -0.9776 0.1898
vn -0.0000 -0.7736 0.6337
vn -0.0000 -0.8684 0.4959
vn -0.0000 -0.9776 0.2107
vn -0.2750 -0.7736 0.5710
vn -0.2152 -0.8684 0.4468
vn -0.0914 -0.9776 0.1898
vn -0.4955 -0.7736 0.3951
vn -0.3877 -0.8684 0.3092
vn -0.1647 -0.9776 0.1314
vn -0.6178 -0.7736 0.1410
vn -0.4835 -0.8684 0.1104
vn -0.2054 -0.9776 0.0469
vn -0.6178 -0.7736 -0.1410
vn 1.0000 -0.0000 -0.0000
vn -1.0000 -0.0000 -0.0000
vn 0.9511 -0.0000 -0.3090
vn 0.9511 -0.0000 0.3090
vn 0.5878 -0.0000 -0.8090
vn -0.5878 -0.0000 -0.8090
vn -0.9511 -0.0000 -0.3090
vn -0.9511 -0.0000 0.3090
vn -0.5878 -0.0000 0.8090
vn 0.5878 -0.0000 0.8090
vn 0.3090 -0.0000 -0.9511
vn -0.3090 -0.0000 -0.9511
vn 0.8090 -0.0000 -0.5878
vn 0.8090 -0.0000 0.5878
vn 0.3090 -0.0000 0.9511
vn -0.3090 -0.0000 0.9511
vn -0.8090 -0.0000 -0.5878
vn -0.8090 -0.0000 0.5878
vt 0.404835 0.877119
vt 0.399808 0.899145
vt 0.354071 0.877119
vt 0.385722 0.916809
vt 0.365367 0.926611
vt 0.342775 0.926611
vt 0.322420 0.916809
vt 0.308333 0.899145
vt 0.303306 0.877119
vt 0.308333 0.855093
vt 0.322420 0.837430
vt 0.342775 0.827628
vt 0.365367 0.827628
vt 0.385722 0.837430
vt 0.399808 0.855094
vt 0.333716 0.787938
vt 0.374426 0.787938
vt 0.411104 0.805602
vt 0.436487 0.837430
vt 0.445545 0.877119
vt 0.436487 0.916809
vt 0.456842 0.926611
vt 0.468138 0.877119
vt 0.456842 0.827628
vt 0.425190 0.787938
vt 0.379453 0.765912
vt 0.328689 0.765912
vt 0.297037 0.805602
vt 0.282951 0.787938
vt 0.271655 0.837430
vt 0.251300 0.827628
vt 0.262596 0.877119
vt 0.240004 0.877119
vt 0.271655 0.916809
vt 0.251300 0.926611
vt 0.297037 0.948637
vt 0.282951 0.966301
vt 0.333716 0.966301
vt 0.328688 0.988327
vt 0.374426 0.966301
vt 0.379453 0.988327
vt 0.411104 0.948637
vt 0.425190 0.966301
vt 0.571429 0.701929
vt 0.500000 0.701929
vt 0.571429 0.000000
vt 0.500000 0.000000
vt 0.642857 0.000000
vt 0.428572 0.701929
vt 0.428572 0.000000
vt 0.357143 0.701929
vt 0.357143 0.000000
vt 0.285714 0.701929
vt 0.285714 0.000000
vt 0.214286 0.701929
vt 0.214286 0.000000
vt 0.142857 0.701929
vt 0.142857 0.000000
vt 0.071429 0.701929
vt 0.071429 0.000000
vt 0.000000 0.701929
vt 0.000000 0.000000
vt 0.642857 0.701929
vt 0.714286 0.000000
vt 0.714286 0.701929
vt 0.785714 0.000000
vt 0.785714 0.701929
vt 0.857143 0.000000
vt 0.857143 0.701929
vt 0.928571 0.000000
vt 0.928571 0.701929
vt 1.000000 0.000000
vt 1.000000 0.701929
vt 0.015267 0.926721
vt 0.003971 0.877229
vt 0.035622 0.916919
vt 0.026564 0.877229
vt 0.061005 0.948747
vt 0.072301 0.899255
vt 0.086387 0.916918
vt 0.046919 0.966410
vt 0.097683 0.966410
vt 0.106742 0.926721
vt 0.118038 0.877229
vt 0.067274 0.877229
vt 0.035622 0.837540
vt 0.072301 0.855203
vt 0.015267 0.827737
vt 0.046918 0.788048
vt 0.061005 0.805711
vt 0.086387 0.837540
vt 0.092656 0.766022
vt 0.097683 0.788048
vt 0.106742 0.827737
vt 0.143421 0.766022
vt 0.138393 0.788048
vt 0.129334 0.827737
vt 0.189158 0.788048
vt 0.175072 0.805711
vt 0.149689 0.837540
vt 0.220809 0.827737
vt 0.200454 0.837540
vt 0.163776 0.855203
vt 0.232105 0.877229
vt 0.209513 0.877229
vt 0.168803 0.877229
vt 0.220809 0.926721
vt 0.200454 0.916919
vt 0.163776 0.899255
vt 0.189158 0.966410
vt 0.175072 0.948747
vt 0.149689 0.916918
vt 0.143421 0.988436
vt 0.138393 0.966410
vt 0.129334 0.926721
vt 0.092656 0.988436
vt 0.726755 0.739220
vt 0.752284 0.739220
vt 0.726755 0.764748
vt 0.752284 0.764748
vt 0.752284 0.798662
vt 0.726755 0.798662
vt 0.786198 0.739220
vt 0.786198 0.764748
vt 0.726755 0.705306
vt 0.752284 0.705306
vt 0.692841 0.764748
vt 0.692841 0.739220
vt 0.788636 0.965538
vt 0.890210 0.965538
vt 0.788636 0.979204
vt 0.890210 0.979204
vt 0.788636 0.992870
vt 0.890210 0.951872
vt 0.788636 0.951872
vt 0.890210 0.938206
vt 0.788636 0.938206
vt 0.890210 0.924540
vt 0.788636 0.924540
vt 0.890210 0.910874
vt 0.788636 0.910874
vt 0.890210 0.897208
vt 0.788636 0.897208
vt 0.890210 0.883541
vt 0.788636 0.883541
vt 0.890210 0.869875
vt 0.788636 0.869875
vt 0.890210 0.856209
vt 0.788636 0.856209
vt 0.890210 0.992870
vt 0.649314 0.841702
vt 0.649314 0.855782
vt 0.635234 0.841702
vt 0.635234 0.855782
vt 0.627491 0.841702
vt 0.627491 0.855782
vt 0.761950 0.841702
vt 0.649314 0.833959
vt 0.635234 0.833959
vt 0.761950 0.855782
vt 0.776030 0.841702
vt 0.776030 0.855782
vt 0.776030 0.968418
vt 0.761950 0.968418
vt 0.783773 0.855782
vt 0.783773 0.841702
vt 0.776030 0.982498
vt 0.783773 0.968418
vt 0.761950 0.982498
vt 0.783773 0.982498
vt 0.649314 0.982498
vt 0.761950 0.990241
vt 0.776030 0.990241
vt 0.649314 0.990241
vt 0.635234 0.990241
vt 0.635234 0.982498
vt 0.649314 0.968418
vt 0.635234 0.968418
vt 0.627491 0.968418
vt 0.627491 0.982498
vt 0.649314 0.863525
vt 0.761950 0.863525
vt 0.657057 0.968418
vt 0.657057 0.855782
vt 0.761950 0.960675
vt 0.649314 0.960675
vt 0.761950 0.833959
vt 0.776030 0.833959
vt 0.754207 0.855782
vt 0.754207 0.968418
vt 0.500775 0.841702
vt 0.613412 0.841702
vt 0.500775 0.855782
vt 0.613412 0.855782
vt 0.486696 0.855782
vt 0.486696 0.841702
vt 0.500775 0.968418
vt 0.613412 0.968418
vt 0.613412 0.982498
vt 0.500775 0.982498
vt 0.486696 0.982498
vt 0.486696 0.968418
vt 0.787994 0.781504
vt 0.889567 0.781504
vt 0.787994 0.795170
vt 0.889567 0.795170
vt 0.787994 0.808836
vt 0.889567 0.767837
vt 0.787994 0.767837
vt 0.889567 0.754172
vt 0.787994 0.754172
vt 0.889567 0.740505
vt 0.787994 0.740505
vt 0.889567 0.726839
vt 0.787994 0.726839
vt 0.889567 0.713173
vt 0.787994 0.713173
vt 0.889567 0.808836
vt 0.787994 0.822502
vt 0.889567 0.822502
vt 0.787994 0.836168
vt 0.889567 0.836168
vt 0.787994 0.849834
vt 0.889567 0.849834
vt 0.535592 0.768296
vt 0.561121 0.768296
vt 0.535592 0.793825
vt 0.561121 0.793825
vt 0.561121 0.827739
vt 0.535592 0.827739
vt 0.595035 0.768296
vt 0.595035 0.793825
vt 0.535592 0.734382
vt 0.561121 0.734382
vt 0.501679 0.793825
vt 0.501679 0.768296
vt 0.600444 0.737863
vt 0.625973 0.737863
vt 0.600444 0.763392
vt 0.625973 0.763392
vt 0.625973 0.797305
vt 0.600444 0.797305
vt 0.659886 0.737863
vt 0.659886 0.763392
vt 0.600444 0.703949
vt 0.625973 0.703949
vt 0.566530 0.763392
vt 0.566530 0.737863
vt 0.894086 0.776765
vt 0.995660 0.776765
vt 0.894086 0.790431
vt 0.995660 0.790431
vt 0.894086 0.804097
vt 0.995660 0.763099
vt 0.894086 0.763099
vt 0.995660 0.749433
vt 0.894086 0.749433
vt 0.995660 0.735767
vt 0.894086 0.735767
vt 0.995660 0.722101
vt 0.894086 0.722101
vt 0.995660 0.708435
vt 0.894086 0.708435
vt 0.995660 0.804097
vt 0.894086 0.817763
vt 0.995660 0.817763
vt 0.894086 0.831430
vt 0.995660 0.831430
vt 0.894086 0.845096
vt 0.995660 0.845096
vt 0.894767 0.962590
vt 0.996341 0.962590
vt 0.894767 0.976257
vt 0.996341 0.976257
vt 0.894767 0.989923
vt 0.996341 0.948924
vt 0.894767 0.948924
vt 0.996341 0.935258
vt 0.894767 0.935258
vt 0.996341 0.921592
vt 0.894767 0.921592
vt 0.996341 0.907926
vt 0.894767 0.907926
vt 0.996341 0.894260
vt 0.894767 0.894260
vt 0.996341 0.880594
vt 0.894767 0.880594
vt 0.996341 0.866928
vt 0.894767 0.866928
vt 0.996341 0.853261
vt 0.894767 0.853261
vt 0.996341 0.989923
vt 0.664793 0.767047
vt 0.690322 0.767047
vt 0.664793 0.792576
vt 0.690322 0.792576
vt 0.690322 0.826490
vt 0.664793 0.826490
vt 0.724235 0.767047
vt 0.724235 0.792576
vt 0.664793 0.733133
vt 0.690322 0.733133
vt 0.630879 0.792576
vt 0.630879 0.767047
vt 0.520145 0.941377
vt 0.511013 0.913271
vt 0.558830 0.913271
vt 0.544054 0.958747
vt 0.573606 0.958747
vt 0.597514 0.941377
vt 0.606646 0.913271
vt 0.597514 0.885166
vt 0.573606 0.867795
vt 0.544053 0.867795
vt 0.520145 0.885166
vt 0.267027 0.764063
vt 0.267027 0.736110
vt 0.319827 0.764063
vt 0.319827 0.736110
vt 0.372627 0.736110
vt 0.372627 0.764063
vt 0.214227 0.764063
vt 0.214227 0.736110
vt 0.161427 0.764063
vt 0.161427 0.736110
vt 0.108627 0.764063
vt 0.108627 0.736110
vt 0.055827 0.764063
vt 0.055827 0.736110
vt 0.003027 0.764063
vt 0.003027 0.736110
vt 0.425427 0.764063
vt 0.425427 0.736110
vt 0.478227 0.764063
vt 0.478227 0.736110
vt 0.531027 0.764063
vt 0.531027 0.736110
vt 0.739466 0.887573
vt 0.747137 0.911182
vt 0.706972 0.911182
vt 0.719384 0.872982
vt 0.694560 0.872982
vt 0.674477 0.887573
vt 0.666806 0.911182
vt 0.674477 0.934791
vt 0.694560 0.949382
vt 0.719384 0.949382
vt 0.739466 0.934791
vt 0.372283 0.704101
vt 0.372283 0.734064
vt 0.319483 0.704101
vt 0.319483 0.734064
vt 0.266683 0.734064
vt 0.266683 0.704101
vt 0.425083 0.704101
vt 0.425083 0.734064
vt 0.477883 0.704101
vt 0.477883 0.734064
vt 0.530683 0.704101
vt 0.530683 0.734064
vt 0.213883 0.704101
vt 0.213883 0.734064
vt 0.161083 0.704101
vt 0.161083 0.734064
vt 0.108283 0.704101
vt 0.108283 0.734064
vt 0.055483 0.704101
vt 0.055483 0.734064
vt 0.002683 0.704101
vt 0.002683 0.734064
s 1
usemtl 09_-_Default
f 1/1/1 2/2/2 3/3/3
f 2/2/2 4/4/4 3/3/3
f 4/4/4 5/5/5 3/3/3
f 5/5/5 6/6/6 3/3/3
f 6/6/6 7/7/7 3/3/3
f 7/7/7 8/8/8 3/3/3
f 8/8/8 9/9/9 3/3/3
f 9/9/9 10/10/10 3/3/3
f 10/10/10 11/11/11 3/3/3
f 11/11/11 12/12/12 3/3/3
f 12/12/12 13/13/13 3/3/3
f 13/13/13 14/14/14 3/3/3
f 14/14/14 15/15/15 3/3/3
f 15/15/15 1/1/1 3/3/3
f 12/12/12 11/11/11 16/16/16
f 13/13/13 12/12/12 17/17/17
f 16/16/16 17/17/17 12/12/12
f 14/14/14 13/13/13 18/18/18
f 17/17/17 18/18/18 13/13/13
f 15/15/15 14/14/14 19/19/19
f 18/18/18 19/19/19 14/14/14
f 1/1/1 15/15/15 20/20/20
f 19/19/19 20/20/20 15/15/15
f 2/2/2 1/1/1 21/21/21
f 20/20/20 21/21/21 1/1/1
f 21/21/21 20/20/20 22/22/22
f 23/23/23 22/22/22 20/20/20
f 20/20/20 19/19/19 23/23/23
f 19/19/19 18/18/18 24/24/24
f 24/24/24 23/23/23 19/19/19
f 18/18/18 17/17/17 25/25/25
f 25/25/25 24/24/24 18/18/18
f 26/26/26 25/25/25 17/17/17
f 17/17/17 16/16/16 26/26/26
f 27/27/27 26/26/26 16/16/16
f 16/16/16 28/28/28 27/27/27
f 29/29/29 27/27/27 28/28/28
f 11/11/11 10/10/10 28/28/28
f 30/30/30 28/28/28 10/10/10
f 28/28/28 16/16/16 11/11/11
f 28/28/28 30/30/30 29/29/29
f 31/31/31 29/29/29 30/30/30
f 10/10/10 9/9/9 30/30/30
f 32/32/32 30/30/30 9/9/9
f 30/30/30 32/32/32 31/31/31
f 33/33/33 31/31/31 32/32/32
f 9/9/9 8/8/8 32/32/32
f 34/34/34 32/32/32 8/8/8
f 32/32/32 34/34/34 33/33/33
f 35/35/35 33/33/33 34/34/34
f 8/8/8 7/7/7 34/34/34
f 36/36/36 34/34/34 7/7/7
f 34/34/34 36/36/36 35/35/35
f 37/37/37 35/35/35 36/36/36
f 7/7/7 6/6/6 36/36/36
f 38/38/38 36/36/36 6/6/6
f 36/36/36 38/38/38 37/37/37
f 39/39/39 37/37/37 38/38/38
f 6/6/6 5/5/5 38/38/38
f 40/40/40 38/38/38 5/5/5
f 38/38/38 40/40/40 39/39/39
f 41/41/41 39/39/39 40/40/40
f 5/5/5 4/4/4 40/40/40
f 42/42/42 40/40/40 4/4/4
f 40/40/40 42/42/42 41/41/41
f 43/43/43 41/41/41 42/42/42
f 4/4/4 2/2/2 42/42/42
f 21/21/21 42/42/42 2/2/2
f 42/42/42 21/21/21 43/43/43
f 22/22/22 43/43/43 21/21/21
f 22/44/44 23/45/45 44/46/44
f 45/47/45 44/46/44 23/45/45
f 44/46/44 46/48/46 22/44/44
f 23/45/45 24/49/47 45/47/45
f 47/50/47 45/47/45 24/49/47
f 24/49/47 25/51/48 47/50/47
f 48/52/48 47/50/47 25/51/48
f 25/51/48 26/53/49 48/52/48
f 49/54/49 48/52/48 26/53/49
f 26/53/49 27/55/50 49/54/49
f 50/56/50 49/54/49 27/55/50
f 27/55/50 29/57/51 50/56/50
f 51/58/51 50/56/50 29/57/51
f 29/57/51 31/59/52 51/58/51
f 52/60/52 51/58/51 31/59/52
f 31/59/52 33/61/53 52/60/52
f 53/62/53 52/60/52 33/61/53
f 43/63/46 22/44/44 46/48/46
f 46/48/46 54/64/54 43/63/46
f 41/65/54 43/63/46 54/64/54
f 54/64/54 55/66/55 41/65/54
f 39/67/55 41/65/54 55/66/55
f 55/66/55 56/68/56 39/67/55
f 37/69/56 39/67/55 56/68/56
f 56/68/56 57/70/57 37/69/56
f 35/71/57 37/69/56 57/70/57
f 57/70/57 53/72/53 35/71/57
f 33/73/53 35/71/57 53/72/53
f 44/74/58 45/75/59 58/76/60
f 59/77/61 58/76/60 45/75/59
f 58/76/60 60/78/62 44/74/58
f 58/76/60 59/77/61 61/79/63
f 60/78/62 58/76/60 62/80/64
f 61/79/63 62/80/64 58/76/60
f 46/81/65 44/74/58 60/78/62
f 60/78/62 63/82/66 46/81/65
f 63/82/66 60/78/62 64/83/67
f 62/80/64 64/83/67 60/78/62
f 62/80/64 61/79/63 65/84/68
f 64/83/67 62/80/64 65/84/68
f 66/85/69 61/79/63 59/77/61
f 61/79/63 66/85/69 65/84/68
f 59/77/61 67/86/70 66/85/69
f 68/87/71 66/85/69 67/86/70
f 66/85/69 68/87/71 65/84/68
f 47/88/72 48/89/73 67/86/70
f 69/90/74 67/86/70 48/89/73
f 67/86/70 59/77/61 47/88/72
f 67/86/70 69/90/74 68/87/71
f 70/91/75 68/87/71 69/90/74
f 68/87/71 70/91/75 65/84/68
f 48/89/73 49/92/76 69/90/74
f 71/93/77 69/90/74 49/92/76
f 69/90/74 71/93/77 70/91/75
f 72/94/78 70/91/75 71/93/77
f 70/91/75 72/94/78 65/84/68
f 49/92/76 50/95/79 71/93/77
f 73/96/80 71/93/77 50/95/79
f 71/93/77 73/96/80 72/94/78
f 74/97/81 72/94/78 73/96/80
f 72/94/78 74/97/81 65/84/68
f 50/95/79 51/98/82 73/96/80
f 75/99/83 73/96/80 51/98/82
f 73/96/80 75/99/83 74/97/81
f 76/100/84 74/97/81 75/99/83
f 74/97/81 76/100/84 65/84/68
f 51/98/82 52/101/85 75/99/83
f 77/102/86 75/99/83 52/101/85
f 75/99/83 77/102/86 76/100/84
f 78/103/87 76/100/84 77/102/86
f 76/100/84 78/103/87 65/84/68
f 52/101/85 53/104/88 77/102/86
f 79/105/89 77/102/86 53/104/88
f 77/102/86 79/105/89 78/103/87
f 80/106/90 78/103/87 79/105/89
f 78/103/87 80/106/90 65/84/68
f 53/104/88 57/107/91 79/105/89
f 81/108/92 79/105/89 57/107/91
f 79/105/89 81/108/92 80/106/90
f 82/109/93 80/106/90 81/108/92
f 80/106/90 82/109/93 65/84/68
f 57/107/91 56/110/94 81/108/92
f 83/111/95 81/108/92 56/110/94
f 81/108/92 83/111/95 82/109/93
f 84/112/96 82/109/93 83/111/95
f 82/109/93 84/112/96 65/84/68
f 56/110/94 55/113/97 83/111/95
f 85/114/98 83/111/95 55/113/97
f 83/111/95 85/114/98 84/112/96
f 86/115/99 84/112/96 85/114/98
f 84/112/96 86/115/99 65/84/68
f 86/115/99 64/83/67 65/84/68
f 85/114/98 63/82/66 86/115/99
f 64/83/67 86/115/99 63/82/66
f 55/113/97 54/116/100 85/114/98
f 63/82/66 85/114/98 54/116/100
f 54/116/100 46/81/65 63/82/66
f 45/75/59 47/88/72 59/77/61
f 87/117/68 88/118/68 89/119/68
f 90/120/68 89/119/68 88/118/68
f 90/120/53 91/121/53 89/119/53
f 92/122/53 89/119/53 91/121/53
f 88/118/101 93/123/101 90/120/101
f 91/124/101 90/120/101 93/123/101
f 87/117/45 94/125/45 88/118/45
f 93/126/45 88/118/45 94/125/45
f 89/119/102 92/127/102 87/117/102
f 94/128/102 87/117/102 92/127/102
f 95/129/103 96/130/103 97/131/103
f 98/132/103 97/131/103 96/130/103
f 97/131/104 98/132/104 99/133/104
f 96/130/105 95/129/105 100/134/105
f 101/135/105 100/134/105 95/129/105
f 100/134/45 101/135/45 102/136/45
f 103/137/45 102/136/45 101/135/45
f 102/136/106 103/137/106 104/138/106
f 105/139/106 104/138/106 103/137/106
f 104/138/107 105/139/107 106/140/107
f 107/141/107 106/140/107 105/139/107
f 106/140/108 107/141/108 108/142/108
f 109/143/108 108/142/108 107/141/108
f 108/142/109 109/143/109 110/144/109
f 111/145/109 110/144/109 109/143/109
f 110/144/53 111/145/53 112/146/53
f 113/147/53 112/146/53 111/145/53
f 112/146/110 113/147/110 114/148/110
f 99/149/110 114/148/110 113/147/110
f 114/150/104 99/133/104 98/132/104
f 115/151/3 116/152/3 117/153/3
f 118/154/3 117/153/3 116/152/3
f 119/155/102 117/153/102 120/156/102
f 118/154/102 120/156/102 117/153/102
f 115/151/3 121/157/3 116/152/3
f 122/158/53 115/151/53 119/159/53
f 117/153/53 119/159/53 115/151/53
f 115/151/53 122/158/53 121/157/53
f 123/160/3 116/152/3 121/157/3
f 124/161/3 125/162/3 121/157/3
f 123/160/3 121/157/3 125/162/3
f 125/162/3 126/163/3 123/160/3
f 127/164/3 123/160/3 126/163/3
f 128/165/101 125/162/101 129/166/101
f 124/161/101 129/166/101 125/162/101
f 125/162/101 128/165/101 126/163/101
f 126/163/3 130/167/3 127/164/3
f 131/168/101 126/163/101 128/165/101
f 126/163/101 131/168/101 130/167/101
f 132/169/3 127/164/3 130/167/3
f 133/170/101 130/167/101 131/168/101
f 132/169/3 134/171/3 127/164/3
f 135/172/45 132/169/45 133/173/45
f 130/167/45 133/173/45 132/169/45
f 132/169/45 135/172/45 134/171/45
f 136/174/45 134/171/45 135/172/45
f 137/175/45 138/176/45 136/174/45
f 134/171/45 136/174/45 138/176/45
f 139/177/3 134/171/3 140/178/3
f 138/176/3 140/178/3 134/171/3
f 139/177/3 127/164/3 134/171/3
f 140/178/3 118/154/3 139/177/3
f 141/179/102 140/178/102 137/180/102
f 138/176/102 137/180/102 140/178/102
f 140/178/102 141/179/102 118/154/102
f 116/152/3 139/177/3 118/154/3
f 120/156/102 118/154/102 141/179/102
f 142/181/45 116/152/45 143/182/45
f 123/160/45 143/182/45 116/152/45
f 144/183/101 139/177/101 142/184/101
f 116/152/101 142/184/101 139/177/101
f 145/185/53 127/164/53 144/186/53
f 139/177/53 144/186/53 127/164/53
f 146/187/53 121/157/53 122/158/53
f 121/157/53 146/187/53 124/161/53
f 129/188/53 124/161/53 146/187/53
f 143/189/102 123/160/102 145/190/102
f 127/164/102 145/190/102 123/160/102
f 146/191/68 122/192/68 143/193/68
f 142/194/68 143/193/68 122/192/68
f 128/195/68 129/196/68 143/193/68
f 146/191/68 143/193/68 129/196/68
f 143/193/68 145/197/68 128/195/68
f 122/192/68 119/155/68 142/194/68
f 120/156/68 141/179/68 142/194/68
f 144/198/68 142/194/68 141/179/68
f 120/156/68 142/194/68 119/155/68
f 141/179/68 137/180/68 144/198/68
f 136/199/68 135/200/68 144/198/68
f 145/197/68 144/198/68 135/200/68
f 136/199/68 144/198/68 137/180/68
f 135/200/68 133/201/68 145/197/68
f 131/202/68 145/197/68 133/201/68
f 131/202/68 128/195/68 145/197/68
f 147/203/103 148/204/103 149/205/103
f 150/206/103 149/205/103 148/204/103
f 149/205/104 150/206/104 151/207/104
f 148/204/105 147/203/105 152/208/105
f 153/209/105 152/208/105 147/203/105
f 152/208/45 153/209/45 154/210/45
f 155/211/45 154/210/45 153/209/45
f 154/210/106 155/211/106 156/212/106
f 157/213/106 156/212/106 155/211/106
f 156/212/107 157/213/107 158/214/107
f 159/215/107 158/214/107 157/213/107
f 158/214/108 159/215/108 160/216/108
f 161/217/108 160/216/108 159/215/108
f 162/218/104 151/207/104 150/206/104
f 151/207/110 162/218/110 163/219/110
f 164/220/110 163/219/110 162/218/110
f 163/219/53 164/220/53 165/221/53
f 166/222/53 165/221/53 164/220/53
f 165/221/109 166/222/109 161/223/109
f 160/224/109 161/223/109 166/222/109
f 167/225/68 168/226/68 169/227/68
f 170/228/68 169/227/68 168/226/68
f 170/228/53 171/229/53 169/227/53
f 172/230/53 169/227/53 171/229/53
f 168/226/101 173/231/101 170/228/101
f 171/232/101 170/228/101 173/231/101
f 167/225/45 174/233/45 168/226/45
f 173/234/45 168/226/45 174/233/45
f 169/227/102 172/235/102 167/225/102
f 174/236/102 167/225/102 172/235/102
f 175/237/68 176/238/68 177/239/68
f 178/240/68 177/239/68 176/238/68
f 178/240/53 179/241/53 177/239/53
f 180/242/53 177/239/53 179/241/53
f 176/238/101 181/243/101 178/240/101
f 179/244/101 178/240/101 181/243/101
f 175/237/45 182/245/45 176/238/45
f 181/246/45 176/238/45 182/245/45
f 177/239/102 180/247/102 175/237/102
f 182/248/102 175/237/102 180/247/102
f 183/249/103 184/250/103 185/251/103
f 186/252/103 185/251/103 184/250/103
f 185/251/104 186/252/104 187/253/104
f 184/250/105 183/249/105 188/254/105
f 189/255/105 188/254/105 183/249/105
f 188/254/45 189/255/45 190/256/45
f 191/257/45 190/256/45 189/255/45
f 190/256/106 191/257/106 192/258/106
f 193/259/106 192/258/106 191/257/106
f 192/258/107 193/259/107 194/260/107
f 195/261/107 194/260/107 193/259/107
f 194/260/108 195/261/108 196/262/108
f 197/263/108 196/262/108 195/261/108
f 198/264/104 187/253/104 186/252/104
f 187/253/110 198/264/110 199/265/110
f 200/266/110 199/265/110 198/264/110
f 199/265/53 200/266/53 201/267/53
f 202/268/53 201/267/53 200/266/53
f 201/267/109 202/268/109 197/269/109
f 196/270/109 197/269/109 202/268/109
f 203/271/103 204/272/103 205/273/103
f 206/274/103 205/273/103 204/272/103
f 205/273/104 206/274/104 207/275/104
f 204/272/105 203/271/105 208/276/105
f 209/277/105 208/276/105 203/271/105
f 208/276/45 209/277/45 210/278/45
f 211/279/45 210/278/45 209/277/45
f 210/278/106 211/279/106 212/280/106
f 213/281/106 212/280/106 211/279/106
f 212/280/107 213/281/107 214/282/107
f 215/283/107 214/282/107 213/281/107
f 214/282/108 215/283/108 216/284/108
f 217/285/108 216/284/108 215/283/108
f 216/284/109 217/285/109 218/286/109
f 219/287/109 218/286/109 217/285/109
f 218/286/53 219/287/53 220/288/53
f 221/289/53 220/288/53 219/287/53
f 220/288/110 221/289/110 222/290/110
f 207/291/110 222/290/110 221/289/110
f 222/292/104 207/275/104 206/274/104
f 223/293/68 224/294/68 225/295/68
f 226/296/68 225/295/68 224/294/68
f 226/296/53 227/297/53 225/295/53
f 228/298/53 225/295/53 227/297/53
f 224/294/101 229/299/101 226/296/101
f 227/300/101 226/296/101 229/299/101
f 223/293/45 230/301/45 224/294/45
f 229/302/45 224/294/45 230/301/45
f 225/295/102 228/303/102 223/293/102
f 230/304/102 223/293/102 228/303/102
f 231/305/68 232/306/68 233/307/68
f 234/308/68 231/305/68 233/307/68
f 235/309/68 234/308/68 233/307/68
f 236/310/68 235/309/68 233/307/68
f 237/311/68 236/310/68 233/307/68
f 238/312/68 237/311/68 233/307/68
f 239/313/68 238/312/68 233/307/68
f 240/314/68 239/313/68 233/307/68
f 241/315/68 240/314/68 233/307/68
f 232/306/68 241/315/68 233/307/68
f 242/316/111 241/317/111 243/318/111
f 232/319/111 243/318/111 241/317/111
f 232/319/112 231/320/112 243/318/112
f 244/321/112 243/318/112 231/320/112
f 245/322/113 240/323/113 242/316/113
f 241/317/113 242/316/113 240/323/113
f 246/324/101 239/325/101 245/322/101
f 240/323/101 245/322/101 239/325/101
f 247/326/114 238/327/114 246/324/114
f 239/325/114 246/324/114 238/327/114
f 248/328/115 237/329/115 247/326/115
f 238/327/115 247/326/115 237/329/115
f 249/330/116 236/331/116 248/328/116
f 237/329/116 248/328/116 236/331/116
f 244/321/117 231/320/117 250/332/117
f 250/332/102 234/333/102 251/334/102
f 234/333/117 250/332/117 231/320/117
f 251/334/118 235/335/118 249/336/118
f 235/335/102 251/334/102 234/333/102
f 236/337/118 249/336/118 235/335/118
f 252/338/3 253/339/3 254/340/3
f 255/341/3 252/338/3 254/340/3
f 256/342/3 255/341/3 254/340/3
f 257/343/3 256/342/3 254/340/3
f 258/344/3 257/343/3 254/340/3
f 259/345/3 258/344/3 254/340/3
f 260/346/3 259/345/3 254/340/3
f 261/347/3 260/346/3 254/340/3
f 262/348/3 261/347/3 254/340/3
f 253/339/3 262/348/3 254/340/3
f 263/349/112 262/350/112 264/351/112
f 253/352/112 264/351/112 262/350/112
f 253/352/111 252/353/111 264/351/111
f 265/354/111 264/351/111 252/353/111
f 266/355/117 261/356/117 263/349/117
f 262/350/117 263/349/117 261/356/117
f 267/357/102 260/358/102 266/355/102
f 261/356/102 266/355/102 260/358/102
f 268/359/118 259/360/118 267/357/118
f 260/358/118 267/357/118 259/360/118
f 265/354/113 252/353/113 269/361/113
f 269/361/101 255/362/101 270/363/101
f 255/362/113 269/361/113 252/353/113
f 270/363/114 256/364/114 271/365/114
f 256/364/101 270/363/101 255/362/101
f 271/365/115 257/366/115 272/367/115
f 257/366/114 271/365/114 256/364/114
f 272/367/116 258/368/116 268/369/116
f 258/368/115 272/367/115 257/366/115
f 259/370/116 268/369/116 258/368/116
