# Blender 4.0.2
# www.blender.org
mtllib 914knob.mtl
o 914knob
v 10.461600 3.399200 -0.000000
v 8.899200 6.465600 -0.000000
v 8.899200 6.465600 4.000000
v 10.461600 3.399200 4.000000
v 6.465600 8.899200 -0.000001
v 6.465600 8.899200 3.999999
v 3.399200 10.461600 -0.000001
v 3.399200 10.461600 3.999999
v 0.000000 11.000000 -0.000001
v 0.000000 11.000000 3.999999
v -3.399200 10.461600 -0.000001
v -3.399200 10.461600 3.999999
v -6.465600 8.899200 -0.000001
v -6.465600 8.899200 3.999999
v -8.899200 6.465600 -0.000000
v -8.899200 6.465600 4.000000
v -10.461600 3.399200 -0.000000
v -10.461600 3.399200 4.000000
v -11.000000 0.000000 0.000000
v -11.000000 0.000000 4.000000
v -10.461600 -3.399200 0.000000
v -10.461600 -3.399200 4.000000
v -8.899200 -6.465600 0.000000
v -8.899200 -6.465600 4.000000
v -6.465600 -8.899200 0.000001
v -6.465600 -8.899200 4.000000
v -3.399200 -10.461600 0.000001
v -3.399200 -10.461600 4.000001
v 0.000000 -11.000000 0.000001
v 0.000000 -11.000000 4.000001
v 3.399200 -10.461600 0.000001
v 3.399200 -10.461600 4.000001
v 6.465600 -8.899200 0.000001
v 6.465600 -8.899200 4.000000
v 8.899200 -6.465600 0.000000
v 8.899200 -6.465600 4.000000
v 10.461600 -3.399200 0.000000
v 10.461600 -3.399200 4.000000
v 11.000000 0.000000 0.000000
v 11.000000 0.000000 4.000000
v 1.100000 -7.562499 11.000001
v 1.100000 7.562501 10.999999
v -1.100000 7.562501 10.999999
v -1.100000 -7.562499 11.000001
v 1.833300 10.083300 1.999999
v 1.833300 -10.083300 2.000001
v -1.833300 -10.083300 2.000001
v -1.833300 10.083300 1.999999
v 7.622000 -3.157100 4.000000
v 7.622000 -3.157099 8.000000
v 5.833600 -5.833600 8.000000
v 5.833600 -5.833600 4.000000
v 3.000000 10.000000 2.999999
v 0.750000 16.000000 0.999999
v -0.750000 16.000000 0.999999
v -3.000000 10.000000 2.999999
v 0.750000 16.000000 -0.000001
v 3.000000 10.000000 -0.000001
v -3.000000 10.000000 -0.000001
v -0.750000 16.000000 -0.000001
v 8.250000 0.000001 8.000000
v 3.157100 -7.621999 8.000001
v 0.000000 -8.249999 8.000001
v -3.157100 -7.621999 8.000001
v -5.833600 -5.833600 8.000000
v -7.622000 -3.157099 8.000000
v -8.250000 0.000001 8.000000
v -7.622000 3.157101 8.000000
v -5.833600 5.833601 8.000000
v -3.157100 7.622000 8.000000
v 0.000000 8.250001 8.000000
v 3.157100 7.622000 8.000000
v 5.833600 5.833601 8.000000
v 7.622000 3.157101 8.000000
v 7.622000 3.157100 4.000000
v 8.250000 0.000000 4.000000
v 5.833600 5.833601 4.000000
v 3.157100 7.622000 4.000000
v 0.000000 8.250000 3.999999
v -3.157100 7.622000 4.000000
v -5.833600 5.833601 4.000000
v -7.622000 3.157100 4.000000
v -8.250000 0.000000 4.000000
v -7.622000 -3.157100 4.000000
v -5.833600 -5.833600 4.000000
v -3.157100 -7.621999 4.000000
v 0.000000 -8.250000 4.000000
v 3.157100 -7.621999 4.000000
vn 0.8910 0.4540 -0.0000
vn 0.7071 0.7071 -0.0000
vn 0.4540 0.8910 -0.0000
vn 0.1564 0.9877 -0.0000
vn -0.1564 0.9877 -0.0000
vn -0.4540 0.8910 -0.0000
vn -0.7071 0.7071 -0.0000
vn -0.8910 0.4540 -0.0000
vn -0.9877 0.1564 -0.0000
vn -0.9877 -0.1564 -0.0000
vn -0.8910 -0.4540 -0.0000
vn -0.7071 -0.7071 -0.0000
vn -0.4540 -0.8910 -0.0000
vn -0.1564 -0.9877 -0.0000
vn 0.1564 -0.9877 -0.0000
vn 0.4540 -0.8910 -0.0000
vn 0.7071 -0.7071 -0.0000
vn 0.8910 -0.4540 -0.0000
vn 0.9877 -0.1564 -0.0000
vn -0.0000 -0.0000 1.0000
vn -0.0000 -0.0000 -1.0000
vn -0.0000 -0.9629 0.2697
vn -0.0000 0.9629 0.2697
vn -0.9967 -0.0000 0.0812
vn 0.9967 -0.0000 0.0812
vn 0.9877 0.1564 -0.0000
vn 0.8315 -0.5556 -0.0000
vn -0.0000 0.3162 0.9487
vn -0.0000 -1.0000 -0.0000
vn -0.0000 1.0000 -0.0000
vn -0.9363 0.3511 -0.0000
vn 0.9363 0.3511 -0.0000
vn 0.9808 0.1951 -0.0000
vn 0.8315 0.5556 -0.0000
vn 0.5556 0.8315 -0.0000
vn 0.1951 0.9808 -0.0000
vn -0.1951 0.9808 -0.0000
vn -0.5556 0.8315 -0.0000
vn -0.8315 0.5556 -0.0000
vn -0.9808 0.1951 -0.0000
vn -0.9808 -0.1951 -0.0000
vn -0.8315 -0.5556 -0.0000
vn -0.5556 -0.8315 -0.0000
vn -0.1951 -0.9808 -0.0000
vn 0.1951 -0.9808 -0.0000
vn 0.5556 -0.8315 -0.0000
vn 0.9808 -0.1951 -0.0000
vt 1.000000 1.443700
vt 1.000000 1.491700
vt 0.937500 1.491700
vt 0.937500 1.443700
vt 1.000000 1.251600
vt 1.000000 1.289600
vt 0.937500 1.289600
vt 0.937500 1.251600
vt 1.000000 1.337500
vt 0.937500 1.337500
vt 1.000000 1.390600
vt 0.937500 1.390600
vt 1.000000 1.529700
vt 0.937500 1.529700
vt 0.357800 1.117700
vt 0.382200 1.165600
vt 0.390600 1.218800
vt 0.319800 1.079700
vt 0.271900 1.055300
vt 0.218800 1.046900
vt 0.165600 1.055300
vt 0.117700 1.079700
vt 0.079700 1.117700
vt 0.055300 1.165600
vt 0.046900 1.218800
vt 0.055300 1.271900
vt 0.079700 1.319800
vt 0.117700 1.357800
vt 0.165600 1.382200
vt 0.218800 1.390600
vt 0.271900 1.382200
vt 0.319800 1.357800
vt 0.357800 1.319800
vt 0.382200 1.271900
vt 0.353500 1.184300
vt 0.353500 1.479700
vt 0.310500 1.479700
vt 0.310500 1.184300
vt 0.367800 1.529000
vt 0.367800 1.135100
vt 0.296200 1.135100
vt 0.296200 1.529000
vt 0.296200 1.039100
vt 0.367800 1.039100
vt 0.353500 0.863300
vt 0.310500 0.863300
vt 0.859400 1.382100
vt 1.035200 1.431300
vt 1.035200 1.037400
vt 0.859400 1.086700
vt 0.039100 1.529000
vt -0.136700 1.479700
vt -0.136700 1.184300
vt 0.039100 1.135100
vt -0.039100 0.969200
vt -0.078100 0.969200
vt -0.078100 0.943000
vt -0.039100 0.943000
vt 0.058600 1.195300
vt 0.014600 1.312500
vt -0.014600 1.312500
vt -0.058600 1.195300
vt -0.058600 1.000000
vt 0.058600 1.000000
vt 0.058600 0.941400
vt -0.058600 0.941400
vt 0.014600 1.000000
vt -0.014600 1.000000
vt -0.014600 0.980500
vt 0.014600 0.980500
vt -0.019500 1.312500
vt 0.000000 1.312500
vt 0.000000 1.195300
vt 0.057000 0.943000
vt 0.074400 0.969200
vt 0.080600 1.000000
vt 0.030800 0.925600
vt 0.000000 0.919400
vt -0.030800 0.925600
vt -0.057000 0.943000
vt -0.074400 0.969200
vt -0.080600 1.000000
vt -0.074400 1.030800
vt -0.057000 1.057000
vt -0.030800 1.074400
vt 0.000000 1.080600
vt 0.030800 1.074400
vt 0.057000 1.057000
vt 0.074400 1.030800
vt -0.039100 1.030800
vt -0.078100 1.030800
vt -0.078100 1.000000
vt -0.039100 1.000000
vt -0.039100 1.057000
vt -0.078100 1.057000
vt 0.030800 0.960900
vt 0.030800 0.921900
vt 0.057000 0.921900
vt 0.057000 0.960900
vt 0.000000 0.960900
vt 0.000000 0.921900
vt -0.030800 0.960900
vt -0.030800 0.921900
vt -0.057000 0.960900
vt -0.057000 0.921900
s 0
usemtl material_2
f 1/1/1 2/2/1 3/3/1
f 4/4/1 1/1/1 3/3/1
f 2/5/2 5/6/2 6/7/2
f 3/8/2 2/5/2 6/7/2
f 5/6/3 7/9/3 8/10/3
f 6/7/3 5/6/3 8/10/3
f 7/9/4 9/11/4 10/12/4
f 8/10/4 7/9/4 10/12/4
f 9/11/5 11/1/5 12/4/5
f 10/12/5 9/11/5 12/4/5
f 11/1/6 13/2/6 14/3/6
f 12/4/6 11/1/6 14/3/6
f 13/2/7 15/13/7 16/14/7
f 14/3/7 13/2/7 16/14/7
f 15/2/8 17/1/8 18/4/8
f 16/3/8 15/2/8 18/4/8
f 17/1/9 19/11/9 20/12/9
f 18/4/9 17/1/9 20/12/9
f 19/11/10 21/9/10 22/10/10
f 20/12/10 19/11/10 22/10/10
f 21/9/11 23/6/11 24/7/11
f 22/10/11 21/9/11 24/7/11
f 23/13/12 25/2/12 26/3/12
f 24/14/12 23/13/12 26/3/12
f 25/2/13 27/1/13 28/4/13
f 26/3/13 25/2/13 28/4/13
f 27/1/14 29/11/14 30/12/14
f 28/4/14 27/1/14 30/12/14
f 29/11/15 31/9/15 32/10/15
f 30/12/15 29/11/15 32/10/15
f 31/9/16 33/6/16 34/7/16
f 32/10/16 31/9/16 34/7/16
f 33/6/17 35/5/17 36/8/17
f 34/7/17 33/6/17 36/8/17
f 35/6/18 37/9/18 38/10/18
f 36/7/18 35/6/18 38/10/18
f 37/9/19 39/11/19 40/12/19
f 38/10/19 37/9/19 40/12/19
f 36/15/20 38/16/20 40/17/20
f 34/18/20 36/15/20 40/17/20
f 32/19/20 34/18/20 40/17/20
f 30/20/20 32/19/20 40/17/20
f 28/21/20 30/20/20 40/17/20
f 26/22/20 28/21/20 40/17/20
f 24/23/20 26/22/20 40/17/20
f 22/24/20 24/23/20 40/17/20
f 20/25/20 22/24/20 40/17/20
f 18/26/20 20/25/20 40/17/20
f 16/27/20 18/26/20 40/17/20
f 14/28/20 16/27/20 40/17/20
f 12/29/20 14/28/20 40/17/20
f 10/30/20 12/29/20 40/17/20
f 8/31/20 10/30/20 40/17/20
f 6/32/20 8/31/20 40/17/20
f 3/33/20 6/32/20 40/17/20
f 40/17/20 4/34/20 3/33/20
f 41/35/20 42/36/20 43/37/20
f 44/38/20 41/35/20 43/37/20
f 45/39/21 46/40/21 47/41/21
f 48/42/21 45/39/21 47/41/21
f 47/43/22 46/44/22 41/45/22
f 44/46/22 47/43/22 41/45/22
f 45/44/23 48/43/23 43/46/23
f 42/45/23 45/44/23 43/46/23
f 43/47/24 48/48/24 47/49/24
f 44/50/24 43/47/24 47/49/24
f 45/51/25 42/52/25 41/53/25
f 46/54/25 45/51/25 41/53/25
f 39/11/26 1/1/26 4/4/26
f 40/12/26 39/11/26 4/4/26
usemtl material_1
f 49/55/27 50/56/27 51/57/27
f 52/58/27 49/55/27 51/57/27
f 53/59/28 54/60/28 55/61/28
f 56/62/28 53/59/28 55/61/28
f 57/60/21 58/59/21 59/62/21
f 60/61/21 57/60/21 59/62/21
f 59/63/29 58/64/29 53/65/29
f 56/66/29 59/63/29 53/65/29
f 57/67/30 60/68/30 55/69/30
f 54/70/30 57/67/30 55/69/30
f 55/71/31 60/72/31 59/73/31
f 56/62/31 55/71/31 59/73/31
f 57/72/32 54/71/32 53/62/32
f 58/73/32 57/72/32 53/62/32
f 51/74/20 50/75/20 61/76/20
f 62/77/20 51/74/20 61/76/20
f 63/78/20 62/77/20 61/76/20
f 64/79/20 63/78/20 61/76/20
f 65/80/20 64/79/20 61/76/20
f 66/81/20 65/80/20 61/76/20
f 67/82/20 66/81/20 61/76/20
f 68/83/20 67/82/20 61/76/20
f 69/84/20 68/83/20 61/76/20
f 70/85/20 69/84/20 61/76/20
f 71/86/20 70/85/20 61/76/20
f 72/87/20 71/86/20 61/76/20
f 73/88/20 72/87/20 61/76/20
f 61/76/20 74/89/20 73/88/20
f 75/89/21 76/76/21 49/75/21
f 77/88/21 75/89/21 49/75/21
f 78/87/21 77/88/21 49/75/21
f 79/86/21 78/87/21 49/75/21
f 80/85/21 79/86/21 49/75/21
f 81/84/21 80/85/21 49/75/21
f 82/83/21 81/84/21 49/75/21
f 83/82/21 82/83/21 49/75/21
f 84/81/21 83/82/21 49/75/21
f 85/80/21 84/81/21 49/75/21
f 86/79/21 85/80/21 49/75/21
f 87/78/21 86/79/21 49/75/21
f 88/77/21 87/78/21 49/75/21
f 49/75/21 52/74/21 88/77/21
f 75/90/33 74/91/33 61/92/33
f 76/93/33 75/90/33 61/92/33
f 77/94/34 73/95/34 74/91/34
f 75/90/34 77/94/34 74/91/34
f 78/96/35 72/97/35 73/98/35
f 77/99/35 78/96/35 73/98/35
f 79/100/36 71/101/36 72/97/36
f 78/96/36 79/100/36 72/97/36
f 80/102/37 70/103/37 71/101/37
f 79/100/37 80/102/37 71/101/37
f 81/104/38 69/105/38 70/103/38
f 80/102/38 81/104/38 70/103/38
f 82/90/39 68/91/39 69/95/39
f 81/94/39 82/90/39 69/95/39
f 83/93/40 67/92/40 68/91/40
f 82/90/40 83/93/40 68/91/40
f 84/55/41 66/56/41 67/92/41
f 83/93/41 84/55/41 67/92/41
f 85/58/42 65/57/42 66/56/42
f 84/55/42 85/58/42 66/56/42
f 86/102/43 64/103/43 65/105/43
f 85/104/43 86/102/43 65/105/43
f 87/100/44 63/101/44 64/103/44
f 86/102/44 87/100/44 64/103/44
f 88/96/45 62/97/45 63/101/45
f 87/100/45 88/96/45 63/101/45
f 52/99/46 51/98/46 62/97/46
f 88/96/46 52/99/46 62/97/46
f 76/93/47 61/92/47 50/56/47
f 49/55/47 76/93/47 50/56/47
