# Blender 4.0.2
# www.blender.org
mtllib 914key.mtl
o 914key
v 3.000000 3.000000 1.000000
v 2.000000 -3.000000 1.000000
v -2.000000 -3.000000 1.000000
v -3.000000 3.000000 1.000000
v 8.000000 0.000000 0.000000
v 8.000000 0.000000 2.000000
v 7.391000 -3.061500 2.000000
v 7.391000 -3.061500 0.000000
v 5.656900 -5.656900 2.000000
v 5.656900 -5.656900 0.000000
v 3.061500 -7.391000 2.000000
v 3.061500 -7.391000 0.000001
v 0.000000 -8.000000 2.000001
v 0.000000 -8.000000 0.000001
v -3.061500 -7.391000 2.000000
v -3.061500 -7.391000 0.000001
v -5.656900 -5.656900 2.000000
v -5.656900 -5.656900 0.000000
v -7.391000 -3.061500 2.000000
v -7.391000 -3.061500 0.000000
v -8.000000 0.000000 2.000000
v -8.000000 0.000000 0.000000
v -7.391000 3.061500 2.000000
v -7.391000 3.061500 -0.000000
v -5.656900 5.656900 2.000000
v -5.656900 5.656900 -0.000000
v -3.061500 7.391000 1.999999
v -3.061500 7.391000 -0.000001
v 0.000000 8.000000 1.999999
v 0.000000 8.000000 -0.000001
v 3.061500 7.391000 1.999999
v 3.061500 7.391000 -0.000001
v 5.656900 5.656900 2.000000
v 5.656900 5.656900 -0.000000
v 7.391000 3.061500 2.000000
v 7.391000 3.061500 -0.000000
v 0.500000 1.000000 2.000000
v 0.500000 1.000001 17.333300
v 0.500000 -0.999999 17.333300
v 0.500000 -1.000000 2.000000
v -0.500000 1.000001 17.333300
v -0.500000 1.000000 2.000000
v -0.500000 -1.000000 2.000000
v -0.500000 -0.999999 17.333300
v -1.000000 -1.530699 17.715799
v 1.000000 -1.530699 17.715799
v 1.000000 0.000001 18.000000
v -1.000000 0.000001 18.000000
v -1.000000 0.000001 16.833300
v 1.000000 0.000001 16.833300
v 1.000000 -1.052399 16.638000
v -1.000000 -1.052399 16.638000
v -1.000000 -1.944499 16.081600
v -1.000000 1.530701 17.715799
v -1.000000 1.052401 16.638000
v -1.000000 2.828401 16.906500
v -1.000000 1.944501 16.081600
v -1.000000 3.695501 15.695400
v -1.000000 2.540701 15.248900
v -1.000000 4.000001 14.266700
v -1.000000 2.750001 14.266700
v -1.000000 3.695501 12.838000
v -1.000000 2.540701 13.284400
v -1.000000 -2.828399 16.906500
v -1.000000 -2.540699 15.248900
v -1.000000 -3.695499 15.695400
v -1.000000 -2.749999 14.266700
v -1.000000 -3.999999 14.266700
v -1.000000 -2.540699 13.284400
v -1.000000 -3.695499 12.838000
v 1.000000 -2.828399 16.906500
v 1.000000 1.052401 16.638000
v 1.000000 1.530701 17.715799
v 1.000000 1.944501 16.081600
v 1.000000 2.828401 16.906500
v 1.000000 2.540701 15.248900
v 1.000000 3.695501 15.695400
v 1.000000 2.750001 14.266700
v 1.000000 4.000001 14.266700
v 1.000000 2.540701 13.284400
v 1.000000 3.695501 12.838000
v 1.000000 -1.944499 16.081600
v 1.000000 -3.695499 15.695400
v 1.000000 -2.540699 15.248900
v 1.000000 -3.999999 14.266700
v 1.000000 -2.749999 14.266700
v 1.000000 -3.695499 12.838000
v 1.000000 -2.540699 13.284400
v -0.500000 -0.999999 8.666700
v 0.500000 -0.999999 8.666700
v 0.500000 -0.999999 11.466700
v -0.500000 -0.999999 11.466700
v 0.500000 1.000001 8.666700
v -0.500000 1.000001 8.666700
v -0.500000 1.000001 11.466700
v 0.500000 1.000001 11.466700
v 3.000000 3.000000 3.000000
v 2.000000 -3.000000 3.000000
v -3.000000 3.000000 3.000000
v -2.000000 -3.000000 3.000000
vn -0.0000 -0.0000 -1.0000
vn 0.9808 -0.1951 -0.0000
vn 0.8315 -0.5556 -0.0000
vn 0.5556 -0.8315 -0.0000
vn 0.1951 -0.9808 -0.0000
vn -0.1951 -0.9808 -0.0000
vn -0.5556 -0.8315 -0.0000
vn -0.8315 -0.5556 -0.0000
vn -0.9808 -0.1951 -0.0000
vn -0.9808 0.1951 -0.0000
vn -0.8315 0.5556 -0.0000
vn -0.5556 0.8315 -0.0000
vn -0.1951 0.9808 -0.0000
vn 0.1951 0.9808 -0.0000
vn 0.5556 0.8315 -0.0000
vn 0.8315 0.5556 -0.0000
vn 0.9808 0.1951 -0.0000
vn -0.0000 -0.0000 1.0000
vn 1.0000 -0.0000 -0.0000
vn -1.0000 -0.0000 -0.0000
vn -0.0000 1.0000 -0.0000
vn -0.0000 -1.0000 -0.0000
vn -0.0000 -0.1825 0.9832
vn -0.0000 0.1825 -0.9832
vn -0.0000 -0.5292 0.8485
vn -0.0000 0.5292 -0.8485
vn -0.0000 -0.8131 0.5821
vn -0.0000 0.8131 -0.5822
vn -0.0000 -0.9780 0.2084
vn -0.0000 0.9780 -0.2084
vn -0.0000 -0.9780 -0.2084
vn -0.0000 0.9780 0.2084
vn -0.0000 -0.8399 -0.5427
vn -0.0000 0.7628 0.6466
vn -0.9762 0.0782 -0.2023
vn -0.9832 0.1824 -0.0000
vn 0.9948 0.0369 -0.0954
vn 0.9512 0.3087 -0.0000
vn -0.0000 0.8399 -0.5427
vn -0.0000 -0.7628 0.6466
vn -0.9512 -0.3087 -0.0000
vn -0.9948 -0.0369 -0.0954
vn 0.9832 -0.1824 -0.0000
vn 0.9762 -0.0782 -0.2023
vn -0.0000 0.8131 0.5821
vn -0.0000 -0.8131 -0.5822
vn -0.0000 0.5292 0.8485
vn -0.0000 -0.5292 -0.8485
vn -0.0000 0.1825 0.9832
vn -0.0000 -0.1825 -0.9832
vn 0.9864 -0.1644 -0.0000
vn -0.9864 -0.1644 -0.0000
vt 0.029300 1.029300
vt 0.019500 0.970700
vt -0.019500 0.970700
vt -0.029300 1.029300
vt 0.000000 1.000000
vt -0.019500 1.000000
vt -0.019500 0.970100
vt 0.000000 0.970100
vt -0.019500 0.944800
vt 0.000000 0.944800
vt 0.055200 1.000000
vt 0.055200 0.980500
vt 0.029900 0.980500
vt 0.029900 1.000000
vt 0.000000 0.980500
vt -0.029900 0.980500
vt -0.029900 1.000000
vt -0.055200 0.980500
vt -0.055200 1.000000
vt -0.019500 1.029900
vt 0.000000 1.029900
vt -0.019500 1.055200
vt 0.000000 1.055200
vt 0.072200 1.029900
vt 0.078100 1.000000
vt 0.072200 0.970100
vt 0.055200 1.055200
vt 0.029900 1.072200
vt 0.000000 1.078100
vt -0.029900 1.072200
vt -0.055200 1.055200
vt -0.072200 1.029900
vt -0.078100 1.000000
vt -0.072200 0.970100
vt -0.055200 0.944800
vt -0.029900 0.927800
vt 0.000000 0.921900
vt 0.029900 0.927800
vt 0.055200 0.944800
vt -0.019500 1.009800
vt -0.169300 1.009800
vt -0.169300 0.990200
vt -0.019500 0.990200
vt 0.004900 0.980500
vt -0.004900 0.980500
vt -0.004900 0.830700
vt 0.004900 0.830700
vt 0.004900 1.009800
vt 0.004900 0.990200
vt -0.004900 0.990200
vt -0.004900 1.009800
vt -0.009800 0.985100
vt 0.009800 0.985100
vt 0.009800 1.000000
vt -0.009800 1.000000
vt 0.009800 0.989700
vt -0.009800 0.989700
vt -0.175800 1.000000
vt -0.164400 1.000000
vt -0.162500 0.989700
vt -0.173000 0.985100
vt -0.157000 0.981000
vt -0.173000 1.014900
vt -0.162500 1.010300
vt -0.165100 1.027600
vt -0.157000 1.019000
vt -0.153300 1.036100
vt -0.148900 1.024800
vt -0.139300 1.039100
vt -0.139300 1.026900
vt -0.125400 1.036100
vt -0.129700 1.024800
vt -0.165100 0.972400
vt -0.148900 0.975200
vt -0.153300 0.963900
vt -0.139300 0.973100
vt -0.139300 0.960900
vt -0.129700 0.975200
vt -0.125400 0.963900
vt -0.009800 0.972400
vt 0.009800 0.972400
vt 0.009800 0.981000
vt -0.009800 0.981000
vt -0.009800 0.846700
vt 0.009800 0.846700
vt 0.009800 0.834900
vt -0.009800 0.834900
vt -0.009800 0.843000
vt 0.009800 0.843000
vt 0.009800 0.851100
vt -0.009800 0.851100
vt -0.009800 0.860700
vt 0.009800 0.860700
vt -0.009800 0.874600
vt 0.009800 0.874600
vt 0.009800 0.870300
vt -0.009800 0.870300
vt -0.004900 0.915400
vt 0.004900 0.915400
vt 0.004900 0.888000
vt -0.004900 0.888000
vt -0.112000 0.990200
vt -0.084600 0.990200
vt -0.084600 1.009800
vt -0.112000 1.009800
vt -0.009800 1.014900
vt 0.009800 1.014900
vt 0.009800 1.027600
vt -0.009800 1.027600
vt -0.009800 1.019000
vt 0.009800 1.019000
vt 0.009800 1.010300
vt -0.009800 1.010300
vt -0.009800 1.029300
vt -0.029300 0.970700
vt -0.009800 0.970700
vt 0.029300 0.990200
vt -0.029300 0.990200
vt 0.029300 0.970700
vt 0.019500 0.990200
s 0
usemtl material_1
f 1/1/1 2/2/1 3/3/1
f 4/4/1 1/1/1 3/3/1
f 5/5/2 6/6/2 7/7/2
f 8/8/2 5/5/2 7/7/2
f 8/8/3 7/7/3 9/9/3
f 10/10/3 8/8/3 9/9/3
f 10/11/4 9/12/4 11/13/4
f 12/14/4 10/11/4 11/13/4
f 12/14/5 11/13/5 13/15/5
f 14/5/5 12/14/5 13/15/5
f 14/5/6 13/15/6 15/16/6
f 16/17/6 14/5/6 15/16/6
f 16/17/7 15/16/7 17/18/7
f 18/19/7 16/17/7 17/18/7
f 18/10/8 17/9/8 19/7/8
f 20/8/8 18/10/8 19/7/8
f 20/8/9 19/7/9 21/6/9
f 22/5/9 20/8/9 21/6/9
f 22/5/10 21/6/10 23/20/10
f 24/21/10 22/5/10 23/20/10
f 24/21/11 23/20/11 25/22/11
f 26/23/11 24/21/11 25/22/11
f 26/19/12 25/18/12 27/16/12
f 28/17/12 26/19/12 27/16/12
f 28/17/13 27/16/13 29/15/13
f 30/5/13 28/17/13 29/15/13
f 30/5/14 29/15/14 31/13/14
f 32/14/14 30/5/14 31/13/14
f 32/14/15 31/13/15 33/12/15
f 34/11/15 32/14/15 33/12/15
f 34/23/16 33/22/16 35/20/16
f 36/21/16 34/23/16 35/20/16
f 36/21/17 35/20/17 6/6/17
f 5/5/17 36/21/17 6/6/17
f 36/24/1 5/25/1 8/26/1
f 34/27/1 36/24/1 8/26/1
f 32/28/1 34/27/1 8/26/1
f 30/29/1 32/28/1 8/26/1
f 28/30/1 30/29/1 8/26/1
f 26/31/1 28/30/1 8/26/1
f 24/32/1 26/31/1 8/26/1
f 22/33/1 24/32/1 8/26/1
f 20/34/1 22/33/1 8/26/1
f 18/35/1 20/34/1 8/26/1
f 16/36/1 18/35/1 8/26/1
f 14/37/1 16/36/1 8/26/1
f 12/38/1 14/37/1 8/26/1
f 8/26/1 10/39/1 12/38/1
f 9/39/18 7/26/18 6/25/18
f 11/38/18 9/39/18 6/25/18
f 13/37/18 11/38/18 6/25/18
f 15/36/18 13/37/18 6/25/18
f 17/35/18 15/36/18 6/25/18
f 19/34/18 17/35/18 6/25/18
f 21/33/18 19/34/18 6/25/18
f 23/32/18 21/33/18 6/25/18
f 25/31/18 23/32/18 6/25/18
f 27/30/18 25/31/18 6/25/18
f 29/29/18 27/30/18 6/25/18
f 31/28/18 29/29/18 6/25/18
f 33/27/18 31/28/18 6/25/18
f 6/25/18 35/24/18 33/27/18
f 37/40/19 38/41/19 39/42/19
f 40/43/19 37/40/19 39/42/19
f 41/41/20 42/40/20 43/43/20
f 44/42/20 41/41/20 43/43/20
f 37/44/21 42/45/21 41/46/21
f 38/47/21 37/44/21 41/46/21
f 43/45/22 40/44/22 39/47/22
f 44/46/22 43/45/22 39/47/22
f 37/48/1 40/49/1 43/50/1
f 42/51/1 37/48/1 43/50/1
f 39/49/18 38/48/18 41/51/18
f 44/50/18 39/49/18 41/51/18
f 45/52/23 46/53/23 47/54/23
f 48/55/23 45/52/23 47/54/23
f 49/55/24 50/54/24 51/56/24
f 52/57/24 49/55/24 51/56/24
f 48/58/20 49/59/20 52/60/20
f 45/61/20 48/58/20 52/60/20
f 45/61/20 52/60/20 53/62/20
f 54/63/20 55/64/20 49/59/20
f 48/58/20 54/63/20 49/59/20
f 56/65/20 57/66/20 55/64/20
f 54/63/20 56/65/20 55/64/20
f 58/67/20 59/68/20 57/66/20
f 56/65/20 58/67/20 57/66/20
f 60/69/20 61/70/20 59/68/20
f 58/67/20 60/69/20 59/68/20
f 62/71/20 63/72/20 61/70/20
f 60/69/20 62/71/20 61/70/20
f 64/73/20 45/61/20 53/62/20
f 64/73/20 53/62/20 65/74/20
f 66/75/20 64/73/20 65/74/20
f 66/75/20 65/74/20 67/76/20
f 68/77/20 66/75/20 67/76/20
f 68/77/20 67/76/20 69/78/20
f 70/79/20 68/77/20 69/78/20
f 50/59/19 47/58/19 46/61/19
f 51/60/19 50/59/19 46/61/19
f 51/60/19 46/61/19 71/73/19
f 72/64/19 73/63/19 47/58/19
f 50/59/19 72/64/19 47/58/19
f 74/66/19 75/65/19 73/63/19
f 72/64/19 74/66/19 73/63/19
f 76/68/19 77/67/19 75/65/19
f 74/66/19 76/68/19 75/65/19
f 78/70/19 79/69/19 77/67/19
f 76/68/19 78/70/19 77/67/19
f 80/72/19 81/71/19 79/69/19
f 78/70/19 80/72/19 79/69/19
f 82/62/19 51/60/19 71/73/19
f 82/62/19 71/73/19 83/75/19
f 84/74/19 82/62/19 83/75/19
f 84/74/19 83/75/19 85/77/19
f 86/76/19 84/74/19 85/77/19
f 86/76/19 85/77/19 87/79/19
f 88/78/19 86/76/19 87/79/19
f 64/80/25 71/81/25 46/53/25
f 45/52/25 64/80/25 46/53/25
f 52/57/26 51/56/26 82/82/26
f 53/83/26 52/57/26 82/82/26
f 66/84/27 83/85/27 71/86/27
f 64/87/27 66/84/27 71/86/27
f 53/88/28 82/89/28 84/90/28
f 65/91/28 53/88/28 84/90/28
f 68/92/29 85/93/29 83/85/29
f 66/84/29 68/92/29 83/85/29
f 65/91/30 84/90/30 86/93/30
f 67/92/30 65/91/30 86/93/30
f 70/94/31 87/95/31 85/93/31
f 68/92/31 70/94/31 85/93/31
f 67/92/32 86/93/32 88/96/32
f 69/97/32 67/92/32 88/96/32
f 89/98/33 90/99/33 87/95/33
f 70/94/33 89/98/33 87/95/33
f 69/97/34 88/96/34 91/100/34
f 92/101/34 69/97/34 91/100/34
f 70/79/35 69/78/35 92/102/35
f 89/103/36 70/79/36 92/102/36
f 88/78/37 87/79/37 90/103/37
f 91/102/38 88/78/38 90/103/38
f 62/94/39 81/95/39 93/99/39
f 94/98/39 62/94/39 93/99/39
f 95/101/40 96/100/40 80/96/40
f 63/97/40 95/101/40 80/96/40
f 94/104/41 95/105/41 63/72/41
f 62/71/42 94/104/42 63/72/42
f 96/105/43 93/104/43 81/71/43
f 80/72/44 96/105/44 81/71/44
f 60/92/30 79/93/30 81/95/30
f 62/94/30 60/92/30 81/95/30
f 63/97/29 80/96/29 78/93/29
f 61/92/29 63/97/29 78/93/29
f 58/84/32 77/85/32 79/93/32
f 60/92/32 58/84/32 79/93/32
f 61/92/31 78/93/31 76/90/31
f 59/91/31 61/92/31 76/90/31
f 56/87/45 75/86/45 77/85/45
f 58/84/45 56/87/45 77/85/45
f 59/91/46 76/90/46 74/89/46
f 57/88/46 59/91/46 74/89/46
f 54/106/47 73/107/47 75/108/47
f 56/109/47 54/106/47 75/108/47
f 57/110/48 74/111/48 72/112/48
f 55/113/48 57/110/48 72/112/48
f 48/55/49 47/54/49 73/107/49
f 54/106/49 48/55/49 73/107/49
f 55/113/50 72/112/50 50/54/50
f 49/55/50 55/113/50 50/54/50
f 1/114/51 97/4/51 98/115/51
f 2/116/51 1/114/51 98/115/51
f 99/4/52 4/114/52 3/116/52
f 100/115/52 99/4/52 3/116/52
f 1/117/21 4/118/21 99/115/21
f 97/119/21 1/117/21 99/115/21
f 3/43/22 2/120/22 98/2/22
f 100/3/22 3/43/22 98/2/22
f 98/2/18 97/1/18 99/4/18
f 100/3/18 98/2/18 99/4/18
