# Blender 4.4.3
# www.blender.org
mtllib apacherotor.mtl
o apacherotor
v -0.161116 1.934947 0.160479
v -0.159861 2.005144 0.159224
v -0.227910 1.934947 -0.000778
v -0.226136 2.005144 -0.000778
v -0.161116 1.934947 -0.162034
v -0.159861 2.005144 -0.160779
v 0.010069 1.948026 0.110271
v 0.014111 2.440700 0.253039
v 0.014166 1.944868 0.120191
v 0.019516 2.437206 0.266127
v 0.000711 2.442147 0.247467
v -0.000088 1.949334 0.106047
v -0.012836 2.440700 0.252676
v -0.010356 1.948026 0.109995
v -0.018593 2.437206 0.265613
v -0.014720 1.944868 0.119801
v 0.000140 1.934947 0.227273
v 0.000141 2.005144 0.225497
v 0.160141 2.005144 0.159222
v 0.161397 1.934947 0.160478
v 0.000140 2.038039 0.111602
v -0.079325 2.038039 0.078687
v 0.079605 2.038039 0.078687
v 0.112520 2.038039 -0.000778
v 0.226415 2.005144 -0.000778
v 0.079605 2.038039 -0.080242
v 0.160140 2.005144 -0.160779
v 0.000140 2.038039 -0.113158
v 0.000140 2.005144 -0.227054
v -0.079325 2.038039 -0.080243
v -0.112241 2.038039 -0.000778
v 0.000140 2.500978 0.111602
v -0.079325 2.500978 0.078687
v 0.079605 2.500977 0.078687
v -0.000465 1.940403 0.133944
v 0.000212 2.432264 0.284272
v -0.010623 1.941710 0.129721
v -0.013188 2.433711 0.278701
v 0.013759 2.433711 0.279064
v 0.009802 1.941710 0.129997
v -0.130359 1.941710 -0.011541
v -0.279338 2.433711 -0.014106
v -0.120439 1.944868 -0.015637
v -0.266250 2.437206 -0.019511
v -0.284910 2.432264 -0.000705
v -0.134583 1.940403 -0.001383
v -0.279702 2.433711 0.012841
v -0.130635 1.941710 0.008884
v -0.266765 2.437206 0.018597
v -0.120829 1.944868 0.013248
v -0.110633 1.948026 -0.011274
v -0.253313 2.440700 -0.013754
v -0.106686 1.949334 -0.001006
v -0.248106 2.442147 -0.000208
v -0.110909 1.948026 0.009151
v -0.253678 2.440700 0.013193
v -0.112241 2.500978 -0.000778
v -0.079325 2.500978 -0.080243
v 0.000140 1.934947 -0.228829
v 0.161396 1.934947 -0.162034
v 0.000140 2.500978 -0.113158
v 0.079605 2.500977 -0.080243
v 0.000745 1.940403 -0.135501
v 0.000067 2.432264 -0.285828
v 0.010902 1.941710 -0.131277
v 0.013467 2.433711 -0.280256
v 0.014999 1.944868 -0.121357
v -0.013479 2.433711 -0.280621
v -0.009523 1.941710 -0.131553
v -0.019236 2.437206 -0.267683
v -0.013886 1.944868 -0.121747
v 0.018872 2.437206 -0.267168
v -0.009790 1.948026 -0.111827
v -0.013831 2.440700 -0.254595
v -0.000430 2.442147 -0.249023
v 0.000368 1.949334 -0.107603
v 0.013116 2.440700 -0.254231
v 0.010635 1.948026 -0.111551
v 0.130639 1.941710 0.009984
v 0.279618 2.433711 0.012550
v 0.120718 1.944868 0.014081
v 0.266530 2.437206 0.017954
v 0.285189 2.432264 -0.000851
v 0.134862 1.940403 -0.000173
v 0.279982 2.433711 -0.014397
v 0.130915 1.941710 -0.010441
v 0.267046 2.437206 -0.020154
v 0.121109 1.944868 -0.014804
v 0.110912 1.948026 0.009718
v 0.253593 2.440700 0.012198
v 0.106965 1.949334 -0.000550
v 0.248385 2.442147 -0.001348
v 0.111188 1.948026 -0.010707
v 0.253957 2.440700 -0.014749
v 0.112520 2.500977 -0.000778
v 0.228190 1.934947 -0.000778
v 0.000140 2.549520 -0.000778
v 3.838196 2.371937 -0.102314
v 3.838111 2.371937 0.243296
v 1.111877 2.371937 -0.103008
v 1.111791 2.371937 0.242605
v 0.528885 2.382651 -0.045907
v 4.263561 2.371937 0.386864
v 4.263648 2.371937 0.041250
v 0.528854 2.382651 0.077676
v 4.263648 2.416494 0.064504
v 4.263576 2.416494 0.323473
v 3.838124 2.416494 0.179907
v 1.111807 2.416494 0.179218
v 3.838199 2.416494 -0.068789
v 1.111878 2.416494 -0.069478
v 0.528861 2.405780 0.044772
v 0.528886 2.405780 -0.022557
v 0.546543 2.401254 -0.081275
v 0.546543 2.437336 -0.057741
v 0.546543 2.401254 -0.000926
v 0.546543 2.365172 -0.057741
v 0.546543 2.350227 -0.000926
v 0.546542 2.365172 0.055892
v 0.546543 2.401254 0.079426
v 0.546542 2.437336 0.055892
v 0.546543 2.452282 -0.000926
v 0.285853 2.459786 -0.093093
v 0.285853 2.401254 -0.131269
v 0.285853 2.484031 -0.000925
v 0.082753 2.401254 -0.039455
v 0.082753 2.418607 -0.028137
v 0.285853 2.459786 0.091243
v 0.082753 2.425794 -0.000813
v 0.285853 2.401254 0.129420
v 0.082753 2.418607 0.026511
v 0.082753 2.401254 0.037829
v 0.285853 2.342722 -0.093093
v 0.285853 2.318477 -0.000925
v 0.082753 2.383901 -0.028137
v 0.082753 2.376714 -0.000813
v 0.285853 2.342722 0.091243
v 0.082753 2.383901 0.026511
v 0.000174 2.425794 0.081835
v 0.000286 2.484031 0.284935
v 0.027498 2.418607 0.081835
v 0.092454 2.459786 0.284934
v 0.038817 2.401254 0.081835
v -0.091880 2.459786 0.284935
v 0.000287 2.452282 0.545624
v 0.057103 2.437336 0.545624
v -0.027150 2.418607 0.081835
v -0.130058 2.401254 0.284934
v -0.056529 2.437336 0.545624
v -0.038468 2.401254 0.081835
v -0.080063 2.401254 0.545624
v 0.080637 2.401254 0.545623
v 0.130632 2.401254 0.284934
v -0.091880 2.342722 0.284935
v -0.027150 2.383901 0.081835
v 0.000286 2.318477 0.284935
v -0.056529 2.365172 0.545624
v 0.000174 2.376714 0.081835
v 0.092454 2.342722 0.284934
v 0.000287 2.350227 0.545624
v 0.027498 2.383901 0.081835
v 0.057103 2.365172 0.545624
v 0.000287 2.401254 0.545624
v 0.021917 2.405780 0.527967
v -0.045410 2.405780 0.527943
v 0.068841 2.416494 1.110963
v -0.179856 2.416494 1.110890
v 0.102369 2.371937 1.110962
v 0.068149 2.416494 3.837281
v 0.101679 2.371938 3.837283
v -0.078313 2.382651 0.527936
v -0.243241 2.371937 1.110874
v -0.180546 2.416494 3.837207
v -0.065138 2.416494 4.262738
v -0.041888 2.371938 4.262738
v -0.324110 2.416494 4.262664
v -0.243933 2.371938 3.837195
v -0.387495 2.371938 4.262650
v 0.045269 2.382651 0.527966
v -3.837915 2.371937 0.100761
v -3.837832 2.371937 -0.244851
v -1.111600 2.371937 0.101451
v -1.111513 2.371937 -0.244161
v -0.528605 2.382651 0.044351
v -4.263291 2.371937 -0.388419
v -4.263379 2.371937 -0.042807
v -0.528575 2.382651 -0.079231
v -4.263384 2.416495 -0.066058
v -4.263306 2.416495 -0.325032
v -3.837842 2.416495 -0.181462
v -1.111528 2.416494 -0.180773
v -3.837919 2.416495 0.067230
v -1.111600 2.416494 0.067923
v -0.528583 2.405780 -0.046328
v -0.528605 2.405780 0.021000
v -0.546261 2.401254 0.079719
v -0.546261 2.437336 0.056185
v -0.546261 2.401254 -0.000632
v -0.546261 2.365172 0.056185
v -0.546261 2.350227 -0.000632
v -0.546261 2.365172 -0.057447
v -0.546261 2.401254 -0.080981
v -0.546261 2.437336 -0.057447
v -0.546261 2.452282 -0.000632
v -0.285573 2.459787 0.091536
v -0.285572 2.401254 0.129713
v -0.285572 2.484031 -0.000632
v -0.082473 2.401254 0.037899
v -0.082473 2.418607 0.026580
v -0.285572 2.459786 -0.092798
v -0.082474 2.425794 -0.000744
v -0.285572 2.401254 -0.130976
v -0.082473 2.418607 -0.028067
v -0.082473 2.401254 -0.039385
v -0.285573 2.342722 0.091536
v -0.285572 2.318477 -0.000632
v -0.082473 2.383901 0.026580
v -0.082474 2.376714 -0.000744
v -0.285572 2.342722 -0.092798
v -0.082473 2.383901 -0.028067
v 0.000105 2.425794 -0.083391
v -0.000007 2.484031 -0.286490
v -0.027219 2.418607 -0.083391
v -0.092175 2.459787 -0.286490
v -0.038537 2.401254 -0.083390
v 0.092161 2.459786 -0.286490
v -0.000007 2.452282 -0.547179
v -0.056823 2.437336 -0.547180
v 0.027429 2.418607 -0.083390
v 0.130337 2.401254 -0.286491
v 0.056809 2.437336 -0.547178
v 0.038748 2.401254 -0.083391
v 0.080343 2.401254 -0.547179
v -0.080357 2.401254 -0.547179
v -0.130351 2.401254 -0.286490
v 0.092161 2.342722 -0.286490
v 0.027429 2.383901 -0.083390
v -0.000007 2.318477 -0.286490
v 0.056809 2.365172 -0.547178
v 0.000105 2.376714 -0.083391
v -0.092175 2.342722 -0.286490
v -0.000007 2.350227 -0.547179
v -0.027219 2.383901 -0.083391
v -0.056823 2.365172 -0.547180
v -0.000007 2.401254 -0.547179
v -0.021638 2.405780 -0.529523
v 0.045690 2.405780 -0.529501
v -0.068559 2.416494 -1.112518
v 0.180135 2.416494 -1.112445
v -0.102090 2.371937 -1.112518
v -0.067870 2.416494 -3.838836
v -0.101401 2.371937 -3.838833
v 0.078594 2.382651 -0.529492
v 0.243523 2.371937 -1.112431
v 0.180826 2.416494 -3.838763
v 0.065418 2.416494 -4.264291
v 0.042169 2.371937 -4.264293
v 0.324390 2.416494 -4.264212
v 0.244213 2.371937 -3.838751
v 0.387778 2.371937 -4.264210
v -0.044988 2.382651 -0.529523
vn -0.7069 0.0253 0.7069
vn -0.5907 0.5496 0.5908
vn -0.9997 0.0253 -0.0000
vn -0.8354 0.5496 -0.0000
vn -0.7069 0.0253 -0.7069
vn -0.5908 0.5496 -0.5907
vn 0.7214 0.1874 -0.6667
vn 0.7200 0.1876 -0.6681
vn 0.9998 -0.0150 0.0142
vn 0.9998 -0.0155 0.0158
vn 0.0143 0.2757 -0.9611
vn 0.0117 0.2757 -0.9612
vn -0.7004 0.1954 -0.6865
vn -0.7045 0.1941 -0.6826
vn -1.0000 -0.0053 -0.0085
vn -0.9999 -0.0050 -0.0095
vn -0.0000 0.0253 0.9997
vn -0.0000 0.5496 0.8354
vn 0.5908 0.5496 0.5907
vn 0.7069 0.0253 0.7069
vn -0.0000 0.6829 0.7305
vn -0.5165 0.6829 0.5165
vn 0.5165 0.6829 0.5165
vn 0.7305 0.6829 -0.0000
vn 0.8354 0.5496 -0.0000
vn 0.5165 0.6829 -0.5165
vn 0.5907 0.5496 -0.5908
vn -0.0000 0.6829 -0.7305
vn -0.0000 0.5496 -0.8354
vn -0.5165 0.6829 -0.5165
vn -0.7305 0.6829 -0.0000
vn -0.0000 0.4953 0.8687
vn -0.6143 0.4953 0.6143
vn 0.6143 0.4953 0.6143
vn -0.0142 -0.2923 0.9562
vn -0.0117 -0.2923 0.9563
vn -0.7175 -0.2052 0.6656
vn -0.7123 -0.2068 0.6707
vn 0.6951 -0.2135 0.6864
vn 0.6980 -0.2128 0.6837
vn -0.6656 -0.2052 -0.7176
vn -0.6706 -0.2068 -0.7124
vn 0.0095 -0.0050 -0.9999
vn 0.0085 -0.0053 -1.0000
vn -0.9563 -0.2923 -0.0117
vn -0.9562 -0.2923 -0.0142
vn -0.6864 -0.2135 0.6952
vn -0.6837 -0.2128 0.6981
vn -0.0157 -0.0155 0.9998
vn -0.0142 -0.0150 0.9998
vn 0.6826 0.1941 -0.7045
vn 0.6865 0.1954 -0.7004
vn 0.9612 0.2757 0.0117
vn 0.9611 0.2757 0.0143
vn 0.6667 0.1874 0.7214
vn 0.6681 0.1877 0.7200
vn -0.8687 0.4953 -0.0000
vn -0.6143 0.4953 -0.6143
vn -0.0000 0.0253 -0.9997
vn 0.7069 0.0253 -0.7069
vn -0.0000 0.4953 -0.8687
vn 0.6143 0.4953 -0.6143
vn 0.0143 -0.2923 -0.9562
vn 0.0117 -0.2923 -0.9563
vn 0.7176 -0.2052 -0.6656
vn 0.7124 -0.2068 -0.6706
vn 0.9999 -0.0050 0.0095
vn -0.6952 -0.2135 -0.6864
vn -0.6981 -0.2128 -0.6836
vn -0.9998 -0.0155 -0.0158
vn -0.9998 -0.0150 -0.0142
vn 1.0000 -0.0053 0.0084
vn -0.7214 0.1874 0.6667
vn -0.7200 0.1876 0.6681
vn -0.0143 0.2757 0.9611
vn -0.0117 0.2757 0.9612
vn 0.7004 0.1953 0.6865
vn 0.7045 0.1941 0.6826
vn 0.6656 -0.2052 0.7175
vn 0.6706 -0.2068 0.7124
vn -0.0095 -0.0050 0.9999
vn -0.0085 -0.0053 1.0000
vn 0.9563 -0.2923 0.0117
vn 0.9562 -0.2923 0.0143
vn 0.6864 -0.2135 -0.6951
vn 0.6837 -0.2128 -0.6981
vn 0.0158 -0.0155 -0.9998
vn 0.0142 -0.0150 -0.9998
vn -0.6826 0.1941 0.7045
vn -0.6865 0.1953 0.7004
vn -0.9612 0.2757 -0.0117
vn -0.9611 0.2757 -0.0143
vn -0.6667 0.1874 -0.7214
vn -0.6681 0.1876 -0.7200
vn 0.8687 0.4953 -0.0000
vn 0.9997 0.0253 -0.0000
vn -0.0000 1.0000 -0.0000
vn -0.0000 -1.0000 -0.0000
vn -0.0089 -1.0000 -0.0000
vn -0.0076 -1.0000 -0.0000
vn -0.0184 -0.9998 -0.0000
vn 1.0000 -0.0001 0.0003
vn 1.0000 -0.0000 0.0003
vn 1.0000 0.0001 0.0003
vn -0.1905 0.8032 0.5645
vn -0.1193 0.9278 0.3534
vn -0.1032 0.8138 0.5720
vn -0.0413 0.9614 0.2719
vn -0.0674 0.8163 0.5737
vn -0.0472 0.9463 0.3197
vn 0.0836 0.8743 -0.4781
vn -0.1461 0.8093 0.5689
vn -0.0265 0.8905 -0.4542
vn -0.0779 0.9621 0.2612
vn 0.2676 0.4458 -0.8542
vn 0.2673 0.4559 -0.8489
vn 0.1228 0.5967 -0.7930
vn -0.0363 0.6030 -0.7969
vn -0.0400 0.9286 -0.3689
vn -0.0558 0.7094 -0.7026
vn 1.0000 -0.0000 -0.0000
vn 0.1467 0.8103 -0.5674
vn 0.1883 -0.0000 -0.9821
vn -0.0912 0.7959 -0.5985
vn -0.1066 -0.0000 -0.9943
vn -0.0765 0.9971 -0.0000
vn -0.4119 -0.0000 -0.9112
vn -0.3275 0.7846 -0.5265
vn 0.1209 0.9927 -0.0000
vn -0.0909 0.7960 0.5984
vn -0.2756 0.9613 0.0001
vn 0.1467 0.8103 0.5674
vn -0.1062 -0.0000 0.9943
vn -0.3270 0.7846 0.5268
vn 0.1883 -0.0000 0.9821
vn -0.4111 -0.0000 0.9116
vn 0.1467 -0.8103 -0.5674
vn -0.0912 -0.7959 -0.5985
vn 0.1209 -0.9927 -0.0000
vn -0.0765 -0.9971 -0.0000
vn -0.3275 -0.7846 -0.5265
vn -0.2756 -0.9613 0.0001
vn 0.1467 -0.8103 0.5674
vn -0.0909 -0.7960 0.5984
vn -0.3270 -0.7846 0.5268
vn -0.0001 0.9613 -0.2756
vn -0.0000 0.9971 -0.0765
vn 0.5265 0.7846 -0.3275
vn 0.5985 0.7959 -0.0912
vn 0.9112 -0.0000 -0.4119
vn -0.5984 0.7960 -0.0909
vn -0.0000 0.9927 0.1209
vn 0.5674 0.8103 0.1467
vn -0.5268 0.7846 -0.3270
vn -0.9943 -0.0000 -0.1062
vn -0.5674 0.8103 0.1467
vn -0.9116 -0.0000 -0.4111
vn -0.9821 -0.0000 0.1883
vn 0.9821 -0.0000 0.1883
vn 0.9943 -0.0000 -0.1066
vn -0.5984 -0.7960 -0.0909
vn -0.5268 -0.7846 -0.3270
vn -0.0000 -0.9971 -0.0765
vn -0.5674 -0.8103 0.1467
vn -0.0001 -0.9613 -0.2756
vn 0.5985 -0.7959 -0.0912
vn -0.0000 -0.9927 0.1209
vn 0.5265 -0.7846 -0.3275
vn 0.5674 -0.8103 0.1467
vn -0.0000 -0.0000 1.0000
vn 0.3689 0.9286 -0.0400
vn -0.2612 0.9621 -0.0779
vn 0.4542 0.8905 -0.0265
vn -0.3197 0.9463 -0.0472
vn 0.7969 0.6030 -0.0363
vn 0.4781 0.8743 0.0836
vn 0.7930 0.5967 0.1228
vn -0.5689 0.8093 -0.1461
vn -0.5738 0.8162 -0.0674
vn -0.2719 0.9614 -0.0413
vn 0.8542 0.4457 0.2676
vn 0.8490 0.4558 0.2673
vn -0.3535 0.9278 -0.1193
vn -0.5720 0.8137 -0.1032
vn -0.5645 0.8031 -0.1905
vn 0.7026 0.7094 -0.0558
vn -0.0000 -0.9998 -0.0184
vn -0.0000 -1.0000 -0.0089
vn -0.0000 -1.0000 -0.0076
vn -0.0003 -0.0001 1.0000
vn -0.0003 -0.0000 1.0000
vn -0.0003 0.0001 1.0000
vn 0.0089 -1.0000 -0.0000
vn 0.0076 -1.0000 -0.0000
vn 0.0184 -0.9998 -0.0000
vn -1.0000 -0.0002 -0.0003
vn -1.0000 -0.0000 -0.0003
vn -1.0000 0.0001 -0.0003
vn 0.1905 0.8031 -0.5645
vn 0.1193 0.9278 -0.3535
vn 0.1032 0.8137 -0.5720
vn 0.0413 0.9614 -0.2719
vn 0.0674 0.8163 -0.5737
vn 0.0472 0.9463 -0.3197
vn -0.0836 0.8743 0.4781
vn 0.1461 0.8093 -0.5689
vn 0.0265 0.8905 0.4542
vn 0.0779 0.9621 -0.2612
vn -0.2676 0.4457 0.8542
vn -0.2673 0.4558 0.8490
vn -0.1228 0.5967 0.7930
vn 0.0363 0.6030 0.7969
vn 0.0400 0.9286 0.3689
vn 0.0558 0.7094 0.7026
vn -1.0000 -0.0000 -0.0000
vn -0.1467 0.8103 0.5674
vn -0.1883 -0.0000 0.9821
vn 0.0912 0.7959 0.5985
vn 0.1066 -0.0000 0.9943
vn 0.0765 0.9971 -0.0000
vn 0.4119 -0.0000 0.9112
vn 0.3275 0.7846 0.5265
vn -0.1209 0.9927 -0.0000
vn 0.0909 0.7960 -0.5984
vn 0.2756 0.9613 -0.0001
vn -0.1467 0.8103 -0.5674
vn 0.1062 -0.0000 -0.9943
vn 0.3270 0.7846 -0.5268
vn -0.1883 -0.0000 -0.9821
vn 0.4111 -0.0000 -0.9116
vn -0.1467 -0.8103 0.5674
vn 0.0912 -0.7959 0.5985
vn -0.1209 -0.9927 -0.0000
vn 0.0765 -0.9971 -0.0000
vn 0.3275 -0.7846 0.5265
vn 0.2756 -0.9613 -0.0001
vn -0.1467 -0.8103 -0.5674
vn 0.0909 -0.7960 -0.5984
vn 0.3270 -0.7846 -0.5268
vn 0.0001 0.9613 0.2756
vn -0.0000 0.9971 0.0765
vn -0.5265 0.7846 0.3275
vn -0.5985 0.7959 0.0912
vn -0.9112 -0.0000 0.4119
vn 0.5984 0.7960 0.0909
vn -0.0000 0.9927 -0.1209
vn -0.5674 0.8103 -0.1467
vn 0.5268 0.7846 0.3270
vn 0.9943 -0.0000 0.1062
vn 0.5674 0.8103 -0.1467
vn 0.9116 -0.0000 0.4111
vn 0.9821 -0.0000 -0.1883
vn -0.9821 -0.0000 -0.1883
vn -0.9943 -0.0000 0.1066
vn 0.5984 -0.7960 0.0909
vn 0.5268 -0.7846 0.3270
vn -0.0000 -0.9971 0.0765
vn 0.5674 -0.8103 -0.1467
vn 0.0001 -0.9613 0.2756
vn -0.5985 -0.7959 0.0912
vn -0.0000 -0.9927 -0.1209
vn -0.5265 -0.7846 0.3275
vn -0.5674 -0.8103 -0.1467
vn -0.0000 -0.0000 -1.0000
vn -0.3689 0.9286 0.0400
vn 0.2612 0.9621 0.0779
vn -0.4542 0.8905 0.0265
vn 0.3197 0.9463 0.0472
vn -0.7969 0.6030 0.0363
vn -0.4781 0.8743 -0.0836
vn -0.7930 0.5967 -0.1228
vn 0.5689 0.8093 0.1461
vn 0.5737 0.8163 0.0674
vn 0.2719 0.9614 0.0413
vn -0.8542 0.4457 -0.2676
vn -0.8490 0.4558 -0.2673
vn 0.3535 0.9278 0.1193
vn 0.5720 0.8137 0.1032
vn 0.5645 0.8031 0.1905
vn -0.7026 0.7094 0.0558
vn -0.0000 -0.9998 0.0184
vn -0.0000 -1.0000 0.0089
vn -0.0000 -1.0000 0.0076
vn 0.0002 -0.0001 -1.0000
vn 0.0002 -0.0000 -1.0000
vn 0.0003 0.0003 -1.0000
vn 0.0003 0.0004 -1.0000
vt 0.103634 0.620185
vt 0.128347 0.620627
vt 0.103634 0.676948
vt 0.128347 0.676949
vt 0.103634 0.733724
vt 0.128347 0.733282
vt 0.294047 0.010206
vt 0.295412 0.176708
vt 0.295431 0.009139
vt 0.297239 0.175527
vt 0.290884 0.177197
vt 0.290614 0.010648
vt 0.286306 0.176708
vt 0.287144 0.010206
vt 0.284360 0.175527
vt 0.285669 0.009139
vt 0.103634 0.676171
vt 0.128347 0.676171
vt 0.103634 0.619396
vt 0.128347 0.619838
vt 0.128347 0.732493
vt 0.103634 0.732935
vt 0.155956 0.043804
vt 0.137184 0.043804
vt 0.145033 0.017432
vt 0.131759 0.030706
vt 0.118662 0.006509
vt 0.131759 0.056901
vt 0.145033 0.070175
vt 0.118662 0.062326
vt 0.118662 0.081098
vt 0.105564 0.056901
vt 0.092290 0.070175
vt 0.100139 0.043804
vt 0.081367 0.043804
vt 0.105564 0.030706
vt 0.092290 0.017432
vt 0.118662 0.025281
vt 0.248651 0.021886
vt 0.248651 0.053272
vt 0.254040 0.021886
vt 0.254040 0.053272
vt 0.243264 0.053272
vt 0.243264 0.021886
vt 0.290487 0.007629
vt 0.290716 0.173856
vt 0.287054 0.008072
vt 0.286187 0.174346
vt 0.295294 0.174346
vt 0.293957 0.008072
vt 0.254189 0.022144
vt 0.254189 0.053531
vt 0.248802 0.022144
vt 0.248802 0.053531
vt 0.243414 0.022144
vt 0.243414 0.053531
vt 0.103634 0.676131
vt 0.128347 0.676131
vt 0.103634 0.732906
vt 0.128347 0.732464
vt 0.128347 0.619809
vt 0.103634 0.619367
vt 0.248655 0.021886
vt 0.248655 0.053272
vt 0.243267 0.021886
vt 0.243267 0.053272
vt 0.254042 0.053272
vt 0.254042 0.021886
vt 0.392890 0.775319
vt 0.441779 0.775573
vt 0.393203 0.775726
vt 0.442126 0.776111
vt 0.441635 0.774242
vt 0.392760 0.774309
vt 0.441779 0.772896
vt 0.392890 0.773289
vt 0.442126 0.772324
vt 0.393203 0.772855
vt 0.393517 0.775292
vt 0.442474 0.775539
vt 0.393647 0.774272
vt 0.442617 0.774193
vt 0.393517 0.773263
vt 0.442474 0.772861
vt 0.243411 0.022144
vt 0.243411 0.053531
vt 0.248798 0.022144
vt 0.248798 0.053531
vt 0.254186 0.022144
vt 0.254186 0.053531
vt 0.103634 0.733753
vt 0.128347 0.733311
vt 0.103634 0.676989
vt 0.128347 0.676989
vt 0.103634 0.620214
vt 0.128347 0.620655
vt 0.257570 0.040984
vt 0.248536 0.040984
vt 0.254924 0.034596
vt 0.254924 0.047373
vt 0.248536 0.050020
vt 0.242147 0.047373
vt 0.239501 0.040984
vt 0.248536 0.031950
vt 0.242147 0.034596
vt 0.239195 0.355813
vt 0.270326 0.355805
vt 0.239133 0.110243
vt 0.270263 0.110235
vt 0.244276 0.057730
vt 0.283257 0.394127
vt 0.252127 0.394135
vt 0.255408 0.057727
vt 0.254221 0.394135
vt 0.277548 0.394129
vt 0.264616 0.355806
vt 0.264554 0.110236
vt 0.242215 0.355813
vt 0.242153 0.110243
vt 0.252444 0.057728
vt 0.246379 0.057730
vt 0.241090 0.059320
vt 0.243210 0.059320
vt 0.248328 0.059320
vt 0.253445 0.059320
vt 0.255565 0.059320
vt 0.240026 0.035839
vt 0.236587 0.035839
vt 0.248328 0.035839
vt 0.244857 0.017545
vt 0.245877 0.017545
vt 0.256630 0.035839
vt 0.248338 0.017545
vt 0.260068 0.035839
vt 0.250799 0.017545
vt 0.251818 0.017545
s 1
usemtl Material01
f 1/1/1 2/2/2 3/3/3
f 2/2/2 4/4/4 3/3/3
f 3/3/3 4/4/4 5/5/5
f 4/4/4 6/6/6 5/5/5
f 7/7/7 8/8/8 9/9/9
f 8/8/8 10/10/10 9/9/9
f 11/11/11 8/8/8 7/7/7
f 12/12/12 11/11/11 7/7/7
f 13/13/13 11/11/11 12/12/12
f 14/14/14 13/13/13 12/12/12
f 15/15/15 13/13/13 14/14/14
f 16/16/16 15/15/15 14/14/14
f 17/17/17 18/18/18 1/19/1
f 18/18/18 2/20/2 1/19/1
f 19/21/19 18/18/18 17/17/17
f 20/22/20 19/21/19 17/17/17
f 18/23/18 21/24/21 2/25/2
f 21/24/21 22/26/22 2/25/2
f 2/25/2 22/26/22 4/27/4
f 23/28/23 21/24/21 18/23/18
f 19/29/19 23/28/23 18/23/18
f 24/30/24 23/28/23 19/29/19
f 25/31/25 24/30/24 19/29/19
f 26/32/26 24/30/24 25/31/25
f 27/33/27 26/32/26 25/31/25
f 28/34/28 26/32/26 27/33/27
f 29/35/29 28/34/28 27/33/27
f 30/36/30 28/34/28 29/35/29
f 6/37/6 30/36/30 29/35/29
f 4/27/4 31/38/31 6/37/6
f 31/38/31 30/36/30 6/37/6
f 22/26/22 31/38/31 4/27/4
f 21/39/21 32/40/32 22/41/22
f 32/40/32 33/42/33 22/41/22
f 34/43/34 32/40/32 21/39/21
f 23/44/23 34/43/34 21/39/21
f 35/45/35 36/46/36 37/47/37
f 37/47/37 38/48/38 16/16/16
f 36/46/36 38/48/38 37/47/37
f 39/49/39 36/46/36 35/45/35
f 40/50/40 39/49/39 35/45/35
f 10/10/10 39/49/39 40/50/40
f 9/9/9 10/10/10 40/50/40
f 38/48/38 15/15/15 16/16/16
f 41/47/41 42/48/42 43/16/43
f 42/48/42 44/15/44 43/16/43
f 45/46/45 42/48/42 41/47/41
f 46/45/46 45/46/45 41/47/41
f 47/49/47 45/46/45 46/45/46
f 48/50/48 47/49/47 46/45/46
f 49/10/49 47/49/47 48/50/48
f 50/9/50 49/10/49 48/50/48
f 43/16/43 44/15/44 51/14/51
f 51/14/51 52/13/52 53/12/53
f 44/15/44 52/13/52 51/14/51
f 53/12/53 54/11/54 55/7/55
f 52/13/52 54/11/54 53/12/53
f 55/7/55 56/8/56 50/9/50
f 54/11/54 56/8/56 55/7/55
f 56/8/56 49/10/49 50/9/50
f 22/51/22 33/52/33 31/53/31
f 31/53/31 57/54/57 30/55/30
f 33/52/33 57/54/57 31/53/31
f 57/54/57 58/56/58 30/55/30
f 59/57/59 29/58/29 60/59/60
f 29/58/29 27/60/27 60/59/60
f 6/61/6 29/58/29 59/57/59
f 5/62/5 6/61/6 59/57/59
f 28/63/28 61/64/61 26/65/26
f 61/64/61 62/66/62 26/65/26
f 58/67/58 61/64/61 28/63/28
f 30/68/30 58/67/58 28/63/28
f 63/45/63 64/46/64 65/47/65
f 65/47/65 66/48/66 67/16/67
f 64/46/64 66/48/66 65/47/65
f 68/49/68 64/46/64 63/45/63
f 69/50/69 68/49/68 63/45/63
f 70/10/70 68/49/68 69/50/69
f 71/9/71 70/10/70 69/50/69
f 66/48/66 72/15/72 67/16/67
f 73/7/73 74/8/74 71/9/71
f 74/8/74 70/10/70 71/9/71
f 75/11/75 74/8/74 73/7/73
f 76/12/76 75/11/75 73/7/73
f 77/13/77 75/11/75 76/12/76
f 78/14/78 77/13/77 76/12/76
f 72/15/72 77/13/77 78/14/78
f 67/16/67 72/15/72 78/14/78
f 79/69/79 80/70/80 81/71/81
f 80/70/80 82/72/82 81/71/81
f 83/73/83 80/70/80 79/69/79
f 84/74/84 83/73/83 79/69/79
f 85/75/85 83/73/83 84/74/84
f 86/76/86 85/75/85 84/74/84
f 87/77/87 85/75/85 86/76/86
f 88/78/88 87/77/87 86/76/86
f 81/71/81 82/72/82 89/79/89
f 89/79/89 90/80/90 91/81/91
f 82/72/82 90/80/90 89/79/89
f 91/81/91 92/82/92 93/83/93
f 90/80/90 92/82/92 91/81/91
f 93/83/93 94/84/94 88/78/88
f 92/82/92 94/84/94 93/83/93
f 94/84/94 87/77/87 88/78/88
f 26/85/26 62/86/62 24/87/24
f 24/87/24 95/88/95 23/89/23
f 62/86/62 95/88/95 24/87/24
f 95/88/95 34/90/34 23/89/23
f 60/91/60 27/92/27 96/93/96
f 27/92/27 25/94/25 96/93/96
f 96/93/96 25/94/25 20/95/20
f 25/94/25 19/96/19 20/95/20
f 32/97/32 97/98/97 33/99/33
f 34/100/34 97/98/97 32/97/32
f 95/101/95 97/98/97 34/100/34
f 62/102/62 97/98/97 95/101/95
f 61/103/61 97/98/97 62/102/62
f 33/99/33 97/98/97 57/104/57
f 57/104/57 97/98/97 58/105/58
f 58/105/58 97/98/97 61/103/61
f 98/106/98 99/107/98 100/108/99
f 99/107/98 101/109/100 100/108/99
f 102/110/101 100/108/99 101/109/100
f 99/107/98 98/106/98 103/111/98
f 98/106/98 104/112/98 103/111/98
f 105/113/101 102/110/101 101/109/101
f 104/112/102 106/114/102 103/111/103
f 106/114/102 107/115/104 103/111/103
f 103/111/105 107/115/106 99/107/107
f 107/115/106 108/116/108 99/107/107
f 101/109/109 99/107/107 108/116/108
f 107/115/106 106/114/97 108/116/108
f 109/117/110 101/109/109 108/116/108
f 106/114/97 110/118/111 108/116/108
f 108/116/108 110/118/111 109/117/110
f 105/113/112 101/109/109 109/117/110
f 110/118/111 111/119/113 109/117/110
f 112/120/114 105/113/112 109/117/110
f 112/120/114 109/117/110 111/119/113
f 106/114/115 104/112/116 110/118/111
f 104/112/116 98/106/117 110/118/111
f 110/118/111 98/106/117 111/119/113
f 98/106/117 100/108/118 111/119/113
f 111/119/113 100/108/118 113/121/119
f 113/121/119 112/120/114 111/119/113
f 100/108/118 102/110/120 113/121/119
f 114/122/121 115/123/121 116/124/121
f 117/123/121 114/122/121 116/124/121
f 118/124/121 117/123/121 116/124/121
f 119/125/121 118/124/121 116/124/121
f 120/126/121 119/125/121 116/124/121
f 121/125/121 120/126/121 116/124/121
f 122/124/121 121/125/121 116/124/121
f 115/123/121 122/124/121 116/124/121
f 115/123/122 114/122/123 123/127/124
f 114/122/123 124/128/125 123/127/124
f 115/123/122 123/127/124 125/129/126
f 124/128/125 126/130/127 123/127/124
f 126/130/127 127/131/128 123/127/124
f 125/129/126 123/127/124 127/131/128
f 122/124/129 115/123/122 125/129/126
f 122/124/129 125/129/126 128/132/130
f 128/132/130 125/129/126 129/133/131
f 129/133/131 125/129/126 127/131/128
f 121/125/132 122/124/129 128/132/130
f 121/125/132 128/132/130 130/134/133
f 128/132/130 131/135/134 130/134/133
f 131/135/134 128/132/130 129/133/131
f 120/126/135 121/125/132 130/134/133
f 131/135/134 132/136/136 130/134/133
f 114/122/123 117/123/137 124/128/125
f 117/123/137 133/127/138 124/128/125
f 117/123/137 118/124/139 133/127/138
f 118/124/139 134/129/140 133/127/138
f 133/127/138 135/131/141 124/128/125
f 134/129/140 136/133/142 133/127/138
f 136/133/142 135/131/141 133/127/138
f 118/124/139 119/125/143 134/129/140
f 119/125/143 137/132/144 134/129/140
f 137/132/144 138/135/145 134/129/140
f 138/135/145 136/133/142 134/129/140
f 119/125/143 120/126/135 137/132/144
f 120/126/135 130/134/133 137/132/144
f 130/134/133 132/136/136 137/132/144
f 132/136/136 138/135/145 137/132/144
f 135/131/141 126/130/127 124/128/125
f 139/133/146 140/129/147 141/131/148
f 140/129/147 142/127/149 141/131/148
f 143/130/150 141/131/148 142/127/149
f 144/132/151 140/129/147 139/133/146
f 145/124/152 146/123/153 140/129/147
f 146/123/153 142/127/149 140/129/147
f 145/124/152 140/129/147 144/132/151
f 147/135/154 144/132/151 139/133/146
f 144/132/151 147/135/154 148/134/155
f 149/125/156 145/124/152 144/132/151
f 149/125/156 144/132/151 148/134/155
f 147/135/154 150/136/157 148/134/155
f 151/126/158 149/125/156 148/134/155
f 146/123/153 152/122/159 142/127/149
f 152/122/159 153/128/160 142/127/149
f 153/128/160 143/130/150 142/127/149
f 148/134/155 150/136/157 154/132/161
f 150/136/157 155/135/162 154/132/161
f 154/132/161 155/135/162 156/129/163
f 157/125/164 151/126/158 154/132/161
f 151/126/158 148/134/155 154/132/161
f 157/125/164 154/132/161 156/129/163
f 155/135/162 158/133/165 156/129/163
f 156/129/163 158/133/165 159/127/166
f 160/124/167 157/125/164 156/129/163
f 160/124/167 156/129/163 159/127/166
f 158/133/165 161/131/168 159/127/166
f 159/127/166 161/131/168 153/128/160
f 162/123/169 160/124/167 159/127/166
f 162/123/169 159/127/166 153/128/160
f 161/131/168 143/130/150 153/128/160
f 152/122/159 162/123/169 153/128/160
f 146/123/170 145/124/170 163/124/170
f 145/124/170 149/125/170 163/124/170
f 149/125/170 151/126/170 163/124/170
f 151/126/170 157/125/170 163/124/170
f 157/125/170 160/124/170 163/124/170
f 160/124/170 162/123/170 163/124/170
f 162/123/170 152/122/170 163/124/170
f 152/122/170 146/123/170 163/124/170
f 164/121/171 165/120/172 166/119/173
f 165/120/172 167/117/174 166/119/173
f 166/119/173 168/108/175 164/121/171
f 169/118/176 166/119/173 167/117/174
f 169/118/176 170/106/177 166/119/173
f 170/106/177 168/108/175 166/119/173
f 165/120/172 171/113/178 167/117/174
f 171/113/178 172/109/179 167/117/174
f 173/116/180 169/118/176 167/117/174
f 167/117/174 172/109/179 173/116/180
f 174/114/97 169/118/176 173/116/180
f 174/114/181 175/112/182 169/118/176
f 175/112/182 170/106/177 169/118/176
f 176/115/183 174/114/97 173/116/180
f 172/109/179 177/107/184 173/116/180
f 176/115/183 173/116/180 177/107/184
f 178/111/185 176/115/183 177/107/184
f 168/108/175 179/110/186 164/121/171
f 171/113/187 179/110/187 172/109/187
f 179/110/187 168/108/188 172/109/189
f 177/107/98 172/109/189 168/108/188
f 170/106/98 177/107/98 168/108/188
f 177/107/98 170/106/98 178/111/98
f 170/106/98 175/112/98 178/111/98
f 175/112/190 174/114/190 178/111/191
f 174/114/190 176/115/192 178/111/191
f 180/106/98 181/107/98 182/108/193
f 181/107/98 183/109/194 182/108/193
f 184/110/195 182/108/193 183/109/194
f 181/107/98 180/106/98 185/111/98
f 180/106/98 186/112/98 185/111/98
f 187/113/195 184/110/195 183/109/195
f 186/112/196 188/114/196 185/111/197
f 188/114/196 189/115/198 185/111/197
f 185/111/199 189/115/200 181/107/201
f 189/115/200 190/116/202 181/107/201
f 183/109/203 181/107/201 190/116/202
f 189/115/200 188/114/97 190/116/202
f 191/117/204 183/109/203 190/116/202
f 188/114/97 192/118/205 190/116/202
f 190/116/202 192/118/205 191/117/204
f 187/113/206 183/109/203 191/117/204
f 192/118/205 193/119/207 191/117/204
f 194/120/208 187/113/206 191/117/204
f 194/120/208 191/117/204 193/119/207
f 188/114/209 186/112/210 192/118/205
f 186/112/210 180/106/211 192/118/205
f 192/118/205 180/106/211 193/119/207
f 180/106/211 182/108/212 193/119/207
f 193/119/207 182/108/212 195/121/213
f 195/121/213 194/120/208 193/119/207
f 182/108/212 184/110/214 195/121/213
f 196/122/215 197/123/215 198/124/215
f 199/123/215 196/122/215 198/124/215
f 200/124/215 199/123/215 198/124/215
f 201/125/215 200/124/215 198/124/215
f 202/126/215 201/125/215 198/124/215
f 203/125/215 202/126/215 198/124/215
f 204/124/215 203/125/215 198/124/215
f 197/123/215 204/124/215 198/124/215
f 197/123/216 196/122/217 205/127/218
f 196/122/217 206/128/219 205/127/218
f 197/123/216 205/127/218 207/129/220
f 206/128/219 208/130/221 205/127/218
f 208/130/221 209/131/222 205/127/218
f 207/129/220 205/127/218 209/131/222
f 204/124/223 197/123/216 207/129/220
f 204/124/223 207/129/220 210/132/224
f 210/132/224 207/129/220 211/133/225
f 211/133/225 207/129/220 209/131/222
f 203/125/226 204/124/223 210/132/224
f 203/125/226 210/132/224 212/134/227
f 210/132/224 213/135/228 212/134/227
f 213/135/228 210/132/224 211/133/225
f 202/126/229 203/125/226 212/134/227
f 213/135/228 214/136/230 212/134/227
f 196/122/217 199/123/231 206/128/219
f 199/123/231 215/127/232 206/128/219
f 199/123/231 200/124/233 215/127/232
f 200/124/233 216/129/234 215/127/232
f 215/127/232 217/131/235 206/128/219
f 216/129/234 218/133/236 215/127/232
f 218/133/236 217/131/235 215/127/232
f 200/124/233 201/125/237 216/129/234
f 201/125/237 219/132/238 216/129/234
f 219/132/238 220/135/239 216/129/234
f 220/135/239 218/133/236 216/129/234
f 201/125/237 202/126/229 219/132/238
f 202/126/229 212/134/227 219/132/238
f 212/134/227 214/136/230 219/132/238
f 214/136/230 220/135/239 219/132/238
f 217/131/235 208/130/221 206/128/219
f 221/133/240 222/129/241 223/131/242
f 222/129/241 224/127/243 223/131/242
f 225/130/244 223/131/242 224/127/243
f 226/132/245 222/129/241 221/133/240
f 227/124/246 228/123/247 222/129/241
f 228/123/247 224/127/243 222/129/241
f 227/124/246 222/129/241 226/132/245
f 229/135/248 226/132/245 221/133/240
f 226/132/245 229/135/248 230/134/249
f 231/125/250 227/124/246 226/132/245
f 231/125/250 226/132/245 230/134/249
f 229/135/248 232/136/251 230/134/249
f 233/126/252 231/125/250 230/134/249
f 228/123/247 234/122/253 224/127/243
f 234/122/253 235/128/254 224/127/243
f 235/128/254 225/130/244 224/127/243
f 230/134/249 232/136/251 236/132/255
f 232/136/251 237/135/256 236/132/255
f 236/132/255 237/135/256 238/129/257
f 239/125/258 233/126/252 236/132/255
f 233/126/252 230/134/249 236/132/255
f 239/125/258 236/132/255 238/129/257
f 237/135/256 240/133/259 238/129/257
f 238/129/257 240/133/259 241/127/260
f 242/124/261 239/125/258 238/129/257
f 242/124/261 238/129/257 241/127/260
f 240/133/259 243/131/262 241/127/260
f 241/127/260 243/131/262 235/128/254
f 244/123/263 242/124/261 241/127/260
f 244/123/263 241/127/260 235/128/254
f 243/131/262 225/130/244 235/128/254
f 234/122/253 244/123/263 235/128/254
f 228/123/264 227/124/264 245/124/264
f 227/124/264 231/125/264 245/124/264
f 231/125/264 233/126/264 245/124/264
f 233/126/264 239/125/264 245/124/264
f 239/125/264 242/124/264 245/124/264
f 242/124/264 244/123/264 245/124/264
f 244/123/264 234/122/264 245/124/264
f 234/122/264 228/123/264 245/124/264
f 246/121/265 247/120/266 248/119/267
f 247/120/266 249/117/268 248/119/267
f 248/119/267 250/108/269 246/121/265
f 251/118/270 248/119/267 249/117/268
f 251/118/270 252/106/271 248/119/267
f 252/106/271 250/108/269 248/119/267
f 247/120/266 253/113/272 249/117/268
f 253/113/272 254/109/273 249/117/268
f 255/116/274 251/118/270 249/117/268
f 249/117/268 254/109/273 255/116/274
f 256/114/97 251/118/270 255/116/274
f 256/114/275 257/112/276 251/118/270
f 257/112/276 252/106/271 251/118/270
f 258/115/277 256/114/97 255/116/274
f 254/109/273 259/107/278 255/116/274
f 258/115/277 255/116/274 259/107/278
f 260/111/279 258/115/277 259/107/278
f 250/108/269 261/110/280 246/121/265
f 253/113/281 261/110/281 254/109/281
f 261/110/281 250/108/282 254/109/283
f 259/107/98 254/109/283 250/108/282
f 252/106/98 259/107/98 250/108/282
f 259/107/98 252/106/98 260/111/98
f 252/106/98 257/112/98 260/111/98
f 257/112/284 256/114/285 260/111/286
f 256/114/285 258/115/287 260/111/286
