# Blender 4.4.3
# www.blender.org
mtllib apacherotor2.mtl
o apacherotor2
v -0.018885 -0.067868 0.016064
v -0.257679 -0.067868 0.016064
v -0.018885 -0.062758 -0.037172
v -0.018885 -0.033851 0.057356
v -0.257679 -0.033851 0.057356
v -0.257679 -0.062758 -0.037172
v -0.018885 -0.021467 -0.071206
v -0.257679 -0.021467 -0.071206
v -0.018885 0.031780 -0.066080
v -0.257679 0.031780 -0.066080
v -0.018885 0.065816 -0.024800
v -0.257679 0.065816 -0.024800
v -0.018885 0.060685 0.028446
v -0.257679 0.060685 0.028446
v -0.018885 0.019403 0.062471
v -0.257679 0.019403 0.062471
v -0.257679 0.039587 -0.095570
v -0.257679 -0.036805 -0.097567
v -0.257679 0.034757 0.088863
v -0.257679 -0.041635 0.086863
v -0.257679 0.092197 -0.040134
v -0.257679 0.090189 0.036257
v -0.257679 -0.092247 -0.044969
v -0.257679 -0.094243 0.031434
v -0.184384 0.167866 0.073560
v -0.168947 0.088138 0.034639
v -0.180735 0.101903 0.006444
v -0.184384 -0.169928 -0.082295
v -0.168947 -0.090198 -0.043365
v -0.180735 -0.103964 -0.015177
v -0.221125 0.025687 0.005283
v -0.249440 0.086742 0.037694
v -0.217630 0.030046 -0.002926
v -0.237652 0.101461 0.010001
v -0.209194 0.031858 -0.006335
v -0.237652 0.082055 0.053037
v -0.234003 0.165080 0.079352
v -0.226737 0.174161 0.062272
v -0.217630 0.023867 0.009712
v -0.209194 0.077832 0.065328
v -0.226737 0.156002 0.096421
v -0.209194 0.022610 0.013358
v -0.209194 0.152241 0.103492
v -0.209194 0.177912 0.055198
v -0.209194 0.107571 -0.001474
v -0.180735 0.082055 0.053037
v -0.200757 0.021324 0.013485
v -0.168947 0.086742 0.037694
v -0.197262 0.025687 0.005283
v -0.180735 0.101461 0.010001
v -0.184384 0.165080 0.079352
v -0.191651 0.156002 0.096421
v -0.200757 0.030046 -0.002926
v -0.191651 0.174161 0.062272
v -0.209194 0.165080 0.079352
v -0.211394 0.166955 0.063013
v -0.211394 0.152462 0.090255
v -0.216603 0.351272 0.139013
v -0.216604 0.306160 0.223802
v -0.216604 0.791738 0.373474
v -0.200149 0.147204 0.100140
v -0.194940 0.296030 0.242848
v -0.216604 0.746617 0.458266
v -0.194940 0.736497 0.477310
v -0.194940 0.351272 0.139013
v -0.194940 0.791738 0.373474
v -0.200149 0.166955 0.063013
v -0.257679 0.060683 0.028449
v -0.257679 0.019410 0.062473
v -0.018885 0.019410 0.062473
v -0.257679 0.065817 -0.024802
v -0.018885 0.060683 0.028449
v -0.257679 -0.033850 0.057353
v -0.018885 -0.033850 0.057353
v -0.257679 -0.067875 0.016069
v -0.018885 -0.067875 0.016069
v -0.257679 -0.062751 -0.037182
v -0.018885 -0.062751 -0.037182
v -0.257679 -0.021468 -0.071200
v -0.018885 -0.021468 -0.071200
v -0.257679 0.031775 -0.066082
v -0.018885 0.031775 -0.066082
v -0.018885 0.065817 -0.024802
v -0.194940 -0.738554 -0.486049
v -0.194940 -0.793800 -0.382200
v -0.216604 -0.748691 -0.467005
v -0.216604 -0.793800 -0.382200
v -0.194940 -0.353340 -0.147733
v -0.194940 -0.298092 -0.251583
v -0.200149 -0.169025 -0.071746
v -0.200149 -0.149262 -0.108873
v -0.216603 -0.308224 -0.232537
v -0.216604 -0.353340 -0.147733
v -0.211394 -0.154529 -0.098993
v -0.211394 -0.169025 -0.071746
v -0.209194 -0.179979 -0.063939
v -0.226737 -0.176222 -0.071008
v -0.209194 -0.167139 -0.088079
v -0.226737 -0.158066 -0.105153
v -0.209194 -0.154302 -0.112226
v -0.191651 -0.176222 -0.071008
v -0.191651 -0.158066 -0.105153
v -0.184384 -0.167139 -0.088079
v -0.234003 -0.167139 -0.088079
v -0.237652 -0.103532 -0.018731
v -0.209194 -0.109634 -0.007264
v -0.249440 -0.088808 -0.046419
v -0.217630 -0.032118 -0.005801
v -0.237652 -0.084068 -0.061904
v -0.221125 -0.028903 -0.009768
v -0.209194 -0.033928 -0.002397
v -0.217630 -0.026090 -0.018160
v -0.209194 -0.081008 -0.072831
v -0.209194 -0.024896 -0.021827
v -0.180735 -0.103532 -0.018731
v -0.200757 -0.032118 -0.005801
v -0.168947 -0.088808 -0.046419
v -0.197262 -0.027752 -0.014006
v -0.200757 -0.026090 -0.018160
v -0.180735 -0.085033 -0.060474
v -0.221125 -0.018123 -0.027114
v -0.249440 -0.051651 -0.087562
v -0.217630 -0.026269 -0.022595
v -0.237652 -0.079091 -0.072366
v -0.209194 -0.029625 -0.020743
v -0.237652 -0.024200 -0.102752
v -0.234003 -0.094636 -0.165175
v -0.226737 -0.111556 -0.155800
v -0.217630 -0.009993 -0.031608
v -0.209194 -0.012837 -0.109051
v -0.226737 -0.077728 -0.174542
v -0.209194 -0.006612 -0.033481
v -0.209194 -0.070723 -0.178421
v -0.209194 -0.118559 -0.151923
v -0.209194 -0.090457 -0.066070
v -0.180735 -0.024200 -0.102752
v -0.200757 -0.009993 -0.031608
v -0.168947 -0.051651 -0.087562
v -0.191651 -0.077728 -0.174542
v -0.197262 -0.018123 -0.027114
v -0.180735 -0.079091 -0.072366
v -0.184384 -0.094636 -0.165175
v -0.191651 -0.111556 -0.155800
v -0.200757 -0.026269 -0.022595
v -0.209194 -0.094636 -0.165175
v -0.211394 -0.105124 -0.152499
v -0.211394 -0.078117 -0.167448
v -0.216603 -0.218257 -0.316661
v -0.216603 -0.134219 -0.363187
v -0.216604 -0.459821 -0.753282
v -0.200149 -0.068314 -0.172871
v -0.194940 -0.115349 -0.373613
v -0.216603 -0.375772 -0.799797
v -0.194940 -0.356895 -0.810244
v -0.194940 -0.218257 -0.316661
v -0.194940 -0.459821 -0.753282
v -0.200149 -0.105124 -0.152499
v -0.194940 0.354947 0.801324
v -0.194940 0.457852 0.744351
v -0.216604 0.373817 0.790861
v -0.216604 0.457852 0.744351
v -0.194940 0.216302 0.307737
v -0.194940 0.113383 0.364699
v -0.200149 0.103169 0.143573
v -0.200149 0.066359 0.163944
v -0.216604 0.132268 0.354263
v -0.216604 0.216302 0.307737
v -0.211394 0.076148 0.158521
v -0.211394 0.103169 0.143573
v -0.209194 0.116600 0.143004
v -0.226737 0.109605 0.146867
v -0.209194 0.092680 0.156248
v -0.209194 0.068771 0.169502
v -0.191651 0.075759 0.165617
v -0.191651 0.109605 0.146867
v -0.226737 0.075759 0.165617
v -0.184384 0.092680 0.156248
v -0.234003 0.092680 0.156248
v -0.237652 0.077138 0.063432
v -0.209194 0.088512 0.057138
v -0.249440 0.049693 0.078634
v -0.217630 0.024299 0.013675
v -0.237652 0.022235 0.093830
v -0.221125 0.016167 0.018182
v -0.209194 0.027680 0.011810
v -0.217630 0.008025 0.022696
v -0.209194 0.010889 0.100129
v -0.209194 0.004666 0.024551
v -0.180735 0.077138 0.063432
v -0.200757 0.024299 0.013675
v -0.168947 0.049693 0.078634
v -0.197262 0.016167 0.018182
v -0.200757 0.008025 0.022696
v -0.180735 0.022235 0.093830
vn -0.0000 -0.9954 -0.0956
vn -0.0000 -0.7718 0.6358
vn -0.0000 -0.6360 -0.7717
vn -0.0000 0.0958 -0.9954
vn -0.0000 0.7716 -0.6362
vn -0.0000 0.9954 0.0959
vn -0.0000 0.6360 0.7717
vn -0.0000 -0.0956 0.9954
vn -1.0000 -0.0000 -0.0000
vn 0.9239 0.2967 -0.2414
vn 0.9239 -0.2968 0.2414
vn -0.9167 -0.3973 -0.0430
vn -0.9846 -0.1609 0.0690
vn -0.6778 -0.0573 -0.7330
vn -0.7235 0.2271 -0.6519
vn 0.0001 0.0639 -0.9980
vn -0.6392 -0.4382 0.6320
vn -0.9892 0.1192 0.0848
vn -0.7218 0.4722 -0.5060
vn -0.5823 -0.6048 0.5433
vn -0.0002 -0.5683 0.8228
vn -0.7093 -0.2764 0.6484
vn -0.1896 -0.6132 0.7668
vn -0.0004 -0.4559 0.8901
vn -0.0000 0.6273 -0.7788
vn -0.0000 0.3705 -0.9288
vn 0.6258 -0.4482 0.6384
vn 0.4429 -0.6188 0.6488
vn 0.9295 -0.3292 0.1661
vn 0.9254 -0.3348 -0.1777
vn 0.6297 0.1930 -0.7525
vn 0.9239 -0.0211 0.3821
vn 0.6955 -0.2611 0.6694
vn 0.6777 -0.0572 -0.7331
vn 0.7218 0.4722 -0.5060
vn 0.9240 0.3048 -0.2310
vn 0.0002 0.8830 0.4693
vn -0.0000 0.8829 0.4695
vn -0.0000 0.8830 0.4694
vn -0.0000 0.8829 0.4696
vn -0.0002 0.8830 0.4693
vn -0.0000 0.8831 0.4692
vn -0.9997 -0.0232 -0.0123
vn -0.9368 -0.2471 0.2478
vn -0.9999 -0.0112 -0.0060
vn -0.9128 -0.2426 0.3285
vn -0.6942 -0.4854 0.5315
vn -0.6942 -0.4853 0.5315
vn -0.7032 -0.4053 0.5842
vn -0.9234 -0.1803 0.3388
vn -0.7055 -0.3330 0.6256
vn -0.0000 0.4264 -0.9045
vn -0.0000 0.4272 -0.9041
vn -0.0000 0.3812 -0.9245
vn -0.0000 0.4699 -0.8827
vn 0.9997 -0.0232 -0.0123
vn 0.9999 -0.0112 -0.0060
vn 0.9999 -0.0096 -0.0051
vn 1.0000 -0.0000 -0.0000
vn -0.0000 0.6361 0.7716
vn -0.0000 0.9954 0.0960
vn -0.0000 -0.0957 0.9954
vn -0.0000 -0.7717 0.6360
vn -0.0000 -0.9954 -0.0958
vn -0.0000 -0.6359 -0.7717
vn -0.0000 0.0957 -0.9954
vn -0.0000 0.7715 -0.6362
vn -0.0005 0.8828 0.4697
vn -0.0001 0.8828 0.4698
vn -0.0004 0.8828 0.4697
vn -0.0000 0.8828 0.4698
vn 0.0002 -0.8828 -0.4697
vn -0.0000 -0.8829 -0.4696
vn 0.9999 0.0112 0.0060
vn 0.9999 0.0096 0.0051
vn 0.9997 0.0232 0.0123
vn -0.9128 0.2425 -0.3285
vn -0.7032 0.4053 -0.5842
vn -0.9235 0.1803 -0.3387
vn -0.7056 0.3330 -0.6255
vn -0.6942 0.4853 -0.5315
vn -0.9999 0.0112 0.0060
vn -0.9367 0.2471 -0.2479
vn -0.6943 0.4853 -0.5315
vn -0.9997 0.0232 0.0123
vn -0.0000 -0.4699 0.8827
vn -0.0000 -0.4264 0.9045
vn -0.0000 -0.4272 0.9041
vn -0.0000 -0.3811 0.9245
vn 0.0001 -0.8828 -0.4697
vn -0.0000 -0.8829 -0.4695
vn 0.0001 -0.8830 -0.4693
vn -0.0000 -0.8830 -0.4694
vn -0.0001 -0.8828 -0.4697
vn -0.0001 -0.8830 -0.4693
vn -0.7217 -0.4723 0.5061
vn -0.0000 -0.6274 0.7787
vn -0.7234 -0.2272 0.6520
vn -0.0000 -0.3705 0.9288
vn -0.9833 0.1690 -0.0680
vn -0.6192 -0.0221 0.7849
vn -0.9892 -0.1196 -0.0848
vn -0.6237 0.4509 -0.6385
vn -0.9335 0.2430 0.2635
vn 0.0001 -0.0641 0.9979
vn -0.6678 0.5757 -0.4718
vn -0.7057 0.2857 -0.6484
vn 0.0221 0.5682 -0.8226
vn -0.0007 0.4726 -0.8813
vn -0.0001 0.6727 -0.7400
vn 0.7217 -0.4723 0.5060
vn 0.6295 -0.1932 0.7526
vn 0.9239 -0.3049 0.2311
vn 0.6775 0.0571 0.7333
vn 0.9120 0.3616 -0.1936
vn 0.9130 0.4067 0.0317
vn 0.5661 0.6029 -0.5622
vn 0.9239 0.0211 -0.3820
vn 0.6925 0.2727 -0.6679
vn 0.6071 0.4647 -0.6446
vn -0.9254 0.1841 0.3314
vn -0.9948 0.0493 0.0892
vn -0.6770 -0.3521 0.6463
vn -0.7234 -0.5457 0.4228
vn -0.0003 -0.5977 0.8017
vn -0.7235 0.6478 -0.2385
vn -0.9852 -0.0830 -0.1500
vn -0.7217 -0.6718 0.1670
vn -0.6779 0.7339 0.0440
vn -0.0000 0.9222 -0.3868
vn -0.7217 0.4978 -0.4809
vn -0.0002 0.9966 -0.0819
vn -0.0000 0.7678 -0.6407
vn -0.0000 -0.9504 0.3111
vn -0.0001 -0.8168 0.5769
vn 0.7235 0.6478 -0.2385
vn 0.6779 0.7338 0.0442
vn 0.9720 0.2087 0.1079
vn 0.7217 0.4979 -0.4809
vn 0.9254 0.1840 0.3313
vn 0.6296 -0.5720 0.5257
vn 0.9239 0.2259 -0.3089
vn 0.7217 -0.6718 0.1669
vn 0.9239 -0.3816 0.0276
vn 0.6772 -0.3518 0.6463
vn -0.0001 -0.4846 -0.8747
vn -0.0000 -0.4846 -0.8747
vn -0.0000 -0.4846 -0.8748
vn 0.0001 -0.4846 -0.8747
vn -0.9997 0.0127 0.0230
vn -0.9368 0.3421 -0.0731
vn -0.9999 0.0062 0.0111
vn -0.9128 0.3825 -0.1433
vn -0.6944 0.6964 -0.1811
vn -0.6941 0.6967 -0.1812
vn -0.7030 0.6583 -0.2691
vn -0.9235 0.3357 -0.1857
vn -0.7057 0.6200 -0.3430
vn -0.0000 -0.8504 0.5261
vn -0.0000 -0.8509 0.5253
vn -0.0000 -0.8234 0.5675
vn -0.0000 -0.8750 0.4841
vn 0.9997 0.0127 0.0230
vn 0.9999 0.0062 0.0111
vn 0.9999 0.0053 0.0095
vn -0.0000 -0.4842 -0.8749
vn -0.0006 0.4844 0.8749
vn -0.0001 0.4843 0.8749
vn -0.0000 0.4842 0.8749
vn 0.9999 -0.0062 -0.0111
vn 0.9999 -0.0053 -0.0095
vn 0.9997 -0.0127 -0.0230
vn -0.9129 -0.3823 0.1433
vn -0.7033 -0.6581 0.2690
vn -0.9234 -0.3358 0.1858
vn -0.7057 -0.6200 0.3430
vn -0.6944 -0.6964 0.1811
vn -0.9999 -0.0062 -0.0111
vn -0.9367 -0.3424 0.0732
vn -0.6940 -0.6968 0.1813
vn -0.9997 -0.0127 -0.0230
vn -0.0000 0.8750 -0.4841
vn -0.0000 0.8505 -0.5261
vn -0.0000 0.8509 -0.5253
vn -0.0000 0.8234 -0.5674
vn -0.0000 0.8234 -0.5675
vn -0.0000 0.4844 0.8749
vn -0.0003 0.4846 0.8748
vn -0.0000 0.4846 0.8747
vn -0.0000 0.4848 0.8746
vn 0.0003 0.4846 0.8747
vn 0.0003 0.4846 0.8748
vn -0.0003 0.4846 0.8747
vn -0.7215 0.6720 -0.1671
vn -0.0001 0.9504 -0.3110
vn -0.7235 0.5457 -0.4228
vn -0.0000 0.8168 -0.5769
vn -0.9948 -0.0493 -0.0892
vn -0.6778 0.3514 -0.6459
vn -0.9852 0.0830 0.1500
vn -0.7234 -0.6479 0.2385
vn -0.9254 -0.1836 -0.3316
vn -0.0000 0.5974 -0.8019
vn -0.6772 -0.7345 -0.0440
vn -0.7216 -0.4980 0.4810
vn -0.0000 -0.9222 0.3868
vn 0.0001 -0.9966 0.0822
vn -0.0000 -0.7678 0.6406
vn 0.7216 0.6719 -0.1669
vn 0.6297 0.5719 -0.5257
vn 0.9240 0.3815 -0.0275
vn 0.6777 0.3515 -0.6459
vn 0.9720 -0.2087 -0.1079
vn 0.9254 -0.1836 -0.3316
vn 0.6772 -0.7345 -0.0439
vn 0.9239 -0.2258 0.3088
vn 0.7215 -0.4980 0.4810
vn 0.7234 -0.6479 0.2385
vt 0.248844 0.174973
vt 0.248844 0.203528
vt 0.257802 0.174973
vt 0.239887 0.174973
vt 0.239887 0.203528
vt 0.269682 0.174973
vt 0.269682 0.203528
vt 0.260726 0.174973
vt 0.260726 0.203528
vt 0.251767 0.174973
vt 0.257807 0.174973
vt 0.257807 0.203528
vt 0.248850 0.174973
vt 0.248850 0.203528
vt 0.239892 0.174973
vt 0.251763 0.174973
vt 0.251763 0.203528
vt 0.260719 0.174973
vt 0.260719 0.203528
vt 0.269678 0.174973
vt 0.247560 0.226776
vt 0.256264 0.223170
vt 0.256264 0.247789
vt 0.264969 0.244184
vt 0.243955 0.235480
vt 0.247560 0.244184
vt 0.264969 0.226776
vt 0.268574 0.235480
vt 0.248654 0.054469
vt 0.248525 0.033412
vt 0.241080 0.033458
vt 0.248633 0.055273
vt 0.248860 0.034217
vt 0.241415 0.034137
vt 0.249144 0.017965
vt 0.248923 0.034369
vt 0.246938 0.017937
vt 0.241479 0.034273
vt 0.246023 0.017925
vt 0.256368 0.034466
vt 0.248651 0.055425
vt 0.244062 0.055366
vt 0.251351 0.017994
vt 0.259451 0.034505
vt 0.253240 0.055484
vt 0.252265 0.018006
vt 0.255141 0.055509
vt 0.242162 0.055341
vt 0.238396 0.034233
vt 0.245182 0.062070
vt 0.252660 0.062166
vt 0.239845 0.110086
vt 0.263119 0.110385
vt 0.238321 0.230991
vt 0.255373 0.062200
vt 0.268346 0.110451
vt 0.261596 0.231290
vt 0.266823 0.231357
vt 0.257802 0.203528
vt 0.251767 0.203528
vt 0.239892 0.203528
vt 0.269678 0.203528
vt 0.239416 0.210182
vt 0.266468 0.210182
vt 0.239416 0.183131
vt 0.266468 0.183131
vt 0.240279 0.230987
vt 0.268783 0.231048
vt 0.240511 0.110073
vt 0.269015 0.110133
vt 0.245336 0.062002
vt 0.255528 0.062024
vt 0.263788 0.110122
vt 0.263555 0.231037
vt 0.252814 0.062018
vt 0.242089 0.054662
vt 0.243989 0.054712
vt 0.248577 0.054832
vt 0.253165 0.054953
vt 0.255065 0.055003
vt 0.241688 0.033586
vt 0.238605 0.033505
vt 0.249130 0.033782
vt 0.247364 0.017324
vt 0.256573 0.033978
vt 0.249571 0.017382
vt 0.246451 0.017300
vt 0.251777 0.017440
vt 0.259656 0.034059
vt 0.252691 0.017465
vt 0.248434 0.017007
vt 0.246227 0.017021
vt 0.245312 0.017026
vt 0.255970 0.033367
vt 0.244065 0.054497
vt 0.250641 0.016993
vt 0.259053 0.033348
vt 0.253243 0.054441
vt 0.251555 0.016988
vt 0.255144 0.054430
vt 0.242164 0.054509
vt 0.237996 0.033477
vt 0.245077 0.061996
vt 0.252556 0.062075
vt 0.239845 0.110024
vt 0.263120 0.110271
vt 0.238587 0.230932
vt 0.255269 0.062104
vt 0.268348 0.110327
vt 0.261862 0.231179
vt 0.267090 0.231235
vt 0.238411 0.231080
vt 0.266913 0.231382
vt 0.239669 0.110171
vt 0.268171 0.110474
vt 0.244901 0.062143
vt 0.255093 0.062251
vt 0.262944 0.110418
vt 0.261686 0.231327
vt 0.252379 0.062223
vt 0.242143 0.055204
vt 0.244044 0.055224
vt 0.255123 0.055343
vt 0.253222 0.055323
vt 0.238331 0.034104
vt 0.246838 0.017789
vt 0.256304 0.034297
vt 0.249045 0.017813
vt 0.245924 0.017779
vt 0.251252 0.017836
vt 0.259388 0.034330
vt 0.252166 0.017846
s 1
usemtl Material01
f 1/1/1 2/2/1 3/3/1
f 4/4/2 5/5/2 1/1/2
f 3/6/3 6/7/3 7/8/3
f 7/8/4 8/9/4 9/10/4
f 9/11/5 10/12/5 11/13/5
f 11/13/6 12/14/6 13/15/6
f 13/16/7 14/17/7 15/18/7
f 15/18/8 16/19/8 4/20/8
f 17/21/9 18/22/9 19/23/9
f 18/22/9 20/24/9 19/23/9
f 17/21/9 19/23/9 21/25/9
f 19/23/9 22/26/9 21/25/9
f 18/22/9 23/27/9 20/24/9
f 23/27/9 24/28/9 20/24/9
f 25/29/10 26/30/10 27/31/10
f 28/32/11 29/33/11 30/34/11
f 31/35/12 32/36/13 33/37/14
f 32/36/13 34/38/15 33/37/14
f 35/39/16 33/37/14 34/38/15
f 36/40/17 32/36/13 31/35/12
f 37/41/18 38/42/19 32/36/13
f 38/42/19 34/38/15 32/36/13
f 37/41/18 32/36/13 36/40/17
f 39/43/20 36/40/17 31/35/12
f 36/40/17 39/43/20 40/44/21
f 41/45/22 37/41/18 36/40/17
f 41/45/22 36/40/17 40/44/21
f 39/43/20 42/46/23 40/44/21
f 43/47/24 41/45/22 40/44/21
f 38/42/19 44/48/25 34/38/15
f 44/48/25 45/49/26 34/38/15
f 45/49/26 35/39/16 34/38/15
f 40/44/21 42/46/23 46/40/27
f 42/46/23 47/43/28 46/40/27
f 46/40/27 47/43/28 48/36/29
f 47/43/28 49/35/30 48/36/29
f 48/36/29 49/35/30 50/38/31
f 51/41/32 52/45/33 48/36/29
f 52/45/33 46/40/27 48/36/29
f 49/35/30 53/37/34 50/38/31
f 50/38/31 53/37/34 45/49/26
f 54/42/35 51/41/36 50/38/31
f 54/42/35 50/38/31 45/49/26
f 53/37/34 35/39/16 45/49/26
f 44/48/25 54/42/35 45/49/26
f 52/45/33 43/47/24 46/40/27
f 43/47/24 40/44/21 46/40/27
f 38/42/37 37/41/38 55/41/39
f 37/41/38 41/45/38 55/41/39
f 41/45/38 43/47/40 55/41/39
f 54/42/41 44/48/42 55/41/39
f 43/47/40 52/45/38 55/41/39
f 44/48/42 38/42/37 55/41/39
f 52/45/38 51/41/38 55/41/39
f 51/41/38 54/42/41 55/41/39
f 56/50/43 57/51/44 58/52/45
f 57/51/44 59/53/46 58/52/45
f 60/54/9 58/52/45 59/53/46
f 57/51/44 61/55/47 59/53/46
f 61/55/48 62/56/49 59/53/46
f 63/57/50 60/54/9 59/53/46
f 59/53/46 62/56/49 63/57/50
f 62/56/49 64/58/51 63/57/50
f 58/52/52 65/52/53 56/50/54
f 60/54/55 66/54/55 58/52/52
f 65/52/54 67/50/54 56/50/54
f 66/54/55 65/52/53 58/52/52
f 61/55/56 67/50/56 62/56/56
f 67/50/56 65/52/57 62/56/58
f 64/58/59 62/56/58 65/52/57
f 66/54/59 64/58/59 65/52/57
f 68/2/60 69/59/60 70/3/60
f 71/5/61 68/2/61 72/1/61
f 69/7/62 73/9/62 74/8/62
f 73/9/63 75/60/63 76/10/63
f 75/12/64 77/14/64 78/13/64
f 77/14/65 79/61/65 80/15/65
f 79/17/66 81/19/66 82/18/66
f 81/19/67 71/62/67 83/20/67
f 64/63/68 66/64/69 63/65/70
f 66/64/69 60/66/71 63/65/70
f 84/63/72 85/64/73 86/65/72
f 85/64/73 87/66/73 86/65/72
f 85/67/59 84/68/59 88/69/74
f 84/68/59 89/70/75 88/69/74
f 90/71/76 88/69/74 89/70/75
f 91/72/76 90/71/76 89/70/76
f 92/73/77 89/70/78 86/74/79
f 89/70/78 84/68/80 86/74/79
f 86/74/79 87/67/9 92/73/77
f 91/72/81 89/70/78 92/73/77
f 87/67/9 93/69/82 92/73/77
f 94/75/83 91/72/84 92/73/77
f 94/75/83 92/73/77 93/69/82
f 95/71/85 94/75/83 93/69/82
f 87/67/86 85/67/86 93/69/87
f 93/69/87 88/69/88 95/71/89
f 85/67/86 88/69/88 93/69/87
f 88/69/89 90/71/89 95/71/89
f 96/76/73 97/77/90 98/78/91
f 99/79/92 100/80/93 98/78/91
f 101/77/94 96/76/73 98/78/91
f 100/80/93 102/79/95 98/78/91
f 103/78/91 101/77/94 98/78/91
f 102/79/95 103/78/91 98/78/91
f 104/78/91 99/79/92 98/78/91
f 97/77/90 104/78/91 98/78/91
f 97/77/96 96/76/97 105/81/98
f 96/76/97 106/82/99 105/81/98
f 97/77/96 105/81/98 107/83/100
f 107/83/100 105/81/98 108/84/101
f 104/78/102 97/77/96 107/83/100
f 104/78/102 107/83/100 109/85/103
f 109/85/103 107/83/100 110/86/104
f 110/86/104 107/83/100 108/84/101
f 111/87/105 108/84/101 105/81/98
f 106/82/99 111/87/105 105/81/98
f 112/88/106 109/85/103 110/86/104
f 99/79/107 109/85/103 113/89/108
f 99/79/107 104/78/102 109/85/103
f 100/80/109 99/79/107 113/89/108
f 109/85/103 112/88/106 113/89/108
f 112/88/106 114/90/110 113/89/108
f 96/76/97 101/77/111 106/82/99
f 101/77/111 115/81/112 106/82/99
f 101/77/111 103/78/113 115/81/112
f 115/81/112 116/84/114 106/82/99
f 117/83/115 118/86/116 115/81/112
f 118/86/116 116/84/114 115/81/112
f 116/84/114 111/87/105 106/82/99
f 119/88/117 118/86/116 117/83/115
f 103/78/118 102/79/119 117/83/115
f 102/79/119 120/85/120 117/83/115
f 120/85/120 119/88/117 117/83/115
f 114/90/110 119/88/117 120/85/120
f 113/89/108 114/90/110 120/85/120
f 102/79/119 100/80/109 120/85/120
f 100/80/109 113/89/108 120/85/120
f 121/91/121 122/30/122 123/92/123
f 122/30/122 124/31/124 123/92/123
f 125/93/125 123/92/123 124/31/124
f 126/94/126 122/30/122 121/91/121
f 127/29/127 128/95/128 122/30/122
f 128/95/128 124/31/124 122/30/122
f 127/29/127 122/30/122 126/94/126
f 129/96/129 126/94/126 121/91/121
f 126/94/126 129/96/129 130/97/130
f 131/98/131 127/29/127 126/94/126
f 131/98/131 126/94/126 130/97/130
f 129/96/129 132/99/132 130/97/130
f 133/100/133 131/98/131 130/97/130
f 128/95/128 134/101/134 124/31/124
f 134/101/134 135/102/135 124/31/124
f 135/102/135 125/93/125 124/31/124
f 130/97/130 132/99/132 136/94/136
f 132/99/132 137/96/137 136/94/136
f 136/94/136 137/96/137 138/30/138
f 139/98/139 136/94/136 138/30/138
f 137/96/137 140/91/140 138/30/138
f 138/30/138 140/91/140 141/31/141
f 142/29/142 139/98/139 138/30/138
f 139/98/139 133/100/133 136/94/136
f 133/100/133 130/97/130 136/94/136
f 143/95/143 142/29/144 141/31/141
f 140/91/140 144/92/145 141/31/141
f 141/31/141 144/92/145 135/102/135
f 143/95/143 141/31/141 135/102/135
f 134/101/134 143/95/143 135/102/135
f 144/92/145 125/93/125 135/102/135
f 128/95/146 127/29/147 145/29/147
f 127/29/147 131/98/147 145/29/147
f 131/98/147 133/100/148 145/29/147
f 134/101/148 128/95/146 145/29/147
f 133/100/148 139/98/147 145/29/147
f 143/95/149 134/101/148 145/29/147
f 139/98/147 142/29/147 145/29/147
f 142/29/147 143/95/149 145/29/147
f 146/103/150 147/104/151 148/105/152
f 147/104/151 149/106/153 148/105/152
f 150/107/9 148/105/152 149/106/153
f 147/104/151 151/108/154 149/106/153
f 151/108/155 152/109/156 149/106/153
f 153/110/157 150/107/9 149/106/153
f 149/106/153 152/109/156 153/110/157
f 152/109/156 154/111/158 153/110/157
f 148/105/159 155/105/160 146/103/161
f 150/107/162 156/107/162 148/105/159
f 155/105/161 157/103/161 146/103/161
f 156/107/162 155/105/160 148/105/159
f 151/108/163 157/103/163 152/109/163
f 157/103/163 155/105/164 152/109/165
f 154/111/59 152/109/165 155/105/164
f 156/107/59 154/111/59 155/105/164
f 154/63/166 156/64/166 153/65/166
f 156/64/166 150/66/166 153/65/166
f 158/63/167 159/64/168 160/65/167
f 159/64/168 161/66/169 160/65/167
f 159/112/59 158/113/59 162/114/170
f 158/113/59 163/115/171 162/114/170
f 164/116/172 162/114/170 163/115/171
f 165/117/172 164/116/172 163/115/172
f 166/118/173 163/115/174 160/119/175
f 163/115/174 158/113/176 160/119/175
f 160/119/175 161/112/9 166/118/173
f 165/117/177 163/115/174 166/118/173
f 161/112/9 167/114/178 166/118/173
f 168/120/179 165/117/180 166/118/173
f 168/120/179 166/118/173 167/114/178
f 169/116/181 168/120/179 167/114/178
f 161/112/182 159/112/182 167/114/183
f 167/114/183 162/114/184 169/116/185
f 159/112/182 162/114/184 167/114/183
f 162/114/186 164/116/186 169/116/186
f 170/121/187 171/122/188 172/32/189
f 173/123/190 174/124/191 172/32/189
f 175/122/192 170/121/187 172/32/189
f 176/124/193 173/123/190 172/32/189
f 177/32/189 175/122/192 172/32/189
f 174/124/191 177/32/189 172/32/189
f 178/32/189 176/124/193 172/32/189
f 171/122/188 178/32/189 172/32/189
f 171/122/194 170/121/195 179/34/196
f 170/121/195 180/125/197 179/34/196
f 171/122/194 179/34/196 181/33/198
f 181/33/198 179/34/196 182/126/199
f 178/32/200 171/122/194 181/33/198
f 178/32/200 181/33/198 183/127/201
f 183/127/201 181/33/198 184/128/202
f 184/128/202 181/33/198 182/126/199
f 185/129/203 182/126/199 179/34/196
f 180/125/197 185/129/203 179/34/196
f 186/130/204 183/127/201 184/128/202
f 176/124/205 183/127/201 187/131/206
f 176/124/205 178/32/200 183/127/201
f 183/127/201 186/130/204 187/131/206
f 186/130/204 188/132/207 187/131/206
f 173/123/208 176/124/205 187/131/206
f 170/121/195 175/122/209 180/125/197
f 175/122/209 189/34/210 180/125/197
f 175/122/209 177/32/211 189/34/210
f 189/34/210 190/126/212 180/125/197
f 191/33/213 192/128/214 189/34/210
f 192/128/214 190/126/212 189/34/210
f 190/126/212 185/129/203 180/125/197
f 193/130/215 192/128/214 191/33/213
f 177/32/216 174/124/217 191/33/213
f 174/124/217 194/127/218 191/33/213
f 194/127/218 193/130/215 191/33/213
f 188/132/207 193/130/215 194/127/218
f 174/124/217 173/123/208 194/127/218
f 173/123/208 187/131/206 194/127/218
f 187/131/206 188/132/207 194/127/218
