# Blender 4.1.1
# www.blender.org
mtllib 420.mtl
o 420
v 0.000000 1.599999 -12.800000
v 1.569260 1.912140 5.333330
v 1.600000 1.600000 5.333330
v 0.000000 1.600001 6.400000
v -1.600000 1.600000 5.333330
v -1.569260 1.287860 5.333330
v -1.478210 0.987710 5.333330
v -1.330350 0.711090 5.333330
v -1.131370 0.468630 5.333330
v -0.888910 0.269650 5.333330
v -0.612290 0.121790 5.333330
v -0.312140 0.030740 5.333330
v 0.000000 0.000000 5.333330
v 0.312150 0.030740 5.333330
v 0.612290 0.121790 5.333330
v 0.888910 0.269650 5.333330
v 1.131370 0.468630 5.333330
v 1.330350 0.711090 5.333330
v 1.478210 0.987710 5.333330
v 1.569260 1.287860 5.333330
v 1.478210 2.212291 5.333330
v 1.330350 2.488910 5.333330
v 1.131370 2.731370 5.333330
v 0.888910 2.930351 5.333330
v 0.612290 3.078211 5.333330
v 0.312140 3.169261 5.333330
v 0.000000 3.200001 5.333330
v -0.312140 3.169261 5.333330
v -0.612290 3.078211 5.333330
v -0.888910 2.930351 5.333330
v -1.131370 2.731370 5.333330
v -1.330350 2.488910 5.333330
v -1.478210 2.212291 5.333330
v -1.569260 1.912140 5.333330
v 0.312140 0.030740 5.333330
vn 0.5547 -0.0000 0.8320
vn 0.5332 0.0050 0.8460
vn 0.5332 -0.0050 0.8460
vn -0.5326 -0.1616 0.8308
vn -0.5325 -0.1877 0.8253
vn -0.4908 -0.2624 0.8308
vn -0.4302 -0.3531 0.8308
vn -0.3531 -0.4302 0.8308
vn -0.2624 -0.4908 0.8308
vn -0.1616 -0.5326 0.8308
vn -0.0545 -0.5539 0.8308
vn 0.0545 -0.5539 0.8308
vn 0.1616 -0.5326 0.8308
vn 0.2624 -0.4908 0.8308
vn 0.3531 -0.4302 0.8308
vn 0.4302 -0.3531 0.8308
vn 0.4908 -0.2624 0.8308
vn 0.5326 -0.1616 0.8308
vn 0.5325 -0.1877 0.8253
vn 0.5326 0.1616 0.8308
vn 0.5325 0.1877 0.8253
vn 0.4908 0.2624 0.8308
vn 0.4302 0.3531 0.8308
vn 0.3531 0.4302 0.8308
vn 0.2624 0.4908 0.8308
vn 0.1616 0.5326 0.8308
vn 0.0545 0.5539 0.8308
vn -0.0545 0.5539 0.8308
vn -0.1616 0.5326 0.8308
vn -0.2624 0.4908 0.8308
vn -0.3531 0.4302 0.8308
vn -0.4302 0.3531 0.8308
vn -0.4908 0.2624 0.8308
vn -0.5326 0.1616 0.8308
vn -0.5325 0.1877 0.8253
vn -0.9961 -0.0000 -0.0879
vn -0.9911 0.0010 -0.1330
vn -0.9911 -0.0010 -0.1330
vn -0.5547 -0.0000 0.8320
vn -0.5332 0.0050 0.8460
vn -0.5332 -0.0050 0.8460
vn 0.9533 -0.2892 -0.0875
vn 0.9388 -0.3338 -0.0855
vn 0.8785 -0.4696 -0.0875
vn 0.7701 -0.6320 -0.0875
vn 0.6320 -0.7701 -0.0875
vn 0.4696 -0.8785 -0.0875
vn 0.2892 -0.9533 -0.0875
vn 0.0976 -0.9914 -0.0875
vn -0.0976 -0.9914 -0.0875
vn -0.2892 -0.9533 -0.0875
vn -0.4696 -0.8785 -0.0875
vn -0.6320 -0.7701 -0.0875
vn -0.7701 -0.6320 -0.0875
vn -0.8785 -0.4696 -0.0875
vn -0.9533 -0.2892 -0.0875
vn -0.9388 -0.3338 -0.0855
vn -0.9533 0.2892 -0.0875
vn -0.9388 0.3338 -0.0855
vn -0.8785 0.4696 -0.0875
vn -0.7701 0.6320 -0.0875
vn -0.6320 0.7701 -0.0875
vn -0.4696 0.8785 -0.0875
vn -0.2892 0.9533 -0.0875
vn -0.0976 0.9914 -0.0875
vn 0.0976 0.9914 -0.0875
vn 0.2892 0.9533 -0.0875
vn 0.4696 0.8785 -0.0875
vn 0.6320 0.7701 -0.0875
vn 0.7701 0.6320 -0.0875
vn 0.8785 0.4696 -0.0875
vn 0.9533 0.2892 -0.0875
vn 0.9388 0.3338 -0.0855
vn 0.9961 -0.0000 -0.0879
vn 0.9911 -0.0010 -0.1330
vn 0.9911 0.0010 -0.1330
vt 0.680996 0.170505
vt 0.665278 0.181007
vt 0.619822 0.095965
vt 0.694362 0.157139
vt 0.574366 0.010922
vt 0.591830 0.003688
vt 0.610370 0.000000
vt 0.629274 0.000000
vt 0.647814 0.003688
vt 0.665279 0.010922
vt 0.680996 0.021424
vt 0.694363 0.034791
vt 0.704865 0.050509
vt 0.712099 0.067973
vt 0.715786 0.086513
vt 0.715786 0.105416
vt 0.712098 0.123957
vt 0.704865 0.141421
vt 0.647814 0.188241
vt 0.629273 0.191929
vt 0.610370 0.191929
vt 0.591830 0.188241
vt 0.574365 0.181007
vt 0.558648 0.170505
vt 0.545281 0.157138
vt 0.534779 0.141421
vt 0.527545 0.123956
vt 0.523857 0.105416
vt 0.523857 0.086513
vt 0.527545 0.067972
vt 0.534779 0.050508
vt 0.545282 0.034790
vt 0.137407 0.990515
vt 0.120321 0.992735
vt 0.000000 0.000000
vt 0.154453 0.988000
vt 0.558648 0.021424
vt 0.386008 0.922496
vt 0.370056 0.929009
vt 0.353995 0.935247
vt 0.337828 0.941208
vt 0.321561 0.946889
vt 0.305199 0.952289
vt 0.288746 0.957406
vt 0.272208 0.962238
vt 0.255589 0.966786
vt 0.238893 0.971046
vt 0.222127 0.975018
vt 0.205295 0.978700
vt 0.188402 0.982092
vt 0.171453 0.985192
vt 0.103199 0.994661
vt 0.086046 0.996291
vt 0.068867 0.997626
vt 0.051668 0.998664
vt 0.034454 0.999406
vt 0.017229 0.999852
vt 0.000000 1.000000
vt 0.523858 0.851806
vt 0.509104 0.860705
vt 0.494199 0.869349
vt 0.479147 0.877735
vt 0.463952 0.885860
vt 0.448621 0.893722
vt 0.433155 0.901319
vt 0.417562 0.908649
vt 0.401844 0.915708
s 0
usemtl material_1
f 3/1/1 2/2/2 4/3/1 20/4/3
f 4/3/4 6/5/5 7/6/4
f 4/3/6 7/6/6 8/7/6
f 4/3/7 8/7/7 9/8/7
f 4/3/8 9/8/8 10/9/8
f 4/3/9 10/9/9 11/10/9
f 4/3/10 11/10/10 12/11/10
f 4/3/11 12/11/11 13/12/11
f 4/3/12 13/12/12 14/13/12
f 4/3/13 14/13/13 15/14/13
f 4/3/14 15/14/14 16/15/14
f 4/3/15 16/15/15 17/16/15
f 4/3/16 17/16/16 18/17/16
f 4/3/17 18/17/17 19/18/17
f 4/3/18 19/18/18 20/4/19
f 4/3/20 2/2/21 21/19/20
f 4/3/22 21/19/22 22/20/22
f 4/3/23 22/20/23 23/21/23
f 4/3/24 23/21/24 24/22/24
f 4/3/25 24/22/25 25/23/25
f 4/3/26 25/23/26 26/24/26
f 4/3/27 26/24/27 27/25/27
f 4/3/28 27/25/28 28/26/28
f 4/3/29 28/26/29 29/27/29
f 4/3/30 29/27/30 30/28/30
f 4/3/31 30/28/31 31/29/31
f 4/3/32 31/29/32 32/30/32
f 4/3/33 32/30/33 33/31/33
f 4/3/34 33/31/34 34/32/35
f 5/33/36 34/34/37 1/35/36 6/36/38
f 4/3/39 34/32/40 5/37/39 6/5/41
f 1/35/42 20/38/43 19/39/42
f 1/35/44 19/39/44 18/40/44
f 1/35/45 18/40/45 17/41/45
f 1/35/46 17/41/46 16/42/46
f 1/35/47 16/42/47 15/43/47
f 1/35/48 15/43/48 35/44/48
f 1/35/49 35/44/49 13/45/49
f 1/35/50 13/45/50 12/46/50
f 1/35/51 12/46/51 11/47/51
f 1/35/52 11/47/52 10/48/52
f 1/35/53 10/48/53 9/49/53
f 1/35/54 9/49/54 8/50/54
f 1/35/55 8/50/55 7/51/55
f 1/35/56 7/51/56 6/36/57
f 1/35/58 34/34/59 33/52/58
f 1/35/60 33/52/60 32/53/60
f 1/35/61 32/53/61 31/54/61
f 1/35/62 31/54/62 30/55/62
f 1/35/63 30/55/63 29/56/63
f 1/35/64 29/56/64 28/57/64
f 1/35/65 28/57/65 27/58/65
f 1/35/66 27/59/66 26/60/66
f 1/35/67 26/60/67 25/61/67
f 1/35/68 25/61/68 24/62/68
f 1/35/69 24/62/69 23/63/69
f 1/35/70 23/63/70 22/64/70
f 1/35/71 22/64/71 21/65/71
f 1/35/72 21/65/72 2/66/73
f 3/67/74 20/38/75 1/35/74 2/66/76
