# File produced by Open Asset Import Library (http://www.assimp.sf.net)
# (assimp v5.2.0)

mtllib cup.mtl

# 144 vertex positions
v 1.08208001 3.15366602 0.00640199985
v 1.05356002 2.63428593 0.00640199985
v 1.01694 3.15366602 -0.362978011
v 0.990149975 2.63428593 -0.353228003
v 0.829400003 3.15366602 -0.687807977
v 0.990149975 2.63428593 0.366032004
v 1.01694 3.15366602 0.375782013
v 0.807560027 2.63428593 0.682281971
v 0.829400003 3.15366602 0.700612009
v 0.527819991 2.63428593 0.917011023
v 0.542069972 3.15366602 0.941712022
v 0.184660003 2.63428593 1.04191101
v 0.189610004 3.15366602 1.06999099
v -0.180509999 2.63428593 1.04191101
v -0.18547 3.15366602 1.06999099
v -0.523670018 2.63428593 0.917011023
v -0.537930012 3.15366602 0.941712022
v -0.803409994 2.63428593 0.682281971
v -0.82525003 3.15366602 0.700612009
v -0.986000001 2.63428593 0.366032004
v -1.01278996 3.15366602 0.375782013
v -1.04940999 2.63428593 0.00640199985
v -1.07791996 3.15366602 0.00640199985
v -0.986000001 2.63428593 -0.353228003
v -1.01278996 3.15366602 -0.362978011
v -0.803409994 2.63428593 -0.669477999
v -0.82525003 3.15366602 -0.687807977
v -0.523670018 2.63428593 -0.904209018
v -0.537919998 3.15366602 -0.928909004
v -0.180509999 2.63428593 -1.029109
v -0.185460001 3.15366602 -1.05718899
v 0.184660003 2.63428593 -1.029109
v 0.189620003 3.15366602 -1.05718899
v 0.807560027 2.63428593 -0.669477999
v 0.542079985 3.15366602 -0.928909004
v 0.527819991 2.63428593 -0.904209018
v 0.798759997 3.15366602 0.674901009
v 0.979359984 3.15366602 0.362102002
v 1.04208004 3.15366602 0.00640199985
v 0.522069991 3.15366602 0.907072008
v 0.182669997 3.15366602 1.03060198
v -0.178519994 3.15366602 1.03060198
v -0.517929971 3.15366602 0.907072008
v -0.794610023 3.15366602 0.674901009
v -0.975210011 3.15366602 0.362102002
v -1.03792 3.15366602 0.00640199985
v -0.975210011 3.15366602 -0.349298
v -0.794610023 3.15366602 -0.662097991
v -0.517920017 3.15366602 -0.894267976
v -0.178519994 3.15366602 -1.01779902
v 0.182669997 3.15366602 -1.01779902
v 0.522080004 3.15366602 -0.894267976
v 0.798759997 3.15366602 -0.662097991
v 0.979359984 3.15366602 -0.349298
v 0.966889977 2.63428593 0.00640199985
v 0.908699989 2.63428593 0.336391985
v 0.741159976 2.63428593 0.626572013
v 0.908699989 2.63428593 -0.323578
v 0.741159976 2.63428593 -0.613768995
v 0.484479994 2.63428593 -0.829147995
v 0.169609994 2.63428593 -0.943747997
v -0.165460005 2.63428593 -0.943747997
v -0.48032999 2.63428593 -0.829147995
v -0.737010002 2.63428593 -0.613768995
v -0.904550016 2.63428593 -0.323578
v -0.962740004 2.63428593 0.00640199985
v -0.904550016 2.63428593 0.336391985
v -0.737010002 2.63428593 0.626572013
v -0.48032999 2.63428593 0.841952026
v -0.165460005 2.63428593 0.956552029
v 0.169609994 2.63428593 0.956552029
v 0.484479994 2.63428593 0.841952026
v 0.388029993 0.000195999994 0.674892008
v 0.136120006 0.000195999994 0.766582012
v 0.593389988 0.000195999994 0.502572
v 0.773980021 0.000195999994 0.00640199985
v 0.727429986 0.000195999994 0.270411998
v -0.131970003 0.000195999994 0.766582012
v -0.383879989 0.000195999994 0.674892008
v -0.723280013 0.000195999994 0.270411998
v 0.593389988 0.000195999994 -0.489767998
v 0.727429986 0.000195999994 -0.257607996
v 0.136120006 0.000195999994 -0.753777981
v -0.383879989 0.000195999994 -0.66208899
v 0.388029993 0.000195999994 -0.66208899
v -0.589240015 0.000195999994 0.502572
v -0.769829988 0.000195999994 0.00640199985
v -0.723280013 0.000195999994 -0.257607996
v -0.589240015 0.000195999994 -0.489767998
v -0.131970003 0.000195999994 -0.753777981
v 0.941770017 2.80019593 -0.335617989
v 1.00207996 2.80019593 0.00640199985
v 0.768119991 2.80019593 -0.636388004
v 0.502080023 2.80019593 -0.859628022
v 0.175720006 2.80019593 -0.978408992
v 0.941770017 2.80019593 0.348421991
v 0.768119991 2.80019593 0.649191976
v 0.50207001 2.80019593 0.87243098
v 0.175720006 2.80019593 0.99121201
v -0.171570003 2.80019593 0.99121201
v -0.49792999 2.80019593 0.87243098
v -0.763970017 2.80019593 0.649191976
v -0.937619984 2.80019593 0.348421991
v -0.997919977 2.80019593 0.00640199985
v -0.937619984 2.80019593 -0.335617989
v -0.763970017 2.80019593 -0.636388004
v -0.497920007 2.80019593 -0.859619021
v -0.171570003 2.80019593 -0.978408992
v 0.388029993 0.000155999995 -0.66208899
v 0.136120006 0.000155999995 -0.753777981
v 0.593389988 0.000155999995 -0.489767998
v 0.773980021 0.000155999995 0.00640199985
v 0.727429986 0.000155999995 -0.257607996
v -0.131970003 0.000155999995 -0.753777981
v -0.383879989 0.000155999995 -0.66208899
v -0.723280013 0.000155999995 -0.257607996
v 0.593389988 0.000155999995 0.502572
v 0.727429986 0.000155999995 0.270411998
v 0.136120006 0.000155999995 0.766582012
v -0.383879989 0.000155999995 0.674892008
v 0.388029993 0.000155999995 0.674892008
v -0.589240015 0.000155999995 -0.489767998
v -0.769829988 0.000155999995 0.00640199985
v -0.723280013 0.000155999995 0.270411998
v -0.589240015 0.000155999995 0.502572
v -0.131970003 0.000155999995 0.766582012
v 0.941770017 2.80015612 -0.335617989
v 1.00207996 2.80015612 0.00640199985
v 0.768119991 2.80015612 -0.636388004
v 0.941770017 2.80015612 0.348421991
v 0.768119991 2.80015612 0.649191976
v 0.50207001 2.80015612 0.87243098
v 0.175720006 2.80015612 0.99121201
v -0.171570003 2.80015612 0.99121201
v -0.49792999 2.80015612 0.87243098
v -0.763970017 2.80015612 0.649191976
v -0.937619984 2.80015612 0.348421991
v -0.997919977 2.80015612 0.00640199985
v -0.937619984 2.80015612 -0.335617989
v -0.763970017 2.80015612 -0.636388004
v -0.497920007 2.80015612 -0.859619021
v -0.171570003 2.80015612 -0.978408992
v 0.175720006 2.80015612 -0.978408992
v 0.502080023 2.80015612 -0.859628022

# 150 UV coordinates
vt 0.75 0.199899971 0
vt 0.75 0.000100016594 0
vt 0.804799974 0.199899971 0
vt 0.804799974 0.000100016594 0
vt 0.859899998 0.199899971 0
vt 0.695200026 0.000100016594 0
vt 0.695200026 0.199899971 0
vt 0.640100002 0.000100016594 0
vt 0.640100002 0.199899971 0
vt 0.584399998 0.000100016594 0
vt 0.584399998 0.199899971 0
vt 0.528199971 0.000100016594 0
vt 0.528199971 0.199899971 0
vt 0.471799999 0.000100016594 0
vt 0.471799999 0.199899971 0
vt 0.415600002 0.000100016594 0
vt 0.415600002 0.199899971 0
vt 0.359899998 0.000100016594 0
vt 0.359899998 0.199899971 0
vt 0.304800004 0.000100016594 0
vt 0.304800004 0.199899971 0
vt 0.25 0.000100016594 0
vt 0.25 0.199899971 0
vt 0.195199996 0.000100016594 0
vt 0.195199996 0.199899971 0
vt 0.140100002 0.000100016594 0
vt 0.140100002 0.199899971 0
vt 0.0843999982 0.000100016594 0
vt 0.0843999982 0.199899971 0
vt 0.0282000005 0.000100016594 0
vt 0.0282000005 0.199899971 0
vt -0.0282000005 0.000100016594 0
vt -0.0282000005 0.199899971 0
vt 0.859899998 0.000100016594 0
vt 0.915600002 0.199899971 0
vt 0.915600002 0.000100016594 0
vt 0.971800029 0.199899971 0
vt 0.971800029 0.000100016594 0
vt 0.868499994 0.18599999 0
vt 0.882600009 0.174000025 0
vt 0.952000022 0.332899988 0
vt 0.969399989 0.326499999 0
vt 0.981000006 0.5 0
vt 0.740499973 0.0770000219 0
vt 0.74970001 0.0606999993 0
vt 0.583500028 0.0189999938 0
vt 0.586700022 0.000500023365 0
vt 0.416500002 0.0189999938 0
vt 0.413300008 0.000500023365 0
vt 0.259499997 0.0770000219 0
vt 0.250200003 0.0606999993 0
vt 0.131500006 0.18599999 0
vt 0.117399998 0.174000025 0
vt 0.0480000004 0.333000004 0
vt 0.0306000002 0.326499999 0
vt 0.0189999994 0.5 0
vt 0.000500000024 0.5 0
vt 0.0480000004 0.666999996 0
vt 0.0306000002 0.673500001 0
vt 0.131500006 0.81400001 0
vt 0.117399998 0.825999975 0
vt 0.259499997 0.922999978 0
vt 0.250200003 0.939300001 0
vt 0.416500002 0.981000006 0
vt 0.413300008 0.999499977 0
vt 0.583500028 0.981000006 0
vt 0.586700022 0.999499977 0
vt 0.740499973 0.922999978 0
vt 0.749800026 0.939300001 0
vt 0.868499994 0.81400001 0
vt 0.882600009 0.825999975 0
vt 0.952000022 0.666999996 0
vt 0.969399989 0.673500001 0
vt 0.999499977 0.5 0
vt 0.0417000018 0.5 0
vt 0.0693000033 0.340799987 0
vt 0.148900002 0.200800002 0
vt 0.0693000033 0.659200013 0
vt 0.148900002 0.799199998 0
vt 0.270799994 0.902999997 0
vt 0.420399994 0.958299994 0
vt 0.579599977 0.958299994 0
vt 0.729200006 0.902999997 0
vt 0.851100028 0.799199998 0
vt 0.930700004 0.659200013 0
vt 0.958299994 0.5 0
vt 0.930700004 0.340799987 0
vt 0.851100028 0.200800002 0
vt 0.749800026 0.0606999993 0
vt 0.729200006 0.0970000029 0
vt 0.579599977 0.0417000055 0
vt 0.420399994 0.0417000055 0
vt 0.25029999 0.0606999993 0
vt 0.270799994 0.0970000029 0
vt 0.100100003 0.0242999792 0
vt 0.165299997 0.000199973583 0
vt 0.0469000004 0.0695999861 0
vt 0.000199999995 0.199999988 0
vt 0.0121999998 0.130599976 0
vt 0.234699994 0.000199973583 0
vt 0.299899995 0.0242999792 0
vt 0.387800008 0.130599976 0
vt 0.0469000004 0.33039999 0
vt 0.0121999998 0.269400001 0
vt 0.165299997 0.399800003 0
vt 0.299899995 0.375699997 0
vt 0.100100003 0.375699997 0
vt 0.353100002 0.0695999861 0
vt 0.399800003 0.199999988 0
vt 0.387800008 0.269400001 0
vt 0.353100002 0.33039999 0
vt 0.234699994 0.399800003 0
vt 0.805599988 0 0
vt 0.805599988 1 0
vt 0.75 0 0
vt 0.75 1 0
vt 0.694400012 0 0
vt 0.861100018 1 0
vt 0.861100018 0 0
vt 0.916700006 1 0
vt 0.916700006 0 0
vt 0.972199976 1 0
vt 0.972199976 0 0
vt 0.694400012 1 0
vt 0.638899982 0 0
vt 0.638899982 1 0
vt 0.583299994 0 0
vt 0.583299994 1 0
vt 0.527800024 0 0
vt 0.527800024 1 0
vt 0.472200006 0 0
vt 0.472200006 1 0
vt 0.416700006 0 0
vt 0.416700006 1 0
vt 0.361099988 0 0
vt 0.361099988 1 0
vt 0.305599988 0 0
vt 0.305599988 1 0
vt 0.25 0 0
vt 0.25 1 0
vt 0.194399998 0 0
vt 0.194399998 1 0
vt 0.138899997 0 0
vt 0.138899997 1 0
vt 0.0833000019 0 0
vt 0.0833000019 1 0
vt 0.0277999993 0 0
vt 0.0277999993 1 0
vt -0.0277999993 0 0
vt -0.0277999993 1 0

# 146 vertex normals
vn 0.996780992 -0.0547280014 0.0585849993
vn 0.996780992 -0.0547280014 -0.0585939996
vn 0.956704974 -0.0547210015 -0.285870999
vn 0.916630983 -0.0547159985 -0.395972997
vn 0.801240981 -0.054717999 -0.59583497
vn 0.956704021 -0.0547210015 0.285872996
vn 0.91662699 -0.0547159985 0.395981014
vn 0.801236987 -0.054717999 0.595839977
vn 0.725920975 -0.0547219999 0.685597003
vn 0.549129009 -0.0547249988 0.833944023
vn 0.447649986 -0.0547249988 0.892533004
vn 0.230781004 -0.0547240004 0.971464992
vn 0.115388997 -0.0547210015 0.991811991
vn -0.115392998 -0.0547240004 0.991810977
vn -0.230781004 -0.0547289997 0.971464992
vn -0.447649002 -0.0547339991 0.892533004
vn -0.549130023 -0.0547319986 0.833943009
vn -0.725923002 -0.0547260009 0.685594976
vn -0.801240981 -0.054717999 0.59583497
vn -0.916630983 -0.0547159985 0.395972013
vn -0.956707001 -0.0547140017 0.285861999
vn -0.996782005 -0.0547150001 0.0585849993
vn -0.996782005 -0.0547150001 -0.0585840009
vn -0.956707001 -0.0547140017 -0.285865009
vn -0.91663003 -0.0547159985 -0.395972997
vn -0.801236987 -0.054717999 -0.595839977
vn -0.725921988 -0.0547219999 -0.685597003
vn -0.549129009 -0.0547249988 -0.833944023
vn -0.447650999 -0.0547249988 -0.892531991
vn -0.230782002 -0.0547240004 -0.971464992
vn -0.115388997 -0.0547210015 -0.991811991
vn 0.115392998 -0.0547240004 -0.991810977
vn 0.230782002 -0.0547289997 -0.971464992
vn 0.725923002 -0.0547260009 -0.685594976
vn 0.549130976 -0.0547319986 -0.833941996
vn 0.447649986 -0.0547330007 -0.892531991
vn 0 1 0
vn 0 -1 0
vn -0.908563018 0.143040001 0.39249599
vn -0.988012016 0.143037006 0.0580729991
vn -0.948285997 0.143040001 0.283360004
vn -0.988012016 0.143035993 -0.0580749996
vn -0.79418999 0.143037006 0.590595007
vn -0.94828701 0.143035993 -0.283358991
vn -0.908563018 0.143035993 -0.392497003
vn -0.794184029 0.143033996 -0.590604007
vn -0.719531 0.143032998 -0.679570973
vn -0.544295013 0.143033996 -0.826610029
vn -0.443711013 0.143035993 -0.884680986
vn -0.228751004 0.143038005 -0.962918997
vn -0.114376999 0.143039003 -0.98308599
vn 0.114375003 0.143039003 -0.98308599
vn 0.228747994 0.143040001 -0.962918997
vn 0.443708003 0.143042997 -0.884682
vn 0.544297993 0.143040001 -0.826606989
vn 0.719534993 0.143037006 -0.679566026
vn 0.794188023 0.143033996 -0.590599
vn 0.908562005 0.143035993 -0.392500013
vn 0.948291004 0.143030003 -0.283349991
vn 0.988014996 0.143022999 -0.058061
vn 0.988013983 0.143022999 0.0580760017
vn 0.948291004 0.143032998 0.283347011
vn 0.908568025 0.143041 0.392482996
vn 0.794187009 0.143037006 0.590599
vn 0.719531 0.143032998 0.679570019
vn 0.544295013 0.143033996 0.826610029
vn 0.443711013 0.143035993 0.884680986
vn 0.228751004 0.143038005 0.962918997
vn 0.114376999 0.143039003 0.98308599
vn -0.114375003 0.143039003 0.98308599
vn -0.228747994 0.143040001 0.962918997
vn -0.719538987 0.143037006 0.679561973
vn -0.544297993 0.143040001 0.826606989
vn -0.443708003 0.143042997 0.884682
vn 0.914985001 -0.0810550004 -0.395262003
vn 0.954989016 -0.0810550004 -0.285353005
vn 0.994992018 -0.0810559988 -0.0584839992
vn 0.994992971 -0.0810559988 0.0584789999
vn 0.954988003 -0.0810550004 0.285355002
vn 0.799799979 -0.0810550004 -0.594767988
vn 0.724619985 -0.0810550004 -0.684364974
vn 0.548144996 -0.0810559988 -0.832446992
vn 0.446850002 -0.0810550004 -0.890928984
vn 0.230369002 -0.0810550004 -0.969721973
vn 0.115188003 -0.081054002 -0.990031004
vn 0.914982975 -0.0810550004 0.39526701
vn 0.799799025 -0.0810550004 0.594770014
vn 0.724617004 -0.0810550004 0.684368014
vn 0.548144996 -0.0810550004 0.832445979
vn 0.446848989 -0.081054002 0.890929997
vn 0.230372995 -0.081054002 0.969721019
vn 0.115184002 -0.081054002 0.990032017
vn -0.115188003 -0.081054002 0.990031004
vn -0.23037 -0.0810550004 0.969721973
vn -0.446850002 -0.0810550004 0.890928984
vn -0.548143983 -0.0810559988 0.832446992
vn -0.724619985 -0.0810550004 0.684364974
vn -0.799799979 -0.0810550004 0.594767988
vn -0.914985001 -0.0810550004 0.395262003
vn -0.954991996 -0.081054002 0.285344005
vn -0.994992971 -0.0810530037 0.0584740005
vn -0.994992971 -0.0810530037 -0.0584789999
vn -0.954990983 -0.081054002 -0.285346001
vn -0.914987028 -0.0810550004 -0.395258009
vn -0.799799025 -0.0810550004 -0.594770014
vn -0.724613011 -0.081054002 -0.684373021
vn -0.548138976 -0.0810530037 -0.832449973
vn -0.446850985 -0.0810519978 -0.890928984
vn -0.230380997 -0.0810530037 -0.969718993
vn -0.115193002 -0.081054002 -0.990031004
vn -0.914985001 0.0810550004 0.395262003
vn -0.994992018 0.0810559988 0.0584839992
vn -0.954989016 0.0810550004 0.285353005
vn -0.994992971 0.0810559988 -0.0584789999
vn -0.799799979 0.0810550004 0.594767988
vn -0.954988003 0.0810550004 -0.285355002
vn -0.914982975 0.0810550004 -0.39526701
vn -0.799799025 0.0810550004 -0.594770014
vn -0.724617004 0.0810550004 -0.684368014
vn -0.548144996 0.0810550004 -0.832445979
vn -0.446848989 0.081054002 -0.890929997
vn -0.230372995 0.081054002 -0.969721019
vn -0.115184002 0.081054002 -0.990032017
vn 0.115188003 0.081054002 -0.990031004
vn 0.23037 0.0810550004 -0.969721973
vn 0.446850002 0.0810550004 -0.890928984
vn 0.548143983 0.0810559988 -0.832446992
vn 0.724619985 0.0810550004 -0.684364974
vn 0.799799979 0.0810550004 -0.594767988
vn 0.914985001 0.0810550004 -0.395262003
vn 0.954991996 0.081054002 -0.285344005
vn 0.994992971 0.0810530037 -0.0584740005
vn 0.994992971 0.0810530037 0.0584789999
vn 0.954990983 0.081054002 0.285346001
vn 0.914987028 0.0810550004 0.395258009
vn 0.799799025 0.0810550004 0.594770014
vn 0.724613011 0.081054002 0.684373021
vn 0.548138976 0.0810530037 0.832449973
vn 0.446850985 0.0810519978 0.890928984
vn 0.230380997 0.0810530037 0.969718993
vn 0.115193002 0.081054002 0.990031004
vn -0.115188003 0.081054002 0.990031004
vn -0.230369002 0.0810550004 0.969721973
vn -0.724619985 0.0810550004 0.684364974
vn -0.548144996 0.0810559988 0.832446992
vn -0.446850002 0.0810550004 0.890928984

# Mesh 'Cylinder004' with 248 faces
g Cylinder004
usemtl Material01
f  1/1/1 2/2/2 3/3/3
f  2/2/2 4/4/4 3/3/3
f  3/3/3 4/4/4 5/5/5
f  6/6/6 2/2/2 1/1/1
f  7/7/7 6/6/6 1/1/1
f  8/8/8 6/6/6 7/7/7
f  9/9/9 8/8/8 7/7/7
f  10/10/10 8/8/8 9/9/9
f  11/11/11 10/10/10 9/9/9
f  12/12/12 10/10/10 11/11/11
f  13/13/13 12/12/12 11/11/11
f  14/14/14 12/12/12 13/13/13
f  15/15/15 14/14/14 13/13/13
f  16/16/16 14/14/14 15/15/15
f  17/17/17 16/16/16 15/15/15
f  18/18/18 16/16/16 17/17/17
f  19/19/19 18/18/18 17/17/17
f  20/20/20 18/18/18 19/19/19
f  21/21/21 20/20/20 19/19/19
f  22/22/22 20/20/20 21/21/21
f  23/23/23 22/22/22 21/21/21
f  24/24/24 22/22/22 23/23/23
f  25/25/25 24/24/24 23/23/23
f  26/26/26 24/24/24 25/25/25
f  27/27/27 26/26/26 25/25/25
f  28/28/28 26/26/26 27/27/27
f  29/29/29 28/28/28 27/27/27
f  30/30/30 28/28/28 29/29/29
f  31/31/31 30/30/30 29/29/29
f  32/32/32 30/30/30 31/31/31
f  33/33/33 32/32/32 31/31/31
f  4/4/4 34/34/34 5/5/5
f  5/5/5 34/34/34 35/35/35
f  34/34/34 36/36/36 35/35/35
f  35/35/35 36/36/36 33/37/33
f  36/36/36 32/38/32 33/37/33
f  37/39/37 9/40/37 38/41/37
f  9/40/37 7/42/37 38/41/37
f  38/41/37 7/42/37 39/43/37
f  37/39/37 40/44/37 9/40/37
f  40/44/37 11/45/37 9/40/37
f  40/44/37 41/46/37 11/45/37
f  41/46/37 13/47/37 11/45/37
f  41/46/37 42/48/37 13/47/37
f  42/48/37 15/49/37 13/47/37
f  42/48/37 43/50/37 15/49/37
f  43/50/37 17/51/37 15/49/37
f  43/50/37 44/52/37 17/51/37
f  44/52/37 19/53/37 17/51/37
f  44/52/37 45/54/37 19/53/37
f  45/54/37 21/55/37 19/53/37
f  45/54/37 46/56/37 21/55/37
f  46/56/37 23/57/37 21/55/37
f  46/56/37 47/58/37 23/57/37
f  47/58/37 25/59/37 23/57/37
f  47/58/37 48/60/37 25/59/37
f  48/60/37 27/61/37 25/59/37
f  48/60/37 49/62/37 27/61/37
f  49/62/37 29/63/37 27/61/37
f  49/62/37 50/64/37 29/63/37
f  50/64/37 31/65/37 29/63/37
f  50/64/37 51/66/37 31/65/37
f  51/66/37 33/67/37 31/65/37
f  51/66/37 52/68/37 33/67/37
f  52/68/37 35/69/37 33/67/37
f  52/68/37 53/70/37 35/69/37
f  53/70/37 5/71/37 35/69/37
f  53/70/37 54/72/37 5/71/37
f  54/72/37 3/73/37 5/71/37
f  3/73/37 54/72/37 1/74/37
f  54/72/37 39/43/37 1/74/37
f  7/42/37 1/74/37 39/43/37
f  55/75/38 2/57/38 56/76/38
f  2/57/38 6/55/38 56/76/38
f  56/76/38 6/55/38 57/77/38
f  2/57/38 55/75/38 4/59/38
f  55/75/38 58/78/38 4/59/38
f  4/59/38 58/78/38 34/61/38
f  58/78/38 59/79/38 34/61/38
f  34/61/38 59/79/38 36/63/38
f  59/79/38 60/80/38 36/63/38
f  36/63/38 60/80/38 32/65/38
f  60/80/38 61/81/38 32/65/38
f  32/65/38 61/81/38 30/67/38
f  61/81/38 62/82/38 30/67/38
f  30/67/38 62/82/38 28/69/38
f  62/82/38 63/83/38 28/69/38
f  28/69/38 63/83/38 26/71/38
f  63/83/38 64/84/38 26/71/38
f  26/71/38 64/84/38 24/73/38
f  64/84/38 65/85/38 24/73/38
f  24/73/38 65/85/38 22/74/38
f  65/85/38 66/86/38 22/74/38
f  22/74/38 66/86/38 20/42/38
f  66/86/38 67/87/38 20/42/38
f  20/42/38 67/87/38 18/40/38
f  67/87/38 68/88/38 18/40/38
f  18/40/38 68/88/38 16/89/38
f  68/88/38 69/90/38 16/89/38
f  16/89/38 69/90/38 14/47/38
f  69/90/38 70/91/38 14/47/38
f  14/47/38 70/91/38 12/49/38
f  70/91/38 71/92/38 12/49/38
f  12/49/38 71/92/38 10/93/38
f  71/92/38 72/94/38 10/93/38
f  10/93/38 72/94/38 8/53/38
f  72/94/38 57/77/38 8/53/38
f  6/55/38 8/53/38 57/77/38
f  58/4/39 55/2/40 54/3/41
f  55/2/40 39/1/42 54/3/41
f  58/4/39 54/3/41 53/5/43
f  55/2/40 56/6/44 39/1/42
f  56/6/44 38/7/45 39/1/42
f  56/6/44 57/8/46 38/7/45
f  57/8/46 37/9/47 38/7/45
f  57/8/46 72/10/48 37/9/47
f  72/10/48 40/11/49 37/9/47
f  72/10/48 71/12/50 40/11/49
f  71/12/50 41/13/51 40/11/49
f  71/12/50 70/14/52 41/13/51
f  70/14/52 42/15/53 41/13/51
f  70/14/52 69/16/54 42/15/53
f  69/16/54 43/17/55 42/15/53
f  69/16/54 68/18/56 43/17/55
f  68/18/56 44/19/57 43/17/55
f  68/18/56 67/20/58 44/19/57
f  67/20/58 45/21/59 44/19/57
f  67/20/58 66/22/60 45/21/59
f  66/22/60 46/23/61 45/21/59
f  66/22/60 65/24/62 46/23/61
f  65/24/62 47/25/63 46/23/61
f  65/24/62 64/26/64 47/25/63
f  64/26/64 48/27/65 47/25/63
f  64/26/64 63/28/66 48/27/65
f  63/28/66 49/29/67 48/27/65
f  63/28/66 62/30/68 49/29/67
f  62/30/68 50/31/69 49/29/67
f  62/30/68 61/32/70 50/31/69
f  61/32/70 51/33/71 50/31/69
f  59/34/72 58/4/39 53/5/43
f  59/34/72 53/5/43 52/35/73
f  60/36/74 59/34/72 52/35/73
f  60/36/74 52/35/73 51/37/71
f  61/38/70 60/36/74 51/37/71
f  73/95/38 74/96/38 75/97/38
f  74/96/38 76/98/38 75/97/38
f  75/97/38 76/98/38 77/99/38
f  78/100/38 79/101/38 74/96/38
f  79/101/38 80/102/38 74/96/38
f  81/103/38 74/96/38 80/102/38
f  76/98/38 74/96/38 81/103/38
f  82/104/38 76/98/38 81/103/38
f  83/105/38 81/103/38 84/106/38
f  85/107/38 81/103/38 83/105/38
f  84/106/38 81/103/38 80/102/38
f  86/108/38 80/102/38 79/101/38
f  87/109/38 88/110/38 80/102/38
f  88/110/38 84/106/38 80/102/38
f  89/111/38 84/106/38 88/110/38
f  90/112/38 83/105/38 84/106/38
f  82/113/75 91/114/76 76/115/77
f  91/114/76 92/116/78 76/115/77
f  76/115/77 92/116/78 77/117/79
f  93/118/80 91/114/76 82/113/75
f  81/119/81 93/118/80 82/113/75
f  94/120/82 93/118/80 81/119/81
f  85/121/83 94/120/82 81/119/81
f  95/122/84 94/120/82 85/121/83
f  83/123/85 95/122/84 85/121/83
f  92/116/78 96/124/86 77/117/79
f  77/117/79 96/124/86 75/125/87
f  96/124/86 97/126/88 75/125/87
f  75/125/87 97/126/88 73/127/89
f  97/126/88 98/128/90 73/127/89
f  73/127/89 98/128/90 74/129/91
f  98/128/90 99/130/92 74/129/91
f  74/129/91 99/130/92 78/131/93
f  99/130/92 100/132/94 78/131/93
f  78/131/93 100/132/94 79/133/95
f  100/132/94 101/134/96 79/133/95
f  79/133/95 101/134/96 86/135/97
f  101/134/96 102/136/98 86/135/97
f  86/135/97 102/136/98 80/137/99
f  102/136/98 103/138/100 80/137/99
f  80/137/99 103/138/100 87/139/101
f  103/138/100 104/140/102 87/139/101
f  87/139/101 104/140/102 88/141/103
f  104/140/102 105/142/104 88/141/103
f  88/141/103 105/142/104 89/143/105
f  105/142/104 106/144/106 89/143/105
f  89/143/105 106/144/106 84/145/107
f  106/144/106 107/146/108 84/145/107
f  84/145/107 107/146/108 90/147/109
f  107/146/108 108/148/110 90/147/109
f  90/147/109 108/148/110 83/149/85
f  108/148/110 95/150/84 83/149/85
f  109/107/37 110/105/37 111/103/37
f  110/105/37 112/98/37 111/103/37
f  111/103/37 112/98/37 113/104/37
f  114/112/37 115/106/37 110/105/37
f  115/106/37 116/110/37 110/105/37
f  117/97/37 110/105/37 116/110/37
f  112/98/37 110/105/37 117/97/37
f  118/99/37 112/98/37 117/97/37
f  119/96/37 117/97/37 120/101/37
f  121/95/37 117/97/37 119/96/37
f  120/101/37 117/97/37 116/110/37
f  122/111/37 116/110/37 115/106/37
f  123/109/37 124/102/37 116/110/37
f  124/102/37 120/101/37 116/110/37
f  125/108/37 120/101/37 124/102/37
f  126/100/37 119/96/37 120/101/37
f  113/113/111 112/115/112 127/114/113
f  112/115/112 128/116/114 127/114/113
f  113/113/111 127/114/113 129/118/115
f  112/115/112 118/117/116 128/116/114
f  118/117/116 130/124/117 128/116/114
f  118/117/116 117/125/118 130/124/117
f  117/125/118 131/126/119 130/124/117
f  117/125/118 121/127/120 131/126/119
f  121/127/120 132/128/121 131/126/119
f  121/127/120 119/129/122 132/128/121
f  119/129/122 133/130/123 132/128/121
f  119/129/122 126/131/124 133/130/123
f  126/131/124 134/132/125 133/130/123
f  126/131/124 120/133/126 134/132/125
f  120/133/126 135/134/127 134/132/125
f  120/133/126 125/135/128 135/134/127
f  125/135/128 136/136/129 135/134/127
f  125/135/128 124/137/130 136/136/129
f  124/137/130 137/138/131 136/136/129
f  124/137/130 123/139/132 137/138/131
f  123/139/132 138/140/133 137/138/131
f  123/139/132 116/141/134 138/140/133
f  116/141/134 139/142/135 138/140/133
f  116/141/134 122/143/136 139/142/135
f  122/143/136 140/144/137 139/142/135
f  122/143/136 115/145/138 140/144/137
f  115/145/138 141/146/139 140/144/137
f  115/145/138 114/147/140 141/146/139
f  114/147/140 142/148/141 141/146/139
f  114/147/140 110/149/142 142/148/141
f  110/149/142 143/150/143 142/148/141
f  111/119/144 113/113/111 129/118/115
f  111/119/144 129/118/115 144/120/145
f  109/121/146 111/119/144 144/120/145
f  109/121/146 144/120/145 143/122/143
f  110/123/142 109/121/146 143/122/143

