# File produced by Open Asset Import Library (http://www.assimp.sf.net)
# (assimp v5.2.0)

mtllib cupliquid.mtl

# 13 vertex positions
v 0.00194600003 2.65954113 -0.00057600002
v 0.883207023 2.65954113 0.508220971
v 1.01953804 2.65954113 -0.00057600002
v 0.883207023 2.65954113 -0.509371996
v 0.510743022 2.65954113 0.880684972
v 0.00194600003 2.65954113 1.01701701
v -0.506850004 2.65954113 0.880684972
v -0.879315019 2.65954113 0.508220971
v -1.01564598 2.65954113 -0.00057600002
v -0.879315019 2.65954113 -0.509371996
v -0.506850004 2.65954113 -0.88183701
v 0.00194600003 2.65954113 -1.01816797
v 0.510743022 2.65954113 -0.88183701

# 0 UV coordinates

# 1 vertex normals
vn 0 1 0

# Mesh 'Cylinder01' with 12 faces
g Cylinder01
usemtl DefaultMat
f  1//1 2//1 3//1
f  1//1 3//1 4//1
f  1//1 5//1 2//1
f  1//1 6//1 5//1
f  1//1 7//1 6//1
f  1//1 8//1 7//1
f  1//1 9//1 8//1
f  1//1 10//1 9//1
f  1//1 11//1 10//1
f  1//1 12//1 11//1
f  1//1 13//1 12//1
f  1//1 4//1 13//1

