# Blender 4.1.0
# www.blender.org
mtllib cupliquid2.mtl
o cup
v 0.134045 -1.399968 0.760180
v 0.771905 -1.399968 0.000000
v -0.771905 -1.399968 0.000000
v 1.000005 1.400032 -0.000000
v 0.766045 1.400032 0.642790
v -0.500005 1.400032 0.866029
v -0.999995 1.400032 -0.000000
v 0.385955 -1.400008 -0.668491
v 0.134045 -1.400008 -0.760180
v 0.591315 -1.400008 -0.496170
v 0.725355 -1.400008 -0.264010
v -0.134045 -1.400008 -0.760180
v -0.385955 -1.400008 -0.668491
v -0.725355 -1.400008 -0.264010
v 0.591315 -1.400008 0.496170
v 0.725355 -1.400008 0.264010
v -0.385955 -1.400008 0.668490
v 0.385955 -1.400008 0.668490
v -0.591315 -1.400008 -0.496170
v -0.725355 -1.400008 0.264010
v -0.591315 -1.400008 0.496170
v -0.134045 -1.400008 0.760180
v 0.939695 1.399992 -0.342020
v 0.766045 1.399992 -0.642790
v 0.939695 1.399992 0.342020
v 0.499995 1.399992 0.866029
v 0.173645 1.399992 0.984810
v -0.173645 1.399992 0.984810
v -0.766045 1.399992 0.642790
v -0.939695 1.399992 0.342020
v -0.939695 1.399992 -0.342020
v -0.766045 1.399992 -0.642790
v -0.499995 1.399992 -0.866021
v -0.173645 1.399992 -0.984811
v 0.173645 1.399992 -0.984811
v 0.500005 1.399992 -0.866030
vn 0.9366 -0.0812 -0.3409
vn 0.9967 -0.0812 -0.0000
vn 0.9366 -0.0812 0.3409
vn 0.7635 -0.0812 0.6407
vn 0.4984 -0.0812 0.8632
vn 0.1731 -0.0812 0.9816
vn -0.1731 -0.0812 0.9816
vn -0.4983 -0.0812 0.8632
vn -0.4984 -0.0812 0.8632
vn -0.7635 -0.0812 0.6407
vn -0.9366 -0.0812 0.3409
vn -0.9967 -0.0812 -0.0000
vn -0.9366 -0.0812 -0.3409
vn -0.0000 -1.0000 -0.0000
vn 0.7635 -0.0812 -0.6407
vn -0.0000 1.0000 -0.0000
vn -0.7635 -0.0812 -0.6407
vn -0.4984 -0.0812 -0.8632
vn -0.4983 -0.0812 -0.8632
vn -0.1731 -0.0812 -0.9816
vn 0.1731 -0.0812 -0.9816
vn 0.4983 -0.0812 -0.8632
vn 0.4984 -0.0812 -0.8632
vt 0.805600 0.000000
vt 0.805600 1.000000
vt 0.750000 0.000000
vt 0.750000 1.000000
vt 0.694400 0.000000
vt 0.694400 1.000000
vt 0.638900 1.000000
vt 0.638900 0.000000
vt 0.583300 0.000000
vt 0.583300 1.000000
vt 0.527800 0.000000
vt 0.527800 1.000000
vt 0.472200 0.000000
vt 0.472200 1.000000
vt 0.416700 1.000000
vt 0.416700 0.000000
vt 0.361100 0.000000
vt 0.361100 1.000000
vt 0.305600 0.000000
vt 0.305600 1.000000
vt 0.250000 0.000000
vt 0.250000 1.000000
vt 0.194400 0.000000
vt 0.194400 1.000000
vt 0.916700 0.000000
vt 0.861100 0.000000
vt 0.138900 0.000000
vt 0.083300 0.000000
vt 0.027800 0.000000
vt -0.027800 0.000000
vt 0.861100 1.000000
vt 0.916700 1.000000
vt 0.972200 1.000000
vt 0.027800 1.000000
vt 0.083300 1.000000
vt 0.138900 1.000000
vt -0.027800 1.000000
vt 0.972200 0.000000
s 1
usemtl Material01
f 11/1/1 23/2/1 2/3/2
f 23/2/1 4/4/2 2/3/2
f 2/3/2 4/4/2 16/5/3
f 4/4/2 25/6/3 16/5/3
f 25/6/3 5/7/4 15/8/4
f 15/8/4 5/7/4 18/9/5
f 5/7/4 26/10/5 18/9/5
f 18/9/5 26/10/5 1/11/6
f 26/10/5 27/12/6 1/11/6
f 1/11/6 27/12/6 22/13/7
f 28/14/7 6/15/8 17/16/9
f 17/16/9 6/15/8 21/17/10
f 6/15/8 29/18/10 21/17/10
f 20/19/11 30/20/11 3/21/12
f 30/20/11 7/22/12 3/21/12
f 3/21/12 7/22/12 14/23/13
f 7/22/12 31/24/13 14/23/13
f 8/25/14 10/26/14 11/1/14 2/3/14 16/5/14 15/8/14 18/9/14 1/11/14 22/13/14 17/16/14 21/17/14 20/19/14 3/21/14 14/23/14 19/27/14 13/28/14 12/29/14 9/30/14
f 11/1/1 24/31/15 23/2/1
f 16/5/3 25/6/3 15/8/4
f 22/13/7 27/12/6 28/14/7
f 22/13/7 28/14/7 17/16/9
f 21/17/10 29/18/10 20/19/11
f 20/19/11 29/18/10 30/20/11
f 27/12/16 26/10/16 5/7/16 25/6/16 4/4/16 23/2/16 24/31/16 36/32/16 35/33/16 34/34/16 33/35/16 32/36/16 31/24/16 7/22/16 30/20/16 29/18/16 6/15/16 28/14/16
f 14/23/13 31/24/13 19/27/17
f 19/27/17 31/24/13 32/36/17
f 19/27/17 32/36/17 13/28/18
f 13/28/18 32/36/17 33/35/19
f 13/28/18 33/35/19 12/29/20
f 12/29/20 33/35/19 34/34/20
f 12/29/20 34/34/20 9/30/21
f 9/30/21 34/34/20 35/37/21
f 10/26/15 24/31/15 11/1/1
f 10/26/15 36/32/22 24/31/15
f 8/25/23 36/32/22 10/26/15
f 8/25/23 35/33/21 36/32/22
f 9/38/21 35/33/21 8/25/23
