# Blender 4.4.3
# www.blender.org
mtllib ColaLiquid.mtl
o Cola
v 0.008130 0.415725 -0.041231
v 0.008130 0.415725 0.041231
v 0.008682 0.436681 -0.042928
v 0.008682 0.436681 0.042928
v 0.010567 0.441807 -0.048731
v 0.010567 0.441807 0.048731
v 0.014538 0.359432 -0.060953
v 0.014538 0.359432 0.060953
v 0.014910 0.386163 -0.062098
v 0.014910 0.386163 0.062098
v 0.015486 0.441566 -0.063869
v 0.015486 0.441566 0.063869
v 0.016058 0.320584 -0.065630
v 0.016058 0.320584 0.065630
v 0.016190 0.406446 -0.066036
v 0.016190 0.406446 0.066036
v 0.018070 0.436245 -0.071821
v 0.018070 0.436245 0.071821
v 0.018135 0.408555 0.072022
v 0.018135 0.408555 -0.072022
v 0.018929 0.421571 0.074465
v 0.018929 0.421571 -0.074465
v 0.025388 0.415725 -0.030654
v 0.025388 0.415725 0.030654
v 0.026650 0.436681 -0.031916
v 0.026650 0.436681 0.031916
v 0.029060 -0.611887 -0.105646
v 0.029060 -0.611887 0.105646
v 0.030964 0.441807 -0.036230
v 0.030964 0.441807 0.036230
v 0.035964 0.415725 -0.013397
v 0.035964 0.415725 0.013397
v 0.036040 -0.607512 -0.127127
v 0.036040 -0.607512 0.127127
v 0.037069 0.122238 0.130296
v 0.037069 0.122238 -0.130296
v 0.037484 -0.392282 -0.131574
v 0.037484 -0.392282 0.131574
v 0.037662 0.436681 -0.013948
v 0.037662 0.436681 0.013948
v 0.038086 0.415725 -0.000000
v 0.038204 -0.430293 -0.133788
v 0.038204 -0.430293 0.133788
v 0.039871 0.436681 -0.000000
v 0.040051 0.359432 -0.045317
v 0.040051 0.359432 0.045317
v 0.040077 -0.596887 0.139551
v 0.040077 -0.596887 -0.139551
v 0.040902 0.386163 -0.046168
v 0.040902 0.386163 0.046168
v 0.041347 0.047379 0.143462
v 0.041347 0.047379 -0.143462
v 0.042218 0.441566 -0.047485
v 0.042218 0.441566 0.047485
v 0.042394 -0.220730 -0.146685
v 0.042394 -0.220730 0.146685
v 0.043039 -0.576366 -0.148670
v 0.043039 -0.576366 0.148670
v 0.043355 -0.520403 -0.149642
v 0.043355 -0.520403 0.149642
v 0.043464 0.441807 -0.015834
v 0.043464 0.441807 0.015834
v 0.043528 0.320584 -0.048794
v 0.043528 0.320584 0.048794
v 0.043830 0.406446 -0.049096
v 0.043830 0.406446 0.049096
v 0.045972 0.441807 -0.000000
v 0.048131 0.436245 -0.053397
v 0.048131 0.436245 0.053397
v 0.048280 0.408555 -0.053547
v 0.048280 0.408555 0.053547
v 0.050096 0.421571 -0.055363
v 0.050096 0.421571 0.055363
v 0.055686 0.359432 -0.019805
v 0.055686 0.359432 0.019805
v 0.056832 0.386163 -0.020177
v 0.056832 0.386163 0.020177
v 0.058602 0.441566 0.020752
v 0.058602 0.441566 -0.020752
v 0.058823 0.359432 -0.000000
v 0.060027 0.386163 -0.000000
v 0.060363 0.320584 -0.021324
v 0.060363 0.320584 0.021324
v 0.060770 0.406446 -0.021456
v 0.060770 0.406446 0.021456
v 0.061889 0.441566 -0.000000
v 0.063741 0.320584 -0.000000
v 0.064168 0.406446 -0.000000
v 0.066555 0.436245 -0.023336
v 0.066555 0.436245 0.023336
v 0.066756 0.408555 -0.023401
v 0.066756 0.408555 0.023401
v 0.069198 0.421571 -0.024195
v 0.069198 0.421571 0.024195
v 0.070251 0.436245 -0.000000
v 0.070462 0.408555 -0.000000
v 0.073031 0.421571 -0.000000
v 0.074107 -0.611887 -0.079373
v 0.074107 -0.611887 0.079373
v 0.089353 -0.607512 -0.094620
v 0.089353 -0.607512 0.094620
v 0.091606 0.122238 -0.096872
v 0.091606 0.122238 0.096872
v 0.092556 -0.392282 -0.097822
v 0.092556 -0.392282 0.097822
v 0.094202 -0.430293 -0.099468
v 0.094202 -0.430293 0.099469
v 0.098487 -0.596887 -0.103753
v 0.098487 -0.596887 0.103753
v 0.100379 -0.611887 -0.034326
v 0.100379 -0.611887 0.034326
v 0.101394 0.047379 0.106661
v 0.101394 0.047379 -0.106661
v 0.103791 -0.220730 -0.109057
v 0.103791 -0.220730 0.109057
v 0.105266 -0.576366 -0.110533
v 0.105266 -0.576366 0.110533
v 0.105988 -0.520403 -0.111255
v 0.105989 -0.520403 0.111255
v 0.121861 -0.607512 -0.041306
v 0.121861 -0.607512 0.041306
v 0.125030 0.122238 -0.042336
v 0.125030 0.122238 0.042336
v 0.126307 -0.392282 -0.042751
v 0.126307 -0.392282 0.042751
v 0.128403 -0.607512 0.000000
v 0.128522 -0.430293 -0.043470
v 0.128522 -0.430293 0.043470
v 0.131735 0.122238 -0.000000
v 0.133079 -0.392282 0.000000
v 0.134285 -0.596887 -0.045343
v 0.134285 -0.596887 0.045343
v 0.135407 -0.430293 0.000000
v 0.138196 0.047379 -0.046614
v 0.138196 0.047379 0.046614
v 0.141419 -0.220730 -0.047661
v 0.141419 -0.220730 0.047661
v 0.141467 -0.596887 0.000000
v 0.143404 -0.576366 -0.048306
v 0.143404 -0.576366 0.048306
v 0.144375 -0.520403 -0.048621
v 0.144375 -0.520403 0.048621
v 0.145578 0.047379 -0.000000
v 0.148968 -0.220730 0.000000
v 0.151054 -0.576366 0.000000
v 0.152076 -0.520403 0.000000
v -0.012048 0.415725 -0.042818
v -0.012048 0.415725 0.042818
v -0.012327 0.436681 -0.044580
v -0.012327 0.436681 0.044580
v -0.013282 0.441807 -0.050607
v -0.013282 0.441807 0.050606
v -0.015292 0.359432 0.063299
v -0.015292 0.359432 -0.063299
v -0.015480 0.386163 -0.064488
v -0.015480 0.386163 0.064488
v -0.015772 0.441566 0.066327
v -0.015772 0.441566 -0.066327
v -0.016061 0.320584 -0.068156
v -0.016061 0.320584 0.068156
v -0.016128 0.406446 -0.068578
v -0.016128 0.406446 0.068578
v -0.017080 0.436245 -0.074586
v -0.017080 0.436245 0.074586
v -0.017113 0.408555 -0.074794
v -0.017113 0.408555 0.074794
v -0.017515 0.421571 -0.077331
v -0.017515 0.421571 0.077331
v -0.022826 -0.611887 -0.110869
v -0.022826 -0.611887 0.110869
v -0.026199 -0.607512 -0.132165
v -0.026199 -0.607512 0.132165
v -0.026698 0.122238 -0.135311
v -0.026698 0.122238 0.135311
v -0.026908 -0.392282 0.136638
v -0.026908 -0.392282 -0.136638
v -0.027272 -0.430293 0.138938
v -0.027272 -0.430293 -0.138938
v -0.028220 -0.596887 -0.144923
v -0.028220 -0.596887 0.144923
v -0.028863 0.047379 -0.148984
v -0.028863 0.047379 0.148984
v -0.029393 -0.220730 0.152331
v -0.029393 -0.220730 -0.152331
v -0.029720 -0.576366 -0.154392
v -0.029720 -0.576366 0.154392
v -0.029880 -0.520403 -0.155401
v -0.029880 -0.520403 0.155401
v -0.030749 0.415725 -0.035073
v -0.030749 0.415725 0.035073
v -0.031797 0.436681 -0.036517
v -0.031797 0.436681 0.036517
v -0.035384 0.441807 -0.041453
v -0.035384 0.441807 0.041453
v -0.042937 0.359432 -0.051850
v -0.042937 0.359432 0.051850
v -0.043645 0.386163 -0.052824
v -0.043645 0.386163 0.052824
v -0.043893 0.415725 -0.019681
v -0.043893 0.415725 0.019681
v -0.044739 0.441566 0.054330
v -0.044739 0.441566 -0.054330
v -0.045483 0.436681 -0.020491
v -0.045483 0.436681 0.020491
v -0.045828 0.320584 -0.055828
v -0.045828 0.320584 0.055828
v -0.046079 0.406446 -0.056174
v -0.046079 0.406446 0.056174
v -0.048619 0.415725 -0.000000
v -0.049654 0.436245 -0.061095
v -0.049655 0.436245 0.061095
v -0.049779 0.408555 -0.061266
v -0.049779 0.408555 0.061266
v -0.050404 0.436681 -0.000000
v -0.050919 0.441807 -0.023261
v -0.050919 0.441807 0.023261
v -0.051288 0.421571 -0.063344
v -0.051288 0.421571 0.063344
v -0.056505 0.441807 -0.000000
v -0.062369 0.359432 -0.029095
v -0.062369 0.359432 0.029095
v -0.063442 0.386163 -0.029642
v -0.063442 0.386163 0.029642
v -0.065101 0.441566 0.030487
v -0.065101 0.441566 -0.030487
v -0.066751 0.320584 0.031328
v -0.066751 0.320584 -0.031328
v -0.067131 0.406446 -0.031522
v -0.067132 0.406446 0.031522
v -0.069356 0.359432 -0.000000
v -0.070559 -0.611887 -0.089867
v -0.070559 -0.611887 0.089867
v -0.070560 0.386163 -0.000000
v -0.072422 0.441566 -0.000000
v -0.072551 0.436245 -0.034283
v -0.072551 0.436245 0.034283
v -0.072739 0.408555 0.034379
v -0.072739 0.408555 -0.034379
v -0.074274 0.320584 -0.000000
v -0.074701 0.406446 -0.000000
v -0.075028 0.421571 0.035545
v -0.075028 0.421571 -0.035545
v -0.080784 0.436245 -0.000000
v -0.080995 0.408555 -0.000000
v -0.083564 0.421571 -0.000000
v -0.083835 -0.607512 -0.108141
v -0.083835 -0.607512 0.108141
v -0.085794 0.122238 -0.110836
v -0.085794 0.122238 0.110836
v -0.086584 -0.392282 0.111923
v -0.086584 -0.392282 -0.111923
v -0.087952 -0.430293 0.113807
v -0.087952 -0.430293 -0.113807
v -0.091514 -0.596887 -0.118710
v -0.091514 -0.596887 0.118710
v -0.093931 0.047379 -0.122036
v -0.093931 0.047379 0.122036
v -0.095923 -0.220730 0.124778
v -0.095923 -0.220730 -0.124778
v -0.097150 -0.576366 -0.126466
v -0.097150 -0.576366 0.126466
v -0.097750 -0.520403 -0.127293
v -0.097750 -0.520403 0.127293
v -0.105283 -0.611887 0.050961
v -0.105283 -0.611887 -0.050961
v -0.116349 -0.611887 0.000000
v -0.124494 -0.607512 -0.060750
v -0.124494 -0.607512 0.060750
v -0.127332 0.122238 0.062196
v -0.127332 0.122238 -0.062196
v -0.128530 -0.392282 0.062806
v -0.128530 -0.392282 -0.062806
v -0.130604 -0.430293 0.063863
v -0.130604 -0.430293 -0.063863
v -0.136003 -0.596887 0.066614
v -0.136003 -0.596887 -0.066614
v -0.138936 -0.607512 0.000000
v -0.139667 0.047379 0.068480
v -0.139667 0.047379 -0.068480
v -0.142268 0.122238 -0.000000
v -0.142687 -0.220730 -0.070019
v -0.142687 -0.220730 0.070019
v -0.143612 -0.392282 0.000000
v -0.144546 -0.576366 -0.070966
v -0.144546 -0.576366 0.070966
v -0.145456 -0.520403 0.071430
v -0.145456 -0.520403 -0.071430
v -0.145940 -0.430293 0.000000
v -0.152000 -0.596887 0.000000
v -0.156111 0.047379 -0.000000
v -0.159501 -0.220731 0.000000
v -0.161587 -0.576366 0.000000
v -0.162609 -0.520403 0.000000
vn 1.0000 -0.0037 -0.0000
vn 0.9825 0.1861 -0.0000
vn 0.9215 0.1860 0.3410
vn 0.9385 -0.0037 0.3453
vn -0.1564 -0.0158 0.9876
vn 0.3090 -0.0158 0.9509
vn 0.3088 -0.0395 0.9503
vn -0.1563 -0.0395 0.9869
vn -0.1552 -0.1243 -0.9800
vn -0.5832 -0.1243 -0.8027
vn -0.5759 -0.2000 -0.7927
vn -0.1533 -0.2000 -0.9677
vn -0.4709 -0.5984 -0.6482
vn -0.7138 -0.5985 -0.3637
vn -0.8693 -0.2192 -0.4429
vn -0.5735 -0.2192 -0.7893
vn -0.0840 0.8437 0.5303
vn 0.1659 0.8437 0.5106
vn 0.2476 -0.5984 0.7620
vn 0.3015 -0.2192 0.9279
vn -0.1526 -0.2192 0.9637
vn -0.1253 -0.5985 0.7913
vn -0.9999 -0.0158 -0.0000
vn -0.8909 -0.0158 0.4539
vn -0.8903 -0.0395 0.4536
vn -0.9992 -0.0395 -0.0000
vn -0.8903 -0.0395 -0.4536
vn -0.8869 0.0964 -0.4519
vn -0.5850 0.0964 -0.8053
vn -0.5873 -0.0395 -0.8084
vn -0.5735 -0.2192 0.7893
vn -0.5859 0.0810 0.8064
vn -0.8881 0.0810 0.4525
vn -0.8693 -0.2192 0.4429
vn -0.5873 -0.0395 0.8084
vn -0.5877 -0.0158 0.8089
vn 0.6845 0.2511 0.6845
vn 0.9081 0.2514 0.3348
vn 0.9131 0.2288 0.3375
vn 0.6882 0.2295 0.6882
vn -0.8841 -0.1243 0.4505
vn -0.5832 -0.1243 0.8027
vn -0.5759 -0.2000 0.7927
vn -0.8730 -0.2000 0.4448
vn -0.8841 -0.1243 -0.4505
vn -0.9922 -0.1243 -0.0000
vn -0.9798 -0.2000 -0.0000
vn -0.8730 -0.2000 -0.4448
vn -0.9347 0.0848 -0.3453
vn -0.9349 0.0848 -0.3445
vn -0.9964 0.0849 -0.0000
vn -0.5767 -0.1936 -0.7937
vn -0.8741 -0.1936 -0.4454
vn -0.8910 -0.0037 -0.4540
vn -0.5878 -0.0037 -0.8090
vn -0.4549 0.7656 -0.4549
vn -0.1988 0.7656 -0.6118
vn -0.4784 0.8437 -0.2437
vn -0.3156 0.8437 -0.4343
vn -0.1564 -0.0037 -0.9877
vn -0.1537 0.1861 -0.9704
vn 0.3036 0.1861 -0.9344
vn 0.3090 -0.0037 -0.9510
vn -0.0653 -0.9938 0.0899
vn -0.2676 -0.8903 0.3683
vn -0.4056 -0.8904 0.2067
vn -0.1008 -0.9936 0.0514
vn 0.7038 0.0964 -0.7038
vn 0.7066 -0.0395 -0.7066
vn 0.3088 -0.0395 -0.9503
vn 0.3076 0.0964 -0.9466
vn 0.5857 0.0848 -0.8061
vn 0.8878 0.0848 -0.4524
vn -0.7046 0.0849 -0.7046
vn -0.3079 0.0848 -0.9476
vn -0.8903 0.0410 0.4536
vn -0.5873 0.0410 0.8083
vn -0.0712 -0.8904 0.4497
vn -0.4709 -0.5984 0.6482
vn 0.1559 0.0848 -0.9841
vn 0.7497 -0.6012 0.2767
vn 0.4179 -0.8961 0.1495
vn 0.4355 -0.9002 -0.0000
vn 0.7966 -0.6045 -0.0000
vn -0.8625 0.2511 0.4394
vn -0.5690 0.2511 0.7831
vn -0.5721 0.2295 0.7874
vn -0.8672 0.2295 0.4419
vn 0.9736 0.2284 -0.0000
vn 0.9677 0.2520 -0.0000
vn 0.9081 0.2514 -0.3348
vn 0.9131 0.2288 -0.3375
vn -0.5721 0.2295 -0.7874
vn -0.1523 0.2295 -0.9613
vn -0.1514 0.2511 -0.9560
vn -0.5690 0.2511 -0.7831
vn -0.0497 -0.9482 0.3138
vn 0.0982 -0.9482 0.3022
vn 0.9310 0.1226 -0.3438
vn 0.9925 0.1225 -0.0000
vn 0.9967 0.0814 -0.0000
vn 0.9352 0.0812 -0.3446
vn 0.9992 0.0408 -0.0000
vn 0.9373 0.0408 0.3463
vn -0.1526 -0.2192 -0.9637
vn -0.5859 0.0810 -0.8064
vn -0.1559 0.0810 -0.9844
vn -0.3156 0.8437 0.4343
vn -0.3155 0.8437 0.4343
vn 0.3796 0.8437 0.3796
vn -0.7138 -0.5985 0.3637
vn -0.9757 -0.2192 -0.0000
vn -0.8012 -0.5984 -0.0000
vn 0.7038 0.0964 0.7038
vn 0.9339 0.0965 0.3442
vn -0.0177 -0.9936 0.1118
vn 0.9752 -0.2213 -0.0000
vn 0.9155 -0.2201 -0.3369
vn 0.9379 -0.0157 0.3465
vn 0.9310 0.1226 0.3438
vn 0.9999 -0.0157 -0.0000
vn -0.9992 0.0410 -0.0000
vn -0.8903 0.0410 -0.4536
vn 0.3032 -0.1936 -0.9331
vn 0.7071 -0.0037 -0.7071
vn 0.6937 -0.1936 -0.6937
vn 0.7066 -0.0395 0.7066
vn 0.3076 0.0964 0.9466
vn 0.3008 0.2295 0.9257
vn 0.2991 0.2511 0.9206
vn -0.5775 0.1861 -0.7949
vn 0.5732 0.7656 -0.2920
vn 0.6433 0.7656 -0.0000
vn 0.6882 0.2295 -0.6882
vn 0.6845 0.2511 -0.6845
vn 0.2991 0.2511 -0.9206
vn 0.3008 0.2295 -0.9257
vn 0.6899 -0.2192 0.6899
vn 0.7048 0.0810 0.7048
vn 0.3080 0.0810 0.9479
vn 0.4179 -0.8961 -0.1495
vn 0.7497 -0.6012 -0.2767
vn 0.3088 0.0410 -0.9503
vn 0.3066 -0.1243 -0.9437
vn 0.7016 -0.1243 -0.7016
vn 0.7065 0.0410 -0.7065
vn -0.9967 0.0810 -0.0000
vn -0.8843 0.1228 0.4506
vn -0.9924 0.1228 -0.0000
vn -0.5833 0.1229 -0.8029
vn -0.1552 0.1229 -0.9802
vn 0.9375 -0.0396 0.3456
vn 0.1407 -0.8903 0.4330
vn 0.3219 -0.8904 0.3219
vn 0.5665 -0.5985 0.5665
vn 0.0343 -0.9938 0.1057
vn -0.1557 0.0964 -0.9831
vn 0.7070 -0.0158 -0.7070
vn 0.3090 -0.0158 -0.9509
vn 0.9155 -0.2201 0.3369
vn 0.9352 0.0812 0.3446
vn 0.9308 -0.1240 0.3438
vn 0.9923 -0.1239 -0.0000
vn 0.9953 0.0968 -0.0000
vn 0.6948 0.1861 -0.6947
vn 0.3080 0.0810 -0.9479
vn 0.3067 0.1229 -0.9439
vn 0.7018 0.1228 -0.7017
vn 0.7048 0.0810 -0.7048
vn -0.8869 0.0964 0.4519
vn -0.9680 0.2511 -0.0000
vn -0.9953 0.0964 -0.0000
vn -0.1552 0.1229 0.9802
vn -0.5833 0.1229 0.8029
vn -0.1563 0.0410 -0.9869
vn 0.9964 0.0849 -0.0000
vn 0.5031 0.8434 0.1884
vn 0.5046 0.8435 0.1841
vn 0.5368 0.8437 -0.0000
vn -0.8672 0.2295 -0.4419
vn -0.8625 0.2511 -0.4394
vn -0.9733 0.2295 -0.0000
vn 0.5046 0.8435 -0.1841
vn 0.3796 0.8437 -0.3796
vn 0.5031 0.8434 -0.1884
vn 0.6899 -0.2192 -0.6899
vn 0.5665 -0.5985 -0.5665
vn 0.2476 -0.5984 -0.7620
vn 0.3015 -0.2192 -0.9279
vn -0.1563 -0.0395 -0.9869
vn -0.1559 0.0810 0.9844
vn 0.3219 -0.8904 -0.3219
vn 0.8878 0.0848 0.4524
vn -0.8881 0.0810 -0.4525
vn -0.1514 0.2511 0.9560
vn -0.1557 0.0964 0.9831
vn -0.1535 -0.1936 -0.9690
vn 0.3028 -0.2000 -0.9318
vn 0.6928 -0.2000 -0.6928
vn -0.6045 0.7654 -0.2208
vn -0.6029 0.7653 -0.2254
vn 0.1659 0.8437 -0.5106
vn 0.3032 -0.1936 0.9331
vn 0.6937 -0.1936 0.6937
vn 0.7071 -0.0037 0.7071
vn 0.3090 -0.0037 0.9510
vn -0.5873 0.0410 -0.8083
vn 0.9992 -0.0396 -0.0000
vn -0.1537 0.1861 0.9704
vn -0.1564 -0.0037 0.9877
vn 0.3036 0.1861 0.9344
vn -0.8909 -0.0158 -0.4539
vn -0.5877 -0.0158 -0.8089
vn -0.0497 -0.9482 -0.3138
vn -0.1867 -0.9482 -0.2570
vn -0.4553 -0.8903 -0.0000
vn -0.0177 -0.9936 -0.1118
vn 0.0343 -0.9938 -0.1057
vn 0.0800 -0.9936 -0.0800
vn 0.1007 -0.9945 -0.0292
vn 0.1007 -0.9945 0.0292
vn 0.0800 -0.9936 0.0800
vn -0.1111 -0.9938 -0.0000
vn -0.1008 -0.9936 -0.0514
vn -0.0653 -0.9938 -0.0899
vn -0.1563 0.0410 0.9869
vn -0.1552 -0.1243 0.9800
vn 0.5857 0.0848 0.8061
vn 0.3088 0.0410 0.9503
vn 0.3066 -0.1243 0.9437
vn -0.5850 0.0964 0.8052
vn 0.1006 0.7656 -0.6353
vn 0.3781 0.7657 -0.5204
vn -0.4056 -0.8904 -0.2067
vn -0.8754 0.1861 -0.4461
vn 0.3177 -0.9482 -0.0000
vn 0.2987 -0.9481 0.1089
vn 0.2977 -0.9481 0.1117
vn -0.2831 -0.9482 -0.1442
vn -0.1533 -0.2000 0.9677
vn 0.9196 -0.1999 0.3383
vn 0.6928 -0.2000 0.6928
vn 0.7016 -0.1243 0.7016
vn -0.5369 0.8437 -0.0000
vn -0.5767 -0.1936 0.7937
vn -0.5878 -0.0037 0.8090
vn -0.8910 -0.0037 0.4540
vn -0.8741 -0.1936 0.4454
vn -0.1523 0.2295 0.9613
vn -0.5775 0.1861 0.7949
vn -0.8754 0.1861 0.4461
vn 0.9375 -0.0396 -0.3456
vn 0.9339 0.0965 -0.3442
vn -0.0017 0.9999 -0.0108
vn -0.0002 1.0000 -0.0010
vn -0.0002 1.0000 -0.0012
vn -0.0001 1.0000 -0.0007
vn -0.1253 -0.5985 -0.7913
vn -0.4784 0.8437 0.2437
vn 0.3028 -0.2000 0.9318
vn 0.1559 0.0848 0.9841
vn -0.4549 0.7656 0.4549
vn -0.1988 0.7657 0.6118
vn 0.9385 -0.0037 -0.3453
vn 0.9215 0.1860 -0.3410
vn -0.1564 -0.0158 -0.9876
vn -1.0000 -0.0037 -0.0000
vn -0.9825 0.1861 -0.0000
vn -0.3079 0.0848 0.9476
vn -0.3177 -0.9482 -0.0000
vn 0.0014 1.0000 0.0088
vn -0.1535 -0.1936 0.9690
vn -0.8843 0.1228 -0.4506
vn 0.1006 0.7657 0.6353
vn 0.3781 0.7657 0.5204
vn -0.0840 0.8437 -0.5303
vn 0.2247 -0.9482 -0.2247
vn 0.2987 -0.9481 -0.1089
vn 0.2977 -0.9481 -0.1117
vn 0.7065 0.0410 0.7065
vn 0.5732 0.7656 0.2920
vn -0.6433 0.7656 -0.0000
vn 0.9373 0.0408 -0.3463
vn 0.3067 0.1229 0.9439
vn 0.9308 -0.1240 -0.3438
vn 0.7017 0.1229 0.7018
vn 0.1407 -0.8903 -0.4330
vn 0.7070 -0.0158 0.7070
vn 0.9811 -0.1936 -0.0000
vn 0.9201 -0.1934 0.3405
vn -0.0712 -0.8904 -0.4497
vn -0.2676 -0.8903 -0.3683
vn 0.2247 -0.9482 0.2247
vn 0.9379 -0.0157 -0.3465
vn 0.6948 0.1861 0.6947
vn 0.9201 -0.1934 -0.3405
vn -0.9349 0.0848 0.3445
vn -0.9347 0.0848 0.3453
vn -0.9811 -0.1936 -0.0000
vn 0.9798 -0.2000 -0.0000
vn 0.9196 -0.1999 -0.3383
vn -0.6045 0.7654 0.2208
vn -0.6029 0.7653 0.2254
vn 0.0982 -0.9482 -0.3022
vn -0.7046 0.0849 0.7046
vn -0.2831 -0.9482 0.1443
vn -0.1868 -0.9482 0.2570
vt 0.500019 0.905754
vt 0.500019 0.919680
vt 0.477872 0.919680
vt 0.477056 0.905754
vt 0.474446 0.133373
vt 0.535557 0.133373
vt 0.540217 0.296183
vt 0.472087 0.296183
vt 0.485291 0.872150
vt 0.458561 0.872150
vt 0.456252 0.891400
vt 0.484676 0.891400
vt 0.612679 -0.060806
vt 0.563238 -0.060806
vt 0.567369 -0.041331
vt 0.620040 -0.041331
vt 0.483773 0.429234
vt 0.517131 0.431857
vt 0.514679 0.439405
vt 0.485015 0.437072
vt 0.538017 -0.060806
vt 0.540829 -0.041331
vt 0.471777 -0.041331
vt 0.473201 -0.060806
vt 0.500019 0.133373
vt 0.440413 0.133373
vt 0.433568 0.296183
vt 0.500019 0.296183
vt 0.566470 0.296183
vt 0.565009 0.550630
vt 0.615836 0.550630
vt 0.618438 0.296183
vt 0.379997 -0.041331
vt 0.379212 0.011781
vt 0.432228 0.011781
vt 0.432669 -0.041331
vt 0.408948 0.296183
vt 0.417811 0.133373
vt 0.408083 0.621674
vt 0.459840 0.621674
vt 0.479781 0.809913
vt 0.453711 0.809913
vt 0.471887 0.872150
vt 0.449887 0.872150
vt 0.446707 0.891400
vt 0.470103 0.891400
vt 0.528150 0.872150
vt 0.500019 0.872150
vt 0.500019 0.891400
vt 0.529934 0.891400
vt 0.487305 0.900206
vt 0.486781 0.920094
vt 0.500019 0.920094
vt 0.500019 0.900206
vt 0.558162 0.893401
vt 0.532646 0.893401
vt 0.533752 0.905754
vt 0.560134 0.905754
vt 0.529368 0.465635
vt 0.525274 0.469729
vt 0.508222 0.459278
vt 0.510011 0.453771
vt 0.431128 0.532555
vt 0.438199 0.528952
vt 0.457523 0.551580
vt 0.452858 0.558000
vt 0.483361 0.905754
vt 0.483773 0.919680
vt 0.517131 0.919680
vt 0.517947 0.905754
vt 0.433019 0.414731
vt 0.420419 0.397388
vt 0.381832 0.442365
vt 0.400065 0.451655
vt 0.596210 0.550630
vt 0.598484 0.296183
vt 0.539223 0.550630
vt 0.465363 0.920094
vt 0.466733 0.900206
vt 0.481340 0.900206
vt 0.480571 0.920094
vt 0.525274 0.920094
vt 0.524077 0.900206
vt 0.507698 0.900206
vt 0.508222 0.920094
vt 0.472406 0.846781
vt 0.450811 0.846781
vt 0.475118 0.374588
vt 0.473201 0.362481
vt 0.413132 0.387358
vt 0.488283 0.920094
vt 0.488548 0.900206
vt 0.470801 0.900206
vt 0.469805 0.920094
vt 0.627425 0.456986
vt 0.615634 0.460817
vt 0.621842 0.500019
vt 0.634240 0.500019
vt 0.440992 0.621674
vt 0.394830 0.621674
vt 0.447035 0.809913
vt 0.470287 0.809913
vt 0.500019 0.809913
vt 0.500019 0.621674
vt 0.540197 0.621674
vt 0.520256 0.809913
vt 0.456490 0.809913
vt 0.484740 0.809913
vt 0.474645 0.621674
vt 0.418561 0.621674
vt 0.483742 0.429036
vt 0.484676 0.434935
vt 0.515348 0.437347
vt 0.517193 0.431666
vt 0.541274 0.097299
vt 0.500019 0.097299
vt 0.500019 0.011781
vt 0.546162 0.011781
vt 0.500019 0.846781
vt 0.481223 0.846781
vt 0.407784 -0.041331
vt 0.407214 0.011781
vt 0.471626 0.011781
vt 0.452858 0.442037
vt 0.457523 0.448457
vt 0.545661 0.449342
vt 0.540049 0.454954
vt 0.436799 -0.060806
vt 0.500019 -0.041331
vt 0.500019 -0.060806
vt 0.398793 0.550630
vt 0.455780 0.550630
vt 0.478319 0.394799
vt 0.545863 -0.041331
vt 0.459446 0.133373
vt 0.458763 0.097299
vt 0.387358 -0.060806
vt 0.527631 0.846781
vt 0.517193 0.893401
vt 0.547526 0.905754
vt 0.545803 0.893401
vt 0.515222 0.809913
vt 0.535163 0.621674
vt 0.586920 0.621674
vt 0.541292 0.809913
vt 0.451308 0.905754
vt 0.452858 0.919680
vt 0.451658 0.477943
vt 0.456817 0.480571
vt 0.452147 0.500019
vt 0.446357 0.500019
vt 0.599885 -0.041331
vt 0.600570 0.011781
vt 0.541128 0.011781
vt 0.615634 0.539220
vt 0.627425 0.543051
vt 0.513780 0.846781
vt 0.514133 0.872150
vt 0.538800 0.872150
vt 0.537992 0.846781
vt 0.439410 0.097299
vt 0.416512 0.097299
vt 0.474100 0.097299
vt 0.396519 0.296183
vt 0.454786 0.296183
vt 0.534186 0.379369
vt 0.584783 0.410220
vt 0.593451 0.401552
vt 0.538017 0.367578
vt 0.527562 0.399756
vt 0.472590 0.550630
vt 0.410838 0.550630
vt 0.587822 0.133373
vt 0.454174 -0.041331
vt 0.453875 0.011781
vt 0.480870 0.872150
vt 0.500019 0.550630
vt 0.545661 0.919680
vt 0.536240 0.097299
vt 0.589384 0.097299
vt 0.435028 0.550630
vt 0.485470 0.846781
vt 0.555598 0.480324
vt 0.563146 0.477872
vt 0.566654 0.500019
vt 0.558718 0.500019
vt 0.529750 0.809913
vt 0.559045 0.621674
vt 0.563146 0.522166
vt 0.545661 0.550695
vt 0.540049 0.545084
vt 0.555598 0.519713
vt 0.593451 -0.060806
vt 0.584783 0.589817
vt 0.593451 0.598485
vt 0.519466 0.920094
vt 0.518697 0.900206
vt 0.567809 0.011781
vt 0.620825 0.011781
vt 0.483742 0.893401
vt 0.452741 0.893401
vt 0.515348 0.891400
vt 0.541579 0.891400
vt 0.541232 0.484992
vt 0.535725 0.486781
vt 0.517131 0.568180
vt 0.514679 0.560632
vt 0.459233 0.846781
vt 0.553330 0.891400
vt 0.550151 0.872150
vt 0.559624 0.133373
vt 0.606239 0.133373
vt 0.483742 0.571002
vt 0.484676 0.565102
vt 0.456252 0.553330
vt 0.452741 0.558162
vt 0.370910 0.436799
vt 0.355729 0.500019
vt 0.368126 0.500019
vt 0.478319 0.605238
vt 0.527562 0.600281
vt 0.570313 0.575347
vt 0.595246 0.532596
vt 0.595247 0.467441
vt 0.570313 0.424690
vt 0.389563 0.500019
vt 0.400065 0.548383
vt 0.433019 0.585307
vt 0.470926 0.900206
vt 0.469729 0.920094
vt 0.533304 0.900206
vt 0.534675 0.920094
vt 0.487378 0.451991
vt 0.488283 0.457710
vt 0.469805 0.465363
vt 0.466402 0.460678
vt 0.381832 0.557673
vt 0.532555 0.919680
vt 0.558000 0.919680
vt 0.560881 0.500019
vt 0.566854 0.500019
vt 0.563337 0.477810
vt 0.557656 0.479655
vt 0.436272 0.529934
vt 0.430950 0.532646
vt 0.479655 0.891400
vt 0.453424 0.891400
vt 0.456203 0.872150
vt 0.423315 0.500019
vt 0.431251 0.500019
vt 0.591954 0.621674
vt 0.546326 0.809913
vt 0.407783 -0.041331
vt 0.441875 0.893401
vt 0.439903 0.905754
vt 0.466285 0.905754
vt 0.467391 0.893401
vt 0.393798 0.133373
vt 0.381599 0.296183
vt 0.442037 0.919680
vt 0.467482 0.919680
vt 0.605604 0.011781
vt 0.594418 0.097299
vt 0.545251 0.296183
vt 0.544257 0.550630
vt 0.485015 0.562966
vt 0.451658 0.522094
vt 0.466402 0.539359
vt 0.487378 0.548046
vt 0.510011 0.546266
vt 0.529368 0.534403
vt 0.541232 0.515045
vt 0.438199 0.471085
vt 0.431128 0.467482
vt 0.525274 0.530308
vt 0.508222 0.540759
vt 0.522981 0.905754
vt 0.552560 0.905754
vt 0.550695 0.919680
vt 0.522166 0.919680
vt 0.392011 0.097299
vt 0.413132 -0.060806
vt 0.603518 0.296183
vt 0.601244 0.550630
vt 0.429088 0.500019
vt 0.423115 0.500019
vt 0.543612 0.500019
vt 0.549226 0.846781
vt 0.560627 0.097299
vt 0.608026 0.097299
vt 0.553002 0.809913
vt 0.469805 0.534675
vt 0.488283 0.542327
vt 0.483773 0.570804
vt 0.541579 0.546613
vt 0.545803 0.550837
vt 0.563337 0.522228
vt 0.557656 0.520382
vt 0.456817 0.519466
vt 0.537822 0.500019
vt 0.384201 0.550630
vt 0.543026 0.846781
vt 0.518814 0.846781
vt 0.543834 0.872150
vt 0.519167 0.872150
vt 0.534186 0.620668
vt 0.538017 0.632459
vt 0.407181 0.133373
vt 0.604919 -0.041331
vt 0.500019 0.893401
vt 0.477810 0.893401
vt 0.543051 -0.060806
vt 0.598485 -0.060806
vt 0.475118 0.625449
vt 0.420419 0.602649
vt 0.413132 0.612679
vt 0.473201 0.637556
vt 0.447477 0.905754
vt 0.449200 0.893401
vt 0.541579 0.453424
vt 0.545803 0.449200
vt 0.405619 0.097299
vt 0.540591 0.133373
vt 0.592856 0.133373
vt 0.394433 0.011781
vt 0.395118 -0.041331
vt 0.449342 0.919680
vt 0.456986 -0.060806
vt 0.550837 0.893401
vt 0.522228 0.893401
vt 0.513256 0.920094
vt 0.512733 0.900206
vt 0.605207 0.621674
vt 0.401552 -0.060806
vt 0.370910 0.563238
vt 0.520382 0.891400
vt 0.535725 0.513256
vt 0.517193 0.568371
vt 0.515348 0.562690
vt 0.457011 0.846781
vt 0.530308 0.920094
vt 0.529111 0.900206
vt 0.452740 0.893401
vt 0.546613 0.891400
vt 0.436272 0.470103
vt 0.456252 0.446707
vt 0.452740 0.441875
vt 0.430950 0.467391
s 1
usemtl Cola
f 97/1/1 95/2/2 90/3/3 94/4/4
f 175/5/5 38/6/6 56/7/7 183/8/8
f 155/9/9 197/10/10 207/11/11 161/12/12
f 254/13/13 276/14/14 284/15/15 260/16/16
f 164/17/17 18/18/18 12/19/18 157/20/17
f 47/21/19 58/22/20 186/23/21 180/24/22
f 283/25/23 271/26/24 282/27/25 291/28/26
f 281/29/27 279/30/28 256/31/29 259/32/30
f 261/33/31 263/34/32 286/35/33 285/36/34
f 175/5/5 183/8/8 258/37/35 250/38/36
f 103/39/37 123/40/38 83/41/39 64/42/40
f 223/43/41 198/44/42 208/45/43 229/46/44
f 222/47/45 233/48/46 240/49/47 228/50/48
f 32/51/49 40/52/50 44/53/51 41/54/51
f 212/55/52 238/56/53 242/57/54 217/58/55
f 30/59/56 26/60/56 4/61/57 6/62/57
f 235/63/58 225/64/58 202/65/59 210/66/59
f 167/67/60 163/68/61 17/69/62 22/70/63
f 232/71/64 247/72/65 268/73/66 264/74/67
f 113/75/68 114/76/69 55/7/70 52/77/71
f 192/78/72 190/79/72 200/80/73 204/81/73
f 26/82/74 24/83/74 2/84/75 4/85/75
f 221/86/76 196/87/77 198/44/42 223/43/41
f 172/88/78 180/89/22 255/90/79 247/72/65
f 150/91/80 148/92/80 190/93/72 192/94/72
f 132/95/81 121/96/82 126/97/83 138/98/84
f 269/99/85 249/100/86 206/101/87 226/102/88
f 87/103/89 129/104/90 122/105/91 82/106/92
f 205/107/93 159/108/94 173/109/95 248/110/96
f 166/111/97 162/112/97 16/113/98 19/114/98
f 127/115/99 133/116/100 146/117/101 141/118/102
f 83/41/39 87/103/89 80/119/103 75/120/104
f 185/23/105 260/121/16 262/122/106 187/123/107
f 211/124/108 164/17/17 157/20/17 201/125/109
f 69/126/110 54/127/110 12/19/18 18/18/18
f 275/128/111 285/36/34 292/129/112 289/130/113
f 123/40/38 103/39/37 112/131/114 135/132/115
f 232/71/64 170/133/116 172/88/78 247/72/65
f 145/129/117 139/134/118 141/118/102 146/117/101
f 125/135/119 128/136/120 133/116/100 130/25/121
f 255/137/79 261/33/31 285/36/34 275/128/111
f 230/119/122 233/48/46 222/47/45 220/138/123
f 20/139/124 22/70/63 72/140/125 70/141/126
f 115/76/127 112/75/114 51/77/128 56/7/7
f 14/142/129 35/143/130 103/144/37 64/145/40
f 167/67/60 217/146/55 210/147/131 163/68/61
f 223/43/41 229/46/44 240/49/47 233/48/46
f 216/148/132 204/149/132 214/150/133 219/151/133
f 63/145/134 102/144/135 36/143/136 13/142/137
f 117/152/138 119/153/139 60/154/140 58/22/20
f 138/98/84 126/97/83 120/155/141 131/156/142
f 7/157/143 9/158/144 49/159/145 45/160/146
f 293/117/147 286/35/33 273/161/148 288/116/149
f 187/123/107 262/122/106 253/162/150 178/163/151
f 115/164/127 137/165/152 135/132/115 112/131/114
f 34/166/153 101/167/154 109/168/155 47/169/19
f 170/133/116 28/170/156 34/166/153 172/88/78
f 248/110/96 173/109/95 181/171/157 256/172/29
f 55/7/70 114/76/69 104/173/158 37/6/159
f 140/174/160 145/129/117 146/117/101 142/175/161
f 77/176/162 75/120/104 80/119/103 81/48/163
f 123/40/38 135/132/115 143/177/164 129/104/90
f 72/140/125 22/70/63 17/69/62 68/178/165
f 59/154/166 42/179/167 106/180/168 118/153/169
f 146/117/101 133/116/100 128/136/120 142/175/161
f 278/181/170 269/99/85 280/104/171 290/177/172
f 177/163/173 175/5/5 250/38/36 252/162/174
f 13/142/137 159/108/94 154/182/175 7/157/143
f 204/81/73 200/80/73 209/54/176 214/53/176
f 221/86/76 223/43/41 233/48/46 230/119/122
f 78/183/177 90/184/178 95/185/179 86/186/179
f 227/187/180 270/188/181 280/104/171 239/103/182
f 89/189/183 68/190/184 53/191/184 79/192/185
f 116/152/186 108/193/187 48/21/188 57/22/189
f 184/8/190 181/171/157 52/77/71 55/7/70
f 58/22/20 60/154/140 188/123/191 186/23/21
f 120/155/141 100/194/192 108/195/187 131/156/142
f 203/196/193 214/53/176 209/54/176 199/197/193
f 284/15/15 287/198/194 262/199/106 260/16/16
f 172/88/78 34/166/153 47/169/19 180/89/22
f 51/77/128 35/143/130 174/109/195 182/171/196
f 165/200/197 212/201/52 217/146/55 167/67/60
f 49/159/145 9/158/144 15/202/198 65/203/199
f 62/204/200 40/205/201 26/60/56 30/59/56
f 68/190/184 17/206/202 11/207/202 53/191/184
f 19/139/203 71/141/204 73/140/205 21/70/206
f 205/107/93 195/208/207 154/182/175 159/108/94
f 137/165/152 125/135/119 130/25/121 144/28/208
f 188/123/191 177/163/173 252/162/174 263/122/32
f 164/68/209 168/67/210 21/70/206 18/69/211
f 222/47/45 228/50/48 207/209/11 197/210/10
f 272/211/212 281/29/27 259/32/30 251/212/213
f 165/213/214 161/214/214 207/215/215 212/216/215
f 275/217/111 289/218/113 277/219/216 268/73/66
f 169/220/217 27/221/218 98/222/219 110/223/220 111/224/221 99/225/222 28/170/156 170/133/116 232/71/64 264/74/67 266/226/223 265/227/224 231/228/225
f 40/52/50 32/51/49 24/229/74 26/230/74
f 153/182/226 156/9/227 198/10/42 196/208/77
f 189/231/228 191/232/228 203/196/193 199/197/193
f 153/182/226 8/157/229 10/158/230 156/9/227
f 183/8/8 182/171/196 257/172/231 258/37/35
f 152/233/232 150/234/232 192/235/233 194/236/233
f 266/226/223 277/219/216 267/237/234 265/227/224
f 242/57/54 235/238/235 210/239/131 217/58/55
f 88/240/236 96/241/236 92/242/237 85/243/238
f 228/244/239 238/245/239 212/216/215 207/215/215
f 174/109/195 249/110/86 257/172/231 182/171/196
f 156/9/227 162/12/240 208/11/43 198/10/42
f 85/246/241 66/247/242 50/248/243 77/176/162
f 235/63/58 243/249/244 234/250/244 225/64/58
f 102/251/135 63/252/134 82/106/92 122/105/91
f 186/23/21 188/123/191 263/122/32 261/253/31
f 213/254/245 218/255/246 241/256/247 237/257/248
f 86/186/179 95/185/179 89/189/183 79/192/185
f 250/258/36 258/259/35 282/27/25 271/26/24
f 160/108/249 153/182/226 196/208/77 206/107/87
f 241/256/247 218/255/246 211/260/250 236/261/251
f 141/118/102 118/262/169 106/263/168 127/115/99
f 57/22/189 185/23/105 187/123/107 59/154/166
f 144/28/208 136/264/252 134/265/253 143/177/164
f 102/144/135 113/75/68 52/77/71 36/143/136
f 158/266/254 202/65/254 225/64/254 234/250/255 219/151/255 215/267/254 193/268/254 151/269/254 5/270/254 29/271/254 61/272/256 79/192/257 53/191/254 11/207/254
f 48/21/188 179/24/258 185/23/105 57/22/189
f 264/74/67 268/73/66 277/219/216 266/226/223
f 224/273/259 236/274/259 211/124/108 201/125/109
f 129/104/90 143/177/164 134/265/253 122/105/91
f 273/161/148 271/26/24 283/25/23 288/116/149
f 10/158/230 50/159/243 66/203/242 16/202/260
f 191/94/228 189/93/228 147/92/261 149/91/261
f 25/275/262 29/271/262 5/270/263 3/276/263
f 93/277/264 72/278/125 68/279/165 89/280/265
f 251/38/213 259/37/30 184/8/190 176/5/266
f 263/34/32 252/281/174 273/161/148 286/35/33
f 245/1/267 243/2/268 235/238/235 242/57/54
f 154/182/175 195/208/207 197/10/10 155/9/9
f 178/163/151 253/162/150 251/38/213 176/5/266
f 254/282/13 260/121/16 185/23/105 179/24/258
f 114/283/69 113/284/68 134/265/253 136/264/252
f 1/84/269 3/85/269 149/91/261 147/92/261
f 238/245/239 228/244/239 240/285/270 244/286/270
f 290/177/172 280/104/171 270/188/181 279/30/28
f 79/192/257 61/272/256 67/287/271 62/204/271 30/59/271 6/62/271 152/233/271 194/236/271 216/148/271 219/151/255 234/250/255 224/273/271 201/125/271 157/20/271 12/19/271 54/127/271 78/183/271 86/186/271
f 19/139/203 21/70/206 168/67/210 166/200/272
f 220/138/123 222/47/45 197/210/10 195/288/207
f 282/27/25 278/181/170 290/177/172 291/28/26
f 69/126/110 90/184/178 78/183/177 54/127/110
f 274/289/273 272/211/212 251/212/213 253/290/150
f 205/291/93 227/187/180 220/138/123 195/288/207
f 151/269/274 193/268/275 191/292/275 149/293/274
f 163/294/276 158/266/276 11/207/202 17/206/202
f 65/295/277 70/296/277 91/297/278 84/298/279
f 84/298/279 91/297/278 96/241/236 88/240/236
f 46/160/280 50/159/243 10/158/230 8/157/229
f 215/267/281 219/151/133 214/150/133 203/299/281
f 62/204/200 67/287/282 44/300/282 40/205/201
f 272/211/212 283/25/23 291/28/26 281/29/27
f 109/193/155 117/152/138 58/22/20 47/21/19
f 113/284/68 102/251/135 122/105/91 134/265/253
f 159/108/94 13/142/137 36/143/136 173/109/95
f 291/28/26 290/177/172 279/30/28 281/29/27
f 13/142/137 7/157/143 45/160/146 63/145/134
f 257/301/231 249/100/86 269/99/85 278/181/170
f 226/102/88 221/86/76 230/119/122 239/103/182
f 63/252/134 45/302/146 74/303/283 82/106/92
f 184/8/190 259/37/30 256/172/29 181/171/157
f 57/22/189 59/154/166 118/153/169 116/152/186
f 188/123/191 60/154/140 43/179/284 177/163/173
f 129/104/90 87/103/89 83/41/39 123/40/38
f 236/274/259 224/273/259 234/250/244 243/249/244
f 45/302/146 49/304/145 76/305/285 74/303/283
f 218/146/246 168/67/210 164/68/209 211/147/250
f 35/143/130 51/77/128 112/75/114 103/144/37
f 56/7/7 51/77/128 182/171/196 183/8/8
f 119/153/139 107/180/286 43/179/284 60/154/140
f 239/103/182 230/119/122 220/138/123 227/187/180
f 33/306/287 48/307/188 108/195/187 100/194/192
f 245/1/267 241/256/247 236/261/251 243/2/268
f 43/179/284 38/6/6 175/5/5 177/163/173
f 125/135/119 137/165/152 115/164/127 105/308/288
f 141/118/102 139/134/118 116/309/186 118/262/169
f 255/90/79 275/217/111 268/73/66 247/72/65
f 160/108/249 174/109/195 35/143/130 14/142/129
f 184/8/190 55/7/70 37/6/159 176/5/266
f 152/233/232 6/62/57 4/61/57 150/234/232
f 96/310/289 97/1/1 94/4/4 92/311/290
f 131/312/142 108/313/187 116/309/186 139/134/118
f 171/314/291 246/315/292 254/316/13 179/317/258
f 73/318/205 71/319/204 92/311/290 94/4/4
f 158/266/276 163/294/276 210/66/59 202/65/59
f 160/108/249 206/107/87 249/110/86 174/109/195
f 100/194/192 98/222/219 27/221/218 33/306/287
f 66/320/293 71/321/293 19/114/98 16/113/98
f 128/136/120 125/135/119 105/308/288 107/322/286
f 114/283/69 136/264/252 124/323/294 104/324/158
f 36/143/136 52/77/71 181/171/157 173/109/95
f 169/220/217 171/314/291 33/306/287 27/221/218
f 140/174/160 142/175/161 119/325/139 117/326/138
f 187/123/107 178/163/151 42/179/167 59/154/166
f 153/182/226 160/108/249 14/142/129 8/157/229
f 73/318/205 94/4/4 90/3/3 69/327/295
f 124/323/294 136/264/252 144/28/208 130/25/121
f 265/227/224 267/237/234 246/315/292 231/228/225
f 138/130/84 145/129/117 140/174/160 132/328/81
f 252/281/174 250/258/36 271/26/24 273/161/148
f 70/329/126 72/278/125 93/277/264 91/330/296
f 101/167/154 121/96/82 132/95/81 109/168/155
f 41/54/51 44/53/51 39/331/297 31/332/298
f 137/165/152 144/28/208 143/177/164 135/132/115
f 289/130/113 292/129/112 284/15/15 276/14/14
f 279/30/28 270/188/181 248/333/96 256/31/29
f 42/179/167 37/6/159 104/173/158 106/180/168
f 132/328/81 140/174/160 117/326/138 109/334/155
f 145/129/117 138/130/84 131/312/142 139/134/118
f 280/104/171 269/99/85 226/102/88 239/103/182
f 10/158/230 16/202/260 162/12/240 156/9/227
f 124/323/294 130/25/121 133/116/100 127/115/99
f 221/86/76 226/102/88 206/101/87 196/87/77
f 120/155/141 126/97/83 121/96/82 111/224/221 110/223/220
f 246/315/292 267/237/234 276/335/14 254/316/13
f 33/306/287 171/314/291 179/317/258 48/307/188
f 80/119/103 74/303/283 76/305/285 81/48/163
f 244/310/299 245/1/267 242/57/54 238/56/53
f 88/49/300 81/48/163 76/305/285 84/336/301
f 61/272/302 29/271/262 25/275/262 39/337/303
f 289/218/113 276/335/14 267/237/234 277/219/216
f 194/236/233 192/235/233 204/149/132 216/148/132
f 180/24/22 186/23/21 261/253/31 255/282/79
f 142/175/161 128/136/120 107/322/286 119/325/139
f 93/277/264 97/1/1 96/310/289 91/330/296
f 7/157/143 154/182/175 155/9/9 9/158/144
f 155/9/9 161/12/12 15/202/198 9/158/144
f 64/145/40 46/160/280 8/157/229 14/142/129
f 161/214/214 165/213/214 20/338/304 15/339/304
f 75/120/104 77/176/162 50/248/243 46/340/280
f 83/41/39 75/120/104 46/340/280 64/42/40
f 15/339/304 20/338/304 70/296/277 65/295/277
f 148/92/80 150/91/80 4/85/75 2/84/75
f 165/200/197 167/67/60 22/70/63 20/139/124
f 66/320/293 85/243/238 92/242/237 71/321/293
f 287/198/194 284/15/15 292/129/112 293/117/147
f 227/187/180 205/291/93 248/333/96 270/188/181
f 25/341/305 23/342/305 31/332/298 39/331/297
f 166/200/272 168/67/210 218/146/246 213/343/245
f 178/163/151 176/5/266 37/6/159 42/179/167
f 107/180/286 105/173/288 38/6/6 43/179/284
f 25/82/305 3/85/269 1/84/269 23/83/305
f 67/287/282 61/272/302 39/337/303 44/300/282
f 82/106/92 74/303/283 80/119/103 87/103/89
f 115/76/127 56/7/7 38/6/6 105/173/288
f 76/305/285 49/304/145 65/344/199 84/336/301
f 99/225/222 101/167/154 34/166/153 28/170/156
f 127/115/99 106/263/168 104/324/158 124/323/294
f 73/140/205 69/178/295 18/69/211 21/70/206
f 111/224/221 121/96/82 101/167/154 99/225/222
f 287/198/194 274/289/273 253/290/150 262/199/106
f 151/269/274 149/293/274 3/276/263 5/270/263
f 85/246/241 77/176/162 81/48/163 88/49/300
f 95/2/2 97/1/1 93/277/264 89/280/265
f 229/345/306 208/346/307 213/347/307 237/348/306
f 288/116/149 283/25/23 272/211/212 274/289/273
f 215/267/281 203/299/281 191/292/275 193/268/275
f 98/222/219 100/194/192 120/155/141 110/223/220
f 229/345/306 237/348/306 244/286/270 240/285/270
f 231/228/225 246/315/292 171/314/291 169/220/217
f 162/112/97 166/111/97 213/347/307 208/346/307
f 237/257/248 241/256/247 245/1/267 244/310/299
f 293/117/147 288/116/149 274/289/273 287/198/194
f 285/36/34 286/35/33 293/117/147 292/129/112
f 282/27/25 258/259/35 257/301/231 278/181/170
