# Blender 5.0.1
# www.blender.org
o Plane
v -2.000000 0.000000 1.000000
v 2.000000 0.000000 1.000000
v -2.000000 0.000000 -1.000000
v 2.000000 0.000000 -1.000000
v -2.000000 0.250000 1.000000
v 2.000000 0.250000 1.000000
v -2.000000 0.250000 -1.000000
v 2.000000 0.250000 -1.000000
vn -0.0000 -1.0000 -0.0000
vn -0.0000 1.0000 -0.0000
vn 1.0000 -0.0000 -0.0000
vn -1.0000 -0.0000 -0.0000
vn -0.0000 -0.0000 -1.0000
vn -0.0000 -0.0000 1.0000
vt 0.022632 0.237476
vt 0.023333 0.481274
vt 0.582136 0.481274
vt 0.582136 0.237476
s 0
f 1/1/1 3/2/1 4/3/1 2/4/1
f 5/1/2 6/4/2 8/3/2 7/2/2
f 2/4/3 4/3/3 8/3/3 6/4/3
f 3/2/4 1/1/4 5/1/4 7/2/4
f 4/3/5 3/2/5 7/2/5 8/3/5
f 1/1/6 2/4/6 6/4/6 5/1/6
